v 0.0171393 -0.00225838 -0.00562759
v 0.017 -0.00219342 -0.00543949
v 0.017 -0.00222673 -0.00542687
v 0.017 -0.00212485 -0.00545871
v 0.0171393 -0.00230272 -0.00561079
v 0.0171393 -0.00216711 -0.00565317
v 0.017 -0.0020545 -0.00546968
v 0.0171393 -0.00207346 -0.00566777
v 0.017 -0.00198334 -0.00547225
v 0.0171393 -0.00197873 -0.0056712
v 0.017 -0.00191237 -0.00546639
v 0.0171393 -0.00188427 -0.00566339
v 0.017 -0.0018426 -0.00545218
v 0.0171393 -0.00179139 -0.00564448
v 0.017 -0.00177499 -0.00542981
v 0.0171393 -0.0017014 -0.0056147
v 0.017 -0.00171051 -0.0053996
v 0.0171393 -0.00161557 -0.0055745
v 0.017 -0.00165005 -0.00536198
v 0.0171393 -0.00153509 -0.00552442
v 0.017 -0.00159446 -0.00531748
v 0.0171393 -0.0014611 -0.00546518
v 0.017 -0.00154453 -0.00526671
v 0.0171393 -0.00139464 -0.0053976
v 0.017 -0.00150096 -0.00521039
v 0.0171393 -0.00133663 -0.00532264
v 0.017 -0.00146435 -0.00514932
v 0.0171393 -0.0012879 -0.00524134
v 0.017 -0.00143522 -0.00508434
v 0.0171393 -0.00124913 -0.00515485
v 0.017 -0.00141398 -0.00501638
v 0.0171393 -0.00122086 -0.00506438
v 0.017 -0.00140093 -0.00494637
v 0.0171393 -0.00120348 -0.0049712
v 0.017 -0.00139625 -0.00487532
v 0.0171393 -0.00119725 -0.00487662
v 0.017 -0.0014 -0.00480421
v 0.0171393 -0.00120225 -0.00478196
v 0.017 -0.00141214 -0.00473405
v 0.0171393 -0.00121841 -0.00468857
v 0.017 -0.0014325 -0.00466581
v 0.0171393 -0.0012455 -0.00459774
v 0.017 -0.00146078 -0.00460046
v 0.0171393 -0.00128315 -0.00451075
v 0.017 -0.00149659 -0.00453891
v 0.0171393 -0.00133082 -0.00442882
v 0.017 -0.00153943 -0.00448204
v 0.0171393 -0.00138784 -0.00435311
v 0.017 -0.00158869 -0.00443062
v 0.0171393 -0.00145342 -0.00428467
v 0.017 -0.0016437 -0.0043854
v 0.0171393 -0.00152663 -0.00422447
v 0.017 -0.00170366 -0.00434699
v 0.0171393 -0.00160645 -0.00417335
v 0.017 -0.00176774 -0.00431595
v 0.0171393 -0.00169176 -0.00413203
v 0.017 -0.00183505 -0.00429271
v 0.0171393 -0.00178135 -0.00410109
v 0.017 -0.00190463 -0.00427759
v 0.0171393 -0.00187397 -0.00408096
v 0.017 -0.00197552 -0.0042708
v 0.0171393 -0.00196833 -0.00407193
v 0.017 -0.00204671 -0.00427245
v 0.0171393 -0.00206309 -0.00407413
v 0.017 -0.0021172 -0.00428251
v 0.0171393 -0.00215692 -0.00408751
v 0.017 -0.00218601 -0.00430083
v 0.0171393 -0.00224852 -0.0041119
v 0.017 -0.00225217 -0.00432716
v 0.0171393 -0.00233658 -0.00414695
v 0.017 -0.00231475 -0.00436113
v 0.0171393 -0.00241988 -0.00419217
v 0.017 -0.00237287 -0.00440227
v 0.0171393 -0.00249725 -0.00424693
v 0.017 -0.00242572 -0.00444999
v 0.0171393 -0.0025676 -0.00431045
v 0.017 -0.00247256 -0.00450362
v 0.0171393 -0.00262995 -0.00438184
v 0.017 -0.00251272 -0.00456242
v 0.0171393 -0.00268341 -0.00446011
v 0.017 -0.00254565 -0.00462556
v 0.0171393 -0.00272724 -0.00454416
v 0.017 -0.00257088 -0.00469215
v 0.0171393 -0.00276082 -0.00463279
v 0.017 -0.00258805 -0.00476125
v 0.0171393 -0.00278368 -0.00472478
v 0.017 -0.00259694 -0.0048319
v 0.0171393 -0.00279551 -0.00481882
v 0.017 -0.0025974 -0.00490311
v 0.0171393 -0.00279612 -0.00491361
v 0.017 -0.00258944 -0.00497387
v 0.0171393 -0.00278552 -0.0050078
v 0.017 -0.00257316 -0.00504319
v 0.0171393 -0.00276386 -0.00510007
v 0.017 -0.0025488 -0.0051101
v 0.0171393 -0.00273144 -0.00518914
v 0.017 -0.0025167 -0.00517366
v 0.0171393 -0.0026887 -0.00527374
v 0.017 -0.00247731 -0.00523298
v 0.0171393 -0.00263626 -0.0053527
v 0.017 -0.00243117 -0.00528722
v 0.0171393 -0.00257486 -0.00542491
v 0.017 -0.00237895 -0.00533563
v 0.0171393 -0.00250534 -0.00548934
v 0.017 -0.00232136 -0.00537752
v 0.0171393 -0.00242869 -0.00554509
v 0.017 -0.00225923 -0.0054123
v 0.0171393 -0.00234598 -0.00559139
vn -0.819152 -0.187231 -0.542157
vn -0.819152 -0.187231 -0.542157
vn -0.819152 -0.21902 -0.530113
vn -0.819152 -0.121794 -0.560496
vn -0.819152 -0.21902 -0.530113
vn -0.819152 -0.121794 -0.560496
vn -0.819152 -0.0546475 -0.570967
vn -0.819152 -0.0546475 -0.570967
vn -0.819152 0.0132662 -0.573423
vn -0.819152 0.0132662 -0.573423
vn -0.819152 0.0809936 -0.567829
vn -0.819152 0.0809936 -0.567829
vn -0.819152 0.147584 -0.554264
vn -0.819152 0.147584 -0.554264
vn -0.819152 0.212103 -0.532919
vn -0.819152 0.212103 -0.532919
vn -0.819152 0.273644 -0.504092
vn -0.819152 0.273644 -0.504092
vn -0.819152 0.331344 -0.468189
vn -0.819152 0.331344 -0.468189
vn -0.819152 0.384392 -0.425714
vn -0.819152 0.384392 -0.425714
vn -0.819152 0.432045 -0.377263
vn -0.819152 0.432045 -0.377263
vn -0.819152 0.473633 -0.323515
vn -0.819152 0.473633 -0.323515
vn -0.819152 0.508571 -0.265227
vn -0.819152 0.508571 -0.265227
vn -0.819152 0.536371 -0.203215
vn -0.819152 0.536371 -0.203215
vn -0.819152 0.556641 -0.13835
vn -0.819152 0.556641 -0.13835
vn -0.819152 0.569097 -0.0715432
vn -0.819152 0.569097 -0.0715432
vn -0.819152 0.573564 -0.00373209
vn -0.819152 0.573564 -0.00373209
vn -0.819152 0.56998 0.0641314
vn -0.819152 0.56998 0.0641314
vn -0.819152 0.558394 0.131095
vn -0.819152 0.558394 0.131095
vn -0.819152 0.53897 0.196217
vn -0.819152 0.53897 0.196217
vn -0.819152 0.51198 0.258586
vn -0.819152 0.51198 0.258586
vn -0.819152 0.477802 0.317324
vn -0.819152 0.477802 0.317324
vn -0.819152 0.436918 0.371608
vn -0.819152 0.436918 0.371608
vn -0.819152 0.3899 0.420676
vn -0.819152 0.3899 0.420676
vn -0.819152 0.337408 0.463838
vn -0.819152 0.337408 0.463838
vn -0.819152 0.280181 0.500488
vn -0.819152 0.280181 0.500488
vn -0.819152 0.21902 0.530113
vn -0.819152 0.21902 0.530113
vn -0.819152 0.154784 0.552297
vn -0.819152 0.154784 0.552297
vn -0.819152 0.088376 0.566727
vn -0.819152 0.088376 0.566727
vn -0.819152 0.0207271 0.573202
vn -0.819152 0.0207271 0.573202
vn -0.819152 -0.0472128 0.57163
vn -0.819152 -0.0472128 0.57163
vn -0.819152 -0.11449 0.562034
vn -0.819152 -0.11449 0.562034
vn -0.819152 -0.18016 0.544548
vn -0.819152 -0.18016 0.544548
vn -0.819152 -0.243301 0.519418
vn -0.819152 -0.243301 0.519418
vn -0.819152 -0.303026 0.486996
vn -0.819152 -0.303026 0.486996
vn -0.819152 -0.358498 0.447738
vn -0.819152 -0.358498 0.447738
vn -0.819152 -0.408937 0.402195
vn -0.819152 -0.408937 0.402195
vn -0.819152 -0.453635 0.351005
vn -0.819152 -0.453635 0.351005
vn -0.819152 -0.491966 0.294889
vn -0.819152 -0.491966 0.294889
vn -0.819152 -0.52339 0.234633
vn -0.819152 -0.52339 0.234633
vn -0.819152 -0.547467 0.171083
vn -0.819152 -0.547467 0.171083
vn -0.819152 -0.563859 0.105131
vn -0.819152 -0.563859 0.105131
vn -0.819152 -0.572336 0.0377038
vn -0.819152 -0.572336 0.0377038
vn -0.819152 -0.572778 -0.0302528
vn -0.819152 -0.572778 -0.0302528
vn -0.819152 -0.56518 -0.0977847
vn -0.819152 -0.56518 -0.0977847
vn -0.819152 -0.549647 -0.163944
vn -0.819152 -0.549647 -0.163944
vn -0.819152 -0.526399 -0.227802
vn -0.819152 -0.526399 -0.227802
vn -0.819152 -0.495762 -0.288462
vn -0.819152 -0.495762 -0.288462
vn -0.819152 -0.458165 -0.345072
vn -0.819152 -0.458165 -0.345072
vn -0.819152 -0.414136 -0.396839
vn -0.819152 -0.414136 -0.396839
vn -0.819152 -0.364294 -0.443035
vn -0.819152 -0.364294 -0.443035
vn -0.819152 -0.309338 -0.483011
vn -0.819152 -0.309338 -0.483011
vn -0.819152 -0.250039 -0.516208
vn -0.819152 -0.250039 -0.516208


f 1/1/1 3/3/3 2/2/2
f 1/1/1 2/2/2 4/4/4
f 1/1/1 5/5/5 3/3/3
f 6/6/6 1/1/1 4/4/4
f 6/6/6 4/4/4 7/7/7
f 8/8/8 6/6/6 7/7/7
f 8/8/8 7/7/7 9/9/9
f 10/10/10 8/8/8 9/9/9
f 10/10/10 9/9/9 11/11/11
f 12/12/12 10/10/10 11/11/11
f 12/12/12 11/11/11 13/13/13
f 14/14/14 12/12/12 13/13/13
f 14/14/14 13/13/13 15/15/15
f 16/16/16 14/14/14 15/15/15
f 16/16/16 15/15/15 17/17/17
f 18/18/18 16/16/16 17/17/17
f 18/18/18 17/17/17 19/19/19
f 20/20/20 18/18/18 19/19/19
f 20/20/20 19/19/19 21/21/21
f 22/22/22 20/20/20 21/21/21
f 22/22/22 21/21/21 23/23/23
f 24/24/24 22/22/22 23/23/23
f 24/24/24 23/23/23 25/25/25
f 26/26/26 24/24/24 25/25/25
f 26/26/26 25/25/25 27/27/27
f 28/28/28 26/26/26 27/27/27
f 28/28/28 27/27/27 29/29/29
f 30/30/30 28/28/28 29/29/29
f 30/30/30 29/29/29 31/31/31
f 32/32/32 30/30/30 31/31/31
f 32/32/32 31/31/31 33/33/33
f 34/34/34 32/32/32 33/33/33
f 34/34/34 33/33/33 35/35/35
f 36/36/36 34/34/34 35/35/35
f 36/36/36 35/35/35 37/37/37
f 38/38/38 36/36/36 37/37/37
f 38/38/38 37/37/37 39/39/39
f 40/40/40 38/38/38 39/39/39
f 40/40/40 39/39/39 41/41/41
f 42/42/42 40/40/40 41/41/41
f 42/42/42 41/41/41 43/43/43
f 44/44/44 42/42/42 43/43/43
f 44/44/44 43/43/43 45/45/45
f 46/46/46 44/44/44 45/45/45
f 46/46/46 45/45/45 47/47/47
f 48/48/48 46/46/46 47/47/47
f 48/48/48 47/47/47 49/49/49
f 50/50/50 48/48/48 49/49/49
f 50/50/50 49/49/49 51/51/51
f 52/52/52 50/50/50 51/51/51
f 52/52/52 51/51/51 53/53/53
f 54/54/54 52/52/52 53/53/53
f 54/54/54 53/53/53 55/55/55
f 56/56/56 54/54/54 55/55/55
f 56/56/56 55/55/55 57/57/57
f 58/58/58 56/56/56 57/57/57
f 58/58/58 57/57/57 59/59/59
f 60/60/60 58/58/58 59/59/59
f 60/60/60 59/59/59 61/61/61
f 62/62/62 60/60/60 61/61/61
f 62/62/62 61/61/61 63/63/63
f 64/64/64 62/62/62 63/63/63
f 64/64/64 63/63/63 65/65/65
f 66/66/66 64/64/64 65/65/65
f 66/66/66 65/65/65 67/67/67
f 68/68/68 66/66/66 67/67/67
f 68/68/68 67/67/67 69/69/69
f 70/70/70 68/68/68 69/69/69
f 70/70/70 69/69/69 71/71/71
f 72/72/72 70/70/70 71/71/71
f 72/72/72 71/71/71 73/73/73
f 74/74/74 72/72/72 73/73/73
f 74/74/74 73/73/73 75/75/75
f 76/76/76 74/74/74 75/75/75
f 76/76/76 75/75/75 77/77/77
f 78/78/78 76/76/76 77/77/77
f 78/78/78 77/77/77 79/79/79
f 80/80/80 78/78/78 79/79/79
f 80/80/80 79/79/79 81/81/81
f 82/82/82 80/80/80 81/81/81
f 82/82/82 81/81/81 83/83/83
f 84/84/84 82/82/82 83/83/83
f 84/84/84 83/83/83 85/85/85
f 86/86/86 84/84/84 85/85/85
f 86/86/86 85/85/85 87/87/87
f 88/88/88 86/86/86 87/87/87
f 88/88/88 87/87/87 89/89/89
f 90/90/90 88/88/88 89/89/89
f 90/90/90 89/89/89 91/91/91
f 92/92/92 90/90/90 91/91/91
f 92/92/92 91/91/91 93/93/93
f 94/94/94 92/92/92 93/93/93
f 94/94/94 93/93/93 95/95/95
f 96/96/96 94/94/94 95/95/95
f 96/96/96 95/95/95 97/97/97
f 98/98/98 96/96/96 97/97/97
f 98/98/98 97/97/97 99/99/99
f 100/100/100 98/98/98 99/99/99
f 100/100/100 99/99/99 101/101/101
f 102/102/102 100/100/100 101/101/101
f 102/102/102 101/101/101 103/103/103
f 104/104/104 102/102/102 103/103/103
f 104/104/104 103/103/103 105/105/105
f 106/106/106 104/104/104 105/105/105
f 106/106/106 105/105/105 107/107/107
f 108/108/108 106/106/106 107/107/107
f 108/108/108 107/107/107 5/5/5
f 5/5/5 107/107/107 3/3/3
