v 0.0121305 -0.00945716 0.00202949
v 0.0159151 -0.00974949 0.00180975
v 0.0122296 -0.00974949 0.00180975
v 0.0160141 -0.00945716 0.00202949
v 0.0160665 -0.009283 0.0021604
v 0.0161329 -0.00903124 0.00234965
v 0.016187 -0.00878089 0.00253784
v 0.0162282 -0.00853161 0.00272522
v 0.0120781 -0.009283 0.0021604
v 0.0120118 -0.00903124 0.00234965
v 0.0162561 -0.00828304 0.00291207
v 0.0119577 -0.00878089 0.00253784
v 0.0119165 -0.00853161 0.00272522
v 0.0162704 -0.00803481 0.00309867
v 0.0118885 -0.00828304 0.00291207
v 0.0118743 -0.00803481 0.00309867
v 0.0162723 -0.00790347 0.00319739
v 0.0118723 -0.00790347 0.00319739
v 0.0118793 -0.00765512 0.00338408
v 0.0119007 -0.00740109 0.00357503
v 0.0162654 -0.00765512 0.00338408
v 0.011939 -0.00712953 0.00377916
v 0.0119938 -0.00685274 0.00398723
v 0.016244 -0.00740109 0.00357503
v 0.0120654 -0.00656889 0.00420059
v 0.0121542 -0.00627614 0.00442065
v 0.0162056 -0.00712953 0.00377916
v 0.0161508 -0.00685274 0.00398723
v 0.0160792 -0.00656889 0.00420059
v 0.0159904 -0.00627614 0.00442065
v 0.0122296 -0.00605745 0.00458504
v 0.0159151 -0.00605745 0.00458504
v 0.0122138 -0.00919872 -0.00272031
v 0.0159151 -0.00919203 -0.00277529
v 0.0122296 -0.00919203 -0.00277529
v 0.0159309 -0.00919872 -0.00272031
v 0.0160299 -0.00924382 -0.00234936
v 0.0161112 -0.00928733 -0.00199149
v 0.0161755 -0.00932953 -0.0016444
v 0.0121148 -0.00924382 -0.00234936
v 0.0162232 -0.00937069 -0.00130585
v 0.0120334 -0.00928733 -0.00199149
v 0.0162548 -0.00941108 -0.000973649
v 0.0119691 -0.00932953 -0.0016444
v 0.0119214 -0.00937069 -0.00130585
v 0.0162704 -0.00945095 -0.000645695
v 0.0118899 -0.00941108 -0.000973649
v 0.0118743 -0.00945095 -0.000645695
v 0.0162723 -0.00947076 -0.000482768
v 0.0118723 -0.00947076 -0.000482768
v 0.0118734 -0.00948555 -0.000361131
v 0.0162712 -0.00948555 -0.000361131
v 0.0118858 -0.009523 -5.30661E-05
v 0.0162588 -0.009523 -5.30661E-05
v 0.0119118 -0.00956045 0.000254903
v 0.0119511 -0.00959794 0.000563259
v 0.0120031 -0.00963553 0.000872475
v 0.0120673 -0.00967329 0.00118301
v 0.0162328 -0.00956045 0.000254903
v 0.012143 -0.00971126 0.0014953
v 0.0161935 -0.00959794 0.000563259
v 0.0161415 -0.00963553 0.000872475
v 0.0160773 -0.00967329 0.00118301
v 0.0160016 -0.00971126 0.0014953
v 0.0122296 -0.00974949 0.00180975
v 0.0159151 -0.00974949 0.00180975
v 0.0122138 -0.0049935 -0.00456334
v 0.0159151 -0.00494255 -0.00458504
v 0.0122296 -0.00494255 -0.00458504
v 0.0159309 -0.0049935 -0.00456334
v 0.0160299 -0.0053373 -0.00441692
v 0.0161112 -0.00566898 -0.00427567
v 0.0161755 -0.00599067 -0.00413867
v 0.0121148 -0.0053373 -0.00441692
v 0.0162232 -0.00630445 -0.00400504
v 0.0120334 -0.00566898 -0.00427567
v 0.0162548 -0.00661233 -0.00387392
v 0.0119691 -0.00599067 -0.00413867
v 0.0119214 -0.00630445 -0.00400504
v 0.0162704 -0.00691629 -0.00374447
v 0.0118899 -0.00661233 -0.00387392
v 0.0118743 -0.00691629 -0.00374447
v 0.0162723 -0.00706729 -0.00368016
v 0.0118723 -0.00706729 -0.00368016
v 0.0118734 -0.00718003 -0.00363215
v 0.0162712 -0.00718003 -0.00363215
v 0.0118858 -0.00746555 -0.00351056
v 0.0162588 -0.00746555 -0.00351056
v 0.0119118 -0.00775098 -0.003389
v 0.0119511 -0.00803677 -0.00326729
v 0.0120031 -0.00832335 -0.00314524
v 0.0120673 -0.00861116 -0.00302267
v 0.0162328 -0.00775098 -0.003389
v 0.012143 -0.00890059 -0.0028994
v 0.0161935 -0.00803677 -0.00326729
v 0.0161415 -0.00832335 -0.00314524
v 0.0160773 -0.00861116 -0.00302267
v 0.0160016 -0.00890059 -0.0028994
v 0.0122296 -0.00919203 -0.00277529
v 0.0159151 -0.00919203 -0.00277529
v 0.0160141 -0.00465022 -0.0043653
v 0.0122296 -0.00494255 -0.00458504
v 0.0159151 -0.00494255 -0.00458504
v 0.0121305 -0.00465022 -0.0043653
v 0.0120781 -0.00447606 -0.00423439
v 0.0120118 -0.0042243 -0.00404514
v 0.0119577 -0.00397395 -0.00385695
v 0.0119165 -0.00372467 -0.00366957
v 0.0160665 -0.00447606 -0.00423439
v 0.0161329 -0.0042243 -0.00404514
v 0.0118885 -0.0034761 -0.00348272
v 0.016187 -0.00397395 -0.00385695
v 0.0162282 -0.00372467 -0.00366957
v 0.0118743 -0.00322787 -0.00329612
v 0.0162561 -0.0034761 -0.00348272
v 0.0162704 -0.00322787 -0.00329612
v 0.0162723 -0.00309653 -0.00319739
v 0.0118723 -0.00309653 -0.00319739
v 0.0118793 -0.00284818 -0.00301071
v 0.0119007 -0.00259416 -0.00281976
v 0.0162654 -0.00284818 -0.00301071
v 0.011939 -0.00232259 -0.00261563
v 0.016244 -0.00259416 -0.00281976
v 0.0119938 -0.0020458 -0.00240756
v 0.0120654 -0.00176195 -0.0021942
v 0.0162056 -0.00232259 -0.00261563
v 0.0121542 -0.0014692 -0.00197414
v 0.0161508 -0.0020458 -0.00240756
v 0.0160792 -0.00176195 -0.0021942
v 0.0159904 -0.0014692 -0.00197414
v 0.0159151 -0.00125051 -0.00180975
v 0.0122296 -0.00125051 -0.00180975
v 0.0122138 -0.00180128 0.00272031
v 0.0159151 -0.00180797 0.00277529
v 0.0122296 -0.00180797 0.00277529
v 0.0159309 -0.00180128 0.00272031
v 0.0121148 -0.00175618 0.00234936
v 0.0120334 -0.00171267 0.00199149
v 0.0119691 -0.00167047 0.0016444
v 0.0119214 -0.00162931 0.00130585
v 0.0160299 -0.00175618 0.00234936
v 0.0118899 -0.00158892 0.000973649
v 0.0161112 -0.00171267 0.00199149
v 0.0161755 -0.00167047 0.0016444
v 0.0118743 -0.00154905 0.000645695
v 0.0162232 -0.00162931 0.00130585
v 0.0162548 -0.00158892 0.000973649
v 0.0162704 -0.00154905 0.000645695
v 0.0162723 -0.00152924 0.000482768
v 0.0118723 -0.00152924 0.000482768
v 0.0162712 -0.00151445 0.000361131
v 0.0118734 -0.00151445 0.000361131
v 0.0118858 -0.001477 5.30661E-05
v 0.0162588 -0.001477 5.30661E-05
v 0.0119118 -0.00143955 -0.000254903
v 0.0119511 -0.00140206 -0.000563259
v 0.0120031 -0.00136447 -0.000872475
v 0.0120673 -0.00132671 -0.00118301
v 0.0162328 -0.00143955 -0.000254903
v 0.012143 -0.00128874 -0.0014953
v 0.0161935 -0.00140206 -0.000563259
v 0.0161415 -0.00136447 -0.000872475
v 0.0160773 -0.00132671 -0.00118301
v 0.0160016 -0.00128874 -0.0014953
v 0.0122296 -0.00125051 -0.00180975
v 0.0159151 -0.00125051 -0.00180975
v 0.0122138 -0.0060065 0.00456334
v 0.0159151 -0.00605745 0.00458504
v 0.0122296 -0.00605745 0.00458504
v 0.0159309 -0.0060065 0.00456334
v 0.0121148 -0.0056627 0.00441692
v 0.0120334 -0.00533102 0.00427567
v 0.0119691 -0.00500933 0.00413867
v 0.0119214 -0.00469555 0.00400504
v 0.0160299 -0.0056627 0.00441692
v 0.0118899 -0.00438767 0.00387392
v 0.0161112 -0.00533102 0.00427567
v 0.0161755 -0.00500933 0.00413867
v 0.0118743 -0.00408371 0.00374447
v 0.0162232 -0.00469555 0.00400504
v 0.0162548 -0.00438767 0.00387392
v 0.0162704 -0.00408371 0.00374447
v 0.0162723 -0.00393271 0.00368016
v 0.0118723 -0.00393271 0.00368016
v 0.0162712 -0.00381997 0.00363215
v 0.0118734 -0.00381997 0.00363215
v 0.0118858 -0.00353445 0.00351056
v 0.0162588 -0.00353445 0.00351056
v 0.0119118 -0.00324902 0.003389
v 0.0119511 -0.00296324 0.00326729
v 0.0120031 -0.00267665 0.00314524
v 0.0120673 -0.00238884 0.00302267
v 0.0162328 -0.00324902 0.003389
v 0.012143 -0.00209941 0.0028994
v 0.0161935 -0.00296324 0.00326729
v 0.0161415 -0.00267665 0.00314524
v 0.0160773 -0.00238884 0.00302267
v 0.0160016 -0.00209941 0.0028994
v 0.0122296 -0.00180797 0.00277529
v 0.0159151 -0.00180797 0.00277529
vn 0 -0.600867 0.799349
vn 0 -0.600867 0.799349
vn 0 -0.600867 0.799349
vn 0 -0.600867 0.799349
vn 0 -0.600867 0.799349
vn 0 -0.600867 0.799349
vn 0 -0.600867 0.799349
vn 0 -0.600867 0.799349
vn 0 -0.600867 0.799349
vn 0 -0.600867 0.799349
vn 0 -0.600867 0.799349
vn 0 -0.600867 0.799349
vn 0 -0.600867 0.799349
vn 0 -0.600867 0.799349
vn 0 -0.600867 0.799349
vn 0 -0.600867 0.799349
vn 0 -0.600867 0.799349
vn 0 -0.600867 0.799349
vn 0 -0.600867 0.799349
vn 0 -0.600867 0.799349
vn 0 -0.600867 0.799349
vn 0 -0.600867 0.799349
vn 0 -0.600867 0.799349
vn 0 -0.600867 0.799349
vn 0 -0.600867 0.799349
vn 0 -0.600867 0.799349
vn 0 -0.600867 0.799349
vn 0 -0.600867 0.799349
vn 0 -0.600867 0.799349
vn 0 -0.600867 0.799349
vn 0 -0.600867 0.799349
vn 0 -0.600867 0.799349
vn 0 -0.99269 -0.120692
vn 0 -0.99269 -0.120692
vn 0 -0.99269 -0.120692
vn 0 -0.99269 -0.120692
vn 0 -0.99269 -0.120692
vn 0 -0.99269 -0.120692
vn 0 -0.99269 -0.120692
vn 0 -0.99269 -0.120692
vn 0 -0.99269 -0.120692
vn 0 -0.99269 -0.120692
vn 0 -0.99269 -0.120692
vn 0 -0.99269 -0.120692
vn 0 -0.99269 -0.120692
vn 0 -0.99269 -0.120692
vn 0 -0.99269 -0.120692
vn 0 -0.99269 -0.120692
vn 0 -0.99269 -0.120692
vn 0 -0.99269 -0.120692
vn 0 -0.99269 -0.120692
vn 0 -0.99269 -0.120692
vn 0 -0.99269 -0.120692
vn 0 -0.99269 -0.120692
vn 0 -0.99269 -0.120692
vn 0 -0.99269 -0.120692
vn 0 -0.99269 -0.120692
vn 0 -0.99269 -0.120692
vn 0 -0.99269 -0.120692
vn 0 -0.99269 -0.120692
vn 0 -0.99269 -0.120692
vn 0 -0.99269 -0.120692
vn 0 -0.99269 -0.120692
vn 0 -0.99269 -0.120692
vn 0 -0.99269 -0.120692
vn 0 -0.99269 -0.120692
vn 0 -0.391823 -0.920041
vn 0 -0.391823 -0.920041
vn 0 -0.391823 -0.920041
vn 0 -0.391823 -0.920041
vn 0 -0.391823 -0.920041
vn 0 -0.391823 -0.920041
vn 0 -0.391823 -0.920041
vn 0 -0.391823 -0.920041
vn 0 -0.391823 -0.920041
vn 0 -0.391823 -0.920041
vn 0 -0.391823 -0.920041
vn 0 -0.391823 -0.920041
vn 0 -0.391823 -0.920041
vn 0 -0.391823 -0.920041
vn 0 -0.391823 -0.920041
vn 0 -0.391823 -0.920041
vn 0 -0.391823 -0.920041
vn 0 -0.391823 -0.920041
vn 0 -0.391823 -0.920041
vn 0 -0.391823 -0.920041
vn 0 -0.391823 -0.920041
vn 0 -0.391823 -0.920041
vn 0 -0.391823 -0.920041
vn 0 -0.391823 -0.920041
vn 0 -0.391823 -0.920041
vn 0 -0.391823 -0.920041
vn 0 -0.391823 -0.920041
vn 0 -0.391823 -0.920041
vn 0 -0.391823 -0.920041
vn 0 -0.391823 -0.920041
vn 0 -0.391823 -0.920041
vn 0 -0.391823 -0.920041
vn 0 -0.391823 -0.920041
vn 0 -0.391823 -0.920041
vn 0 0.600867 -0.799349
vn 0 0.600867 -0.799349
vn 0 0.600867 -0.799349
vn 0 0.600867 -0.799349
vn 0 0.600867 -0.799349
vn 0 0.600867 -0.799349
vn 0 0.600867 -0.799349
vn 0 0.600867 -0.799349
vn 0 0.600867 -0.799349
vn 0 0.600867 -0.799349
vn 0 0.600867 -0.799349
vn 0 0.600867 -0.799349
vn 0 0.600867 -0.799349
vn 0 0.600867 -0.799349
vn 0 0.600867 -0.799349
vn 0 0.600867 -0.799349
vn 0 0.600867 -0.799349
vn 0 0.600867 -0.799349
vn 0 0.600867 -0.799349
vn 0 0.600867 -0.799349
vn 0 0.600867 -0.799349
vn 0 0.600867 -0.799349
vn 0 0.600867 -0.799349
vn 0 0.600867 -0.799349
vn 0 0.600867 -0.799349
vn 0 0.600867 -0.799349
vn 0 0.600867 -0.799349
vn 0 0.600867 -0.799349
vn 0 0.600867 -0.799349
vn 0 0.600867 -0.799349
vn 0 0.600867 -0.799349
vn 0 0.600867 -0.799349
vn 0 0.99269 0.120692
vn 0 0.99269 0.120692
vn 0 0.99269 0.120692
vn 0 0.99269 0.120692
vn 0 0.99269 0.120692
vn 0 0.99269 0.120692
vn 0 0.99269 0.120692
vn 0 0.99269 0.120692
vn 0 0.99269 0.120692
vn 0 0.99269 0.120692
vn 0 0.99269 0.120692
vn 0 0.99269 0.120692
vn 0 0.99269 0.120692
vn 0 0.99269 0.120692
vn 0 0.99269 0.120692
vn 0 0.99269 0.120692
vn 0 0.99269 0.120692
vn 0 0.99269 0.120692
vn 0 0.99269 0.120692
vn 0 0.99269 0.120692
vn 0 0.99269 0.120692
vn 0 0.99269 0.120692
vn 0 0.99269 0.120692
vn 0 0.99269 0.120692
vn 0 0.99269 0.120692
vn 0 0.99269 0.120692
vn 0 0.99269 0.120692
vn 0 0.99269 0.120692
vn 0 0.99269 0.120692
vn 0 0.99269 0.120692
vn 0 0.99269 0.120692
vn 0 0.99269 0.120692
vn 0 0.99269 0.120692
vn 0 0.99269 0.120692
vn 0 0.391823 0.920041
vn 0 0.391823 0.920041
vn 0 0.391823 0.920041
vn 0 0.391823 0.920041
vn 0 0.391823 0.920041
vn 0 0.391823 0.920041
vn 0 0.391823 0.920041
vn 0 0.391823 0.920041
vn 0 0.391823 0.920041
vn 0 0.391823 0.920041
vn 0 0.391823 0.920041
vn 0 0.391823 0.920041
vn 0 0.391823 0.920041
vn 0 0.391823 0.920041
vn 0 0.391823 0.920041
vn 0 0.391823 0.920041
vn 0 0.391823 0.920041
vn 0 0.391823 0.920041
vn 0 0.391823 0.920041
vn 0 0.391823 0.920041
vn 0 0.391823 0.920041
vn 0 0.391823 0.920041
vn 0 0.391823 0.920041
vn 0 0.391823 0.920041
vn 0 0.391823 0.920041
vn 0 0.391823 0.920041
vn 0 0.391823 0.920041
vn 0 0.391823 0.920041
vn 0 0.391823 0.920041
vn 0 0.391823 0.920041
vn 0 0.391823 0.920041
vn 0 0.391823 0.920041
vn 0 0.391823 0.920041
vn 0 0.391823 0.920041


f 1/1/1 3/3/3 2/2/2
f 1/1/1 2/2/2 4/4/4
f 5/5/5 1/1/1 4/4/4
f 1/1/1 5/5/5 6/6/6
f 1/1/1 6/6/6 7/7/7
f 8/8/8 1/1/1 7/7/7
f 1/1/1 8/8/8 9/9/9
f 8/8/8 10/10/10 9/9/9
f 8/8/8 11/11/11 10/10/10
f 10/10/10 11/11/11 12/12/12
f 11/11/11 13/13/13 12/12/12
f 11/11/11 14/14/14 13/13/13
f 14/14/14 15/15/15 13/13/13
f 14/14/14 16/16/16 15/15/15
f 16/16/16 14/14/14 17/17/17
f 18/18/18 16/16/16 17/17/17
f 18/18/18 17/17/17 19/19/19
f 17/17/17 20/20/20 19/19/19
f 17/17/17 21/21/21 20/20/20
f 21/21/21 22/22/22 20/20/20
f 21/21/21 23/23/23 22/22/22
f 21/21/21 24/24/24 23/23/23
f 24/24/24 25/25/25 23/23/23
f 24/24/24 26/26/26 25/25/25
f 26/26/26 24/24/24 27/27/27
f 26/26/26 27/27/27 28/28/28
f 29/29/29 26/26/26 28/28/28
f 29/29/29 30/30/30 26/26/26
f 30/30/30 31/31/31 26/26/26
f 30/30/30 32/32/32 31/31/31
f 33/33/33 35/35/35 34/34/34
f 33/33/33 34/34/34 36/36/36
f 37/37/37 33/33/33 36/36/36
f 33/33/33 37/37/37 38/38/38
f 33/33/33 38/38/38 39/39/39
f 40/40/40 33/33/33 39/39/39
f 40/40/40 39/39/39 41/41/41
f 42/42/42 40/40/40 41/41/41
f 42/42/42 41/41/41 43/43/43
f 42/42/42 43/43/43 44/44/44
f 43/43/43 45/45/45 44/44/44
f 43/43/43 46/46/46 45/45/45
f 46/46/46 47/47/47 45/45/45
f 46/46/46 48/48/48 47/47/47
f 48/48/48 46/46/46 49/49/49
f 48/48/48 49/49/49 50/50/50
f 49/49/49 51/51/51 50/50/50
f 49/49/49 52/52/52 51/51/51
f 52/52/52 53/53/53 51/51/51
f 52/52/52 54/54/54 53/53/53
f 54/54/54 55/55/55 53/53/53
f 54/54/54 56/56/56 55/55/55
f 56/56/56 54/54/54 57/57/57
f 54/54/54 58/58/58 57/57/57
f 54/54/54 59/59/59 58/58/58
f 59/59/59 60/60/60 58/58/58
f 59/59/59 61/61/61 60/60/60
f 60/60/60 61/61/61 62/62/62
f 60/60/60 62/62/62 63/63/63
f 64/64/64 60/60/60 63/63/63
f 64/64/64 65/65/65 60/60/60
f 64/64/64 66/66/66 65/65/65
f 67/67/67 69/69/69 68/68/68
f 67/67/67 68/68/68 70/70/70
f 71/71/71 67/67/67 70/70/70
f 67/67/67 71/71/71 72/72/72
f 67/67/67 72/72/72 73/73/73
f 74/74/74 67/67/67 73/73/73
f 74/74/74 73/73/73 75/75/75
f 76/76/76 74/74/74 75/75/75
f 76/76/76 75/75/75 77/77/77
f 76/76/76 77/77/77 78/78/78
f 77/77/77 79/79/79 78/78/78
f 77/77/77 80/80/80 79/79/79
f 80/80/80 81/81/81 79/79/79
f 80/80/80 82/82/82 81/81/81
f 82/82/82 80/80/80 83/83/83
f 82/82/82 83/83/83 84/84/84
f 83/83/83 85/85/85 84/84/84
f 83/83/83 86/86/86 85/85/85
f 86/86/86 87/87/87 85/85/85
f 86/86/86 88/88/88 87/87/87
f 88/88/88 89/89/89 87/87/87
f 88/88/88 90/90/90 89/89/89
f 90/90/90 88/88/88 91/91/91
f 88/88/88 92/92/92 91/91/91
f 88/88/88 93/93/93 92/92/92
f 93/93/93 94/94/94 92/92/92
f 93/93/93 95/95/95 94/94/94
f 94/94/94 95/95/95 96/96/96
f 94/94/94 96/96/96 97/97/97
f 98/98/98 94/94/94 97/97/97
f 98/98/98 99/99/99 94/94/94
f 98/98/98 100/100/100 99/99/99
f 101/101/101 103/103/103 102/102/102
f 101/101/101 102/102/102 104/104/104
f 105/105/105 101/101/101 104/104/104
f 101/101/101 105/105/105 106/106/106
f 101/101/101 106/106/106 107/107/107
f 108/108/108 101/101/101 107/107/107
f 101/101/101 108/108/108 109/109/109
f 108/108/108 110/110/110 109/109/109
f 108/108/108 111/111/111 110/110/110
f 110/110/110 111/111/111 112/112/112
f 111/111/111 113/113/113 112/112/112
f 111/111/111 114/114/114 113/113/113
f 114/114/114 115/115/115 113/113/113
f 114/114/114 116/116/116 115/115/115
f 117/117/117 116/116/116 114/114/114
f 117/117/117 114/114/114 118/118/118
f 117/117/117 118/118/118 119/119/119
f 117/117/117 119/119/119 120/120/120
f 121/121/121 117/117/117 120/120/120
f 121/121/121 120/120/120 122/122/122
f 123/123/123 121/121/121 122/122/122
f 123/123/123 122/122/122 124/124/124
f 125/125/125 123/123/123 124/124/124
f 125/125/125 126/126/126 123/123/123
f 125/125/125 127/127/127 126/126/126
f 127/127/127 128/128/128 126/126/126
f 127/127/127 129/129/129 128/128/128
f 129/129/129 127/127/127 130/130/130
f 127/127/127 131/131/131 130/130/130
f 127/127/127 132/132/132 131/131/131
f 133/133/133 135/135/135 134/134/134
f 133/133/133 134/134/134 136/136/136
f 133/133/133 136/136/136 137/137/137
f 136/136/136 138/138/138 137/137/137
f 136/136/136 139/139/139 138/138/138
f 140/140/140 139/139/139 136/136/136
f 140/140/140 136/136/136 141/141/141
f 142/142/142 140/140/140 141/141/141
f 142/142/142 141/141/141 143/143/143
f 142/142/142 143/143/143 144/144/144
f 145/145/145 142/142/142 144/144/144
f 145/145/145 144/144/144 146/146/146
f 147/147/147 145/145/145 146/146/146
f 148/148/148 145/145/145 147/147/147
f 148/148/148 149/149/149 145/145/145
f 149/149/149 150/150/150 145/145/145
f 149/149/149 151/151/151 150/150/150
f 150/150/150 151/151/151 152/152/152
f 151/151/151 153/153/153 152/152/152
f 151/151/151 154/154/154 153/153/153
f 154/154/154 155/155/155 153/153/153
f 154/154/154 156/156/156 155/155/155
f 156/156/156 154/154/154 157/157/157
f 154/154/154 158/158/158 157/157/157
f 154/154/154 159/159/159 158/158/158
f 159/159/159 160/160/160 158/158/158
f 159/159/159 161/161/161 160/160/160
f 160/160/160 161/161/161 162/162/162
f 160/160/160 162/162/162 163/163/163
f 164/164/164 160/160/160 163/163/163
f 164/164/164 165/165/165 160/160/160
f 164/164/164 166/166/166 165/165/165
f 167/167/167 169/169/169 168/168/168
f 167/167/167 168/168/168 170/170/170
f 167/167/167 170/170/170 171/171/171
f 170/170/170 172/172/172 171/171/171
f 170/170/170 173/173/173 172/172/172
f 174/174/174 173/173/173 170/170/170
f 174/174/174 170/170/170 175/175/175
f 176/176/176 174/174/174 175/175/175
f 176/176/176 175/175/175 177/177/177
f 176/176/176 177/177/177 178/178/178
f 179/179/179 176/176/176 178/178/178
f 179/179/179 178/178/178 180/180/180
f 181/181/181 179/179/179 180/180/180
f 182/182/182 179/179/179 181/181/181
f 182/182/182 183/183/183 179/179/179
f 183/183/183 184/184/184 179/179/179
f 183/183/183 185/185/185 184/184/184
f 184/184/184 185/185/185 186/186/186
f 185/185/185 187/187/187 186/186/186
f 185/185/185 188/188/188 187/187/187
f 188/188/188 189/189/189 187/187/187
f 188/188/188 190/190/190 189/189/189
f 190/190/190 188/188/188 191/191/191
f 188/188/188 192/192/192 191/191/191
f 188/188/188 193/193/193 192/192/192
f 193/193/193 194/194/194 192/192/192
f 193/193/193 195/195/195 194/194/194
f 194/194/194 195/195/195 196/196/196
f 194/194/194 196/196/196 197/197/197
f 198/198/198 194/194/194 197/197/197
f 198/198/198 199/199/199 194/194/194
f 198/198/198 200/200/200 199/199/199
