v 0.0163 -0.0017693 -0.00155409
v 0.0187874 -0.0017693 -0.00155409
v 0.0188623 -0.0018045 -0.00128248
v 0.0189279 -0.00183947 -0.00101272
v 0.0189837 -0.00187423 -0.000744461
v 0.0190291 -0.00190886 -0.000477341
v 0.0190637 -0.00194338 -0.000210973
v 0.019087 -0.00197786 5.50438E-05
v 0.0190986 -0.00201234 0.000321115
v 0.0191 -0.00202903 0.000449873
v 0.0190983 -0.00204749 0.00059227
v 0.0163 -0.00228877 0.00245384
v 0.0190849 -0.00208421 0.000875563
v 0.0190579 -0.00212139 0.00116247
v 0.019017 -0.00215928 0.00145477
v 0.018962 -0.0021981 0.0017543
v 0.0188924 -0.0022381 0.00206295
v 0.0188078 -0.00227954 0.00238266
v 0.0187874 -0.00228877 0.00245384
v 0.0163 -0.00228877 0.00245384
v 0.0187874 -0.00228877 0.00245384
v 0.0188623 -0.00254159 0.00255916
v 0.0189279 -0.00279269 0.00266376
v 0.0189837 -0.0030424 0.00276777
v 0.0190291 -0.00329104 0.00287135
v 0.0190637 -0.00353898 0.00297464
v 0.019087 -0.0037866 0.00307779
v 0.0190986 -0.00403427 0.00318096
v 0.0191 -0.00415412 0.00323088
v 0.0190983 -0.00428667 0.0032861
v 0.0163 -0.00601947 0.00400793
v 0.0190849 -0.00455036 0.00339595
v 0.0190579 -0.00481742 0.00350719
v 0.019017 -0.0050895 0.00362053
v 0.018962 -0.00536832 0.00373668
v 0.0188924 -0.00565562 0.00385636
v 0.0188078 -0.00595322 0.00398033
v 0.0187874 -0.00601947 0.00400793
v 0.0187874 -0.00601947 0.00400793
v 0.0188745 -0.00627515 0.00381255
v 0.0163 -0.00601947 0.00400793
v 0.018892 -0.00633118 0.00376974
v 0.0189537 -0.00654782 0.00360419
v 0.0190052 -0.0067632 0.00343961
v 0.019046 -0.00697761 0.00327577
v 0.0190756 -0.00719134 0.00311245
v 0.0190937 -0.0074047 0.00294941
v 0.0191 -0.00762509 0.00278101
v 0.0163 -0.0092307 0.00155409
v 0.0190941 -0.0078384 0.00261801
v 0.0190831 -0.007986 0.00250522
v 0.0190546 -0.00821802 0.00232792
v 0.0190121 -0.00845405 0.00214757
v 0.0189555 -0.00869559 0.00196299
v 0.0188842 -0.00894419 0.00177303
v 0.018798 -0.00920142 0.00157646
v 0.0187874 -0.0092307 0.00155409
v 0.0163 -0.0092307 0.00155409
v 0.0187874 -0.0092307 0.00155409
v 0.0188623 -0.0091955 0.00128248
v 0.0189279 -0.00916053 0.00101272
v 0.0189837 -0.00912577 0.000744461
v 0.0190291 -0.00909114 0.000477341
v 0.0190637 -0.00905662 0.000210973
v 0.019087 -0.00902214 -5.50438E-05
v 0.0190986 -0.00898766 -0.000321115
v 0.0191 -0.00897097 -0.000449873
v 0.0190983 -0.00895251 -0.00059227
v 0.0163 -0.00871123 -0.00245384
v 0.0190849 -0.00891579 -0.000875563
v 0.0190579 -0.00887861 -0.00116247
v 0.019017 -0.00884072 -0.00145477
v 0.018962 -0.0088019 -0.0017543
v 0.0188924 -0.0087619 -0.00206295
v 0.0188078 -0.00872046 -0.00238266
v 0.0187874 -0.00871123 -0.00245384
v 0.0163 -0.00871123 -0.00245384
v 0.0187874 -0.00871123 -0.00245384
v 0.0188623 -0.00845841 -0.00255916
v 0.0189279 -0.00820731 -0.00266376
v 0.0189837 -0.0079576 -0.00276777
v 0.0190291 -0.00770896 -0.00287135
v 0.0190637 -0.00746102 -0.00297464
v 0.019087 -0.0072134 -0.00307779
v 0.0190986 -0.00696573 -0.00318096
v 0.0191 -0.00684588 -0.00323088
v 0.0190983 -0.00671333 -0.0032861
v 0.0163 -0.00498053 -0.00400793
v 0.0190849 -0.00644964 -0.00339595
v 0.0190579 -0.00618258 -0.00350719
v 0.019017 -0.0059105 -0.00362053
v 0.018962 -0.00563168 -0.00373668
v 0.0188924 -0.00534438 -0.00385636
v 0.0188078 -0.00504678 -0.00398033
v 0.0187874 -0.00498053 -0.00400793
v 0.0163 -0.00498053 -0.00400793
v 0.0187874 -0.00498053 -0.00400793
v 0.0188638 -0.00475834 -0.00383814
v 0.0189305 -0.0045378 -0.00366962
v 0.0189868 -0.00431859 -0.00350211
v 0.0190324 -0.00410037 -0.00333536
v 0.0190666 -0.00388277 -0.00316909
v 0.0190831 -0.00373583 -0.0030568
v 0.0190972 -0.00352192 -0.00289334
v 0.0191 -0.00337491 -0.00278101
v 0.0190936 -0.00315424 -0.00261238
v 0.0163 -0.0017693 -0.00155409
v 0.0190745 -0.00293147 -0.00244216
v 0.0190423 -0.00270532 -0.00226935
v 0.0189967 -0.00247445 -0.00209292
v 0.0189375 -0.00223746 -0.00191184
v 0.018892 -0.00208101 -0.00179228
v 0.0188072 -0.00182459 -0.00159634
v 0.0187874 -0.0017693 -0.00155409
vn 0 0.991705 0.128535
vn 0 0.991705 0.128535
vn 0 0.991705 0.128535
vn 0 0.991705 0.128535
vn 0 0.991705 0.128535
vn 0 0.991705 0.128535
vn 0 0.991705 0.128535
vn 0 0.991705 0.128535
vn 0 0.991705 0.128535
vn 0 0.991705 0.128535
vn 0 0.991705 0.128535
vn 0 0.991705 0.128535
vn 0 0.991705 0.128535
vn 0 0.991705 0.128535
vn 0 0.991705 0.128535
vn 0 0.991705 0.128535
vn 0 0.991705 0.128535
vn 0 0.991705 0.128535
vn 0 0.991705 0.128535
vn 0 0.384538 0.923109
vn 0 0.384538 0.923109
vn 0 0.384538 0.923109
vn 0 0.384538 0.923109
vn 0 0.384538 0.923109
vn 0 0.384538 0.923109
vn 0 0.384538 0.923109
vn 0 0.384538 0.923109
vn 0 0.384538 0.923109
vn 0 0.384538 0.923109
vn 0 0.384538 0.923109
vn 0 0.384538 0.923109
vn 0 0.384538 0.923109
vn 0 0.384538 0.923109
vn 0 0.384538 0.923109
vn 0 0.384538 0.923109
vn 0 0.384538 0.923109
vn 0 0.384538 0.923109
vn 0 0.384538 0.923109
vn 0 -0.607167 0.794574
vn 0 -0.607167 0.794574
vn 0 -0.607167 0.794574
vn 0 -0.607167 0.794574
vn 0 -0.607167 0.794574
vn 0 -0.607167 0.794574
vn 0 -0.607167 0.794574
vn 0 -0.607167 0.794574
vn 0 -0.607167 0.794574
vn 0 -0.607167 0.794574
vn 0 -0.607167 0.794574
vn 0 -0.607167 0.794574
vn 0 -0.607167 0.794574
vn 0 -0.607167 0.794574
vn 0 -0.607167 0.794574
vn 0 -0.607167 0.794574
vn 0 -0.607167 0.794574
vn 0 -0.607167 0.794574
vn 0 -0.607167 0.794574
vn 0 -0.991705 -0.128535
vn 0 -0.991705 -0.128535
vn 0 -0.991705 -0.128535
vn 0 -0.991705 -0.128535
vn 0 -0.991705 -0.128535
vn 0 -0.991705 -0.128535
vn 0 -0.991705 -0.128535
vn 0 -0.991705 -0.128535
vn 0 -0.991705 -0.128535
vn 0 -0.991705 -0.128535
vn 0 -0.991705 -0.128535
vn 0 -0.991705 -0.128535
vn 0 -0.991705 -0.128535
vn 0 -0.991705 -0.128535
vn 0 -0.991705 -0.128535
vn 0 -0.991705 -0.128535
vn 0 -0.991705 -0.128535
vn 0 -0.991705 -0.128535
vn 0 -0.991705 -0.128535
vn 0 -0.384538 -0.923109
vn 0 -0.384538 -0.923109
vn 0 -0.384538 -0.923109
vn 0 -0.384538 -0.923109
vn 0 -0.384538 -0.923109
vn 0 -0.384538 -0.923109
vn 0 -0.384538 -0.923109
vn 0 -0.384538 -0.923109
vn 0 -0.384538 -0.923109
vn 0 -0.384538 -0.923109
vn 0 -0.384538 -0.923109
vn 0 -0.384538 -0.923109
vn 0 -0.384538 -0.923109
vn 0 -0.384538 -0.923109
vn 0 -0.384538 -0.923109
vn 0 -0.384538 -0.923109
vn 0 -0.384538 -0.923109
vn 0 -0.384538 -0.923109
vn 0 -0.384538 -0.923109
vn 0 0.607167 -0.794574
vn 0 0.607167 -0.794574
vn 0 0.607167 -0.794574
vn 0 0.607167 -0.794574
vn 0 0.607167 -0.794574
vn 0 0.607167 -0.794574
vn 0 0.607167 -0.794574
vn 0 0.607167 -0.794574
vn 0 0.607167 -0.794574
vn 0 0.607167 -0.794574
vn 0 0.607167 -0.794574
vn 0 0.607167 -0.794574
vn 0 0.607167 -0.794574
vn 0 0.607167 -0.794574
vn 0 0.607167 -0.794574
vn 0 0.607167 -0.794574
vn 0 0.607167 -0.794574
vn 0 0.607167 -0.794574
vn 0 0.607167 -0.794574


f 1/1/1 3/3/3 2/2/2
f 3/3/3 1/1/1 4/4/4
f 1/1/1 5/5/5 4/4/4
f 1/1/1 6/6/6 5/5/5
f 6/6/6 1/1/1 7/7/7
f 1/1/1 8/8/8 7/7/7
f 1/1/1 9/9/9 8/8/8
f 9/9/9 1/1/1 10/10/10
f 1/1/1 11/11/11 10/10/10
f 1/1/1 12/12/12 11/11/11
f 12/12/12 13/13/13 11/11/11
f 12/12/12 14/14/14 13/13/13
f 14/14/14 12/12/12 15/15/15
f 12/12/12 16/16/16 15/15/15
f 12/12/12 17/17/17 16/16/16
f 12/12/12 18/18/18 17/17/17
f 12/12/12 19/19/19 18/18/18
f 20/20/20 22/22/22 21/21/21
f 22/22/22 20/20/20 23/23/23
f 20/20/20 24/24/24 23/23/23
f 20/20/20 25/25/25 24/24/24
f 25/25/25 20/20/20 26/26/26
f 20/20/20 27/27/27 26/26/26
f 20/20/20 28/28/28 27/27/27
f 28/28/28 20/20/20 29/29/29
f 20/20/20 30/30/30 29/29/29
f 20/20/20 31/31/31 30/30/30
f 31/31/31 32/32/32 30/30/30
f 31/31/31 33/33/33 32/32/32
f 33/33/33 31/31/31 34/34/34
f 31/31/31 35/35/35 34/34/34
f 31/31/31 36/36/36 35/35/35
f 31/31/31 37/37/37 36/36/36
f 31/31/31 38/38/38 37/37/37
f 39/39/39 41/41/41 40/40/40
f 41/41/41 42/42/42 40/40/40
f 41/41/41 43/43/43 42/42/42
f 43/43/43 41/41/41 44/44/44
f 41/41/41 45/45/45 44/44/44
f 41/41/41 46/46/46 45/45/45
f 46/46/46 41/41/41 47/47/47
f 41/41/41 48/48/48 47/47/47
f 41/41/41 49/49/49 48/48/48
f 49/49/49 50/50/50 48/48/48
f 49/49/49 51/51/51 50/50/50
f 51/51/51 49/49/49 52/52/52
f 49/49/49 53/53/53 52/52/52
f 49/49/49 54/54/54 53/53/53
f 54/54/54 49/49/49 55/55/55
f 49/49/49 56/56/56 55/55/55
f 49/49/49 57/57/57 56/56/56
f 58/58/58 60/60/60 59/59/59
f 60/60/60 58/58/58 61/61/61
f 58/58/58 62/62/62 61/61/61
f 58/58/58 63/63/63 62/62/62
f 63/63/63 58/58/58 64/64/64
f 58/58/58 65/65/65 64/64/64
f 58/58/58 66/66/66 65/65/65
f 66/66/66 58/58/58 67/67/67
f 58/58/58 68/68/68 67/67/67
f 58/58/58 69/69/69 68/68/68
f 69/69/69 70/70/70 68/68/68
f 69/69/69 71/71/71 70/70/70
f 71/71/71 69/69/69 72/72/72
f 69/69/69 73/73/73 72/72/72
f 69/69/69 74/74/74 73/73/73
f 69/69/69 75/75/75 74/74/74
f 69/69/69 76/76/76 75/75/75
f 77/77/77 79/79/79 78/78/78
f 79/79/79 77/77/77 80/80/80
f 77/77/77 81/81/81 80/80/80
f 77/77/77 82/82/82 81/81/81
f 82/82/82 77/77/77 83/83/83
f 77/77/77 84/84/84 83/83/83
f 77/77/77 85/85/85 84/84/84
f 85/85/85 77/77/77 86/86/86
f 77/77/77 87/87/87 86/86/86
f 77/77/77 88/88/88 87/87/87
f 88/88/88 89/89/89 87/87/87
f 88/88/88 90/90/90 89/89/89
f 90/90/90 88/88/88 91/91/91
f 88/88/88 92/92/92 91/91/91
f 88/88/88 93/93/93 92/92/92
f 88/88/88 94/94/94 93/93/93
f 88/88/88 95/95/95 94/94/94
f 96/96/96 98/98/98 97/97/97
f 99/99/99 98/98/98 96/96/96
f 99/99/99 96/96/96 100/100/100
f 96/96/96 101/101/101 100/100/100
f 96/96/96 102/102/102 101/101/101
f 96/96/96 103/103/103 102/102/102
f 104/104/104 103/103/103 96/96/96
f 104/104/104 96/96/96 105/105/105
f 96/96/96 106/106/106 105/105/105
f 96/96/96 107/107/107 106/106/106
f 107/107/107 108/108/108 106/106/106
f 107/107/107 109/109/109 108/108/108
f 109/109/109 107/107/107 110/110/110
f 107/107/107 111/111/111 110/110/110
f 107/107/107 112/112/112 111/111/111
f 107/107/107 113/113/113 112/112/112
f 107/107/107 114/114/114 113/113/113
