v -0.00178156 0.00175387 -0.0091245
v -0.00213787 0.00210464 -0.0094746
v -0.00237179 0.00183702 -0.0094746
v -0.00200944 0.00222759 -0.0094746
v -0.00197649 0.00153085 -0.0091245
v -0.00156162 0.00195227 -0.0091245
v -0.00257241 0.0015436 -0.0094746
v -0.00187394 0.00234272 -0.0094746
v -0.00214367 0.00128634 -0.0091245
v -0.00131976 0.00212326 -0.0091245
v -0.00273692 0.00122852 -0.0094746
v -0.00158371 0.00254791 -0.0094746
v -0.00228077 0.00102377 -0.0091245
v -0.00105937 0.00226445 -0.0091245
v -0.00286301 0.000896195 -0.0094746
v -0.00127124 0.00271734 -0.0094746
v -0.00238584 0.000746829 -0.0091245
v -0.000784109 0.00237385 -0.0091245
v -0.00294891 0.000551287 -0.0094746
v -0.000940931 0.00284862 -0.0094746
v -0.00245743 0.000459406 -0.0091245
v -0.000497842 0.00244993 -0.0091245
v -0.00299342 0.00019864 -0.0094746
v -0.000597411 0.00293992 -0.0094746
v -0.00249451 0.000165534 -0.0091245
v -0.000204587 0.00249161 -0.0091245
v -0.0029959 -0.000156795 -0.0094746
v -0.000245505 0.00298994 -0.0094746
v -0.00249658 -0.000130662 -0.0091245
v 9.15401E-05 0.00249832 -0.0091245
v -0.00295633 -0.000510029 -0.0094746
v 0.000109848 0.00299799 -0.0094746
v -0.00246361 -0.000425024 -0.0091245
v 0.000386382 0.00246996 -0.0091245
v -0.00287525 -0.000856103 -0.0094746
v 0.000463659 0.00296395 -0.0094746
v -0.00239605 -0.000713419 -0.0091245
v 0.0006758 0.00240693 -0.0091245
v -0.00275382 -0.00119016 -0.0094746
v 0.00081096 0.00288831 -0.0094746
v -0.00229485 -0.0009918 -0.0091245
v 0.000955732 0.0023101 -0.0091245
v -0.00259373 -0.00150751 -0.0094746
v 0.00114688 0.00277212 -0.0094746
v -0.00216144 -0.00125626 -0.0091245
v 0.00122225 0.00218085 -0.0091245
v -0.00239722 -0.0018037 -0.0094746
v 0.0014667 0.00261702 -0.0094746
v -0.00199769 -0.00150308 -0.0091245
v 0.0014716 0.00202099 -0.0091245
v -0.00216707 -0.00207456 -0.0094746
v 0.00176593 0.00242518 -0.0094746
v -0.00180589 -0.0017288 -0.0091245
v 0.0017003 0.00183275 -0.0091245
v -0.00190649 -0.00231631 -0.0094746
v 0.00204036 0.0021993 -0.0094746
v -0.00158874 -0.00193026 -0.0091245
v 0.00190513 0.00161878 -0.0091245
v -0.00161915 -0.00252554 -0.0094746
v 0.00228616 0.00194254 -0.0094746
v -0.0013493 -0.00210461 -0.0091245
v 0.00208322 0.0013821 -0.0091245
v -0.00130909 -0.00269931 -0.0094746
v 0.00249987 0.00165852 -0.0094746
v -0.00109091 -0.00224943 -0.0091245
v 0.00223206 0.00112601 -0.0091245
v -0.000980642 -0.0028352 -0.0094746
v 0.00267848 0.00135121 -0.0094746
v -0.000817201 -0.00236266 -0.0091245
v 0.00234957 0.00085411 -0.0091245
v -0.000638431 -0.00293128 -0.0094746
v 0.00281949 0.00102493 -0.0094746
v -0.000532026 -0.00244273 -0.0091245
v 0.0024341 0.000570223 -0.0091245
v -0.000287258 -0.00298622 -0.0094746
v 0.00292092 0.000684268 -0.0094746
v -0.000239382 -0.00248851 -0.0091245
v 0.00248446 0.000278332 -0.0091245
v 6.794759E-05 -0.00299923 -0.0094746
v 0.00298135 0.000333998 -0.0094746
v 5.6623E-05 -0.00249936 -0.0091245
v 0.00249994 -1.74662E-05 -0.0091245
v 0.000422199 -0.00297014 -0.0094746
v 0.00299993 -2.09595E-05 -0.0094746
v 0.000351833 -0.00247512 -0.0091245
v 0.00248033 -0.000313019 -0.0091245
v 0.000770524 -0.00289936 -0.0094746
v 0.00297639 -0.000375623 -0.0094746
v 0.000642103 -0.00241613 -0.0091245
v 0.0024259 -0.000604178 -0.0091245
v 0.00110803 -0.00278788 -0.0094746
v 0.00291107 -0.000725014 -0.0094746
v 0.00092336 -0.00232323 -0.0091245
v 0.00233741 -0.000886856 -0.0091245
v 0.00142999 -0.00263726 -0.0094746
v 0.00280489 -0.00106423 -0.0094746
v 0.00119166 -0.00219772 -0.0091245
v 0.00221611 -0.00115708 -0.0091245
v 0.00173187 -0.00244962 -0.0094746
v 0.00265934 -0.0013885 -0.0094746
v 0.00144322 -0.00204135 -0.0091245
v 0.00206371 -0.00141107 -0.0091245
v 0.00200944 -0.00222759 -0.0094746
v 0.00247645 -0.00169328 -0.0094746
v 0.00167453 -0.00185633 -0.0091245
v 0.00188233 -0.00164525 -0.0091245
v 0.0022588 -0.0019743 -0.0094746
vn 0.408744 -0.402391 -0.819152
vn 0.408744 -0.402391 -0.819152
vn 0.453467 -0.351223 -0.819152
vn 0.384188 -0.425898 -0.819152
vn 0.453467 -0.351223 -0.819152
vn 0.358283 -0.44791 -0.819152
vn 0.491824 -0.295125 -0.819152
vn 0.358283 -0.44791 -0.819152
vn 0.491824 -0.295125 -0.819152
vn 0.302792 -0.487141 -0.819152
vn 0.523278 -0.234884 -0.819152
vn 0.302792 -0.487141 -0.819152
vn 0.523278 -0.234884 -0.819152
vn 0.243051 -0.519534 -0.819152
vn 0.547385 -0.171345 -0.819152
vn 0.243051 -0.519534 -0.819152
vn 0.547385 -0.171345 -0.819152
vn 0.179899 -0.544634 -0.819152
vn 0.563809 -0.105402 -0.819152
vn 0.179899 -0.544634 -0.819152
vn 0.563809 -0.105402 -0.819152
vn 0.11422 -0.562089 -0.819152
vn 0.572318 -0.0379784 -0.819152
vn 0.11422 -0.562089 -0.819152
vn 0.572318 -0.0379784 -0.819152
vn 0.0469385 -0.571653 -0.819152
vn 0.572793 0.029978 -0.819152
vn 0.0469385 -0.571653 -0.819152
vn 0.572793 0.029978 -0.819152
vn -0.0210021 -0.573192 -0.819152
vn 0.565227 0.0975135 -0.819152
vn -0.0210021 -0.573192 -0.819152
vn 0.565227 0.0975135 -0.819152
vn -0.0886479 -0.566685 -0.819152
vn 0.549726 0.16368 -0.819152
vn -0.0886479 -0.566685 -0.819152
vn 0.549726 0.16368 -0.819152
vn -0.155049 -0.552222 -0.819152
vn 0.526509 0.227549 -0.819152
vn -0.155049 -0.552222 -0.819152
vn 0.526509 0.227549 -0.819152
vn -0.219274 -0.530008 -0.819152
vn 0.4959 0.288224 -0.819152
vn -0.219274 -0.530008 -0.819152
vn 0.4959 0.288224 -0.819152
vn -0.280421 -0.500354 -0.819152
vn 0.45833 0.344853 -0.819152
vn -0.280421 -0.500354 -0.819152
vn 0.45833 0.344853 -0.819152
vn -0.337631 -0.463676 -0.819152
vn 0.414326 0.39664 -0.819152
vn -0.337631 -0.463676 -0.819152
vn 0.414326 0.39664 -0.819152
vn -0.390102 -0.420489 -0.819152
vn 0.364506 0.44286 -0.819152
vn -0.390102 -0.420489 -0.819152
vn 0.364506 0.44286 -0.819152
vn -0.437096 -0.371399 -0.819152
vn 0.30957 0.482863 -0.819152
vn -0.437096 -0.371399 -0.819152
vn 0.30957 0.482863 -0.819152
vn -0.477955 -0.317095 -0.819152
vn 0.250287 0.516088 -0.819152
vn -0.477955 -0.317095 -0.819152
vn 0.250287 0.516088 -0.819152
vn -0.512104 -0.25834 -0.819152
vn 0.187491 0.542067 -0.819152
vn -0.512104 -0.25834 -0.819152
vn 0.187491 0.542067 -0.819152
vn -0.539064 -0.195959 -0.819152
vn 0.122063 0.560438 -0.819152
vn -0.539064 -0.195959 -0.819152
vn 0.122063 0.560438 -0.819152
vn -0.558457 -0.130827 -0.819152
vn 0.0549214 0.570941 -0.819152
vn -0.558457 -0.130827 -0.819152
vn 0.0549214 0.570941 -0.819152
vn -0.570011 -0.0638579 -0.819152
vn -0.012991 0.573429 -0.819152
vn -0.570011 -0.0638579 -0.819152
vn -0.012991 0.573429 -0.819152
vn -0.573562 0.00400729 -0.819152
vn -0.0807212 0.567868 -0.819152
vn -0.573562 0.00400729 -0.819152
vn -0.0807212 0.567868 -0.819152
vn -0.569063 0.0718162 -0.819152
vn -0.147318 0.554335 -0.819152
vn -0.569063 0.0718162 -0.819152
vn -0.147318 0.554335 -0.819152
vn -0.556575 0.138617 -0.819152
vn -0.211847 0.53302 -0.819152
vn -0.556575 0.138617 -0.819152
vn -0.211847 0.53302 -0.819152
vn -0.536273 0.203472 -0.819152
vn -0.273402 0.504223 -0.819152
vn -0.536273 0.203472 -0.819152
vn -0.273402 0.504223 -0.819152
vn -0.508444 0.26547 -0.819152
vn -0.331119 0.468348 -0.819152
vn -0.508444 0.26547 -0.819152
vn -0.331119 0.468348 -0.819152
vn -0.473477 0.323742 -0.819152
vn -0.384188 0.425898 -0.819152
vn -0.473477 0.323742 -0.819152
vn -0.384188 0.425898 -0.819152
vn -0.431864 0.37747 -0.819152
vn -0.431864 0.37747 -0.819152


f 1/1/1 3/3/3 2/2/2
f 1/1/1 2/2/2 4/4/4
f 1/1/1 5/5/5 3/3/3
f 6/6/6 1/1/1 4/4/4
f 5/5/5 7/7/7 3/3/3
f 6/6/6 4/4/4 8/8/8
f 5/5/5 9/9/9 7/7/7
f 10/10/10 6/6/6 8/8/8
f 9/9/9 11/11/11 7/7/7
f 10/10/10 8/8/8 12/12/12
f 9/9/9 13/13/13 11/11/11
f 14/14/14 10/10/10 12/12/12
f 13/13/13 15/15/15 11/11/11
f 14/14/14 12/12/12 16/16/16
f 13/13/13 17/17/17 15/15/15
f 18/18/18 14/14/14 16/16/16
f 17/17/17 19/19/19 15/15/15
f 18/18/18 16/16/16 20/20/20
f 17/17/17 21/21/21 19/19/19
f 22/22/22 18/18/18 20/20/20
f 21/21/21 23/23/23 19/19/19
f 22/22/22 20/20/20 24/24/24
f 21/21/21 25/25/25 23/23/23
f 26/26/26 22/22/22 24/24/24
f 25/25/25 27/27/27 23/23/23
f 26/26/26 24/24/24 28/28/28
f 25/25/25 29/29/29 27/27/27
f 30/30/30 26/26/26 28/28/28
f 29/29/29 31/31/31 27/27/27
f 30/30/30 28/28/28 32/32/32
f 29/29/29 33/33/33 31/31/31
f 34/34/34 30/30/30 32/32/32
f 33/33/33 35/35/35 31/31/31
f 34/34/34 32/32/32 36/36/36
f 33/33/33 37/37/37 35/35/35
f 38/38/38 34/34/34 36/36/36
f 37/37/37 39/39/39 35/35/35
f 38/38/38 36/36/36 40/40/40
f 37/37/37 41/41/41 39/39/39
f 42/42/42 38/38/38 40/40/40
f 41/41/41 43/43/43 39/39/39
f 42/42/42 40/40/40 44/44/44
f 41/41/41 45/45/45 43/43/43
f 46/46/46 42/42/42 44/44/44
f 45/45/45 47/47/47 43/43/43
f 46/46/46 44/44/44 48/48/48
f 45/45/45 49/49/49 47/47/47
f 50/50/50 46/46/46 48/48/48
f 49/49/49 51/51/51 47/47/47
f 50/50/50 48/48/48 52/52/52
f 49/49/49 53/53/53 51/51/51
f 54/54/54 50/50/50 52/52/52
f 53/53/53 55/55/55 51/51/51
f 54/54/54 52/52/52 56/56/56
f 53/53/53 57/57/57 55/55/55
f 58/58/58 54/54/54 56/56/56
f 57/57/57 59/59/59 55/55/55
f 58/58/58 56/56/56 60/60/60
f 57/57/57 61/61/61 59/59/59
f 62/62/62 58/58/58 60/60/60
f 61/61/61 63/63/63 59/59/59
f 62/62/62 60/60/60 64/64/64
f 61/61/61 65/65/65 63/63/63
f 66/66/66 62/62/62 64/64/64
f 65/65/65 67/67/67 63/63/63
f 66/66/66 64/64/64 68/68/68
f 65/65/65 69/69/69 67/67/67
f 70/70/70 66/66/66 68/68/68
f 69/69/69 71/71/71 67/67/67
f 70/70/70 68/68/68 72/72/72
f 69/69/69 73/73/73 71/71/71
f 74/74/74 70/70/70 72/72/72
f 73/73/73 75/75/75 71/71/71
f 74/74/74 72/72/72 76/76/76
f 73/73/73 77/77/77 75/75/75
f 78/78/78 74/74/74 76/76/76
f 77/77/77 79/79/79 75/75/75
f 78/78/78 76/76/76 80/80/80
f 77/77/77 81/81/81 79/79/79
f 82/82/82 78/78/78 80/80/80
f 81/81/81 83/83/83 79/79/79
f 82/82/82 80/80/80 84/84/84
f 81/81/81 85/85/85 83/83/83
f 86/86/86 82/82/82 84/84/84
f 85/85/85 87/87/87 83/83/83
f 86/86/86 84/84/84 88/88/88
f 85/85/85 89/89/89 87/87/87
f 90/90/90 86/86/86 88/88/88
f 89/89/89 91/91/91 87/87/87
f 90/90/90 88/88/88 92/92/92
f 89/89/89 93/93/93 91/91/91
f 94/94/94 90/90/90 92/92/92
f 93/93/93 95/95/95 91/91/91
f 94/94/94 92/92/92 96/96/96
f 93/93/93 97/97/97 95/95/95
f 98/98/98 94/94/94 96/96/96
f 97/97/97 99/99/99 95/95/95
f 98/98/98 96/96/96 100/100/100
f 97/97/97 101/101/101 99/99/99
f 102/102/102 98/98/98 100/100/100
f 101/101/101 103/103/103 99/99/99
f 102/102/102 100/100/100 104/104/104
f 101/101/101 105/105/105 103/103/103
f 106/106/106 102/102/102 104/104/104
f 105/105/105 107/107/107 103/103/103
f 106/106/106 104/104/104 107/107/107
f 105/105/105 106/106/106 107/107/107
