v 0 0 -0.0204
v -0.00226006 0.000934138 -0.0204
v -0.00242482 0.000317362 -0.0204
v -0.00194127 0.00148725 -0.0204
v -0.00242434 -0.000321041 -0.0204
v -0.0014902 0.00193902 -0.0204
v -0.00225864 -0.000937566 -0.0204
v -0.000937566 0.00225864 -0.0204
v -0.00193902 -0.0014902 -0.0204
v -0.000321041 0.00242434 -0.0204
v -0.00148725 -0.00194127 -0.0204
v 0.000317362 0.00242482 -0.0204
v -0.000934138 -0.00226006 -0.0204
v 0.000934138 0.00226006 -0.0204
v -0.000317362 -0.00242482 -0.0204
v 0.00148725 0.00194127 -0.0204
v 0.000321041 -0.00242434 -0.0204
v 0.00193902 0.0014902 -0.0204
v 0.000937566 -0.00225864 -0.0204
v 0.00225864 0.000937566 -0.0204
v 0.0014902 -0.00193902 -0.0204
v 0.00242434 0.000321041 -0.0204
v 0.00194127 -0.00148725 -0.0204
v 0.00242482 -0.000317362 -0.0204
v 0.00226006 -0.000934138 -0.0204
v -0.00277251 0.00114595 0.02935
v -0.00277251 0.00114595 -0.0198455
v -0.00238145 0.00182448 0.02935
v -0.00297463 0.000389322 -0.0198455
v -0.00238145 0.00182448 -0.0198455
v -0.00297463 0.000389322 0.02935
v -0.00182809 0.00237867 0.02935
v -0.00297404 -0.000393835 -0.0198455
v -0.00182809 0.00237867 -0.0198455
v -0.00297404 -0.000393835 0.02935
v -0.00182809 0.00237867 0.02935
v -0.00182809 0.00237867 -0.0198455
v -0.00115015 0.00277077 0.02935
v -0.00297404 -0.000393835 0.02935
v -0.00277077 -0.00115015 -0.0198455
v -0.00297404 -0.000393835 -0.0198455
v -0.00115015 0.00277077 -0.0198455
v -0.00277077 -0.00115015 0.02935
v -0.000393835 0.00297404 0.02935
v -0.00237867 -0.00182809 -0.0198455
v -0.000393835 0.00297404 -0.0198455
v -0.00237867 -0.00182809 0.02935
v 0.000389322 0.00297463 0.02935
v -0.00182448 -0.00238145 -0.0198455
v 0.000389322 0.00297463 -0.0198455
v -0.00182448 -0.00238145 0.02935
v 0.00114595 0.00277251 0.02935
v -0.00114595 -0.00277251 -0.0198455
v 0.00114595 0.00277251 -0.0198455
v -0.00114595 -0.00277251 0.02935
v 0.00182448 0.00238145 0.02935
v -0.00114595 -0.00277251 0.02935
v -0.000389322 -0.00297463 -0.0198455
v -0.00114595 -0.00277251 -0.0198455
v 0.00182448 0.00238145 -0.0198455
v -0.000389322 -0.00297463 0.02935
v 0.00182448 0.00238145 0.02935
v 0.00182448 0.00238145 -0.0198455
v 0.00237867 0.00182809 0.02935
v 0.000393835 -0.00297404 -0.0198455
v 0.00237867 0.00182809 -0.0198455
v 0.000393835 -0.00297404 0.02935
v 0.00277077 0.00115015 0.02935
v 0.00115015 -0.00277077 -0.0198455
v 0.00277077 0.00115015 -0.0198455
v 0.00115015 -0.00277077 0.02935
v 0.00297404 0.000393835 0.02935
v 0.00182809 -0.00237867 -0.0198455
v 0.00297404 0.000393835 -0.0198455
v 0.00182809 -0.00237867 0.02935
v 0.00297463 -0.000389322 0.02935
v 0.00238145 -0.00182448 -0.0198455
v 0.00297463 -0.000389322 -0.0198455
v 0.00238145 -0.00182448 0.02935
v 0.00277251 -0.00114595 0.02935
v 0.00277251 -0.00114595 -0.0198455
v 0.00277251 -0.00114595 -0.0198455
v 0.00277251 -0.00114595 0.02935
v -0.00277251 0.00114595 -0.0198455
v -0.00226006 0.000934138 -0.0204
v -0.00238145 0.00182448 -0.0198455
v -0.00242482 0.000317362 -0.0204
v -0.00194127 0.00148725 -0.0204
v -0.00297463 0.000389322 -0.0198455
v -0.00182809 0.00237867 -0.0198455
v -0.00242434 -0.000321041 -0.0204
v -0.0014902 0.00193902 -0.0204
v -0.00297404 -0.000393835 -0.0198455
v -0.00115015 0.00277077 -0.0198455
v -0.00225864 -0.000937566 -0.0204
v -0.000937566 0.00225864 -0.0204
v -0.00277077 -0.00115015 -0.0198455
v -0.000393835 0.00297404 -0.0198455
v -0.00193902 -0.0014902 -0.0204
v -0.000321041 0.00242434 -0.0204
v -0.00237867 -0.00182809 -0.0198455
v 0.000389322 0.00297463 -0.0198455
v -0.00148725 -0.00194127 -0.0204
v 0.000317362 0.00242482 -0.0204
v -0.00182448 -0.00238145 -0.0198455
v 0.00114595 0.00277251 -0.0198455
v -0.000934138 -0.00226006 -0.0204
v 0.000934138 0.00226006 -0.0204
v -0.00114595 -0.00277251 -0.0198455
v 0.00182448 0.00238145 -0.0198455
v -0.000317362 -0.00242482 -0.0204
v 0.00148725 0.00194127 -0.0204
v -0.000389322 -0.00297463 -0.0198455
v 0.00237867 0.00182809 -0.0198455
v 0.000321041 -0.00242434 -0.0204
v 0.00193902 0.0014902 -0.0204
v 0.000393835 -0.00297404 -0.0198455
v 0.00277077 0.00115015 -0.0198455
v 0.000937566 -0.00225864 -0.0204
v 0.00225864 0.000937566 -0.0204
v 0.00115015 -0.00277077 -0.0198455
v 0.00297404 0.000393835 -0.0198455
v 0.0014902 -0.00193902 -0.0204
v 0.00242434 0.000321041 -0.0204
v 0.00182809 -0.00237867 -0.0198455
v 0.00297463 -0.000389322 -0.0198455
v 0.00194127 -0.00148725 -0.0204
v 0.00242482 -0.000317362 -0.0204
v 0.00238145 -0.00182448 -0.0198455
v 0.00277251 -0.00114595 -0.0198455
v 0.00226006 -0.000934138 -0.0204
vn 0 0 -1
vn 0 0 -1
vn 0 0 -1
vn 0 0 -1
vn 0 0 -1
vn 0 0 -1
vn 0 0 -1
vn 0 0 -1
vn 0 0 -1
vn 0 0 -1
vn 0 0 -1
vn 0 0 -1
vn 0 0 -1
vn 0 0 -1
vn 0 0 -1
vn 0 0 -1
vn 0 0 -1
vn 0 0 -1
vn 0 0 -1
vn 0 0 -1
vn 0 0 -1
vn 0 0 -1
vn 0 0 -1
vn 0 0 -1
vn 0 0 -1
vn -0.92417 0.381982 0
vn -0.92417 0.381982 0
vn -0.793815 0.608159 0
vn -0.991544 0.129774 0
vn -0.793815 0.608159 0
vn -0.991544 0.129774 0
vn -0.609363 0.792891 0
vn -0.991346 -0.131278 0
vn -0.609363 0.792891 0
vn -0.991346 -0.131278 0
vn -0.609363 0.792891 0
vn -0.609363 0.792891 0
vn -0.383384 0.923589 0
vn -0.991346 -0.131278 0
vn -0.923589 -0.383384 0
vn -0.991346 -0.131278 0
vn -0.383384 0.923589 0
vn -0.923589 -0.383384 0
vn -0.131278 0.991346 0
vn -0.792891 -0.609363 0
vn -0.131278 0.991346 0
vn -0.792891 -0.609363 0
vn 0.129774 0.991544 0
vn -0.608159 -0.793815 0
vn 0.129774 0.991544 0
vn -0.608159 -0.793815 0
vn 0.381982 0.92417 0
vn -0.381982 -0.92417 0
vn 0.381982 0.92417 0
vn -0.381982 -0.92417 0
vn 0.608159 0.793815 0
vn -0.381982 -0.92417 0
vn -0.129774 -0.991544 0
vn -0.381982 -0.92417 0
vn 0.608159 0.793815 0
vn -0.129774 -0.991544 0
vn 0.608159 0.793815 0
vn 0.608159 0.793815 0
vn 0.792891 0.609363 0
vn 0.131278 -0.991346 0
vn 0.792891 0.609363 0
vn 0.131278 -0.991346 0
vn 0.923589 0.383384 0
vn 0.383384 -0.923589 0
vn 0.923589 0.383384 0
vn 0.383384 -0.923589 0
vn 0.991346 0.131278 0
vn 0.609363 -0.792891 0
vn 0.991346 0.131278 0
vn 0.609363 -0.792891 0
vn 0.991544 -0.129774 0
vn 0.793815 -0.608159 0
vn 0.991544 -0.129774 0
vn 0.793815 -0.608159 0
vn 0.92417 -0.381982 0
vn 0.92417 -0.381982 0
vn 0.92417 -0.381982 0
vn 0.92417 -0.381982 0
vn -0.653487 0.270102 -0.707107
vn -0.653487 0.270102 -0.707107
vn -0.561312 0.430034 -0.707107
vn -0.701127 0.091764 -0.707107
vn -0.561312 0.430034 -0.707107
vn -0.701127 0.091764 -0.707107
vn -0.430885 0.560659 -0.707107
vn -0.700987 -0.0928279 -0.707107
vn -0.430885 0.560659 -0.707107
vn -0.700987 -0.0928279 -0.707107
vn -0.271094 0.653076 -0.707107
vn -0.653076 -0.271094 -0.707107
vn -0.271094 0.653076 -0.707107
vn -0.653076 -0.271094 -0.707107
vn -0.0928279 0.700987 -0.707107
vn -0.560659 -0.430885 -0.707107
vn -0.0928279 0.700987 -0.707107
vn -0.560659 -0.430885 -0.707107
vn 0.091764 0.701127 -0.707107
vn -0.430034 -0.561312 -0.707107
vn 0.091764 0.701127 -0.707107
vn -0.430034 -0.561312 -0.707107
vn 0.270102 0.653487 -0.707107
vn -0.270102 -0.653487 -0.707107
vn 0.270102 0.653487 -0.707107
vn -0.270102 -0.653487 -0.707107
vn 0.430034 0.561312 -0.707107
vn -0.091764 -0.701127 -0.707107
vn 0.430034 0.561312 -0.707107
vn -0.091764 -0.701127 -0.707107
vn 0.560659 0.430885 -0.707107
vn 0.0928279 -0.700987 -0.707107
vn 0.560659 0.430885 -0.707107
vn 0.0928279 -0.700987 -0.707107
vn 0.653076 0.271094 -0.707107
vn 0.271094 -0.653076 -0.707107
vn 0.653076 0.271094 -0.707107
vn 0.271094 -0.653076 -0.707107
vn 0.700987 0.0928279 -0.707107
vn 0.430885 -0.560659 -0.707107
vn 0.700987 0.0928279 -0.707107
vn 0.430885 -0.560659 -0.707107
vn 0.701127 -0.091764 -0.707107
vn 0.561312 -0.430034 -0.707107
vn 0.701127 -0.091764 -0.707107
vn 0.561312 -0.430034 -0.707107
vn 0.653487 -0.270102 -0.707107
vn 0.653487 -0.270102 -0.707107


f 1/1/1 3/3/3 2/2/2
f 1/1/1 2/2/2 4/4/4
f 3/3/3 1/1/1 5/5/5
f 6/6/6 1/1/1 4/4/4
f 1/1/1 7/7/7 5/5/5
f 1/1/1 6/6/6 8/8/8
f 1/1/1 9/9/9 7/7/7
f 1/1/1 8/8/8 10/10/10
f 9/9/9 1/1/1 11/11/11
f 12/12/12 1/1/1 10/10/10
f 1/1/1 13/13/13 11/11/11
f 1/1/1 12/12/12 14/14/14
f 1/1/1 15/15/15 13/13/13
f 1/1/1 14/14/14 16/16/16
f 15/15/15 1/1/1 17/17/17
f 18/18/18 1/1/1 16/16/16
f 1/1/1 19/19/19 17/17/17
f 1/1/1 18/18/18 20/20/20
f 1/1/1 21/21/21 19/19/19
f 1/1/1 20/20/20 22/22/22
f 21/21/21 1/1/1 23/23/23
f 24/24/24 1/1/1 22/22/22
f 1/1/1 25/25/25 23/23/23
f 1/1/1 24/24/24 25/25/25
f 26/26/26 28/28/28 27/27/27
f 26/26/26 27/27/27 29/29/29
f 28/28/28 30/30/30 27/27/27
f 31/31/31 26/26/26 29/29/29
f 28/28/28 32/32/32 30/30/30
f 31/31/31 29/29/29 33/33/33
f 32/32/32 34/34/34 30/30/30
f 35/35/35 31/31/31 33/33/33
f 36/36/36 38/38/38 37/37/37
f 39/39/39 41/41/41 40/40/40
f 38/38/38 42/42/42 37/37/37
f 43/43/43 39/39/39 40/40/40
f 38/38/38 44/44/44 42/42/42
f 43/43/43 40/40/40 45/45/45
f 44/44/44 46/46/46 42/42/42
f 47/47/47 43/43/43 45/45/45
f 44/44/44 48/48/48 46/46/46
f 47/47/47 45/45/45 49/49/49
f 48/48/48 50/50/50 46/46/46
f 51/51/51 47/47/47 49/49/49
f 48/48/48 52/52/52 50/50/50
f 51/51/51 49/49/49 53/53/53
f 52/52/52 54/54/54 50/50/50
f 55/55/55 51/51/51 53/53/53
f 52/52/52 56/56/56 54/54/54
f 57/57/57 59/59/59 58/58/58
f 56/56/56 60/60/60 54/54/54
f 61/61/61 57/57/57 58/58/58
f 62/62/62 64/64/64 63/63/63
f 61/61/61 58/58/58 65/65/65
f 64/64/64 66/66/66 63/63/63
f 67/67/67 61/61/61 65/65/65
f 64/64/64 68/68/68 66/66/66
f 67/67/67 65/65/65 69/69/69
f 68/68/68 70/70/70 66/66/66
f 71/71/71 67/67/67 69/69/69
f 68/68/68 72/72/72 70/70/70
f 71/71/71 69/69/69 73/73/73
f 72/72/72 74/74/74 70/70/70
f 75/75/75 71/71/71 73/73/73
f 72/72/72 76/76/76 74/74/74
f 75/75/75 73/73/73 77/77/77
f 76/76/76 78/78/78 74/74/74
f 79/79/79 75/75/75 77/77/77
f 76/76/76 80/80/80 78/78/78
f 79/79/79 77/77/77 81/81/81
f 80/80/80 82/82/82 78/78/78
f 83/83/83 79/79/79 81/81/81
f 84/84/84 86/86/86 85/85/85
f 84/84/84 85/85/85 87/87/87
f 86/86/86 88/88/88 85/85/85
f 89/89/89 84/84/84 87/87/87
f 86/86/86 90/90/90 88/88/88
f 89/89/89 87/87/87 91/91/91
f 90/90/90 92/92/92 88/88/88
f 93/93/93 89/89/89 91/91/91
f 90/90/90 94/94/94 92/92/92
f 93/93/93 91/91/91 95/95/95
f 94/94/94 96/96/96 92/92/92
f 97/97/97 93/93/93 95/95/95
f 94/94/94 98/98/98 96/96/96
f 97/97/97 95/95/95 99/99/99
f 98/98/98 100/100/100 96/96/96
f 101/101/101 97/97/97 99/99/99
f 98/98/98 102/102/102 100/100/100
f 101/101/101 99/99/99 103/103/103
f 102/102/102 104/104/104 100/100/100
f 105/105/105 101/101/101 103/103/103
f 102/102/102 106/106/106 104/104/104
f 105/105/105 103/103/103 107/107/107
f 106/106/106 108/108/108 104/104/104
f 109/109/109 105/105/105 107/107/107
f 106/106/106 110/110/110 108/108/108
f 109/109/109 107/107/107 111/111/111
f 110/110/110 112/112/112 108/108/108
f 113/113/113 109/109/109 111/111/111
f 110/110/110 114/114/114 112/112/112
f 113/113/113 111/111/111 115/115/115
f 114/114/114 116/116/116 112/112/112
f 117/117/117 113/113/113 115/115/115
f 114/114/114 118/118/118 116/116/116
f 117/117/117 115/115/115 119/119/119
f 118/118/118 120/120/120 116/116/116
f 121/121/121 117/117/117 119/119/119
f 118/118/118 122/122/122 120/120/120
f 121/121/121 119/119/119 123/123/123
f 122/122/122 124/124/124 120/120/120
f 125/125/125 121/121/121 123/123/123
f 122/122/122 126/126/126 124/124/124
f 125/125/125 123/123/123 127/127/127
f 126/126/126 128/128/128 124/124/124
f 129/129/129 125/125/125 127/127/127
f 126/126/126 130/130/130 128/128/128
f 129/129/129 127/127/127 131/131/131
f 130/130/130 131/131/131 128/128/128
f 130/130/130 129/129/129 131/131/131
