v -0.04 0.0292411 0.0041817
v -0.04 0.0277099 0.00947722
v -0.04 0.026605 0.00913984
v -0.04 0.0288468 0.00968157
v -0.04 0.0285067 0.003979
v -0.04 0.0255479 0.00867416
v -0.04 0.03 0.00425
v -0.04 0.03 0.00975
v -0.04 0.0311532 0.00968157
v -0.04 0.0307589 0.0041817
v -0.04 0.0322901 0.00947722
v -0.04 0.0278202 0.00364841
v -0.04 0.0245532 0.00808671
v -0.04 0.023635 0.00738573
v -0.04 0.0272038 0.00320055
v -0.04 0.0228061 0.00658108
v -0.04 0.0314933 0.003979
v -0.04 0.033395 0.00913984
v -0.04 0.0344521 0.00867416
v -0.04 0.0321798 0.00364841
v -0.04 0.0354468 0.00808671
v -0.04 0.0266772 0.00264983
v -0.04 0.0220783 0.00568405
v -0.04 0.0214616 0.00470722
v -0.04 0.0262575 0.00201394
v -0.04 0.0209648 0.00366432
v -0.04 0.0327962 0.00320055
v -0.04 0.036365 0.00738573
v -0.04 0.0371939 0.00658108
v -0.04 0.0333228 0.00264983
v -0.04 0.0379217 0.00568405
v -0.04 0.025958 0.00131332
v -0.04 0.0205948 0.00256997
v -0.04 0.0203569 0.00143955
v -0.04 0.0257885 0.000570491
v -0.04 0.0202543 0.000288925
v -0.04 0.0337425 0.00201394
v -0.04 0.0385384 0.00470722
v -0.04 0.0390352 0.00366432
v -0.04 0.034042 0.00131332
v -0.04 0.0394052 0.00256997
v -0.04 0.0257543 -0.000190676
v -0.04 0.0202885 -0.00086576
v -0.04 0.0204591 -0.00200829
v -0.04 0.0258566 -0.000945714
v -0.04 0.0207636 -0.00312263
v -0.04 0.0342115 0.000570491
v -0.04 0.0396431 0.00143955
v -0.04 0.0397457 0.000288925
v -0.04 0.0342457 -0.000190676
v -0.04 0.0397115 -0.00086576
v -0.04 0.026092 -0.00167036
v -0.04 0.0211977 -0.00419314
v -0.04 0.0217554 -0.00520478
v -0.04 0.0264531 -0.00234131
v -0.04 0.0224289 -0.00614336
v -0.04 0.0341434 -0.000945714
v -0.04 0.0395409 -0.00200829
v -0.04 0.0392364 -0.00312263
v -0.04 0.033908 -0.00167036
v -0.04 0.0388023 -0.00419314
v -0.04 0.0269281 -0.00293702
v -0.04 0.0232086 -0.0069957
v -0.04 0.0240837 -0.00774983
v -0.04 0.0275019 -0.00343832
v -0.04 0.0250418 -0.00839518
v -0.04 0.0335469 -0.00234131
v -0.04 0.0382446 -0.00520478
v -0.04 0.0375711 -0.00614336
v -0.04 0.0330719 -0.00293702
v -0.04 0.0367914 -0.0069957
v -0.04 0.028156 -0.00382912
v -0.04 0.0260695 -0.00892267
v -0.04 0.0271524 -0.00932491
v -0.04 0.0288693 -0.00409684
v -0.04 0.0282753 -0.00959625
v -0.04 0.0324981 -0.00343832
v -0.04 0.0359163 -0.00774983
v -0.04 0.0349582 -0.00839518
v -0.04 0.031844 -0.00382912
v -0.04 0.0339305 -0.00892267
v -0.04 0.029619 -0.00423289
v -0.04 0.0294224 -0.00973288
v -0.04 0.0305776 -0.00973288
v -0.04 0.030381 -0.00423289
v -0.04 0.0317247 -0.00959625
v -0.04 0.0311307 -0.00409684
v -0.04 0.0328476 -0.00932491
vn -1 0 0
vn -1 0 0
vn -1 0 0
vn -1 0 0
vn -1 0 0
vn -1 0 0
vn -1 0 0
vn -1 0 0
vn -1 0 0
vn -1 0 0
vn -1 0 0
vn -1 0 0
vn -1 0 0
vn -1 0 0
vn -1 0 0
vn -1 0 0
vn -1 0 0
vn -1 0 0
vn -1 0 0
vn -1 0 0
vn -1 0 0
vn -1 0 0
vn -1 0 0
vn -1 0 0
vn -1 0 0
vn -1 0 0
vn -1 0 0
vn -1 0 0
vn -1 0 0
vn -1 0 0
vn -1 0 0
vn -1 0 0
vn -1 0 0
vn -1 0 0
vn -1 0 0
vn -1 0 0
vn -1 0 0
vn -1 0 0
vn -1 0 0
vn -1 0 0
vn -1 0 0
vn -1 0 0
vn -1 0 0
vn -1 0 0
vn -1 0 0
vn -1 0 0
vn -1 0 0
vn -1 0 0
vn -1 0 0
vn -1 0 0
vn -1 0 0
vn -1 0 0
vn -1 0 0
vn -1 0 0
vn -1 0 0
vn -1 0 0
vn -1 0 0
vn -1 0 0
vn -1 0 0
vn -1 0 0
vn -1 0 0
vn -1 0 0
vn -1 0 0
vn -1 0 0
vn -1 0 0
vn -1 0 0
vn -1 0 0
vn -1 0 0
vn -1 0 0
vn -1 0 0
vn -1 0 0
vn -1 0 0
vn -1 0 0
vn -1 0 0
vn -1 0 0
vn -1 0 0
vn -1 0 0
vn -1 0 0
vn -1 0 0
vn -1 0 0
vn -1 0 0
vn -1 0 0
vn -1 0 0
vn -1 0 0
vn -1 0 0
vn -1 0 0
vn -1 0 0
vn -1 0 0


f 1/1/1 3/3/3 2/2/2
f 1/1/1 2/2/2 4/4/4
f 1/1/1 5/5/5 3/3/3
f 5/5/5 6/6/6 3/3/3
f 7/7/7 1/1/1 4/4/4
f 7/7/7 4/4/4 8/8/8
f 7/7/7 8/8/8 9/9/9
f 10/10/10 7/7/7 9/9/9
f 10/10/10 9/9/9 11/11/11
f 5/5/5 12/12/12 6/6/6
f 6/6/6 12/12/12 13/13/13
f 12/12/12 14/14/14 13/13/13
f 12/12/12 15/15/15 14/14/14
f 15/15/15 16/16/16 14/14/14
f 17/17/17 10/10/10 11/11/11
f 17/17/17 11/11/11 18/18/18
f 19/19/19 17/17/17 18/18/18
f 20/20/20 17/17/17 19/19/19
f 20/20/20 19/19/19 21/21/21
f 15/15/15 22/22/22 16/16/16
f 16/16/16 22/22/22 23/23/23
f 22/22/22 24/24/24 23/23/23
f 22/22/22 25/25/25 24/24/24
f 25/25/25 26/26/26 24/24/24
f 27/27/27 20/20/20 21/21/21
f 27/27/27 21/21/21 28/28/28
f 29/29/29 27/27/27 28/28/28
f 30/30/30 27/27/27 29/29/29
f 30/30/30 29/29/29 31/31/31
f 25/25/25 32/32/32 26/26/26
f 26/26/26 32/32/32 33/33/33
f 32/32/32 34/34/34 33/33/33
f 32/32/32 35/35/35 34/34/34
f 35/35/35 36/36/36 34/34/34
f 37/37/37 30/30/30 31/31/31
f 37/37/37 31/31/31 38/38/38
f 39/39/39 37/37/37 38/38/38
f 40/40/40 37/37/37 39/39/39
f 40/40/40 39/39/39 41/41/41
f 35/35/35 42/42/42 36/36/36
f 36/36/36 42/42/42 43/43/43
f 42/42/42 44/44/44 43/43/43
f 42/42/42 45/45/45 44/44/44
f 45/45/45 46/46/46 44/44/44
f 47/47/47 40/40/40 41/41/41
f 47/47/47 41/41/41 48/48/48
f 47/47/47 48/48/48 49/49/49
f 50/50/50 47/47/47 49/49/49
f 50/50/50 49/49/49 51/51/51
f 45/45/45 52/52/52 46/46/46
f 52/52/52 53/53/53 46/46/46
f 52/52/52 54/54/54 53/53/53
f 52/52/52 55/55/55 54/54/54
f 55/55/55 56/56/56 54/54/54
f 57/57/57 50/50/50 51/51/51
f 57/57/57 51/51/51 58/58/58
f 59/59/59 57/57/57 58/58/58
f 60/60/60 57/57/57 59/59/59
f 60/60/60 59/59/59 61/61/61
f 55/55/55 62/62/62 56/56/56
f 56/56/56 62/62/62 63/63/63
f 62/62/62 64/64/64 63/63/63
f 62/62/62 65/65/65 64/64/64
f 65/65/65 66/66/66 64/64/64
f 67/67/67 60/60/60 61/61/61
f 67/67/67 61/61/61 68/68/68
f 67/67/67 68/68/68 69/69/69
f 70/70/70 67/67/67 69/69/69
f 70/70/70 69/69/69 71/71/71
f 65/65/65 72/72/72 66/66/66
f 66/66/66 72/72/72 73/73/73
f 72/72/72 74/74/74 73/73/73
f 72/72/72 75/75/75 74/74/74
f 75/75/75 76/76/76 74/74/74
f 77/77/77 70/70/70 71/71/71
f 77/77/77 71/71/71 78/78/78
f 77/77/77 78/78/78 79/79/79
f 80/80/80 77/77/77 79/79/79
f 80/80/80 79/79/79 81/81/81
f 75/75/75 82/82/82 76/76/76
f 76/76/76 82/82/82 83/83/83
f 82/82/82 84/84/84 83/83/83
f 82/82/82 85/85/85 84/84/84
f 85/85/85 86/86/86 84/84/84
f 87/87/87 80/80/80 81/81/81
f 85/85/85 87/87/87 86/86/86
f 87/87/87 81/81/81 88/88/88
f 86/86/86 87/87/87 88/88/88
