v -0.00155399 -0.0218686 -0.0284454
v -0.00179088 -0.0221137 -0.0281096
v -0.00147748 -0.0218686 -0.0282655
v -0.00188362 -0.0221137 -0.0283277
v -0.00167301 -0.0221137 -0.0279041
v -0.00160868 -0.0218686 -0.028633
v -0.00138023 -0.0218686 -0.0280959
v -0.00194991 -0.0221137 -0.0285552
v -0.00153165 -0.0221137 -0.0277139
v -0.00164079 -0.0218686 -0.0288259
v -0.00126361 -0.0218686 -0.027939
v -0.00198883 -0.0221137 -0.028789
v -0.00136879 -0.0221137 -0.0275418
v -0.00164986 -0.0218686 -0.0290212
v -0.00112925 -0.0218686 -0.027797
v -0.00199984 -0.0221137 -0.0290257
v -0.00118671 -0.0221137 -0.0273901
v -0.00163578 -0.0218686 -0.0292162
v -0.000979036 -0.0218686 -0.0276718
v -0.00198276 -0.0221137 -0.029262
v -0.000987975 -0.0221137 -0.0272611
v -0.00159873 -0.0218686 -0.0294081
v -0.000815079 -0.0218686 -0.0275654
v -0.00193786 -0.0221137 -0.0294947
v -0.000775371 -0.0221137 -0.0271564
v -0.00153924 -0.0218686 -0.0295943
v -0.000639681 -0.0218686 -0.027479
v -0.00186575 -0.0221137 -0.0297204
v -0.000551882 -0.0221137 -0.0270777
v -0.00145815 -0.0218686 -0.0297722
v -0.000455303 -0.0218686 -0.0274141
v -0.00176745 -0.0221137 -0.029936
v -0.000320646 -0.0221137 -0.0270259
v -0.00135658 -0.0218686 -0.0299392
v -0.000264533 -0.0218686 -0.0273713
v -0.00164434 -0.0221137 -0.0301385
v -8.490909E-05 -0.0221137 -0.0270018
v -0.00123597 -0.0218686 -0.0300931
v -7.005E-05 -0.0218686 -0.0273515
v -0.00149815 -0.0221137 -0.030325
v 0.00015202 -0.0221137 -0.0270058
v -0.00109801 -0.0218686 -0.0302316
v 0.000125416 -0.0218686 -0.0273548
v -0.00133092 -0.0221137 -0.0304929
v 0.000386815 -0.0221137 -0.0270378
v -0.000944638 -0.0218686 -0.0303528
v 0.000319122 -0.0218686 -0.0273812
v -0.00114502 -0.0221137 -0.0306398
v 0.00061618 -0.0221137 -0.0270973
v -0.000778004 -0.0218686 -0.0304551
v 0.000508348 -0.0218686 -0.0274303
v -0.000943035 -0.0221137 -0.0307637
v 0.000836895 -0.0221137 -0.0271835
v -0.000600448 -0.0218686 -0.0305369
v 0.000690438 -0.0218686 -0.0275014
v -0.000727816 -0.0221137 -0.0308629
v 0.00104586 -0.0221137 -0.0272953
v -0.000414463 -0.0218686 -0.0305971
v 0.000862836 -0.0218686 -0.0275936
v -0.00050238 -0.0221137 -0.0309359
v 0.00124015 -0.0221137 -0.0274309
v -0.00022266 -0.0218686 -0.0306349
v 0.00102312 -0.0218686 -0.0277055
v -0.000269891 -0.0221137 -0.0309817
v 0.00141702 -0.0221137 -0.0275886
v -2.7732E-05 -0.0218686 -0.0306498
v 0.00116904 -0.0218686 -0.0278356
v -3.36145E-05 -0.0221137 -0.0309997
v 0.00157401 -0.0221137 -0.0277661
v 0.000167586 -0.0218686 -0.0306415
v 0.00129856 -0.0218686 -0.027982
v 0.000203134 -0.0221137 -0.0309897
v 0.0017089 -0.0221137 -0.0279609
v 0.000360551 -0.0218686 -0.0306101
v 0.00140984 -0.0218686 -0.0281428
v 0.000437032 -0.0221137 -0.0309517
v 0.0018198 -0.0221137 -0.0281703
v 0.000548455 -0.0218686 -0.0305562
v 0.00150133 -0.0218686 -0.0283155
v 0.000664794 -0.0221137 -0.0308863
v 0.00190515 -0.0221137 -0.0283914
v 0.00072866 -0.0218686 -0.0304804
v 0.00157175 -0.0218686 -0.0284979
v 0.000883224 -0.0221137 -0.0307944
v 0.00196376 -0.0221137 -0.028621
v 0.000898636 -0.0218686 -0.0303838
v 0.0016201 -0.0218686 -0.0286873
v 0.00108926 -0.0221137 -0.0306774
v 0.0019948 -0.0221137 -0.0288559
v 0.001056 -0.0218686 -0.0302678
v 0.00164571 -0.0218686 -0.0288811
v 0.00128 -0.0221137 -0.0305368
v 0.00199784 -0.0221137 -0.0290929
v 0.00119853 -0.0218686 -0.030134
v 0.00164822 -0.0218686 -0.0290766
v 0.00145277 -0.0221137 -0.0303746
v 0.00197284 -0.0221137 -0.0293285
v 0.00132425 -0.0218686 -0.0299843
v 0.00162759 -0.0218686 -0.029271
v 0.00160515 -0.0221137 -0.0301931
v 0.00192014 -0.0221137 -0.0295595
v 0.00138023 -0.0218686 -0.0299041
v 0.00158411 -0.0218686 -0.0294616
v 0.00167301 -0.0221137 -0.0300959
v 0.00184048 -0.0221137 -0.0297827
v 0.00143137 -0.0218686 -0.0298208
v 0.0015184 -0.0218686 -0.0296457
v 0.00173499 -0.0221137 -0.0299949
vn 0.5402 -0.819152 -0.192806
vn 0.513604 -0.819152 -0.255344
vn 0.513604 -0.819152 -0.255344
vn 0.5402 -0.819152 -0.192806
vn 0.479799 -0.819152 -0.314297
vn 0.559212 -0.819152 -0.127561
vn 0.479799 -0.819152 -0.314297
vn 0.559212 -0.819152 -0.127561
vn 0.439259 -0.819152 -0.368838
vn 0.570374 -0.819152 -0.0605262
vn 0.439259 -0.819152 -0.368838
vn 0.570374 -0.819152 -0.0605262
vn 0.392552 -0.819152 -0.418202
vn 0.573529 -0.819152 0.00735857
vn 0.392552 -0.819152 -0.418202
vn 0.573529 -0.819152 0.00735857
vn 0.340335 -0.819152 -0.461695
vn 0.568633 -0.819152 0.07514
vn 0.340335 -0.819152 -0.461695
vn 0.568633 -0.819152 0.07514
vn 0.28334 -0.819152 -0.498707
vn 0.555755 -0.819152 0.141867
vn 0.28334 -0.819152 -0.498707
vn 0.555755 -0.819152 0.141867
vn 0.222367 -0.819152 -0.528718
vn 0.535075 -0.819152 0.206602
vn 0.222367 -0.819152 -0.528718
vn 0.535075 -0.819152 0.206602
vn 0.158273 -0.819152 -0.551307
vn 0.506884 -0.819152 0.268437
vn 0.158273 -0.819152 -0.551307
vn 0.506884 -0.819152 0.268437
vn 0.0919575 -0.819152 -0.566157
vn 0.471578 -0.819152 0.326503
vn 0.0919575 -0.819152 -0.566157
vn 0.471578 -0.819152 0.326503
vn 0.0243509 -0.819152 -0.573059
vn 0.429651 -0.819152 0.379987
vn 0.0243509 -0.819152 -0.573059
vn 0.429651 -0.819152 0.379987
vn -0.0435975 -0.819152 -0.571917
vn 0.381693 -0.819152 0.428136
vn -0.0435975 -0.819152 -0.571917
vn 0.381693 -0.819152 0.428136
vn -0.110934 -0.819152 -0.562746
vn 0.328377 -0.819152 0.470275
vn -0.110934 -0.819152 -0.562746
vn 0.328377 -0.819152 0.470275
vn -0.176713 -0.819152 -0.545676
vn 0.270451 -0.819152 0.505812
vn -0.176713 -0.819152 -0.545676
vn 0.270451 -0.819152 0.505812
vn -0.240012 -0.819152 -0.520946
vn 0.208729 -0.819152 0.534249
vn -0.240012 -0.819152 -0.520946
vn 0.208729 -0.819152 0.534249
vn -0.299941 -0.819152 -0.488902
vn 0.144077 -0.819152 0.555186
vn -0.299941 -0.819152 -0.488902
vn 0.144077 -0.819152 0.555186
vn -0.35566 -0.819152 -0.449996
vn 0.0774017 -0.819152 0.56833
vn -0.35566 -0.819152 -0.449996
vn 0.0774017 -0.819152 0.56833
vn -0.406386 -0.819152 -0.404772
vn 0.00964024 -0.819152 0.573495
vn -0.406386 -0.819152 -0.404772
vn 0.00964024 -0.819152 0.573495
vn -0.451407 -0.819152 -0.353867
vn -0.0582565 -0.819152 0.57061
vn -0.451407 -0.819152 -0.353867
vn -0.0582565 -0.819152 0.57061
vn -0.490092 -0.819152 -0.297994
vn -0.125336 -0.819152 0.559715
vn -0.490092 -0.819152 -0.297994
vn -0.125336 -0.819152 0.559715
vn -0.521896 -0.819152 -0.237937
vn -0.190655 -0.819152 0.540963
vn -0.521896 -0.819152 -0.237937
vn -0.190655 -0.819152 0.540963
vn -0.546375 -0.819152 -0.174541
vn -0.253298 -0.819152 0.514616
vn -0.546375 -0.819152 -0.174541
vn -0.253298 -0.819152 0.514616
vn -0.563183 -0.819152 -0.108694
vn -0.312386 -0.819152 0.481046
vn -0.563183 -0.819152 -0.108694
vn -0.312386 -0.819152 0.481046
vn -0.572086 -0.819152 -0.0413219
vn -0.367088 -0.819152 0.440723
vn -0.572086 -0.819152 -0.0413219
vn -0.367088 -0.819152 0.440723
vn -0.572958 -0.819152 0.0266306
vn -0.416637 -0.819152 0.394213
vn -0.572958 -0.819152 0.0266306
vn -0.416637 -0.819152 0.394213
vn -0.565787 -0.819152 0.0942092
vn -0.460337 -0.819152 0.342169
vn -0.565787 -0.819152 0.0942092
vn -0.460337 -0.819152 0.342169
vn -0.550673 -0.819152 0.160465
vn -0.479799 -0.819152 0.314297
vn -0.550673 -0.819152 0.160465
vn -0.479799 -0.819152 0.314297
vn -0.527829 -0.819152 0.224469
vn -0.497576 -0.819152 0.285321
vn -0.527829 -0.819152 0.224469
vn -0.497576 -0.819152 0.285321


f 1/1/1 3/3/3 2/2/2
f 1/1/1 2/2/2 4/4/4
f 3/3/3 5/5/5 2/2/2
f 6/6/6 1/1/1 4/4/4
f 3/3/3 7/7/7 5/5/5
f 6/6/6 4/4/4 8/8/8
f 7/7/7 9/9/9 5/5/5
f 10/10/10 6/6/6 8/8/8
f 7/7/7 11/11/11 9/9/9
f 10/10/10 8/8/8 12/12/12
f 11/11/11 13/13/13 9/9/9
f 14/14/14 10/10/10 12/12/12
f 11/11/11 15/15/15 13/13/13
f 14/14/14 12/12/12 16/16/16
f 15/15/15 17/17/17 13/13/13
f 18/18/18 14/14/14 16/16/16
f 15/15/15 19/19/19 17/17/17
f 18/18/18 16/16/16 20/20/20
f 19/19/19 21/21/21 17/17/17
f 22/22/22 18/18/18 20/20/20
f 19/19/19 23/23/23 21/21/21
f 22/22/22 20/20/20 24/24/24
f 23/23/23 25/25/25 21/21/21
f 26/26/26 22/22/22 24/24/24
f 23/23/23 27/27/27 25/25/25
f 26/26/26 24/24/24 28/28/28
f 27/27/27 29/29/29 25/25/25
f 30/30/30 26/26/26 28/28/28
f 27/27/27 31/31/31 29/29/29
f 30/30/30 28/28/28 32/32/32
f 31/31/31 33/33/33 29/29/29
f 34/34/34 30/30/30 32/32/32
f 31/31/31 35/35/35 33/33/33
f 34/34/34 32/32/32 36/36/36
f 35/35/35 37/37/37 33/33/33
f 38/38/38 34/34/34 36/36/36
f 35/35/35 39/39/39 37/37/37
f 38/38/38 36/36/36 40/40/40
f 39/39/39 41/41/41 37/37/37
f 42/42/42 38/38/38 40/40/40
f 39/39/39 43/43/43 41/41/41
f 42/42/42 40/40/40 44/44/44
f 43/43/43 45/45/45 41/41/41
f 46/46/46 42/42/42 44/44/44
f 43/43/43 47/47/47 45/45/45
f 46/46/46 44/44/44 48/48/48
f 47/47/47 49/49/49 45/45/45
f 50/50/50 46/46/46 48/48/48
f 47/47/47 51/51/51 49/49/49
f 50/50/50 48/48/48 52/52/52
f 51/51/51 53/53/53 49/49/49
f 54/54/54 50/50/50 52/52/52
f 51/51/51 55/55/55 53/53/53
f 54/54/54 52/52/52 56/56/56
f 55/55/55 57/57/57 53/53/53
f 58/58/58 54/54/54 56/56/56
f 55/55/55 59/59/59 57/57/57
f 58/58/58 56/56/56 60/60/60
f 59/59/59 61/61/61 57/57/57
f 62/62/62 58/58/58 60/60/60
f 59/59/59 63/63/63 61/61/61
f 62/62/62 60/60/60 64/64/64
f 63/63/63 65/65/65 61/61/61
f 66/66/66 62/62/62 64/64/64
f 63/63/63 67/67/67 65/65/65
f 66/66/66 64/64/64 68/68/68
f 67/67/67 69/69/69 65/65/65
f 70/70/70 66/66/66 68/68/68
f 67/67/67 71/71/71 69/69/69
f 70/70/70 68/68/68 72/72/72
f 71/71/71 73/73/73 69/69/69
f 74/74/74 70/70/70 72/72/72
f 71/71/71 75/75/75 73/73/73
f 74/74/74 72/72/72 76/76/76
f 75/75/75 77/77/77 73/73/73
f 78/78/78 74/74/74 76/76/76
f 75/75/75 79/79/79 77/77/77
f 78/78/78 76/76/76 80/80/80
f 79/79/79 81/81/81 77/77/77
f 82/82/82 78/78/78 80/80/80
f 79/79/79 83/83/83 81/81/81
f 82/82/82 80/80/80 84/84/84
f 83/83/83 85/85/85 81/81/81
f 86/86/86 82/82/82 84/84/84
f 83/83/83 87/87/87 85/85/85
f 86/86/86 84/84/84 88/88/88
f 87/87/87 89/89/89 85/85/85
f 90/90/90 86/86/86 88/88/88
f 87/87/87 91/91/91 89/89/89
f 90/90/90 88/88/88 92/92/92
f 91/91/91 93/93/93 89/89/89
f 94/94/94 90/90/90 92/92/92
f 91/91/91 95/95/95 93/93/93
f 94/94/94 92/92/92 96/96/96
f 95/95/95 97/97/97 93/93/93
f 98/98/98 94/94/94 96/96/96
f 95/95/95 99/99/99 97/97/97
f 98/98/98 96/96/96 100/100/100
f 99/99/99 101/101/101 97/97/97
f 102/102/102 98/98/98 100/100/100
f 99/99/99 103/103/103 101/101/101
f 102/102/102 100/100/100 104/104/104
f 103/103/103 105/105/105 101/101/101
f 106/106/106 102/102/102 104/104/104
f 103/103/103 107/107/107 105/105/105
f 106/106/106 104/104/104 108/108/108
f 107/107/107 108/108/108 105/105/105
f 107/107/107 106/106/106 108/108/108
