v -0.00193185 0.0205 -0.0284824
v -0.00193185 -0.01891 -0.0284824
v -0.002 0.0205 -0.029
v -0.00173205 -0.01891 -0.028
v -0.002 -0.01891 -0.029
v -0.00173205 0.0205 -0.028
v -0.00193185 0.0205 -0.0295176
v -0.00141421 -0.01891 -0.0275858
v -0.00193185 -0.01891 -0.0295176
v -0.00141421 0.0205 -0.0275858
v -0.00173205 0.0205 -0.03
v -0.001 -0.01891 -0.0272679
v -0.00173205 -0.01891 -0.03
v -0.001 0.0205 -0.0272679
v -0.00173205 0.0205 -0.03
v -0.00173205 -0.01891 -0.03
v -0.00141421 0.0205 -0.0304142
v -0.001 0.0205 -0.0272679
v -0.000517638 -0.01891 -0.0270681
v -0.001 -0.01891 -0.0272679
v -0.00141421 -0.01891 -0.0304142
v -0.000517638 0.0205 -0.0270681
v -0.001 0.0205 -0.0307321
v 0 -0.01891 -0.027
v -0.001 -0.01891 -0.0307321
v 0 0.0205 -0.027
v -0.000517638 0.0205 -0.0309319
v 0.000517638 -0.01891 -0.0270681
v -0.000517638 -0.01891 -0.0309319
v 0.000517638 0.0205 -0.0270681
v 0 0.0205 -0.031
v 0.001 -0.01891 -0.0272679
v 0 -0.01891 -0.031
v 0.001 0.0205 -0.0272679
v 0.000517638 0.0205 -0.0309319
v 0.00141421 -0.01891 -0.0275858
v 0.000517638 -0.01891 -0.0309319
v 0.00141421 0.0205 -0.0275858
v 0.001 0.0205 -0.0307321
v 0.00173205 -0.01891 -0.028
v 0.001 -0.01891 -0.0307321
v 0.00173205 0.0205 -0.028
v 0.001 0.0205 -0.0307321
v 0.001 -0.01891 -0.0307321
v 0.00141421 0.0205 -0.0304142
v 0.00173205 0.0205 -0.028
v 0.00193185 -0.01891 -0.0284824
v 0.00173205 -0.01891 -0.028
v 0.00141421 -0.01891 -0.0304142
v 0.00193185 0.0205 -0.0284824
v 0.00173205 0.0205 -0.03
v 0.002 -0.01891 -0.029
v 0.00173205 -0.01891 -0.03
v 0.002 0.0205 -0.029
v 0.00193185 0.0205 -0.0295176
v 0.00193185 -0.01891 -0.0295176
vn -0.965926 0 0.258819
vn -0.965926 0 0.258819
vn -1 0 0
vn -0.866025 0 0.5
vn -1 0 0
vn -0.866025 0 0.5
vn -0.965926 0 -0.258819
vn -0.707107 0 0.707107
vn -0.965926 0 -0.258819
vn -0.707107 0 0.707107
vn -0.866025 0 -0.5
vn -0.5 0 0.866025
vn -0.866025 0 -0.5
vn -0.5 0 0.866025
vn -0.866025 0 -0.5
vn -0.866025 0 -0.5
vn -0.707107 0 -0.707107
vn -0.5 0 0.866025
vn -0.258819 0 0.965926
vn -0.5 0 0.866025
vn -0.707107 0 -0.707107
vn -0.258819 0 0.965926
vn -0.5 0 -0.866025
vn 0 0 1
vn -0.5 0 -0.866025
vn 0 0 1
vn -0.258819 0 -0.965926
vn 0.258819 0 0.965926
vn -0.258819 0 -0.965926
vn 0.258819 0 0.965926
vn 0 0 -1
vn 0.5 0 0.866025
vn 0 0 -1
vn 0.5 0 0.866025
vn 0.258819 0 -0.965926
vn 0.707107 0 0.707107
vn 0.258819 0 -0.965926
vn 0.707107 0 0.707107
vn 0.5 0 -0.866025
vn 0.866025 0 0.5
vn 0.5 0 -0.866025
vn 0.866025 0 0.5
vn 0.5 0 -0.866025
vn 0.5 0 -0.866025
vn 0.707107 0 -0.707107
vn 0.866025 0 0.5
vn 0.965926 0 0.258819
vn 0.866025 0 0.5
vn 0.707107 0 -0.707107
vn 0.965926 0 0.258819
vn 0.866025 0 -0.5
vn 1 0 0
vn 0.866025 0 -0.5
vn 1 0 0
vn 0.965926 0 -0.258819
vn 0.965926 0 -0.258819


f 1/1/1 3/3/3 2/2/2
f 1/1/1 2/2/2 4/4/4
f 3/3/3 5/5/5 2/2/2
f 6/6/6 1/1/1 4/4/4
f 3/3/3 7/7/7 5/5/5
f 6/6/6 4/4/4 8/8/8
f 7/7/7 9/9/9 5/5/5
f 10/10/10 6/6/6 8/8/8
f 7/7/7 11/11/11 9/9/9
f 10/10/10 8/8/8 12/12/12
f 11/11/11 13/13/13 9/9/9
f 14/14/14 10/10/10 12/12/12
f 15/15/15 17/17/17 16/16/16
f 18/18/18 20/20/20 19/19/19
f 17/17/17 21/21/21 16/16/16
f 22/22/22 18/18/18 19/19/19
f 17/17/17 23/23/23 21/21/21
f 22/22/22 19/19/19 24/24/24
f 23/23/23 25/25/25 21/21/21
f 26/26/26 22/22/22 24/24/24
f 23/23/23 27/27/27 25/25/25
f 26/26/26 24/24/24 28/28/28
f 27/27/27 29/29/29 25/25/25
f 30/30/30 26/26/26 28/28/28
f 27/27/27 31/31/31 29/29/29
f 30/30/30 28/28/28 32/32/32
f 31/31/31 33/33/33 29/29/29
f 34/34/34 30/30/30 32/32/32
f 31/31/31 35/35/35 33/33/33
f 34/34/34 32/32/32 36/36/36
f 35/35/35 37/37/37 33/33/33
f 38/38/38 34/34/34 36/36/36
f 35/35/35 39/39/39 37/37/37
f 38/38/38 36/36/36 40/40/40
f 39/39/39 41/41/41 37/37/37
f 42/42/42 38/38/38 40/40/40
f 43/43/43 45/45/45 44/44/44
f 46/46/46 48/48/48 47/47/47
f 45/45/45 49/49/49 44/44/44
f 50/50/50 46/46/46 47/47/47
f 45/45/45 51/51/51 49/49/49
f 50/50/50 47/47/47 52/52/52
f 51/51/51 53/53/53 49/49/49
f 54/54/54 50/50/50 52/52/52
f 51/51/51 55/55/55 53/53/53
f 54/54/54 52/52/52 56/56/56
f 55/55/55 56/56/56 53/53/53
f 55/55/55 54/54/54 56/56/56
