# Blender v2.79 (sub 0) OBJ File: ''
# www.blender.org
mtllib arrow-down.mtl
o Plane
v -0.167453 -0.006970 0.608818
v 0.167104 -0.006970 0.608818
v -0.167453 -0.006970 0.002277
v 0.167104 -0.006970 0.002277
v -0.504224 -0.006970 0.608818
v 0.503875 -0.006970 0.608818
v -0.000174 -0.006970 1.003218
v -0.167453 -0.020910 0.608818
v 0.167104 -0.020910 0.608818
v -0.167453 -0.020910 0.002277
v 0.167104 -0.020910 0.002277
v -0.504224 -0.020910 0.608818
v 0.503875 -0.020910 0.608818
v -0.000174 -0.020910 1.003218
vn 0.0000 1.0000 0.0000
vn 0.0000 0.0000 1.0000
vn 0.0000 -1.0000 0.0000
vn 0.0000 0.0000 -1.0000
vn 0.6162 0.0000 0.7876
vn -0.6162 0.0000 0.7876
vn 1.0000 0.0000 0.0000
vn -1.0000 0.0000 0.0000
usemtl None
s off
f 1//1 2//1 4//1 3//1
f 2//2 1//2 5//2 6//2
f 6//1 5//1 7//1
f 8//3 10//3 11//3 9//3
f 9//4 13//4 12//4 8//4
f 13//3 14//3 12//3
f 1//4 8//4 12//4 5//4
f 4//4 11//4 10//4 3//4
f 7//5 14//5 13//5 6//5
f 5//6 12//6 14//6 7//6
f 6//4 13//4 9//4 2//4
f 2//7 9//7 11//7 4//7
f 3//8 10//8 8//8 1//8
