<?xml version="1.0" encoding="UTF-8" standalone="no"?>
<svg
   xmlns:dc="http://purl.org/dc/elements/1.1/"
   xmlns:cc="http://creativecommons.org/ns#"
   xmlns:rdf="http://www.w3.org/1999/02/22-rdf-syntax-ns#"
   xmlns:svg="http://www.w3.org/2000/svg"
   xmlns="http://www.w3.org/2000/svg"
   id="svg1132"
   version="1.2"
   viewBox="0 0 226.77 155.9"
   height="155.9pt"
   width="226.77pt">
  <metadata
     id="metadata1136">
    <rdf:RDF>
      <cc:Work
         rdf:about="">
        <dc:format>image/svg+xml</dc:format>
        <dc:type
           rdf:resource="http://purl.org/dc/dcmitype/StillImage" />
        <dc:title></dc:title>
      </cc:Work>
    </rdf:RDF>
  </metadata>
  <defs
     id="defs1091">
    <clipPath
       id="clip1">
      <path
         id="path1088"
         d="M 0 0 L 226.769531 0 L 226.769531 155.898438 L 0 155.898438 Z M 0 0 " />
    </clipPath>
  </defs>
  <g
     id="surface10673">
    <g
       clip-rule="nonzero"
       id="g1095"
       clip-path="url(#clip1)">
      <path
         id="path1093"
         d="M 226.773438 155.902344 L 0 155.902344 L 0 -0.00390625 L 226.773438 -0.00390625 L 226.773438 155.902344 "
         style=" stroke:none;fill-rule:nonzero;fill:rgb(100%,100%,100%);fill-opacity:1;" />
    </g>
    <path
       id="path1097"
       d="M 148.238281 80.960938 C 148.238281 80.445313 148.117188 80.082031 147.875 79.863281 C 147.628906 79.644531 147.347656 79.535156 147.019531 79.535156 C 146.671875 79.535156 146.371094 79.644531 146.128906 79.863281 C 145.878906 80.082031 145.753906 80.445313 145.753906 80.960938 C 145.753906 81.476563 145.878906 81.84375 146.128906 82.058594 C 146.371094 82.28125 146.664063 82.386719 146.988281 82.386719 C 147.335938 82.386719 147.628906 82.28125 147.875 82.058594 C 148.117188 81.84375 148.238281 81.476563 148.238281 80.960938 Z M 146.648438 85.65625 C 146.4375 85.65625 146.257813 85.640625 146.097656 85.609375 C 146.007813 85.660156 145.917969 85.71875 145.835938 85.789063 C 145.753906 85.859375 145.675781 85.945313 145.605469 86.042969 C 145.535156 86.140625 145.480469 86.257813 145.433594 86.390625 C 145.390625 86.527344 145.367188 86.679688 145.367188 86.859375 C 145.367188 87.621094 145.789063 88.003906 146.632813 88.003906 C 147.355469 88.003906 147.886719 87.859375 148.238281 87.578125 C 148.582031 87.296875 148.757813 86.972656 148.757813 86.605469 C 148.757813 86.261719 148.648438 86.015625 148.429688 85.871094 C 148.210938 85.726563 147.921875 85.65625 147.550781 85.65625 Z M 149.960938 79.683594 L 149.066406 79.683594 C 149.296875 80.058594 149.410156 80.484375 149.410156 80.960938 C 149.410156 81.339844 149.347656 81.675781 149.226563 81.980469 C 149.101563 82.28125 148.925781 82.535156 148.707031 82.742188 C 148.480469 82.953125 148.21875 83.109375 147.917969 83.21875 C 147.617188 83.328125 147.292969 83.386719 146.945313 83.386719 C 146.875 83.386719 146.808594 83.386719 146.75 83.386719 C 146.691406 83.386719 146.628906 83.378906 146.558594 83.367188 C 146.4375 83.417969 146.316406 83.496094 146.1875 83.605469 C 146.058594 83.714844 145.992188 83.859375 145.992188 84.035156 C 145.992188 84.183594 146.050781 84.304688 146.164063 84.402344 C 146.277344 84.492188 146.464844 84.542969 146.722656 84.542969 L 147.625 84.542969 C 147.964844 84.542969 148.277344 84.578125 148.5625 84.648438 C 148.851563 84.714844 149.101563 84.824219 149.316406 84.980469 C 149.527344 85.132813 149.691406 85.328125 149.8125 85.566406 C 149.929688 85.804688 149.992188 86.09375 149.992188 86.425781 C 149.992188 86.8125 149.910156 87.164063 149.746094 87.484375 C 149.582031 87.800781 149.351563 88.070313 149.054688 88.300781 C 148.757813 88.527344 148.394531 88.707031 147.96875 88.835938 C 147.542969 88.964844 147.066406 89.027344 146.542969 89.027344 C 145.78125 89.027344 145.199219 88.859375 144.804688 88.53125 C 144.40625 88.199219 144.210938 87.722656 144.210938 87.097656 C 144.210938 86.832031 144.257813 86.597656 144.351563 86.40625 C 144.441406 86.214844 144.554688 86.042969 144.683594 85.902344 C 144.8125 85.757813 144.945313 85.644531 145.078125 85.558594 C 145.210938 85.476563 145.320313 85.40625 145.398438 85.359375 L 145.398438 85.328125 C 145.089844 85.101563 144.9375 84.769531 144.9375 84.332031 C 144.9375 84.144531 144.972656 83.980469 145.050781 83.84375 C 145.125 83.707031 145.207031 83.59375 145.300781 83.503906 C 145.394531 83.414063 145.488281 83.339844 145.585938 83.285156 C 145.679688 83.230469 145.75 83.195313 145.796875 83.175781 L 145.796875 83.144531 C 145.433594 82.976563 145.140625 82.710938 144.914063 82.351563 C 144.691406 81.988281 144.582031 81.527344 144.582031 80.960938 C 144.582031 80.5625 144.644531 80.214844 144.773438 79.914063 C 144.902344 79.609375 145.074219 79.359375 145.292969 79.164063 C 145.515625 78.964844 145.769531 78.816406 146.058594 78.71875 C 146.351563 78.617188 146.667969 78.566406 147 78.566406 C 147.34375 78.566406 147.65625 78.628906 147.953125 78.746094 L 150.125 78.746094 Z M 141.847656 85.878906 L 141.847656 81.285156 C 141.847656 80.683594 141.746094 80.25 141.542969 79.988281 C 141.339844 79.722656 141.03125 79.59375 140.613281 79.59375 C 140.257813 79.59375 139.960938 79.683594 139.722656 79.863281 C 139.484375 80.039063 139.296875 80.214844 139.15625 80.382813 L 139.15625 85.878906 L 137.953125 85.878906 L 137.953125 78.746094 L 139.054688 78.746094 L 139.054688 79.550781 L 139.085938 79.550781 C 139.113281 79.488281 139.175781 79.402344 139.277344 79.289063 C 139.375 79.175781 139.503906 79.066406 139.664063 78.960938 C 139.824219 78.859375 140.007813 78.765625 140.226563 78.6875 C 140.445313 78.605469 140.695313 78.566406 140.972656 78.566406 C 141.289063 78.566406 141.574219 78.617188 141.832031 78.707031 C 142.089844 78.804688 142.308594 78.957031 142.488281 79.164063 C 142.664063 79.371094 142.804688 79.640625 142.902344 79.972656 C 143 80.304688 143.050781 80.714844 143.050781 81.199219 L 143.050781 85.878906 Z M 136.113281 85.878906 L 135.015625 85.878906 L 135.015625 85.078125 L 134.980469 85.078125 C 134.953125 85.136719 134.886719 85.222656 134.789063 85.335938 C 134.691406 85.453125 134.566406 85.558594 134.410156 85.660156 C 134.257813 85.765625 134.070313 85.859375 133.851563 85.9375 C 133.636719 86.019531 133.390625 86.058594 133.125 86.058594 C 132.808594 86.058594 132.523438 86.011719 132.269531 85.914063 C 132.019531 85.820313 131.800781 85.667969 131.625 85.460938 C 131.445313 85.253906 131.308594 84.984375 131.214844 84.65625 C 131.121094 84.324219 131.074219 83.914063 131.074219 83.429688 L 131.074219 78.746094 L 132.277344 78.746094 L 132.277344 83.339844 C 132.277344 83.933594 132.375 84.355469 132.566406 84.605469 C 132.761719 84.859375 133.0625 84.984375 133.464844 84.984375 C 133.8125 84.984375 134.105469 84.902344 134.34375 84.726563 C 134.582031 84.554688 134.769531 84.386719 134.90625 84.214844 L 134.90625 78.746094 L 136.113281 78.746094 Z M 128.117188 85.878906 L 128.117188 81.285156 C 128.117188 80.683594 128.015625 80.25 127.8125 79.988281 C 127.609375 79.722656 127.300781 79.59375 126.882813 79.59375 C 126.527344 79.59375 126.230469 79.683594 125.992188 79.863281 C 125.757813 80.039063 125.566406 80.214844 125.429688 80.382813 L 125.429688 85.878906 L 124.226563 85.878906 L 124.226563 75.375 L 125.429688 75.238281 L 125.429688 79.476563 L 125.457031 79.476563 C 125.5 79.414063 125.558594 79.335938 125.644531 79.238281 C 125.726563 79.136719 125.84375 79.039063 125.992188 78.941406 C 126.140625 78.84375 126.324219 78.753906 126.535156 78.679688 C 126.75 78.605469 127 78.566406 127.285156 78.566406 C 127.910156 78.566406 128.40625 78.773438 128.769531 79.175781 C 129.136719 79.585938 129.320313 80.257813 129.320313 81.199219 L 129.320313 85.878906 Z M 122.457031 80.128906 C 122.429688 80.101563 122.378906 80.054688 122.316406 79.992188 C 122.253906 79.9375 122.171875 79.875 122.070313 79.816406 C 121.96875 79.757813 121.851563 79.707031 121.710938 79.660156 C 121.574219 79.617188 121.417969 79.59375 121.238281 79.59375 C 120.980469 79.59375 120.738281 79.640625 120.519531 79.734375 C 120.296875 79.828125 120.101563 79.980469 119.9375 80.1875 C 119.773438 80.398438 119.644531 80.664063 119.550781 80.996094 C 119.457031 81.332031 119.410156 81.734375 119.410156 82.210938 C 119.410156 82.734375 119.453125 83.175781 119.539063 83.53125 C 119.621094 83.886719 119.738281 84.171875 119.886719 84.386719 C 120.035156 84.597656 120.214844 84.75 120.429688 84.84375 C 120.640625 84.9375 120.875 84.984375 121.132813 84.984375 C 121.5 84.984375 121.78125 84.921875 121.972656 84.792969 C 122.167969 84.664063 122.304688 84.558594 122.382813 84.480469 L 122.871094 85.316406 C 122.824219 85.375 122.75 85.445313 122.65625 85.53125 C 122.5625 85.613281 122.441406 85.695313 122.292969 85.773438 C 122.144531 85.851563 121.964844 85.917969 121.75 85.972656 C 121.539063 86.03125 121.292969 86.058594 121.015625 86.058594 C 120.617188 86.058594 120.246094 85.992188 119.902344 85.863281 C 119.554688 85.734375 119.253906 85.523438 118.992188 85.226563 C 118.738281 84.925781 118.535156 84.542969 118.386719 84.070313 C 118.238281 83.59375 118.160156 83.003906 118.160156 82.300781 C 118.160156 81.613281 118.25 81.035156 118.429688 80.558594 C 118.609375 80.085938 118.839844 79.699219 119.128906 79.40625 C 119.414063 79.117188 119.734375 78.902344 120.085938 78.769531 C 120.441406 78.636719 120.792969 78.566406 121.148438 78.566406 C 121.417969 78.566406 121.652344 78.59375 121.855469 78.644531 C 122.058594 78.691406 122.230469 78.753906 122.375 78.828125 C 122.519531 78.902344 122.636719 78.980469 122.730469 79.066406 C 122.824219 79.148438 122.902344 79.222656 122.960938 79.28125 Z M 116.367188 80.1875 C 116.285156 80.101563 116.144531 79.976563 115.933594 79.824219 C 115.726563 79.667969 115.453125 79.59375 115.117188 79.59375 C 114.800781 79.59375 114.558594 79.667969 114.386719 79.816406 C 114.222656 79.964844 114.136719 80.144531 114.136719 80.351563 C 114.136719 80.617188 114.214844 80.839844 114.367188 81.011719 C 114.519531 81.1875 114.753906 81.371094 115.070313 81.570313 L 115.515625 81.839844 C 116.003906 82.125 116.382813 82.433594 116.664063 82.765625 C 116.9375 83.097656 117.078125 83.527344 117.078125 84.050781 C 117.078125 84.613281 116.882813 85.089844 116.488281 85.476563 C 116.101563 85.863281 115.535156 86.058594 114.804688 86.058594 C 114.519531 86.058594 114.265625 86.027344 114.046875 85.96875 C 113.828125 85.90625 113.640625 85.839844 113.476563 85.761719 C 113.3125 85.679688 113.175781 85.59375 113.066406 85.5 C 112.957031 85.402344 112.867188 85.320313 112.800781 85.238281 L 113.378906 84.289063 C 113.4375 84.347656 113.511719 84.417969 113.59375 84.496094 C 113.675781 84.578125 113.78125 84.65625 113.898438 84.726563 C 114.015625 84.800781 114.152344 84.863281 114.300781 84.914063 C 114.445313 84.964844 114.621094 84.984375 114.816406 84.984375 C 115.175781 84.984375 115.449219 84.910156 115.636719 84.75 C 115.828125 84.59375 115.917969 84.402344 115.917969 84.167969 C 115.917969 84.003906 115.894531 83.855469 115.851563 83.730469 C 115.808594 83.609375 115.742188 83.496094 115.652344 83.398438 C 115.566406 83.300781 115.453125 83.203125 115.324219 83.117188 C 115.195313 83.027344 115.046875 82.929688 114.878906 82.820313 L 114.433594 82.535156 C 113.988281 82.246094 113.640625 81.949219 113.386719 81.628906 C 113.132813 81.3125 113.007813 80.90625 113.007813 80.410156 C 113.007813 80.144531 113.058594 79.898438 113.164063 79.675781 C 113.265625 79.453125 113.414063 79.261719 113.601563 79.09375 C 113.789063 78.929688 114.007813 78.804688 114.261719 78.707031 C 114.515625 78.617188 114.785156 78.566406 115.070313 78.566406 C 115.347656 78.566406 115.585938 78.59375 115.785156 78.652344 C 115.984375 78.703125 116.152344 78.773438 116.296875 78.859375 C 116.441406 78.941406 116.558594 79.027344 116.65625 79.113281 C 116.75 79.195313 116.824219 79.269531 116.886719 79.328125 Z M 112.160156 79.800781 C 112.128906 79.78125 112.066406 79.757813 111.96875 79.726563 C 111.867188 79.699219 111.734375 79.683594 111.566406 79.683594 C 111.191406 79.683594 110.894531 79.785156 110.683594 79.988281 C 110.46875 80.191406 110.316406 80.410156 110.230469 80.648438 L 110.230469 85.878906 L 109.023438 85.878906 L 109.023438 78.746094 L 110.125 78.746094 L 110.125 79.714844 L 110.152344 79.714844 C 110.203125 79.574219 110.265625 79.4375 110.347656 79.304688 C 110.425781 79.171875 110.527344 79.050781 110.644531 78.949219 C 110.765625 78.84375 110.902344 78.761719 111.066406 78.703125 C 111.230469 78.644531 111.425781 78.613281 111.65625 78.613281 C 111.820313 78.613281 111.960938 78.628906 112.066406 78.65625 C 112.167969 78.6875 112.246094 78.710938 112.308594 78.730469 Z M 106.261719 82.3125 C 106.261719 81.363281 106.121094 80.671875 105.84375 80.242188 C 105.566406 79.808594 105.179688 79.59375 104.6875 79.59375 C 104.191406 79.59375 103.808594 79.808594 103.535156 80.242188 C 103.261719 80.671875 103.125 81.363281 103.125 82.3125 C 103.125 83.265625 103.265625 83.949219 103.542969 84.363281 C 103.820313 84.777344 104.207031 84.984375 104.703125 84.984375 C 105.195313 84.984375 105.578125 84.777344 105.851563 84.363281 C 106.125 83.949219 106.261719 83.265625 106.261719 82.3125 Z M 101.878906 82.3125 C 101.878906 81.660156 101.953125 81.09375 102.109375 80.617188 C 102.261719 80.144531 102.46875 79.753906 102.730469 79.453125 C 102.996094 79.148438 103.296875 78.925781 103.640625 78.785156 C 103.980469 78.640625 104.34375 78.566406 104.730469 78.566406 C 105.128906 78.566406 105.492188 78.640625 105.832031 78.785156 C 106.167969 78.925781 106.460938 79.148438 106.707031 79.453125 C 106.953125 79.753906 107.152344 80.144531 107.292969 80.617188 C 107.4375 81.09375 107.507813 81.660156 107.507813 82.3125 C 107.507813 82.976563 107.4375 83.546875 107.285156 84.023438 C 107.136719 84.496094 106.933594 84.882813 106.671875 85.1875 C 106.40625 85.488281 106.101563 85.710938 105.757813 85.847656 C 105.410156 85.984375 105.042969 86.058594 104.65625 86.058594 C 104.261719 86.058594 103.894531 85.984375 103.558594 85.847656 C 103.21875 85.710938 102.929688 85.488281 102.679688 85.1875 C 102.433594 84.882813 102.238281 84.5 102.09375 84.03125 C 101.949219 83.558594 101.878906 82.988281 101.878906 82.3125 Z M 95.933594 85.878906 L 95.933594 75.625 L 100.972656 75.625 L 100.882813 76.652344 L 97.226563 76.652344 L 97.226563 80.441406 L 100.601563 80.441406 L 100.601563 81.46875 L 97.226563 81.46875 L 97.226563 85.878906 Z M 88.148438 84.984375 C 88.335938 84.984375 88.503906 84.964844 88.652344 84.914063 C 88.800781 84.863281 88.929688 84.800781 89.039063 84.726563 C 89.148438 84.65625 89.242188 84.578125 89.316406 84.496094 C 89.390625 84.417969 89.449219 84.347656 89.484375 84.289063 L 89.484375 79.890625 C 89.378906 79.820313 89.25 79.761719 89.105469 79.714844 C 88.964844 79.664063 88.78125 79.640625 88.566406 79.640625 C 88.289063 79.640625 88.027344 79.683594 87.785156 79.78125 C 87.542969 79.875 87.332031 80.03125 87.152344 80.246094 C 86.972656 80.464844 86.835938 80.746094 86.730469 81.09375 C 86.625 81.441406 86.574219 81.867188 86.574219 82.371094 C 86.574219 82.867188 86.617188 83.28125 86.699219 83.613281 C 86.785156 83.945313 86.902344 84.214844 87.050781 84.414063 C 87.199219 84.617188 87.367188 84.761719 87.554688 84.851563 C 87.742188 84.941406 87.941406 84.984375 88.148438 84.984375 Z M 85.324219 82.417969 C 85.324219 81.695313 85.417969 81.089844 85.609375 80.605469 C 85.796875 80.117188 86.039063 79.726563 86.335938 79.429688 C 86.632813 79.132813 86.96875 78.921875 87.347656 78.800781 C 87.722656 78.675781 88.097656 78.613281 88.476563 78.613281 C 88.703125 78.613281 88.902344 78.632813 89.070313 78.664063 C 89.238281 78.699219 89.378906 78.742188 89.484375 78.792969 L 89.484375 75.375 L 90.691406 75.238281 L 90.691406 85.878906 L 89.589844 85.878906 L 89.589844 85.121094 L 89.558594 85.121094 C 89.53125 85.179688 89.476563 85.261719 89.398438 85.367188 C 89.316406 85.46875 89.210938 85.574219 89.070313 85.679688 C 88.929688 85.78125 88.757813 85.871094 88.550781 85.945313 C 88.339844 86.019531 88.097656 86.058594 87.820313 86.058594 C 87.484375 86.058594 87.164063 85.988281 86.863281 85.855469 C 86.5625 85.71875 86.296875 85.507813 86.070313 85.21875 C 85.839844 84.925781 85.660156 84.546875 85.527344 84.089844 C 85.394531 83.628906 85.324219 83.070313 85.324219 82.417969 Z M 82.652344 85.878906 L 82.652344 81.285156 C 82.652344 80.683594 82.550781 80.25 82.347656 79.988281 C 82.144531 79.722656 81.835938 79.59375 81.417969 79.59375 C 81.0625 79.59375 80.765625 79.683594 80.527344 79.863281 C 80.289063 80.039063 80.101563 80.214844 79.960938 80.382813 L 79.960938 85.878906 L 78.757813 85.878906 L 78.757813 78.746094 L 79.855469 78.746094 L 79.855469 79.550781 L 79.886719 79.550781 C 79.917969 79.488281 79.980469 79.402344 80.082031 79.289063 C 80.179688 79.175781 80.308594 79.066406 80.464844 78.960938 C 80.625 78.859375 80.8125 78.765625 81.03125 78.6875 C 81.25 78.605469 81.496094 78.566406 81.773438 78.566406 C 82.089844 78.566406 82.378906 78.617188 82.636719 78.707031 C 82.894531 78.804688 83.109375 78.957031 83.289063 79.164063 C 83.46875 79.371094 83.605469 79.640625 83.707031 79.972656 C 83.804688 80.304688 83.855469 80.714844 83.855469 81.199219 L 83.855469 85.878906 Z M 76.914063 85.878906 L 75.816406 85.878906 L 75.816406 85.078125 L 75.785156 85.078125 C 75.757813 85.136719 75.691406 85.222656 75.59375 85.335938 C 75.492188 85.453125 75.367188 85.558594 75.214844 85.660156 C 75.058594 85.765625 74.875 85.859375 74.65625 85.9375 C 74.4375 86.019531 74.195313 86.058594 73.929688 86.058594 C 73.613281 86.058594 73.328125 86.011719 73.074219 85.914063 C 72.824219 85.820313 72.605469 85.667969 72.429688 85.460938 C 72.25 85.253906 72.113281 84.984375 72.019531 84.65625 C 71.925781 84.324219 71.878906 83.914063 71.878906 83.429688 L 71.878906 78.746094 L 73.082031 78.746094 L 73.082031 83.339844 C 73.082031 83.933594 73.179688 84.355469 73.371094 84.605469 C 73.566406 84.859375 73.863281 84.984375 74.269531 84.984375 C 74.617188 84.984375 74.910156 84.902344 75.148438 84.726563 C 75.386719 84.554688 75.574219 84.386719 75.710938 84.214844 L 75.710938 78.746094 L 76.914063 78.746094 Z M 128 65.976563 C 128 65.460938 127.875 65.09375 127.632813 64.878906 C 127.394531 64.660156 127.105469 64.550781 126.78125 64.550781 C 126.433594 64.550781 126.136719 64.660156 125.890625 64.878906 C 125.644531 65.09375 125.515625 65.460938 125.515625 65.976563 C 125.515625 66.492188 125.644531 66.859375 125.890625 67.078125 C 126.136719 67.292969 126.425781 67.402344 126.75 67.402344 C 127.097656 67.402344 127.394531 67.292969 127.632813 67.078125 C 127.875 66.859375 128 66.492188 128 65.976563 Z M 126.410156 70.671875 C 126.203125 70.671875 126.019531 70.65625 125.859375 70.628906 C 125.769531 70.679688 125.683594 70.734375 125.601563 70.804688 C 125.515625 70.875 125.4375 70.960938 125.367188 71.058594 C 125.300781 71.15625 125.242188 71.273438 125.199219 71.40625 C 125.152344 71.539063 125.132813 71.699219 125.132813 71.875 C 125.132813 72.640625 125.554688 73.019531 126.394531 73.019531 C 127.117188 73.019531 127.652344 72.878906 128 72.597656 C 128.347656 72.316406 128.519531 71.988281 128.519531 71.625 C 128.519531 71.277344 128.410156 71.03125 128.191406 70.886719 C 127.972656 70.746094 127.683594 70.671875 127.316406 70.671875 Z M 129.722656 64.699219 L 128.832031 64.699219 C 129.058594 65.078125 129.171875 65.5 129.171875 65.976563 C 129.171875 66.355469 129.113281 66.695313 128.988281 66.996094 C 128.863281 67.296875 128.691406 67.550781 128.46875 67.761719 C 128.242188 67.96875 127.980469 68.128906 127.679688 68.234375 C 127.378906 68.34375 127.050781 68.398438 126.707031 68.398438 C 126.636719 68.398438 126.570313 68.398438 126.511719 68.398438 C 126.453125 68.398438 126.390625 68.394531 126.320313 68.382813 C 126.203125 68.433594 126.078125 68.511719 125.945313 68.621094 C 125.820313 68.730469 125.757813 68.875 125.757813 69.054688 C 125.757813 69.203125 125.8125 69.324219 125.925781 69.417969 C 126.039063 69.511719 126.226563 69.558594 126.484375 69.558594 L 127.390625 69.558594 C 127.726563 69.558594 128.035156 69.59375 128.328125 69.660156 C 128.613281 69.730469 128.863281 69.84375 129.074219 69.996094 C 129.289063 70.148438 129.457031 70.34375 129.574219 70.582031 C 129.691406 70.820313 129.753906 71.105469 129.753906 71.445313 C 129.753906 71.832031 129.671875 72.183594 129.507813 72.5 C 129.34375 72.816406 129.113281 73.089844 128.816406 73.316406 C 128.519531 73.546875 128.15625 73.722656 127.730469 73.851563 C 127.304688 73.980469 126.828125 74.046875 126.304688 74.046875 C 125.542969 74.046875 124.960938 73.878906 124.566406 73.546875 C 124.171875 73.214844 123.972656 72.738281 123.972656 72.113281 C 123.972656 71.847656 124.019531 71.617188 124.113281 71.421875 C 124.207031 71.230469 124.320313 71.0625 124.449219 70.917969 C 124.578125 70.773438 124.707031 70.660156 124.839844 70.574219 C 124.976563 70.492188 125.082031 70.425781 125.160156 70.375 L 125.160156 70.34375 C 124.851563 70.117188 124.699219 69.785156 124.699219 69.347656 C 124.699219 69.160156 124.738281 69 124.8125 68.859375 C 124.886719 68.71875 124.96875 68.609375 125.0625 68.519531 C 125.15625 68.429688 125.253906 68.355469 125.347656 68.300781 C 125.441406 68.25 125.511719 68.210938 125.5625 68.191406 L 125.5625 68.160156 C 125.195313 67.992188 124.898438 67.726563 124.679688 67.367188 C 124.457031 67.003906 124.34375 66.542969 124.34375 65.976563 C 124.34375 65.582031 124.410156 65.230469 124.535156 64.929688 C 124.664063 64.628906 124.839844 64.378906 125.054688 64.179688 C 125.277344 63.980469 125.527344 63.832031 125.824219 63.734375 C 126.113281 63.636719 126.429688 63.585938 126.765625 63.585938 C 127.101563 63.585938 127.421875 63.644531 127.714844 63.765625 L 129.886719 63.765625 Z M 121.609375 70.894531 L 121.609375 66.304688 C 121.609375 65.699219 121.507813 65.265625 121.304688 65.003906 C 121.101563 64.742188 120.792969 64.609375 120.378906 64.609375 C 120.019531 64.609375 119.722656 64.699219 119.488281 64.878906 C 119.246094 65.054688 119.058594 65.230469 118.921875 65.398438 L 118.921875 70.894531 L 117.71875 70.894531 L 117.71875 63.765625 L 118.816406 63.765625 L 118.816406 64.566406 L 118.847656 64.566406 C 118.875 64.507813 118.941406 64.417969 119.039063 64.304688 C 119.136719 64.191406 119.265625 64.082031 119.425781 63.976563 C 119.582031 63.875 119.773438 63.78125 119.992188 63.703125 C 120.207031 63.625 120.457031 63.585938 120.734375 63.585938 C 121.050781 63.585938 121.335938 63.632813 121.597656 63.726563 C 121.851563 63.820313 122.070313 63.96875 122.246094 64.179688 C 122.429688 64.386719 122.566406 64.65625 122.664063 64.988281 C 122.761719 65.320313 122.8125 65.730469 122.8125 66.214844 L 122.8125 70.894531 Z M 115.875 70.894531 L 114.773438 70.894531 L 114.773438 70.09375 L 114.746094 70.09375 C 114.714844 70.152344 114.648438 70.238281 114.550781 70.351563 C 114.453125 70.464844 114.324219 70.574219 114.171875 70.679688 C 114.019531 70.78125 113.832031 70.875 113.613281 70.953125 C 113.398438 71.035156 113.15625 71.074219 112.886719 71.074219 C 112.570313 71.074219 112.289063 71.027344 112.035156 70.929688 C 111.78125 70.839844 111.566406 70.6875 111.386719 70.480469 C 111.207031 70.269531 111.074219 70 110.980469 69.667969 C 110.886719 69.335938 110.839844 68.929688 110.839844 68.445313 L 110.839844 63.765625 L 112.042969 63.765625 L 112.042969 68.355469 C 112.042969 68.949219 112.136719 69.371094 112.332031 69.625 C 112.523438 69.878906 112.820313 70.003906 113.230469 70.003906 C 113.578125 70.003906 113.867188 69.917969 114.105469 69.742188 C 114.34375 69.570313 114.535156 69.402344 114.671875 69.230469 L 114.671875 63.765625 L 115.875 63.765625 Z M 106.5 70.003906 C 106.6875 70.003906 106.855469 69.976563 107.003906 69.929688 C 107.152344 69.882813 107.28125 69.816406 107.390625 69.742188 C 107.5 69.667969 107.589844 69.59375 107.664063 69.511719 C 107.742188 69.433594 107.796875 69.363281 107.835938 69.304688 L 107.835938 64.90625 C 107.730469 64.839844 107.601563 64.777344 107.457031 64.726563 C 107.316406 64.679688 107.132813 64.65625 106.914063 64.65625 C 106.636719 64.65625 106.378906 64.703125 106.136719 64.796875 C 105.890625 64.890625 105.683594 65.046875 105.503906 65.265625 C 105.324219 65.480469 105.183594 65.765625 105.082031 66.109375 C 104.976563 66.457031 104.925781 66.882813 104.925781 67.386719 C 104.925781 67.882813 104.964844 68.296875 105.050781 68.628906 C 105.132813 68.960938 105.25 69.226563 105.398438 69.429688 C 105.550781 69.636719 105.71875 69.78125 105.902344 69.871094 C 106.09375 69.960938 106.289063 70.003906 106.5 70.003906 Z M 103.675781 67.433594 C 103.675781 66.710938 103.769531 66.105469 103.957031 65.621094 C 104.144531 65.136719 104.390625 64.742188 104.6875 64.445313 C 104.980469 64.148438 105.320313 63.9375 105.695313 63.816406 C 106.074219 63.691406 106.449219 63.628906 106.824219 63.628906 C 107.054688 63.628906 107.253906 63.648438 107.421875 63.679688 C 107.589844 63.714844 107.730469 63.757813 107.835938 63.808594 L 107.835938 60.390625 L 109.039063 60.257813 L 109.039063 70.894531 L 107.941406 70.894531 L 107.941406 70.136719 L 107.910156 70.136719 C 107.882813 70.199219 107.828125 70.277344 107.746094 70.382813 C 107.667969 70.488281 107.558594 70.589844 107.421875 70.695313 C 107.28125 70.796875 107.109375 70.886719 106.898438 70.964844 C 106.691406 71.035156 106.449219 71.074219 106.171875 71.074219 C 105.835938 71.074219 105.515625 71.007813 105.214844 70.875 C 104.910156 70.738281 104.644531 70.527344 104.417969 70.234375 C 104.191406 69.941406 104.011719 69.566406 103.878906 69.105469 C 103.742188 68.644531 103.675781 68.085938 103.675781 67.433594 Z M 101.804688 69.230469 C 101.804688 69.527344 101.847656 69.738281 101.929688 69.855469 C 102.011719 69.972656 102.160156 70.03125 102.367188 70.03125 C 102.476563 70.03125 102.570313 70.023438 102.644531 70.003906 C 102.71875 69.984375 102.773438 69.964844 102.8125 69.945313 L 102.917969 70.835938 C 102.859375 70.863281 102.75 70.90625 102.59375 70.953125 C 102.433594 71.003906 102.21875 71.03125 101.953125 71.03125 C 101.546875 71.03125 101.21875 70.90625 100.972656 70.65625 C 100.722656 70.410156 100.601563 69.96875 100.601563 69.335938 L 100.601563 60.390625 L 101.804688 60.257813 Z M 98.179688 62.039063 C 97.929688 62.039063 97.734375 61.960938 97.585938 61.800781 C 97.433594 61.644531 97.359375 61.433594 97.359375 61.175781 C 97.359375 60.929688 97.433594 60.726563 97.585938 60.566406 C 97.734375 60.410156 97.929688 60.332031 98.179688 60.332031 C 98.414063 60.332031 98.609375 60.410156 98.757813 60.566406 C 98.90625 60.726563 98.980469 60.929688 98.980469 61.175781 C 98.980469 61.433594 98.90625 61.644531 98.757813 61.800781 C 98.609375 61.960938 98.414063 62.039063 98.179688 62.039063 Z M 98.773438 70.894531 L 97.570313 70.894531 L 97.570313 63.765625 L 98.773438 63.765625 Z M 94.597656 68.027344 C 94.597656 67.472656 94.417969 67.035156 94.054688 66.714844 C 93.695313 66.390625 93.175781 66.230469 92.503906 66.230469 L 91.625 66.230469 L 91.625 69.824219 L 92.429688 69.824219 C 93.191406 69.824219 93.742188 69.675781 94.085938 69.371094 C 94.425781 69.070313 94.597656 68.621094 94.597656 68.027344 Z M 94.402344 63.300781 C 94.402344 62.828125 94.234375 62.4375 93.898438 62.128906 C 93.5625 61.820313 93.03125 61.667969 92.308594 61.667969 L 91.625 61.667969 L 91.625 65.207031 L 92.296875 65.207031 C 92.988281 65.207031 93.511719 65.035156 93.871094 64.699219 C 94.226563 64.363281 94.402344 63.898438 94.402344 63.300781 Z M 95.710938 63.257813 C 95.710938 63.613281 95.667969 63.925781 95.578125 64.195313 C 95.488281 64.460938 95.367188 64.691406 95.214844 64.886719 C 95.058594 65.078125 94.882813 65.234375 94.679688 65.351563 C 94.476563 65.472656 94.265625 65.5625 94.046875 65.621094 L 94.046875 65.652344 C 94.316406 65.699219 94.566406 65.792969 94.796875 65.933594 C 95.03125 66.070313 95.234375 66.246094 95.40625 66.453125 C 95.582031 66.660156 95.71875 66.90625 95.824219 67.191406 C 95.925781 67.472656 95.980469 67.78125 95.980469 68.117188 C 95.980469 68.523438 95.910156 68.894531 95.773438 69.230469 C 95.632813 69.570313 95.417969 69.859375 95.125 70.105469 C 94.832031 70.355469 94.464844 70.546875 94.019531 70.6875 C 93.574219 70.828125 93.042969 70.894531 92.429688 70.894531 L 90.332031 70.894531 L 90.332031 60.644531 L 92.308594 60.644531 C 92.914063 60.644531 93.429688 60.703125 93.863281 60.828125 C 94.292969 60.953125 94.648438 61.128906 94.925781 61.355469 C 95.199219 61.582031 95.402344 61.859375 95.527344 62.179688 C 95.648438 62.503906 95.710938 62.863281 95.710938 63.257813 Z M 86.082031 64.820313 C 86.054688 64.796875 85.988281 64.773438 85.890625 64.742188 C 85.792969 64.714844 85.65625 64.699219 85.488281 64.699219 C 85.113281 64.699219 84.816406 64.800781 84.605469 65.003906 C 84.390625 65.207031 84.242188 65.425781 84.152344 65.664063 L 84.152344 70.894531 L 82.949219 70.894531 L 82.949219 63.765625 L 84.046875 63.765625 L 84.046875 64.726563 L 84.078125 64.726563 C 84.125 64.589844 84.191406 64.453125 84.269531 64.320313 C 84.351563 64.1875 84.449219 64.066406 84.566406 63.964844 C 84.6875 63.859375 84.828125 63.777344 84.992188 63.71875 C 85.15625 63.660156 85.351563 63.628906 85.578125 63.628906 C 85.746094 63.628906 85.882813 63.644531 85.988281 63.671875 C 86.089844 63.703125 86.171875 63.726563 86.230469 63.746094 Z M 80.4375 61.714844 C 80.4375 61.941406 80.367188 62.125 80.230469 62.261719 C 80.089844 62.402344 79.921875 62.472656 79.722656 62.472656 C 79.527344 62.472656 79.359375 62.402344 79.21875 62.261719 C 79.082031 62.125 79.011719 61.941406 79.011719 61.714844 C 79.011719 61.484375 79.082031 61.300781 79.21875 61.164063 C 79.359375 61.023438 79.527344 60.957031 79.722656 60.957031 C 79.921875 60.957031 80.089844 61.023438 80.230469 61.164063 C 80.367188 61.300781 80.4375 61.484375 80.4375 61.714844 Z M 78.148438 61.714844 C 78.148438 61.941406 78.078125 62.125 77.941406 62.261719 C 77.800781 62.402344 77.632813 62.472656 77.433594 62.472656 C 77.238281 62.472656 77.070313 62.402344 76.929688 62.261719 C 76.792969 62.125 76.722656 61.941406 76.722656 61.714844 C 76.722656 61.484375 76.792969 61.300781 76.929688 61.164063 C 77.070313 61.023438 77.238281 60.957031 77.433594 60.957031 C 77.632813 60.957031 77.800781 61.023438 77.941406 61.164063 C 78.078125 61.300781 78.148438 61.484375 78.148438 61.714844 Z M 81.105469 70.894531 L 80.007813 70.894531 L 80.007813 70.09375 L 79.976563 70.09375 C 79.945313 70.152344 79.882813 70.238281 79.78125 70.351563 C 79.683594 70.464844 79.558594 70.574219 79.402344 70.679688 C 79.25 70.78125 79.066406 70.875 78.847656 70.953125 C 78.628906 71.035156 78.386719 71.074219 78.117188 71.074219 C 77.800781 71.074219 77.515625 71.027344 77.265625 70.929688 C 77.011719 70.839844 76.796875 70.6875 76.617188 70.480469 C 76.441406 70.269531 76.304688 70 76.210938 69.667969 C 76.117188 69.335938 76.070313 68.929688 76.070313 68.445313 L 76.070313 63.765625 L 77.273438 63.765625 L 77.273438 68.355469 C 77.273438 68.949219 77.367188 69.371094 77.5625 69.625 C 77.753906 69.878906 78.054688 70.003906 78.460938 70.003906 C 78.808594 70.003906 79.101563 69.917969 79.335938 69.742188 C 79.574219 69.570313 79.765625 69.402344 79.902344 69.230469 L 79.902344 63.765625 L 81.105469 63.765625 Z M 74.925781 64.742188 L 73.46875 64.742188 L 73.46875 70.894531 L 72.265625 70.894531 L 72.265625 64.742188 L 71.402344 64.742188 L 71.402344 63.941406 L 72.265625 63.777344 L 72.265625 62.351563 C 72.265625 61.964844 72.320313 61.632813 72.429688 61.355469 C 72.535156 61.078125 72.679688 60.851563 72.859375 60.671875 C 73.039063 60.492188 73.246094 60.363281 73.484375 60.285156 C 73.722656 60.207031 73.972656 60.167969 74.242188 60.167969 C 74.5 60.167969 74.714844 60.203125 74.894531 60.273438 C 75.074219 60.339844 75.191406 60.394531 75.25 60.433594 L 75 61.429688 C 74.9375 61.390625 74.855469 61.347656 74.746094 61.304688 C 74.636719 61.261719 74.503906 61.238281 74.34375 61.238281 C 74.058594 61.238281 73.839844 61.328125 73.691406 61.503906 C 73.542969 61.683594 73.46875 62.011719 73.46875 62.484375 L 73.46875 63.765625 L 75.074219 63.765625 Z M 168.519531 55.910156 L 168.519531 51.320313 C 168.519531 50.734375 168.433594 50.316406 168.265625 50.058594 C 168.097656 49.800781 167.824219 49.671875 167.449219 49.671875 C 167.25 49.671875 167.074219 49.695313 166.917969 49.746094 C 166.765625 49.796875 166.632813 49.855469 166.511719 49.929688 C 166.390625 50.003906 166.289063 50.085938 166.199219 50.175781 C 166.113281 50.265625 166.039063 50.34375 165.976563 50.414063 L 165.976563 55.910156 L 164.773438 55.910156 L 164.773438 48.777344 L 165.871094 48.777344 L 165.871094 49.582031 L 165.902344 49.582031 C 165.953125 49.503906 166.027344 49.40625 166.125 49.292969 C 166.226563 49.179688 166.347656 49.070313 166.496094 48.964844 C 166.644531 48.859375 166.820313 48.773438 167.015625 48.703125 C 167.214844 48.636719 167.4375 48.601563 167.6875 48.601563 C 168.5 48.601563 169.074219 48.917969 169.410156 49.550781 C 169.476563 49.453125 169.574219 49.347656 169.695313 49.230469 C 169.808594 49.117188 169.949219 49.015625 170.105469 48.921875 C 170.265625 48.828125 170.445313 48.75 170.644531 48.691406 C 170.839844 48.628906 171.058594 48.601563 171.296875 48.601563 C 172.742188 48.601563 173.46875 49.441406 173.46875 51.128906 L 173.46875 55.910156 L 172.261719 55.910156 L 172.261719 51.320313 C 172.261719 50.734375 172.160156 50.316406 171.953125 50.058594 C 171.742188 49.800781 171.4375 49.671875 171.027344 49.671875 C 170.691406 49.671875 170.414063 49.753906 170.191406 49.914063 C 169.964844 50.078125 169.789063 50.234375 169.664063 50.382813 C 169.683594 50.496094 169.699219 50.609375 169.707031 50.734375 C 169.71875 50.859375 169.722656 50.988281 169.722656 51.128906 L 169.722656 55.910156 Z M 162.933594 55.910156 L 161.832031 55.910156 L 161.832031 55.109375 L 161.800781 55.109375 C 161.773438 55.167969 161.707031 55.253906 161.609375 55.367188 C 161.511719 55.484375 161.382813 55.59375 161.230469 55.695313 C 161.078125 55.800781 160.890625 55.890625 160.671875 55.972656 C 160.453125 56.050781 160.210938 56.089844 159.945313 56.089844 C 159.628906 56.089844 159.34375 56.042969 159.089844 55.949219 C 158.835938 55.855469 158.621094 55.703125 158.441406 55.496094 C 158.265625 55.285156 158.128906 55.019531 158.035156 54.6875 C 157.941406 54.355469 157.894531 53.945313 157.894531 53.460938 L 157.894531 48.777344 L 159.097656 48.777344 L 159.097656 53.371094 C 159.097656 53.964844 159.195313 54.390625 159.386719 54.640625 C 159.582031 54.894531 159.878906 55.019531 160.285156 55.019531 C 160.632813 55.019531 160.925781 54.933594 161.164063 54.761719 C 161.402344 54.585938 161.589844 54.414063 161.726563 54.246094 L 161.726563 48.777344 L 162.933594 48.777344 Z M 155.503906 47.054688 C 155.253906 47.054688 155.058594 46.976563 154.90625 46.816406 C 154.757813 46.660156 154.683594 46.453125 154.683594 46.195313 C 154.683594 45.945313 154.757813 45.742188 154.90625 45.585938 C 155.058594 45.425781 155.253906 45.347656 155.503906 45.347656 C 155.738281 45.347656 155.933594 45.425781 156.082031 45.585938 C 156.230469 45.742188 156.304688 45.945313 156.304688 46.195313 C 156.304688 46.453125 156.230469 46.660156 156.082031 46.816406 C 155.933594 46.976563 155.738281 47.054688 155.503906 47.054688 Z M 156.097656 55.910156 L 154.890625 55.910156 L 154.890625 48.777344 L 156.097656 48.777344 Z M 153.703125 49.835938 C 153.675781 49.816406 153.609375 49.789063 153.511719 49.761719 C 153.410156 49.730469 153.277344 49.714844 153.109375 49.714844 C 152.734375 49.714844 152.4375 49.816406 152.226563 50.019531 C 152.011719 50.222656 151.863281 50.445313 151.773438 50.679688 L 151.773438 55.910156 L 150.570313 55.910156 L 150.570313 48.777344 L 151.667969 48.777344 L 151.667969 49.746094 L 151.695313 49.746094 C 151.75 49.605469 151.8125 49.46875 151.890625 49.335938 C 151.96875 49.203125 152.070313 49.085938 152.1875 48.980469 C 152.308594 48.878906 152.449219 48.796875 152.613281 48.734375 C 152.777344 48.675781 152.972656 48.644531 153.199219 48.644531 C 153.367188 48.644531 153.503906 48.660156 153.609375 48.691406 C 153.710938 48.71875 153.792969 48.746094 153.851563 48.765625 Z M 146.707031 49.582031 C 146.28125 49.582031 145.9375 49.761719 145.683594 50.117188 C 145.421875 50.472656 145.273438 50.988281 145.234375 51.660156 L 147.835938 51.660156 C 147.84375 51.613281 147.855469 51.539063 147.859375 51.445313 C 147.863281 51.351563 147.867188 51.253906 147.867188 51.140625 C 147.867188 50.644531 147.765625 50.261719 147.566406 49.988281 C 147.367188 49.71875 147.082031 49.582031 146.707031 49.582031 Z M 148.964844 51.1875 C 148.964844 51.496094 148.953125 51.757813 148.933594 51.980469 C 148.914063 52.203125 148.894531 52.398438 148.875 52.566406 L 145.234375 52.566406 C 145.273438 53.410156 145.453125 54.03125 145.777344 54.425781 C 146.101563 54.820313 146.5625 55.019531 147.167969 55.019531 C 147.375 55.019531 147.5625 54.996094 147.730469 54.945313 C 147.898438 54.898438 148.042969 54.835938 148.167969 54.769531 C 148.292969 54.699219 148.398438 54.628906 148.480469 54.558594 C 148.566406 54.492188 148.628906 54.433594 148.667969 54.394531 L 149.113281 55.242188 C 149.0625 55.292969 148.988281 55.363281 148.890625 55.460938 C 148.792969 55.550781 148.65625 55.644531 148.488281 55.742188 C 148.320313 55.835938 148.113281 55.917969 147.867188 55.984375 C 147.617188 56.054688 147.324219 56.089844 146.988281 56.089844 C 146.542969 56.089844 146.140625 56.015625 145.777344 55.867188 C 145.417969 55.71875 145.109375 55.488281 144.855469 55.175781 C 144.605469 54.863281 144.40625 54.46875 144.269531 53.988281 C 144.128906 53.507813 144.0625 52.929688 144.0625 52.257813 C 144.0625 51.621094 144.132813 51.074219 144.277344 50.613281 C 144.421875 50.15625 144.617188 49.773438 144.863281 49.480469 C 145.113281 49.179688 145.398438 48.960938 145.726563 48.816406 C 146.050781 48.671875 146.40625 48.601563 146.78125 48.601563 C 147.464844 48.601563 148 48.816406 148.386719 49.246094 C 148.773438 49.679688 148.964844 50.324219 148.964844 51.1875 Z M 143.125 49.761719 L 141.566406 49.761719 L 141.566406 53.714844 C 141.566406 54.21875 141.628906 54.5625 141.757813 54.746094 C 141.886719 54.929688 142.105469 55.019531 142.410156 55.019531 C 142.589844 55.019531 142.746094 54.996094 142.871094 54.945313 C 143 54.898438 143.09375 54.851563 143.15625 54.8125 L 143.316406 55.777344 C 143.269531 55.816406 143.148438 55.878906 142.960938 55.964844 C 142.773438 56.046875 142.519531 56.089844 142.203125 56.089844 C 141.589844 56.089844 141.128906 55.917969 140.820313 55.578125 C 140.515625 55.234375 140.359375 54.667969 140.359375 53.878906 L 140.359375 49.761719 L 139.5 49.761719 L 139.5 48.957031 L 140.359375 48.777344 L 140.496094 46.789063 L 141.566406 46.789063 L 141.566406 48.777344 L 143.273438 48.777344 Z M 137.953125 50.222656 C 137.875 50.132813 137.734375 50.011719 137.523438 49.855469 C 137.316406 49.703125 137.042969 49.625 136.707031 49.625 C 136.390625 49.625 136.148438 49.699219 135.976563 49.851563 C 135.808594 49.996094 135.726563 50.175781 135.726563 50.382813 C 135.726563 50.652344 135.800781 50.871094 135.957031 51.046875 C 136.109375 51.21875 136.34375 51.402344 136.660156 51.601563 L 137.109375 51.871094 C 137.59375 52.15625 137.972656 52.46875 138.25 52.800781 C 138.527344 53.132813 138.667969 53.558594 138.667969 54.085938 C 138.667969 54.648438 138.472656 55.125 138.078125 55.511719 C 137.6875 55.898438 137.128906 56.089844 136.394531 56.089844 C 136.105469 56.089844 135.855469 56.058594 135.636719 56 C 135.417969 55.941406 135.226563 55.871094 135.066406 55.792969 C 134.902344 55.714844 134.765625 55.628906 134.65625 55.535156 C 134.546875 55.4375 134.457031 55.351563 134.386719 55.273438 L 134.96875 54.320313 C 135.027344 54.382813 135.101563 54.449219 135.183594 54.53125 C 135.269531 54.609375 135.367188 54.6875 135.488281 54.761719 C 135.605469 54.835938 135.742188 54.898438 135.890625 54.945313 C 136.035156 54.996094 136.210938 55.019531 136.410156 55.019531 C 136.765625 55.019531 137.039063 54.941406 137.226563 54.78125 C 137.414063 54.625 137.507813 54.429688 137.507813 54.203125 C 137.507813 54.035156 137.488281 53.890625 137.441406 53.765625 C 137.394531 53.640625 137.332031 53.527344 137.242188 53.429688 C 137.152344 53.332031 137.042969 53.238281 136.914063 53.148438 C 136.785156 53.058594 136.636719 52.960938 136.46875 52.851563 L 136.023438 52.566406 C 135.578125 52.28125 135.226563 51.980469 134.972656 51.660156 C 134.722656 51.34375 134.597656 50.9375 134.597656 50.445313 C 134.597656 50.175781 134.648438 49.929688 134.75 49.707031 C 134.855469 49.484375 135 49.292969 135.191406 49.128906 C 135.378906 48.964844 135.601563 48.835938 135.851563 48.742188 C 136.105469 48.648438 136.375 48.601563 136.660156 48.601563 C 136.941406 48.601563 137.175781 48.628906 137.375 48.683594 C 137.574219 48.738281 137.746094 48.808594 137.890625 48.890625 C 138.03125 48.976563 138.148438 49.058594 138.242188 49.144531 C 138.335938 49.226563 138.417969 49.300781 138.472656 49.359375 Z M 132.441406 47.054688 C 132.195313 47.054688 131.996094 46.976563 131.847656 46.816406 C 131.699219 46.660156 131.625 46.453125 131.625 46.195313 C 131.625 45.945313 131.699219 45.742188 131.847656 45.585938 C 131.996094 45.425781 132.195313 45.347656 132.441406 45.347656 C 132.679688 45.347656 132.871094 45.425781 133.023438 45.585938 C 133.171875 45.742188 133.242188 45.945313 133.242188 46.195313 C 133.242188 46.453125 133.171875 46.660156 133.023438 46.816406 C 132.871094 46.976563 132.679688 47.054688 132.441406 47.054688 Z M 133.039063 55.910156 L 131.832031 55.910156 L 131.832031 48.777344 L 133.039063 48.777344 Z M 128.832031 55.910156 L 128.832031 51.320313 C 128.832031 50.714844 128.730469 50.28125 128.527344 50.019531 C 128.324219 49.757813 128.015625 49.625 127.597656 49.625 C 127.242188 49.625 126.945313 49.714844 126.707031 49.894531 C 126.46875 50.070313 126.28125 50.246094 126.140625 50.414063 L 126.140625 55.910156 L 124.9375 55.910156 L 124.9375 48.777344 L 126.039063 48.777344 L 126.039063 49.582031 L 126.066406 49.582031 C 126.097656 49.519531 126.164063 49.4375 126.257813 49.320313 C 126.359375 49.207031 126.488281 49.097656 126.648438 48.996094 C 126.804688 48.890625 126.992188 48.800781 127.210938 48.71875 C 127.429688 48.640625 127.679688 48.601563 127.953125 48.601563 C 128.273438 48.601563 128.558594 48.648438 128.816406 48.742188 C 129.074219 48.835938 129.289063 48.988281 129.46875 49.195313 C 129.648438 49.402344 129.789063 49.671875 129.886719 50.003906 C 129.984375 50.335938 130.035156 50.746094 130.035156 51.230469 L 130.035156 55.910156 Z M 122.5 47.054688 C 122.253906 47.054688 122.054688 46.976563 121.90625 46.816406 C 121.757813 46.660156 121.683594 46.453125 121.683594 46.195313 C 121.683594 45.945313 121.757813 45.742188 121.90625 45.585938 C 122.054688 45.425781 122.253906 45.347656 122.5 45.347656 C 122.738281 45.347656 122.933594 45.425781 123.082031 45.585938 C 123.230469 45.742188 123.304688 45.945313 123.304688 46.195313 C 123.304688 46.453125 123.230469 46.660156 123.082031 46.816406 C 122.933594 46.976563 122.738281 47.054688 122.5 47.054688 Z M 123.097656 55.910156 L 121.894531 55.910156 L 121.894531 48.777344 L 123.097656 48.777344 Z M 115.148438 55.910156 L 115.148438 51.320313 C 115.148438 50.734375 115.0625 50.316406 114.894531 50.058594 C 114.726563 49.800781 114.453125 49.671875 114.074219 49.671875 C 113.878906 49.671875 113.703125 49.695313 113.550781 49.746094 C 113.394531 49.796875 113.257813 49.855469 113.140625 49.929688 C 113.023438 50.003906 112.917969 50.085938 112.828125 50.175781 C 112.738281 50.265625 112.664063 50.34375 112.605469 50.414063 L 112.605469 55.910156 L 111.402344 55.910156 L 111.402344 48.777344 L 112.5 48.777344 L 112.5 49.582031 L 112.53125 49.582031 C 112.582031 49.503906 112.652344 49.40625 112.753906 49.292969 C 112.855469 49.179688 112.976563 49.070313 113.125 48.964844 C 113.273438 48.859375 113.445313 48.773438 113.648438 48.703125 C 113.84375 48.636719 114.066406 48.601563 114.3125 48.601563 C 115.125 48.601563 115.699219 48.917969 116.039063 49.550781 C 116.105469 49.453125 116.203125 49.347656 116.320313 49.230469 C 116.4375 49.117188 116.574219 49.015625 116.738281 48.921875 C 116.894531 48.828125 117.070313 48.75 117.269531 48.691406 C 117.46875 48.628906 117.6875 48.601563 117.925781 48.601563 C 119.371094 48.601563 120.09375 49.441406 120.09375 51.128906 L 120.09375 55.910156 L 118.890625 55.910156 L 118.890625 51.320313 C 118.890625 50.734375 118.785156 50.316406 118.578125 50.058594 C 118.371094 49.800781 118.0625 49.671875 117.65625 49.671875 C 117.320313 49.671875 117.042969 49.753906 116.816406 49.914063 C 116.59375 50.078125 116.417969 50.234375 116.289063 50.382813 C 116.308594 50.496094 116.324219 50.609375 116.335938 50.734375 C 116.34375 50.859375 116.351563 50.988281 116.351563 51.128906 L 116.351563 55.910156 Z M 109.277344 50.222656 C 109.199219 50.132813 109.054688 50.011719 108.847656 49.855469 C 108.636719 49.703125 108.367188 49.625 108.027344 49.625 C 107.714844 49.625 107.46875 49.699219 107.300781 49.851563 C 107.132813 49.996094 107.050781 50.175781 107.050781 50.382813 C 107.050781 50.652344 107.125 50.871094 107.28125 51.046875 C 107.433594 51.21875 107.667969 51.402344 107.984375 51.601563 L 108.429688 51.871094 C 108.917969 52.15625 109.296875 52.46875 109.574219 52.800781 C 109.851563 53.132813 109.992188 53.558594 109.992188 54.085938 C 109.992188 54.648438 109.796875 55.125 109.40625 55.511719 C 109.011719 55.898438 108.449219 56.089844 107.71875 56.089844 C 107.429688 56.089844 107.179688 56.058594 106.960938 56 C 106.742188 55.941406 106.550781 55.871094 106.386719 55.792969 C 106.222656 55.714844 106.085938 55.628906 105.980469 55.535156 C 105.871094 55.4375 105.78125 55.351563 105.710938 55.273438 L 106.289063 54.320313 C 106.351563 54.382813 106.421875 54.449219 106.507813 54.53125 C 106.59375 54.609375 106.691406 54.6875 106.8125 54.761719 C 106.929688 54.835938 107.0625 54.898438 107.210938 54.945313 C 107.363281 54.996094 107.535156 55.019531 107.734375 55.019531 C 108.089844 55.019531 108.363281 54.941406 108.546875 54.78125 C 108.738281 54.625 108.832031 54.429688 108.832031 54.203125 C 108.832031 54.035156 108.808594 53.890625 108.765625 53.765625 C 108.71875 53.640625 108.652344 53.527344 108.5625 53.429688 C 108.472656 53.332031 108.367188 53.238281 108.238281 53.148438 C 108.109375 53.058594 107.960938 52.960938 107.792969 52.851563 L 107.347656 52.566406 C 106.898438 52.28125 106.550781 51.980469 106.300781 51.660156 C 106.046875 51.34375 105.917969 50.9375 105.917969 50.445313 C 105.917969 50.175781 105.972656 49.929688 106.074219 49.707031 C 106.179688 49.484375 106.324219 49.292969 106.515625 49.128906 C 106.703125 48.964844 106.921875 48.835938 107.175781 48.742188 C 107.429688 48.648438 107.699219 48.601563 107.984375 48.601563 C 108.261719 48.601563 108.5 48.628906 108.699219 48.683594 C 108.894531 48.738281 109.066406 48.808594 109.210938 48.890625 C 109.355469 48.976563 109.472656 49.058594 109.566406 49.144531 C 109.660156 49.226563 109.738281 49.300781 109.796875 49.359375 Z M 102.339844 49.582031 C 101.914063 49.582031 101.570313 49.761719 101.3125 50.117188 C 101.054688 50.472656 100.90625 50.988281 100.867188 51.660156 L 103.46875 51.660156 C 103.480469 51.613281 103.484375 51.539063 103.488281 51.445313 C 103.496094 51.351563 103.496094 51.253906 103.496094 51.140625 C 103.496094 50.644531 103.398438 50.261719 103.199219 49.988281 C 103.003906 49.71875 102.714844 49.582031 102.339844 49.582031 Z M 104.597656 51.1875 C 104.597656 51.496094 104.585938 51.757813 104.566406 51.980469 C 104.546875 52.203125 104.527344 52.398438 104.507813 52.566406 L 100.867188 52.566406 C 100.90625 53.410156 101.089844 54.03125 101.410156 54.425781 C 101.730469 54.820313 102.195313 55.019531 102.800781 55.019531 C 103.007813 55.019531 103.195313 54.996094 103.363281 54.945313 C 103.53125 54.898438 103.679688 54.835938 103.800781 54.769531 C 103.925781 54.699219 104.03125 54.628906 104.117188 54.558594 C 104.199219 54.492188 104.261719 54.433594 104.300781 54.394531 L 104.746094 55.242188 C 104.695313 55.292969 104.621094 55.363281 104.523438 55.460938 C 104.425781 55.550781 104.289063 55.644531 104.121094 55.742188 C 103.953125 55.835938 103.746094 55.917969 103.496094 55.984375 C 103.25 56.054688 102.957031 56.089844 102.621094 56.089844 C 102.175781 56.089844 101.769531 56.015625 101.410156 55.867188 C 101.046875 55.71875 100.742188 55.488281 100.488281 55.175781 C 100.238281 54.863281 100.039063 54.46875 99.902344 53.988281 C 99.761719 53.507813 99.695313 52.929688 99.695313 52.257813 C 99.695313 51.621094 99.765625 51.074219 99.910156 50.613281 C 100.054688 50.15625 100.246094 49.773438 100.496094 49.480469 C 100.742188 49.179688 101.03125 48.960938 101.359375 48.816406 C 101.683594 48.671875 102.035156 48.601563 102.414063 48.601563 C 103.097656 48.601563 103.632813 48.816406 104.019531 49.246094 C 104.402344 49.679688 104.597656 50.324219 104.597656 51.1875 Z M 95.636719 55.019531 C 95.824219 55.019531 95.992188 54.996094 96.140625 54.945313 C 96.292969 54.898438 96.421875 54.835938 96.53125 54.761719 C 96.636719 54.6875 96.730469 54.609375 96.804688 54.53125 C 96.878906 54.449219 96.933594 54.382813 96.972656 54.320313 L 96.972656 49.925781 C 96.867188 49.855469 96.738281 49.796875 96.59375 49.746094 C 96.453125 49.695313 96.269531 49.671875 96.054688 49.671875 C 95.777344 49.671875 95.515625 49.71875 95.273438 49.8125 C 95.03125 49.90625 94.820313 50.0625 94.640625 50.277344 C 94.464844 50.5 94.324219 50.78125 94.21875 51.128906 C 94.113281 51.472656 94.0625 51.898438 94.0625 52.40625 C 94.0625 52.898438 94.105469 53.3125 94.1875 53.644531 C 94.273438 53.976563 94.390625 54.246094 94.535156 54.449219 C 94.6875 54.652344 94.855469 54.796875 95.042969 54.886719 C 95.230469 54.976563 95.429688 55.019531 95.636719 55.019531 Z M 92.816406 52.449219 C 92.816406 51.726563 92.90625 51.121094 93.097656 50.636719 C 93.285156 50.152344 93.527344 49.761719 93.824219 49.464844 C 94.121094 49.164063 94.460938 48.957031 94.835938 48.832031 C 95.210938 48.707031 95.589844 48.644531 95.964844 48.644531 C 96.191406 48.644531 96.390625 48.664063 96.558594 48.699219 C 96.726563 48.730469 96.867188 48.773438 96.972656 48.824219 L 96.972656 45.40625 L 98.179688 45.273438 L 98.179688 55.910156 L 97.078125 55.910156 L 97.078125 55.152344 L 97.050781 55.152344 C 97.019531 55.214844 96.964844 55.292969 96.886719 55.398438 C 96.804688 55.503906 96.699219 55.605469 96.558594 55.710938 C 96.421875 55.8125 96.246094 55.90625 96.039063 55.980469 C 95.832031 56.050781 95.589844 56.089844 95.308594 56.089844 C 94.972656 56.089844 94.65625 56.023438 94.351563 55.890625 C 94.050781 55.757813 93.785156 55.542969 93.554688 55.25 C 93.328125 54.957031 93.148438 54.582031 93.015625 54.121094 C 92.882813 53.660156 92.816406 53.105469 92.816406 52.449219 Z M 90.140625 55.910156 L 90.140625 51.320313 C 90.140625 50.714844 90.039063 50.28125 89.835938 50.019531 C 89.632813 49.757813 89.324219 49.625 88.90625 49.625 C 88.550781 49.625 88.253906 49.714844 88.015625 49.894531 C 87.777344 50.070313 87.589844 50.246094 87.449219 50.414063 L 87.449219 55.910156 L 86.246094 55.910156 L 86.246094 48.777344 L 87.347656 48.777344 L 87.347656 49.582031 L 87.375 49.582031 C 87.40625 49.519531 87.46875 49.4375 87.570313 49.320313 C 87.667969 49.207031 87.796875 49.097656 87.957031 48.996094 C 88.113281 48.890625 88.300781 48.800781 88.519531 48.71875 C 88.738281 48.640625 88.984375 48.601563 89.261719 48.601563 C 89.582031 48.601563 89.867188 48.648438 90.125 48.742188 C 90.382813 48.835938 90.601563 48.988281 90.777344 49.195313 C 90.957031 49.402344 91.09375 49.671875 91.195313 50.003906 C 91.292969 50.335938 91.34375 50.746094 91.34375 51.230469 L 91.34375 55.910156 Z M 84.40625 55.910156 L 83.304688 55.910156 L 83.304688 55.109375 L 83.277344 55.109375 C 83.246094 55.167969 83.179688 55.253906 83.082031 55.367188 C 82.984375 55.484375 82.859375 55.59375 82.703125 55.695313 C 82.550781 55.800781 82.363281 55.890625 82.144531 55.972656 C 81.929688 56.050781 81.683594 56.089844 81.417969 56.089844 C 81.101563 56.089844 80.816406 56.042969 80.5625 55.949219 C 80.308594 55.855469 80.09375 55.703125 79.917969 55.496094 C 79.738281 55.285156 79.601563 55.019531 79.507813 54.6875 C 79.414063 54.355469 79.367188 53.945313 79.367188 53.460938 L 79.367188 48.777344 L 80.570313 48.777344 L 80.570313 53.371094 C 80.570313 53.964844 80.667969 54.390625 80.859375 54.640625 C 81.054688 54.894531 81.351563 55.019531 81.757813 55.019531 C 82.105469 55.019531 82.398438 54.933594 82.636719 54.761719 C 82.875 54.585938 83.0625 54.414063 83.203125 54.246094 L 83.203125 48.777344 L 84.40625 48.777344 Z M 76.441406 53.042969 C 76.441406 52.488281 76.257813 52.050781 75.898438 51.730469 C 75.535156 51.40625 75.019531 51.246094 74.34375 51.246094 L 73.46875 51.246094 L 73.46875 54.84375 L 74.269531 54.84375 C 75.035156 54.84375 75.585938 54.691406 75.925781 54.390625 C 76.269531 54.085938 76.441406 53.636719 76.441406 53.042969 Z M 76.246094 48.316406 C 76.246094 47.84375 76.078125 47.453125 75.742188 47.144531 C 75.40625 46.839844 74.875 46.683594 74.152344 46.683594 L 73.46875 46.683594 L 73.46875 50.222656 L 74.136719 50.222656 C 74.832031 50.222656 75.355469 50.054688 75.710938 49.714844 C 76.070313 49.378906 76.246094 48.914063 76.246094 48.316406 Z M 77.554688 48.273438 C 77.554688 48.628906 77.511719 48.941406 77.421875 49.210938 C 77.332031 49.480469 77.210938 49.707031 77.058594 49.902344 C 76.902344 50.09375 76.726563 50.25 76.523438 50.371094 C 76.320313 50.488281 76.109375 50.578125 75.890625 50.636719 L 75.890625 50.664063 C 76.15625 50.714844 76.40625 50.808594 76.640625 50.949219 C 76.875 51.089844 77.078125 51.261719 77.25 51.46875 C 77.421875 51.675781 77.5625 51.921875 77.664063 52.203125 C 77.769531 52.488281 77.820313 52.796875 77.820313 53.132813 C 77.820313 53.539063 77.753906 53.910156 77.613281 54.246094 C 77.476563 54.585938 77.261719 54.878906 76.96875 55.125 C 76.675781 55.371094 76.308594 55.566406 75.859375 55.703125 C 75.414063 55.84375 74.882813 55.910156 74.269531 55.910156 L 72.175781 55.910156 L 72.175781 45.660156 L 74.152344 45.660156 C 74.757813 45.660156 75.273438 45.722656 75.707031 45.84375 C 76.136719 45.96875 76.488281 46.144531 76.765625 46.371094 C 77.042969 46.601563 77.246094 46.875 77.367188 47.195313 C 77.492188 47.519531 77.554688 47.878906 77.554688 48.273438 "
       style="stroke:none;fill-rule:nonzero;fill:#000000;fill-opacity:1" />
    <path
       id="path1099"
       d="M 61.011719 95.867188 L 62.886719 95.867188 L 62.886719 120.839844 L 58.515625 120.839844 L 58.515625 95.867188 L 61.011719 95.867188 "
       style="stroke:none;fill-rule:nonzero;fill:#ffcc00;fill-opacity:1" />
    <path
       id="path1101"
       d="M 61.011719 70.773438 L 62.886719 70.773438 L 62.886719 95.867188 L 58.515625 95.867188 L 58.515625 70.773438 L 61.011719 70.773438 "
       style="stroke:none;fill-rule:nonzero;fill:#ff0000;fill-opacity:1" />
    <path
       id="path1103"
       d="M 39.378906 55.085938 C 39.410156 54.808594 39.429688 54.519531 39.429688 54.222656 C 39.429688 54.0625 39.433594 53.875 39.414063 53.664063 C 41.902344 53.628906 44.085938 51.835938 44.085938 49.773438 C 44.085938 48.722656 43.398438 47.933594 43.015625 47.460938 C 43.101563 47.441406 43.1875 47.421875 43.277344 47.398438 C 43.640625 47.714844 44.675781 48.84375 44.675781 50.265625 C 44.675781 52.738281 42.203125 55.035156 39.378906 55.085938 Z M 36.871094 46.472656 C 36.824219 46.195313 36.71875 45.945313 36.558594 45.730469 C 36.566406 45.480469 36.671875 45.238281 37.078125 45.4375 C 36.855469 45.660156 37.027344 46.058594 37.027344 46.058594 C 37.027344 46.058594 37.476563 45.851563 37.382813 45.554688 C 38.050781 45.714844 37.570313 46.609375 36.871094 46.472656 Z M 36.292969 47.742188 C 36.203125 47.371094 36.015625 46.992188 35.773438 46.707031 C 35.550781 46.449219 35.1875 46.140625 34.703125 46.140625 C 34.476563 46.140625 34.101563 46.242188 33.863281 46.34375 C 33.773438 46.183594 33.601563 45.789063 33.601563 45.613281 C 33.601563 45.433594 33.90625 45.25 34.492188 45.25 C 35.78125 45.25 36.550781 45.832031 36.550781 46.808594 C 36.550781 47.152344 36.414063 47.464844 36.292969 47.742188 Z M 39.601563 64.347656 C 39.75 64.347656 39.824219 64.371094 39.910156 64.40625 C 40.28125 65.414063 41.710938 67.316406 41.769531 67.398438 L 41.785156 67.414063 L 41.804688 67.410156 C 42.15625 67.355469 43.050781 67.21875 43.800781 67.21875 L 43.820313 67.21875 C 43.898438 67.21875 43.992188 67.21875 44.050781 67.277344 C 44.097656 67.328125 44.121094 67.410156 44.121094 67.53125 C 44.121094 67.71875 44.042969 68.039063 43.949219 68.171875 C 43.6875 67.886719 43.261719 67.757813 42.578125 67.757813 C 42.375 67.757813 42.132813 67.820313 42 67.855469 L 41.949219 67.867188 L 41.886719 67.882813 L 42.28125 68.277344 C 42.886719 68.882813 43.410156 69.40625 43.410156 69.753906 C 43.410156 69.964844 43.207031 70.234375 43.019531 70.359375 C 42.976563 69.71875 42.332031 68.867188 41.707031 68.390625 L 41.652344 68.347656 L 41.640625 68.570313 C 41.632813 68.722656 41.617188 68.953125 41.617188 69.199219 C 41.617188 70.414063 41.496094 70.597656 41.074219 70.597656 C 41.011719 70.597656 40.910156 70.578125 40.847656 70.554688 C 41.085938 70.261719 41.179688 69.875 41.179688 69.195313 L 41.175781 68.882813 L 41.171875 68.632813 C 41.171875 68.351563 41.203125 68.148438 41.222656 67.980469 L 41.238281 67.886719 L 41.171875 67.878906 C 40.972656 67.851563 40.609375 67.800781 40.328125 67.800781 C 39.726563 67.800781 39.320313 67.855469 39.023438 68.132813 C 38.832031 67.976563 38.632813 67.707031 38.632813 67.535156 C 38.632813 67.28125 38.789063 67.261719 38.996094 67.261719 C 39.101563 67.261719 39.199219 67.277344 39.332031 67.292969 C 39.589844 67.332031 39.980469 67.386719 40.78125 67.386719 L 40.828125 67.386719 L 40.816406 67.339844 C 40.609375 66.757813 40.054688 65.914063 39.160156 64.828125 C 39.242188 64.539063 39.320313 64.347656 39.601563 64.347656 Z M 31.890625 67.339844 L 31.875 67.386719 L 31.925781 67.386719 C 32.726563 67.386719 33.113281 67.332031 33.371094 67.292969 C 33.507813 67.277344 33.605469 67.261719 33.710938 67.261719 C 33.917969 67.261719 34.074219 67.28125 34.074219 67.535156 C 34.074219 67.707031 33.875 67.976563 33.679688 68.132813 C 33.386719 67.855469 32.976563 67.800781 32.378906 67.800781 C 32.097656 67.800781 31.730469 67.851563 31.535156 67.878906 L 31.503906 67.882813 L 31.46875 67.886719 L 31.480469 67.980469 C 31.503906 68.148438 31.53125 68.351563 31.53125 68.632813 L 31.527344 68.882813 L 31.527344 69.195313 C 31.527344 69.875 31.617188 70.261719 31.855469 70.554688 C 31.796875 70.578125 31.695313 70.597656 31.632813 70.597656 C 31.210938 70.597656 31.085938 70.414063 31.085938 69.199219 C 31.085938 68.953125 31.074219 68.722656 31.066406 68.570313 L 31.054688 68.347656 L 31 68.390625 C 30.375 68.867188 29.726563 69.71875 29.6875 70.359375 C 29.5 70.234375 29.296875 69.964844 29.296875 69.753906 C 29.296875 69.40625 29.820313 68.882813 30.425781 68.277344 L 30.820313 67.882813 L 30.703125 67.855469 C 30.574219 67.820313 30.332031 67.757813 30.125 67.757813 C 29.445313 67.757813 29.019531 67.886719 28.757813 68.171875 C 28.664063 68.039063 28.582031 67.71875 28.582031 67.53125 C 28.582031 67.410156 28.609375 67.328125 28.65625 67.277344 C 28.714844 67.21875 28.808594 67.21875 28.886719 67.21875 L 28.90625 67.21875 C 29.65625 67.21875 30.550781 67.355469 30.902344 67.410156 L 30.921875 67.414063 L 30.933594 67.398438 C 30.996094 67.316406 32.425781 65.414063 32.796875 64.40625 C 32.882813 64.371094 32.957031 64.347656 33.105469 64.347656 C 33.386719 64.347656 33.464844 64.539063 33.546875 64.828125 C 32.652344 65.914063 32.09375 66.757813 31.890625 67.339844 Z M 28.03125 50.265625 C 28.03125 48.84375 29.066406 47.714844 29.429688 47.398438 C 29.519531 47.421875 29.605469 47.441406 29.691406 47.460938 C 29.304688 47.933594 28.621094 48.722656 28.621094 49.773438 C 28.621094 51.855469 30.847656 53.664063 33.367188 53.664063 C 33.351563 53.84375 33.34375 54.03125 33.34375 54.222656 C 33.34375 54.53125 33.359375 54.816406 33.390625 55.085938 C 30.539063 55.070313 28.03125 52.757813 28.03125 50.265625 Z M 47.144531 54.652344 C 48.421875 56.671875 49.421875 56.640625 50.933594 56.640625 C 49.683594 55.683594 48.855469 54.453125 48.460938 53.828125 L 46.128906 50.089844 C 45.898438 48.9375 45.300781 47.859375 44.40625 47.058594 C 44.707031 46.941406 44.957031 46.824219 45.109375 46.710938 C 43.585938 46.710938 42.074219 45.9375 41.242188 45.9375 C 40.707031 45.9375 40.363281 46.253906 40.363281 46.675781 C 40.398438 47.148438 40.882813 47.628906 41.777344 47.628906 C 41.980469 47.628906 42.238281 47.601563 42.523438 47.554688 C 43.007813 48.226563 43.398438 48.839844 43.398438 49.710938 C 43.398438 51.34375 41.445313 52.621094 39.46875 52.621094 C 39.359375 52.621094 39.253906 52.617188 39.140625 52.605469 C 38.960938 52.203125 38.367188 51.519531 38.367188 50.746094 C 38.367188 49.449219 39.214844 48.386719 39.214844 47.097656 C 39.214844 46.296875 38.824219 45.804688 38.671875 45.597656 C 38.917969 45.371094 39.179688 45.09375 39.246094 44.90625 C 39.101563 44.96875 38.9375 44.976563 38.691406 44.976563 C 37.746094 44.976563 36.972656 44.730469 36.222656 44.730469 C 35.792969 44.730469 35.675781 44.859375 35.675781 44.988281 C 35.675781 45.035156 35.683594 45.082031 35.699219 45.105469 C 35.535156 45.039063 35.386719 45 35.207031 44.96875 C 34.988281 44.925781 34.746094 44.902344 34.492188 44.902344 C 33.578125 44.902344 33.253906 45.285156 33.253906 45.613281 C 33.253906 45.894531 33.472656 46.398438 33.71875 46.785156 C 34.078125 46.605469 34.503906 46.484375 34.703125 46.484375 C 35.183594 46.484375 35.617188 46.945313 35.847656 47.496094 C 35.519531 47.535156 35.457031 47.550781 35.125 47.550781 C 34.238281 47.550781 33.632813 47.230469 33.507813 47.230469 C 33.496094 47.230469 33.472656 47.234375 33.472656 47.257813 C 33.472656 47.382813 33.722656 47.710938 34.21875 47.894531 C 34.875 48.132813 35.859375 48.230469 36.023438 48.257813 C 36.023438 48.285156 35.855469 48.597656 35.667969 48.65625 C 35.628906 48.671875 35.597656 48.671875 35.554688 48.660156 C 34.867188 48.523438 34.679688 48.46875 33.808594 48.140625 C 33.785156 48.128906 33.769531 48.144531 33.769531 48.171875 C 33.769531 48.515625 34.65625 49.273438 35.453125 49.5625 C 34.789063 50.414063 33.957031 51.28125 33.566406 52.605469 C 33.453125 52.617188 33.347656 52.621094 33.234375 52.621094 C 31.261719 52.621094 29.304688 51.34375 29.304688 49.710938 C 29.304688 48.839844 29.695313 48.226563 30.183594 47.554688 C 30.46875 47.601563 30.726563 47.628906 30.925781 47.628906 C 31.824219 47.628906 32.308594 47.148438 32.34375 46.675781 C 32.34375 46.253906 32 45.9375 31.464844 45.9375 C 30.632813 45.9375 29.121094 46.710938 27.597656 46.710938 C 27.746094 46.824219 27.996094 46.941406 28.296875 47.058594 C 27.402344 47.859375 26.808594 48.9375 26.578125 50.089844 L 24.246094 53.828125 C 23.851563 54.453125 23.023438 55.683594 21.773438 56.640625 C 23.28125 56.640625 24.285156 56.671875 25.5625 54.652344 L 26.761719 52.734375 C 26.847656 52.984375 26.957031 53.226563 27.085938 53.464844 L 24.703125 57.273438 C 24.308594 57.90625 23.488281 59.121094 22.234375 60.085938 C 23.742188 60.085938 24.746094 60.121094 26.023438 58.101563 L 28.074219 54.820313 C 28.226563 54.980469 28.386719 55.144531 28.558594 55.292969 L 25.664063 59.925781 C 25.269531 60.558594 24.453125 61.769531 23.191406 62.734375 C 24.703125 62.734375 25.707031 62.769531 26.984375 60.75 L 29.804688 56.234375 C 29.988281 56.351563 30.179688 56.46875 30.375 56.574219 L 26.933594 62.082031 C 26.535156 62.714844 25.71875 63.925781 24.464844 64.890625 C 25.972656 64.890625 26.976563 64.925781 28.253906 62.90625 L 31.796875 57.230469 C 32.007813 57.3125 32.21875 57.390625 32.433594 57.460938 L 28.429688 63.867188 C 28.039063 64.492188 27.207031 65.722656 25.960938 66.675781 C 27.472656 66.675781 28.472656 66.710938 29.75 64.691406 L 34.019531 57.863281 C 34.0625 57.867188 34.105469 57.875 34.148438 57.882813 C 34.265625 58.253906 34.34375 58.597656 34.34375 58.941406 C 34.34375 61.089844 32.9375 62.984375 31.246094 64.449219 C 31.351563 64.496094 31.542969 64.511719 31.71875 64.511719 C 32.066406 64.511719 32.292969 64.492188 32.449219 64.464844 C 32.054688 65.351563 31.214844 66.503906 30.789063 67.097656 C 30.238281 67 29.433594 66.921875 28.90625 66.921875 C 28.355469 66.921875 28.289063 67.246094 28.289063 67.53125 C 28.289063 68.035156 28.523438 68.433594 28.796875 68.65625 C 28.902344 68.398438 29.105469 68.054688 30.125 68.054688 C 30.144531 68.054688 30.179688 68.058594 30.226563 68.0625 C 29.929688 68.394531 28.996094 69.148438 28.996094 69.753906 C 28.996094 70.15625 29.4375 70.757813 30.019531 70.757813 C 29.984375 70.628906 29.988281 70.511719 29.988281 70.421875 C 29.988281 69.929688 30.425781 69.351563 30.792969 68.953125 C 30.78125 69.070313 30.789063 69.058594 30.789063 69.199219 C 30.789063 70.359375 30.894531 70.894531 31.632813 70.894531 C 31.992188 70.894531 32.242188 70.699219 32.328125 70.636719 C 31.847656 70.195313 31.824219 69.847656 31.824219 69.195313 C 31.828125 69.027344 31.828125 68.863281 31.828125 68.632813 C 31.832031 68.484375 31.828125 68.285156 31.804688 68.144531 C 32.070313 68.105469 32.175781 68.105469 32.378906 68.105469 C 32.378906 68.105469 33.425781 68.023438 33.679688 68.566406 C 33.964844 68.308594 34.378906 67.941406 34.378906 67.535156 C 34.378906 67.265625 34.25 66.960938 33.710938 66.960938 C 33.503906 66.960938 32.863281 67.085938 32.324219 67.085938 C 32.46875 66.765625 33.113281 65.824219 33.671875 65.140625 C 33.753906 65.40625 33.886719 65.691406 34.179688 65.925781 C 34.21875 65.488281 34.476563 64.097656 35.164063 63.285156 C 35.242188 63.835938 35.351563 64.398438 35.351563 65.585938 C 35.351563 68.472656 34.65625 70.605469 33.183594 71.015625 C 33.375 71.347656 33.78125 71.648438 34.203125 71.648438 C 34.738281 71.648438 35.035156 71.039063 35.332031 70.464844 C 35.488281 70.886719 35.921875 71.929688 36.351563 71.929688 C 36.785156 71.929688 37.214844 70.886719 37.371094 70.464844 C 37.671875 71.039063 37.964844 71.648438 38.503906 71.648438 C 38.925781 71.648438 39.332031 71.347656 39.523438 71.015625 C 38.050781 70.605469 37.351563 68.472656 37.351563 65.585938 C 37.351563 64.398438 37.460938 63.835938 37.539063 63.285156 C 38.230469 64.097656 38.488281 65.488281 38.527344 65.925781 C 38.820313 65.691406 38.949219 65.40625 39.035156 65.140625 C 39.59375 65.824219 40.234375 66.765625 40.382813 67.085938 C 39.84375 67.085938 39.199219 66.960938 38.996094 66.960938 C 38.457031 66.960938 38.328125 67.265625 38.328125 67.535156 C 38.328125 67.941406 38.742188 68.308594 39.027344 68.566406 C 39.277344 68.023438 40.328125 68.105469 40.328125 68.105469 C 40.53125 68.105469 40.636719 68.105469 40.902344 68.144531 C 40.878906 68.285156 40.875 68.484375 40.878906 68.632813 C 40.878906 68.863281 40.878906 69.027344 40.878906 69.195313 C 40.878906 69.847656 40.855469 70.195313 40.375 70.636719 C 40.464844 70.699219 40.714844 70.894531 41.074219 70.894531 C 41.8125 70.894531 41.917969 70.359375 41.917969 69.199219 C 41.917969 69.058594 41.921875 69.070313 41.914063 68.953125 C 42.28125 69.351563 42.714844 69.929688 42.714844 70.421875 C 42.714844 70.511719 42.722656 70.628906 42.683594 70.757813 C 43.269531 70.757813 43.710938 70.15625 43.710938 69.753906 C 43.710938 69.148438 42.777344 68.394531 42.476563 68.0625 C 42.527344 68.058594 42.558594 68.054688 42.578125 68.054688 C 43.597656 68.054688 43.804688 68.398438 43.90625 68.65625 C 44.179688 68.433594 44.414063 68.035156 44.414063 67.53125 C 44.414063 67.246094 44.351563 66.921875 43.800781 66.921875 C 43.273438 66.921875 42.46875 67 41.914063 67.097656 C 41.488281 66.503906 40.648438 65.351563 40.257813 64.464844 C 40.414063 64.492188 40.640625 64.511719 40.988281 64.511719 C 41.164063 64.511719 41.351563 64.496094 41.460938 64.449219 C 39.769531 62.984375 38.359375 61.089844 38.359375 58.941406 C 38.359375 58.597656 38.441406 58.253906 38.558594 57.882813 C 38.601563 57.875 38.644531 57.867188 38.6875 57.863281 L 42.957031 64.691406 C 44.234375 66.710938 45.234375 66.675781 46.746094 66.675781 C 45.5 65.722656 44.664063 64.492188 44.277344 63.867188 L 40.269531 57.460938 C 40.488281 57.390625 40.699219 57.3125 40.910156 57.230469 L 44.453125 62.90625 C 45.730469 64.925781 46.730469 64.890625 48.242188 64.890625 C 46.984375 63.925781 46.167969 62.714844 45.773438 62.082031 L 42.332031 56.574219 C 42.527344 56.46875 42.71875 56.351563 42.902344 56.234375 L 45.722656 60.75 C 47 62.769531 48 62.734375 49.511719 62.734375 C 48.253906 61.769531 47.4375 60.558594 47.039063 59.925781 L 44.148438 55.292969 C 44.320313 55.144531 44.480469 54.980469 44.632813 54.820313 L 46.683594 58.101563 C 47.960938 60.121094 48.960938 60.085938 50.472656 60.085938 C 49.21875 59.121094 48.398438 57.90625 48 57.273438 L 45.621094 53.464844 C 45.746094 53.226563 45.859375 52.984375 45.945313 52.734375 L 47.144531 54.652344 "
       style="stroke:none;fill-rule:nonzero;fill:#000000;fill-opacity:1" />
    <path
       id="path1105"
       d="M 62.886719 45.925781 L 62.886719 70.894531 L 58.515625 70.894531 L 58.515625 45.925781 L 62.886719 45.925781 "
       style="stroke:none;fill-rule:nonzero;fill:#000000;fill-opacity:1" />
    <path
       id="path1107"
       d="M 75.050781 16.265625 C 75.050781 15.523438 74.746094 15.117188 73.929688 15.117188 C 73.675781 15.117188 72.769531 15.164063 72.769531 16.484375 L 72.769531 18.621094 C 72.769531 20.003906 73.167969 20.351563 73.929688 20.351563 C 74.507813 20.351563 74.894531 20.195313 75.058594 20.070313 L 75.058594 18.183594 L 73.894531 18.183594 L 73.894531 17.480469 L 75.863281 17.480469 L 75.863281 20.554688 C 75.347656 20.835938 74.746094 21.023438 73.929688 21.023438 C 72.59375 21.023438 71.945313 20.335938 71.945313 18.585938 L 71.945313 16.511719 C 71.945313 15.25 72.59375 14.445313 73.929688 14.445313 C 75.296875 14.445313 75.945313 14.945313 75.890625 16.265625 L 75.050781 16.265625 "
       style="stroke:none;fill-rule:nonzero;fill:#000000;fill-opacity:1" />
    <path
       id="path1109"
       d="M 77.371094 20.894531 L 77.371094 14.578125 L 80.625 14.578125 L 80.625 15.277344 L 78.175781 15.277344 L 78.175781 17.308594 L 80.449219 17.308594 L 80.449219 18.007813 L 78.175781 18.007813 L 78.175781 20.195313 L 80.675781 20.195313 L 80.675781 20.894531 L 77.371094 20.894531 "
       style="stroke:none;fill-rule:nonzero;fill:#000000;fill-opacity:1" />
    <path
       id="path1111"
       d="M 81.683594 20.894531 L 81.683594 14.578125 L 84.816406 14.578125 L 84.816406 15.277344 L 82.488281 15.277344 L 82.488281 17.308594 L 84.695313 17.308594 L 84.695313 18.007813 L 82.488281 18.007813 L 82.488281 20.894531 L 81.683594 20.894531 "
       style="stroke:none;fill-rule:nonzero;fill:#000000;fill-opacity:1" />
    <path
       id="path1113"
       d="M 88.78125 13.832031 L 87.957031 13.832031 L 87.957031 12.925781 L 88.78125 12.925781 Z M 88.753906 18.621094 L 88.753906 16.484375 C 88.753906 15.164063 87.84375 15.117188 87.589844 15.117188 C 87.335938 15.117188 86.425781 15.164063 86.425781 16.484375 L 86.425781 18.621094 C 86.425781 20.003906 86.828125 20.351563 87.589844 20.351563 C 88.351563 20.351563 88.753906 20.003906 88.753906 18.621094 Z M 87.238281 13.832031 L 86.417969 13.832031 L 86.417969 12.925781 L 87.238281 12.925781 Z M 85.601563 18.585938 L 85.601563 16.511719 C 85.601563 15.25 86.25 14.445313 87.589844 14.445313 C 88.929688 14.445313 89.574219 15.25 89.574219 16.511719 L 89.574219 18.585938 C 89.574219 20.335938 88.929688 21.023438 87.589844 21.023438 C 86.25 21.023438 85.601563 20.335938 85.601563 18.585938 "
       style="stroke:none;fill-rule:nonzero;fill:#000000;fill-opacity:1" />
    <path
       id="path1115"
       d="M 91.761719 17.289063 L 92.972656 17.289063 C 93.546875 17.289063 93.828125 16.789063 93.828125 16.238281 C 93.828125 15.785156 93.601563 15.277344 92.980469 15.277344 L 91.761719 15.277344 Z M 91.761719 17.988281 L 91.761719 20.894531 L 90.957031 20.894531 L 90.957031 14.578125 L 93.136719 14.578125 C 94.257813 14.578125 94.652344 15.363281 94.652344 16.152344 C 94.652344 16.894531 94.238281 17.464844 93.496094 17.597656 L 93.496094 17.613281 C 94.222656 17.726563 94.484375 17.972656 94.527344 19.238281 C 94.535156 19.511719 94.625 20.5 94.746094 20.894531 L 93.90625 20.894531 C 93.679688 20.457031 93.730469 19.636719 93.664063 18.792969 C 93.601563 18.023438 92.980469 17.988281 92.707031 17.988281 L 91.761719 17.988281 "
       style="stroke:none;fill-rule:nonzero;fill:#000000;fill-opacity:1" />
    <path
       id="path1117"
       d="M 96.664063 20.195313 L 97.425781 20.195313 C 98.542969 20.195313 98.957031 19.773438 98.957031 18.304688 L 98.957031 17.027344 C 98.957031 15.75 98.5625 15.277344 97.722656 15.277344 L 96.664063 15.277344 Z M 95.859375 14.578125 L 97.800781 14.578125 C 98.605469 14.578125 99.183594 14.867188 99.5 15.539063 C 99.753906 16.074219 99.777344 17.332031 99.777344 17.535156 C 99.777344 18.882813 99.65625 19.660156 99.394531 20.082031 C 99.050781 20.621094 98.414063 20.894531 97.3125 20.894531 L 95.859375 20.894531 L 95.859375 14.578125 "
       style="stroke:none;fill-rule:nonzero;fill:#000000;fill-opacity:1" />
    <path
       id="path1119"
       d="M 101.1875 20.894531 L 101.1875 14.578125 L 104.441406 14.578125 L 104.441406 15.277344 L 101.992188 15.277344 L 101.992188 17.308594 L 104.265625 17.308594 L 104.265625 18.007813 L 101.992188 18.007813 L 101.992188 20.195313 L 104.496094 20.195313 L 104.496094 20.894531 L 101.1875 20.894531 "
       style="stroke:none;fill-rule:nonzero;fill:#000000;fill-opacity:1" />
    <path
       id="path1121"
       d="M 106.351563 17.289063 L 107.554688 17.289063 C 108.132813 17.289063 108.414063 16.789063 108.414063 16.238281 C 108.414063 15.785156 108.1875 15.277344 107.5625 15.277344 L 106.351563 15.277344 Z M 106.351563 17.988281 L 106.351563 20.894531 L 105.542969 20.894531 L 105.542969 14.578125 L 107.722656 14.578125 C 108.84375 14.578125 109.234375 15.363281 109.234375 16.152344 C 109.234375 16.894531 108.824219 17.464844 108.082031 17.597656 L 108.082031 17.613281 C 108.804688 17.726563 109.070313 17.972656 109.113281 19.238281 C 109.121094 19.511719 109.210938 20.5 109.332031 20.894531 L 108.492188 20.894531 C 108.265625 20.457031 108.316406 19.636719 108.246094 18.792969 C 108.1875 18.023438 107.5625 17.988281 107.292969 17.988281 L 106.351563 17.988281 "
       style="stroke:none;fill-rule:nonzero;fill:#000000;fill-opacity:1" />
    <path
       id="path1123"
       d="M 113.96875 14.578125 L 113.96875 15.277344 L 112.308594 15.277344 L 112.308594 20.894531 L 111.503906 20.894531 L 111.503906 15.277344 L 109.839844 15.277344 L 109.839844 14.578125 L 113.96875 14.578125 "
       style="stroke:none;fill-rule:nonzero;fill:#000000;fill-opacity:1" />
    <path
       id="path1125"
       d="M 118.941406 20.894531 L 117.976563 20.894531 L 116.148438 14.578125 L 117.023438 14.578125 L 118.46875 20.132813 L 118.484375 20.132813 L 119.960938 14.578125 L 120.785156 14.578125 L 118.941406 20.894531 "
       style="stroke:none;fill-rule:nonzero;fill:#000000;fill-opacity:1" />
    <path
       id="path1127"
       d="M 124.730469 18.621094 L 124.730469 16.484375 C 124.730469 15.164063 123.824219 15.117188 123.570313 15.117188 C 123.316406 15.117188 122.40625 15.164063 122.40625 16.484375 L 122.40625 18.621094 C 122.40625 20.003906 122.808594 20.351563 123.570313 20.351563 C 124.328125 20.351563 124.730469 20.003906 124.730469 18.621094 Z M 121.582031 18.585938 L 121.582031 16.511719 C 121.582031 15.25 122.230469 14.445313 123.570313 14.445313 C 124.90625 14.445313 125.554688 15.25 125.554688 16.511719 L 125.554688 18.585938 C 125.554688 20.335938 124.90625 21.023438 123.570313 21.023438 C 122.230469 21.023438 121.582031 20.335938 121.582031 18.585938 "
       style="stroke:none;fill-rule:nonzero;fill:#000000;fill-opacity:1" />
    <path
       id="path1129"
       d="M 127.714844 20.894531 L 126.964844 20.894531 L 126.964844 14.578125 L 128.265625 14.578125 L 129.859375 19.878906 L 129.878906 19.878906 L 131.488281 14.578125 L 132.816406 14.578125 L 132.816406 20.894531 L 132.011719 20.894531 L 132.011719 15.277344 L 131.992188 15.277344 L 130.226563 20.894531 L 129.464844 20.894531 L 127.734375 15.277344 L 127.714844 15.277344 L 127.714844 20.894531 "
       style="stroke:none;fill-rule:nonzero;fill:#000000;fill-opacity:1" />
  </g>
</svg>
