<?xml version="1.0" encoding="UTF-8" standalone="no"?>
<svg
   xmlns:dc="http://purl.org/dc/elements/1.1/"
   xmlns:cc="http://creativecommons.org/ns#"
   xmlns:rdf="http://www.w3.org/1999/02/22-rdf-syntax-ns#"
   xmlns:svg="http://www.w3.org/2000/svg"
   xmlns="http://www.w3.org/2000/svg"
   id="svg8"
   version="1.1"
   viewBox="0 0 81.063103 21.075716"
   height="21.075716mm"
   width="81.063103mm">
  <defs
     id="defs2">
    <clipPath
       id="clip1">
      <path
         d="m 68,139 h 92 v 15.82812 H 68 Z m 0,0"
         id="path815" />
    </clipPath>
    <clipPath
       id="clip2">
      <path
         d="M 68,41 H 229.78906 V 60 H 68 Z m 0,0"
         id="path818" />
    </clipPath>
  </defs>
  <metadata
     id="metadata5">
    <rdf:RDF>
      <cc:Work
         rdf:about="">
        <dc:format>image/svg+xml</dc:format>
        <dc:type
           rdf:resource="http://purl.org/dc/dcmitype/StillImage" />
        <dc:title></dc:title>
      </cc:Work>
    </rdf:RDF>
  </metadata>
  <g
     transform="translate(-51.694641,-11.910279)"
     id="layer1">
    <path
       id="path833"
       d="m 91.201497,21.196878 v -8.961382 c 0,0 0,-0.325217 -0.599447,-0.325217 h -0.500229 c 0,0 -0.600822,0 -0.600822,0.325217 v 8.961382 c 0,0 0,0.323839 0.600822,0.323839 h 0.500229 c 0,0 0.599447,0 0.599447,-0.323839"
       style="fill:#e40521;fill-opacity:1;fill-rule:nonzero;stroke:none;stroke-width:0.35277778" />
    <path
       id="path835"
       d="m 85.201639,21.1955 v -8.960004 c 0,0 0,-0.325217 -0.825445,-0.325217 h -0.687641 c 0,0 -0.824067,0 -0.824067,0.325217 V 21.1955 c 0,0 0,0.325217 0.824067,0.325217 h 0.687641 c 0,0 0.825445,0 0.825445,-0.325217 m -6.234245,-0.107487 v -8.74503 c 0,0 0,-0.432704 -1.099674,-0.432704 h -0.917773 c 0,0 -1.099675,0 -1.099675,0.432704 v 8.74503 c 0,0 0,0.432704 1.099675,0.432704 h 0.917773 c 0,0 1.099674,0 1.099674,-0.432704 m -6.622851,-0.216352 v -8.312326 c 0,0 0,-0.649056 -1.649512,-0.649056 h -0.598068 c 0,0 -1.649512,0 -1.649512,0.649056 v 8.312326 c 0,0 0,0.649056 1.649512,0.649056 h 0.598068 c 0,0 1.649512,0 1.649512,-0.649056 M 64.941722,20.764174 V 12.6682 c 0,0 0,-0.757921 -1.925119,-0.757921 h -0.825445 c 0,0 -1.92512,0 -1.92512,0.757921 v 8.095974 c 0,0 0,0.756543 1.92512,0.756543 h 0.825445 c 0,0 1.925119,0 1.925119,-0.756543 m -7.792806,-0.108865 v -7.879622 c 0,0 0,-0.865408 -2.199349,-0.865408 H 53.89399 c 0,0 -2.199349,0 -2.199349,0.865408 v 7.879622 c 0,0 0,0.865408 2.199349,0.865408 h 1.055577 c 0,0 2.199349,0 2.199349,-0.865408"
       style="fill:#e40521;fill-opacity:1;fill-rule:nonzero;stroke:none;stroke-width:0.35277778" />
    <g
       transform="matrix(0.35277777,0,0,0.35277777,51.694641,11.910279)"
       id="g839"
       clip-path="url(#clip2)"
       style="clip-rule:nonzero;fill:#5b7083;fill-opacity:1">
      <path
         id="path837"
         d="m 68.4375,59.441406 h 3.851563 V 53.84375 H 75.3125 l 3.75,5.597656 h 4.5 l -4.273437,-6.25 c 2.222656,-0.824218 3.75,-2.597656 3.75,-5.425781 v -0.04687 c 0,-1.652344 -0.527344,-3.027344 -1.5,-4 -1.152344,-1.152344 -2.875,-1.777344 -5.101563,-1.777344 h -8 z m 3.851563,-9 v -5.023437 h 3.824218 c 1.875,0 3.023438,0.847656 3.023438,2.5 v 0.05078 c 0,1.472656 -1.074219,2.472656 -2.949219,2.472656 z m 24.722656,9.300782 c 5.402341,0 9.324221,-4.074219 9.324221,-9.050782 v -0.05078 c 0,-4.972656 -3.875,-9 -9.27344,-9 -5.398437,0 -9.324219,4.078125 -9.324219,9.050781 v 0.05078 c 0,4.972656 3.875,9 9.273438,9 m 0.05078,-3.550782 c -3.101562,0 -5.300781,-2.5 -5.300781,-5.5 v -0.05078 c 0,-3 2.152344,-5.449219 5.25,-5.449219 3.101562,0 5.300782,2.5 5.300782,5.5 v 0.05078 c 0,3 -2.14844,5.449218 -5.250001,5.449218 m 14.699221,3.25 h 8.32812 c 3.94532,0 6.54688,-1.601562 6.54688,-4.800781 v -0.04687 c 0,-2.351562 -1.25,-3.527344 -3.27344,-4.300781 1.25,-0.699219 2.29688,-1.800781 2.29688,-3.777344 v -0.04687 c 0,-1.203125 -0.39844,-2.175781 -1.19532,-2.976562 -1,-1 -2.57812,-1.550782 -4.57812,-1.550782 h -8.125 z m 3.75,-10.425781 v -3.699219 h 3.80078 c 1.625,0 2.52734,0.652344 2.52734,1.800782 v 0.05078 c 0,1.300781 -1.07812,1.847656 -2.77734,1.847656 z m 0,7.050781 V 52.21875 h 4.45312 c 1.97266,0 2.84766,0.722656 2.84766,1.898438 v 0.05078 c 0,1.296875 -1.02734,1.898437 -2.72266,1.898437 z m 16.30078,3.375 h 6.82422 c 5.5,0 9.30078,-3.824218 9.30078,-8.75 v -0.05078 c 0,-4.921875 -3.80078,-8.699219 -9.30078,-8.699219 h -6.82422 z m 3.84766,-3.476562 V 45.417969 h 2.97656 c 3.14844,0 5.27344,2.175781 5.27344,5.273437 v 0.05078 c 0,3.101562 -2.125,5.222656 -5.27344,5.222656 z m 17.69921,3.476562 h 13.32813 v -3.425781 h -9.5 V 52.34375 h 8.25 v -3.425781 h -8.25 v -3.550781 h 9.375 v -3.425782 h -13.20313 z m 18.75,0 h 3.85157 V 54.09375 l 2.02343,-2.101562 5.42579,7.449218 h 4.625 l -7.44922,-10.074218 7.125,-7.425782 h -4.64844 l -7.10156,7.652344 v -7.652344 h -3.85157 z m 27.375,0.300782 c 5.40235,0 9.32813,-4.074219 9.32813,-9.050782 v -0.05078 c 0,-4.972656 -3.875,-9 -9.27734,-9 -5.39844,0 -9.32422,4.078125 -9.32422,9.050781 v 0.05078 c 0,4.972656 3.875,9 9.27343,9 m 0.0508,-3.550782 c -3.09766,0 -5.30079,-2.5 -5.30079,-5.5 v -0.05078 c 0,-3 2.15235,-5.449219 5.25,-5.449219 3.10157,0 5.30079,2.5 5.30079,5.5 v 0.05078 c 0,3 -2.14844,5.449218 -5.25,5.449218 m 14.69921,3.25 h 3.80079 v -11.125 l 8.47656,11.125 h 3.27344 v -17.5 h -3.80079 V 52.71875 l -8.19921,-10.777344 h -3.55079 v 17.5"
         style="fill:#5b7083;fill-opacity:1;fill-rule:nonzero;stroke:none" />
    </g>
  </g>
</svg>
