v 0.081299 -0.0172894 -0.0200755
v 0.081299 -0.0168892 -0.02096
v 0.081299 -0.0172892 -0.0209601
v 0.081299 -0.0168895 -0.0196754
v 0.081299 -0.0202144 -0.0200762
v 0.081299 -0.0202145 -0.0196762
v 0.081299 -0.0303894 -0.0200785
v 0.081299 -0.0274645 -0.0196778
v 0.081299 -0.0274644 -0.0200778
v 0.081299 -0.0307895 -0.0196786
v 0.081299 -0.0303892 -0.020963
v 0.081299 -0.0307892 -0.0209631
v 0.07596 -0.0307895 -0.0199345
v 0.075299 -0.0307895 -0.0196786
v 0.07596 -0.0307895 -0.0196786
v 0.075299 -0.0307885 -0.0241786
v 0.0764673 -0.0307895 -0.0199345
v 0.081299 -0.0307885 -0.0241786
v 0.0794617 -0.030789 -0.0218141
v 0.0793825 -0.0307891 -0.0217108
v 0.0795649 -0.030789 -0.0218933
v 0.0796851 -0.030789 -0.0219431
v 0.0798142 -0.030789 -0.0219601
v 0.081299 -0.030789 -0.0219601
v 0.0793327 -0.0307891 -0.0215906
v 0.0793157 -0.0307891 -0.0214616
v 0.0793327 -0.0307891 -0.0213326
v 0.0764673 -0.0307895 -0.0196786
v 0.0793825 -0.0307892 -0.0212124
v 0.0794617 -0.0307892 -0.0211091
v 0.0795649 -0.0307892 -0.0210299
v 0.0796851 -0.0307892 -0.0209801
v 0.081299 -0.0307895 -0.0196786
v 0.0798142 -0.0307892 -0.0209631
v 0.081299 -0.0307892 -0.0209631
v 0.075299 -0.0307885 -0.0241786
v 0.081299 -0.0168885 -0.0241754
v 0.075299 -0.0168885 -0.0241754
v 0.081299 -0.0307885 -0.0241786
v 0.07596 -0.0168895 -0.0199313
v 0.07596 -0.0168895 -0.0196754
v 0.075299 -0.0168895 -0.0196754
v 0.075299 -0.0168885 -0.0241754
v 0.081299 -0.0168885 -0.0241754
v 0.0764673 -0.0168895 -0.0199313
v 0.0794617 -0.016889 -0.0218109
v 0.0793825 -0.0168891 -0.0217077
v 0.0795649 -0.016889 -0.0218902
v 0.0796851 -0.016889 -0.02194
v 0.0798142 -0.016889 -0.021957
v 0.081299 -0.016889 -0.021957
v 0.0793327 -0.0168891 -0.0215875
v 0.0793157 -0.0168891 -0.0214585
v 0.0793327 -0.0168891 -0.0213295
v 0.0793825 -0.0168892 -0.0212092
v 0.0764673 -0.0168895 -0.0196754
v 0.0794617 -0.0168892 -0.021106
v 0.0795649 -0.0168892 -0.0210268
v 0.0796851 -0.0168892 -0.020977
v 0.0798142 -0.0168892 -0.02096
v 0.081299 -0.0168895 -0.0196754
v 0.081299 -0.0168892 -0.02096
v 0.081299 -0.0303886 -0.0237785
v 0.081299 -0.030789 -0.0219601
v 0.081299 -0.030389 -0.02196
v 0.081299 -0.0307885 -0.0241786
v 0.081299 -0.0172886 -0.0237755
v 0.081299 -0.0168885 -0.0241754
v 0.081299 -0.017289 -0.021957
v 0.081299 -0.016889 -0.021957
v 0.0776192 -0.0291594 -0.0196782
v 0.0776192 -0.0299796 -0.0196784
v 0.0764673 -0.0307895 -0.0196786
v 0.079444 -0.0299796 -0.0196784
v 0.081299 -0.0307895 -0.0196786
v 0.079444 -0.0291594 -0.0196782
v 0.081299 -0.0274645 -0.0196778
v 0.0771476 -0.0274645 -0.0196778
v 0.0771476 -0.0202145 -0.0196762
v 0.0764673 -0.0168895 -0.0196754
v 0.0776192 -0.0185196 -0.0196758
v 0.0776192 -0.0176994 -0.0196756
v 0.079444 -0.0185196 -0.0196758
v 0.081299 -0.0168895 -0.0196754
v 0.081299 -0.0202145 -0.0196762
v 0.079444 -0.0176994 -0.0196756
vn 1 0 4.37114E-08
vn 1 0 4.37114E-08
vn 1 0 4.37114E-08
vn 1 0 4.37114E-08
vn 1 0 4.37114E-08
vn 1 0 4.37114E-08
vn 1 0 4.37114E-08
vn 1 0 4.37114E-08
vn 1 0 4.37114E-08
vn 1 0 4.37114E-08
vn 1 0 4.37114E-08
vn 1 0 4.37114E-08
vn 0 -1 -0.000225071
vn 0 -1 -0.000225071
vn 0 -1 -0.000225071
vn 0 -1 -0.000225071
vn 0 -1 -0.000225071
vn 0 -1 -0.000225071
vn 0 -1 -0.000225071
vn 0 -1 -0.000225071
vn 0 -1 -0.000225071
vn 0 -1 -0.000225071
vn 0 -1 -0.000225071
vn 0 -1 -0.000225071
vn 0 -1 -0.000225071
vn 0 -1 -0.000225071
vn 0 -1 -0.000225071
vn 0 -1 -0.000225071
vn 0 -1 -0.000225071
vn 0 -1 -0.000225071
vn 0 -1 -0.000225071
vn 0 -1 -0.000225071
vn 0 -1 -0.000225071
vn 0 -1 -0.000225071
vn 0 -1 -0.000225071
vn 4.37114E-08 0.000225071 -1
vn 4.37114E-08 0.000225071 -1
vn 4.37114E-08 0.000225071 -1
vn 4.37114E-08 0.000225071 -1
vn 0 1 0.000225071
vn 0 1 0.000225071
vn 0 1 0.000225071
vn 0 1 0.000225071
vn 0 1 0.000225071
vn 0 1 0.000225071
vn 0 1 0.000225071
vn 0 1 0.000225071
vn 0 1 0.000225071
vn 0 1 0.000225071
vn 0 1 0.000225071
vn 0 1 0.000225071
vn 0 1 0.000225071
vn 0 1 0.000225071
vn 0 1 0.000225071
vn 0 1 0.000225071
vn 0 1 0.000225071
vn 0 1 0.000225071
vn 0 1 0.000225071
vn 0 1 0.000225071
vn 0 1 0.000225071
vn 0 1 0.000225071
vn 0 1 0.000225071
vn 1 0 4.37114E-08
vn 1 0 4.37114E-08
vn 1 0 4.37114E-08
vn 1 0 4.37114E-08
vn 1 0 4.37114E-08
vn 1 0 4.37114E-08
vn 1 0 4.37114E-08
vn 1 0 4.37114E-08
vn -4.37114E-08 -0.000225071 1
vn -4.37114E-08 -0.000225071 1
vn -4.37114E-08 -0.000225071 1
vn -4.37114E-08 -0.000225071 1
vn -4.37114E-08 -0.000225071 1
vn -4.37114E-08 -0.000225071 1
vn -4.37114E-08 -0.000225071 1
vn -4.37114E-08 -0.000225071 1
vn -4.37114E-08 -0.000225071 1
vn -4.37114E-08 -0.000225071 1
vn -4.37114E-08 -0.000225071 1
vn -4.37114E-08 -0.000225071 1
vn -4.37114E-08 -0.000225071 1
vn -4.37114E-08 -0.000225071 1
vn -4.37114E-08 -0.000225071 1
vn -4.37114E-08 -0.000225071 1


f 1/1/1 3/3/3 2/2/2
f 1/1/1 2/2/2 4/4/4
f 5/5/5 1/1/1 4/4/4
f 5/5/5 4/4/4 6/6/6
f 7/7/7 9/9/9 8/8/8
f 7/7/7 8/8/8 10/10/10
f 11/11/11 7/7/7 10/10/10
f 11/11/11 10/10/10 12/12/12
f 13/13/13 15/15/15 14/14/14
f 13/13/13 14/14/14 16/16/16
f 17/17/17 13/13/13 16/16/16
f 17/17/17 16/16/16 18/18/18
f 19/19/19 17/17/17 18/18/18
f 20/20/20 17/17/17 19/19/19
f 19/19/19 18/18/18 21/21/21
f 21/21/21 18/18/18 22/22/22
f 18/18/18 23/23/23 22/22/22
f 18/18/18 24/24/24 23/23/23
f 20/20/20 25/25/25 17/17/17
f 17/17/17 25/25/25 26/26/26
f 17/17/17 26/26/26 27/27/27
f 28/28/28 17/17/17 27/27/27
f 28/28/28 27/27/27 29/29/29
f 30/30/30 28/28/28 29/29/29
f 28/28/28 30/30/30 31/31/31
f 28/28/28 31/31/31 32/32/32
f 33/33/33 28/28/28 32/32/32
f 33/33/33 32/32/32 34/34/34
f 35/35/35 33/33/33 34/34/34
f 36/36/36 38/38/38 37/37/37
f 36/36/36 37/37/37 39/39/39
f 40/40/40 42/42/42 41/41/41
f 42/42/42 40/40/40 43/43/43
f 40/40/40 44/44/44 43/43/43
f 40/40/40 45/45/45 44/44/44
f 45/45/45 46/46/46 44/44/44
f 45/45/45 47/47/47 46/46/46
f 44/44/44 46/46/46 48/48/48
f 44/44/44 48/48/48 49/49/49
f 44/44/44 49/49/49 50/50/50
f 51/51/51 44/44/44 50/50/50
f 45/45/45 52/52/52 47/47/47
f 45/45/45 53/53/53 52/52/52
f 53/53/53 45/45/45 54/54/54
f 45/45/45 55/55/55 54/54/54
f 45/45/45 56/56/56 55/55/55
f 56/56/56 57/57/57 55/55/55
f 56/56/56 58/58/58 57/57/57
f 56/56/56 59/59/59 58/58/58
f 60/60/60 59/59/59 56/56/56
f 60/60/60 56/56/56 61/61/61
f 62/62/62 60/60/60 61/61/61
f 63/63/63 65/65/65 64/64/64
f 63/63/63 64/64/64 66/66/66
f 67/67/67 63/63/63 66/66/66
f 67/67/67 66/66/66 68/68/68
f 69/69/69 67/67/67 68/68/68
f 69/69/69 68/68/68 70/70/70
f 71/71/71 73/73/73 72/72/72
f 74/74/74 72/72/72 73/73/73
f 74/74/74 73/73/73 75/75/75
f 76/76/76 74/74/74 75/75/75
f 76/76/76 75/75/75 77/77/77
f 71/71/71 76/76/76 77/77/77
f 71/71/71 77/77/77 78/78/78
f 73/73/73 71/71/71 78/78/78
f 73/73/73 78/78/78 79/79/79
f 80/80/80 73/73/73 79/79/79
f 80/80/80 79/79/79 81/81/81
f 82/82/82 80/80/80 81/81/81
f 79/79/79 83/83/83 81/81/81
f 84/84/84 80/80/80 82/82/82
f 79/79/79 85/85/85 83/83/83
f 84/84/84 82/82/82 86/86/86
f 85/85/85 86/86/86 83/83/83
f 85/85/85 84/84/84 86/86/86
