v 0.063719 0.044433 -0.02084
v 0.064019 0.044433 -0.01391
v 0.064019 0.044433 -0.02084
v 0.063719 0.044433 -0.01391
v 0.063719 0.052233 -0.02964
v 0.063719 0.052233 -0.02084
v 0.063719 0.052033 -0.02084
v 0.063719 0.051433 -0.02084
v 0.063719 0.052033 -0.01391
v 0.063719 0.051433 -0.01391
v 0.063719 0.049533 -0.02084
v 0.063719 0.044233 -0.02964
v 0.063719 0.048933 -0.02084
v 0.063719 0.049533 -0.01391
v 0.063719 0.048933 -0.01391
v 0.063719 0.047533 -0.02084
v 0.063719 0.046933 -0.02084
v 0.063719 0.047533 -0.01391
v 0.063719 0.046933 -0.01391
v 0.063719 0.045033 -0.02084
v 0.063719 0.044433 -0.02084
v 0.063719 0.044233 -0.02084
v 0.063719 0.045033 -0.01391
v 0.063719 0.044433 -0.01391
vn 0 -1 0
vn 0 -1 0
vn 0 -1 0
vn 0 -1 0
vn -1 0 0
vn -1 0 0
vn -1 0 0
vn -1 0 0
vn -1 0 0
vn -1 0 0
vn -1 0 0
vn -1 0 0
vn -1 0 0
vn -1 0 0
vn -1 0 0
vn -1 0 0
vn -1 0 0
vn -1 0 0
vn -1 0 0
vn -1 0 0
vn -1 0 0
vn -1 0 0
vn -1 0 0
vn -1 0 0


f 1/1/1 3/3/3 2/2/2
f 1/1/1 2/2/2 4/4/4
f 5/5/5 7/7/7 6/6/6
f 8/8/8 7/7/7 5/5/5
f 8/8/8 9/9/9 7/7/7
f 9/9/9 8/8/8 10/10/10
f 11/11/11 8/8/8 5/5/5
f 11/11/11 5/5/5 12/12/12
f 13/13/13 11/11/11 12/12/12
f 13/13/13 14/14/14 11/11/11
f 13/13/13 15/15/15 14/14/14
f 13/13/13 12/12/12 16/16/16
f 17/17/17 16/16/16 12/12/12
f 17/17/17 18/18/18 16/16/16
f 18/18/18 17/17/17 19/19/19
f 20/20/20 17/17/17 12/12/12
f 20/20/20 12/12/12 21/21/21
f 21/21/21 12/12/12 22/22/22
f 23/23/23 20/20/20 21/21/21
f 23/23/23 21/21/21 24/24/24
