v 0.079159 0.0238912 -0.0273705
v 0.079159 0.0239153 -0.0273047
v 0.079159 0.023883 -0.02744
v 0.079159 0.0239539 -0.0272464
v 0.079159 0.024005 -0.0271985
v 0.079159 0.0240658 -0.0271638
v 0.079159 0.024133 -0.0271442
v 0.079159 0.024133 -0.0309358
v 0.079159 0.023883 -0.03064
v 0.079159 0.0241357 -0.0309362
v 0.079159 0.0240658 -0.0309162
v 0.0791545 0.0241803 -0.02714
v 0.079159 0.0241357 -0.0309362
v 0.079159 0.024133 -0.0271442
v 0.0791539 0.024183 -0.03094
v 0.0791539 0.024183 -0.02714
v 0.0791539 0.024183 -0.02714
v 0.0791527 0.0241887 -0.03094
v 0.0791539 0.024183 -0.03094
v 0.0791527 0.0241887 -0.02714
v 0.0791342 0.0242415 -0.03094
v 0.0791342 0.0242415 -0.02714
v 0.0791045 0.0242889 -0.03094
v 0.0791045 0.0242889 -0.02714
v 0.0790649 0.0243285 -0.03094
v 0.0790649 0.0243285 -0.02714
v 0.0790649 0.0243285 -0.02714
v 0.0790175 0.0243583 -0.03094
v 0.0790649 0.0243285 -0.03094
v 0.0790175 0.0243583 -0.02714
v 0.0789646 0.0243768 -0.03094
v 0.0789646 0.0243768 -0.02714
v 0.078909 0.024383 -0.03094
v 0.078909 0.024383 -0.02714
v 0.0775958 0.024383 -0.0283883
v 0.078879 0.024383 -0.02714
v 0.077616 0.024383 -0.0283553
v 0.0775679 0.024383 -0.028415
v 0.0775341 0.024383 -0.0284338
v 0.078879 0.024383 -0.03094
v 0.0776271 0.024383 -0.0283183
v 0.0774966 0.024383 -0.0284432
v 0.0776283 0.024383 -0.0282797
v 0.0775061 0.024383 -0.0222427
v 0.0775429 0.024383 -0.0222309
v 0.0775754 0.024383 -0.02221
v 0.0776016 0.024383 -0.0221816
v 0.078879 0.024383 -0.02202
v 0.0776196 0.024383 -0.0221474
v 0.0774675 0.024383 -0.0222447
v 0.0776283 0.024383 -0.0221097
v 0.0776271 0.024383 -0.0220711
v 0.077616 0.024383 -0.0220341
v 0.0776196 0.024383 -0.028242
v 0.0775958 0.024383 -0.0220011
v 0.0774966 0.024383 -0.0199432
v 0.0775679 0.024383 -0.0219743
v 0.0775341 0.024383 -0.0219556
v 0.0774966 0.024383 -0.0219462
v 0.0775341 0.024383 -0.0199338
v 0.078909 0.024383 -0.02202
v 0.0775679 0.024383 -0.019915
v 0.0775958 0.024383 -0.0198883
v 0.076579 0.024383 -0.0240996
v 0.0776016 0.024383 -0.0282078
v 0.074439 0.024383 -0.0240996
v 0.076579 0.024383 -0.0262996
v 0.074439 0.024383 -0.0236996
v 0.0775754 0.024383 -0.0281794
v 0.072016 0.024383 -0.0218247
v 0.071943 0.024383 -0.0218098
v 0.0718759 0.024383 -0.0217774
v 0.066199 0.024383 -0.0236996
v 0.0718189 0.024383 -0.0217294
v 0.0775429 0.024383 -0.0281585
v 0.0775061 0.024383 -0.0281467
v 0.0717754 0.024383 -0.0216689
v 0.0774675 0.024383 -0.0281447
v 0.074439 0.024383 -0.0262996
v 0.0717482 0.024383 -0.0215995
v 0.074439 0.024383 -0.0266796
v 0.071739 0.024383 -0.0215256
v 0.072016 0.024383 -0.0285647
v 0.071943 0.024383 -0.0285796
v 0.0718759 0.024383 -0.028612
v 0.062199 0.024383 -0.0318
v 0.0718189 0.024383 -0.02866
v 0.066199 0.024383 -0.0266796
v 0.0717754 0.024383 -0.0287205
v 0.0717482 0.024383 -0.0287899
v 0.071739 0.024383 -0.0288638
v 0.071739 0.024383 -0.0300256
v 0.0717482 0.024383 -0.0300995
v 0.0717754 0.024383 -0.0301689
v 0.0718189 0.024383 -0.0302294
v 0.0718759 0.024383 -0.0302774
v 0.071943 0.024383 -0.0303098
v 0.072016 0.024383 -0.0303247
v 0.078879 0.024383 -0.0318
v 0.0774675 0.024383 -0.0307447
v 0.0775061 0.024383 -0.0307427
v 0.0775429 0.024383 -0.0307309
v 0.0775754 0.024383 -0.03071
v 0.0776016 0.024383 -0.0306816
v 0.0776196 0.024383 -0.0306474
v 0.0776283 0.024383 -0.0306097
v 0.0776271 0.024383 -0.0305711
v 0.077616 0.024383 -0.0305341
v 0.0775958 0.024383 -0.0305011
v 0.0775679 0.024383 -0.0304743
v 0.0775341 0.024383 -0.0304556
v 0.0774966 0.024383 -0.0304462
v 0.079159 0.024005 -0.0308815
v 0.079159 0.0239539 -0.0308336
v 0.079159 0.0239153 -0.0307753
v 0.079159 0.0238912 -0.0307095
v 0.078879 0.024383 -0.02202
v 0.078879 0.024183 -0.02714
v 0.078879 0.024183 -0.02202
v 0.078879 0.024383 -0.02714
v 0.079159 0.0239539 -0.0219136
v 0.079159 0.0239153 -0.0218553
v 0.079159 0.0238912 -0.0217895
v 0.079159 0.023883 -0.02172
v 0.079159 0.024005 -0.0219615
v 0.079159 0.0240658 -0.0219962
v 0.079159 0.024133 -0.0220158
v 0.079159 0.023883 -0.01894
v 0.079159 0.024133 -0.0186442
v 0.079159 0.0241357 -0.0220162
v 0.079159 0.0240658 -0.0186638
v 0.0791545 0.0241803 -0.01864
v 0.079159 0.0241357 -0.0220162
v 0.079159 0.024133 -0.0186442
v 0.0791539 0.024183 -0.02202
v 0.0791539 0.024183 -0.01864
v 0.0791539 0.024183 -0.01864
v 0.0791527 0.0241887 -0.02202
v 0.0791539 0.024183 -0.02202
v 0.0791527 0.0241887 -0.01864
v 0.0791342 0.0242415 -0.02202
v 0.0791342 0.0242415 -0.01864
v 0.0791045 0.0242889 -0.02202
v 0.0791045 0.0242889 -0.01864
v 0.0790649 0.0243285 -0.02202
v 0.0790649 0.0243285 -0.01864
v 0.0790649 0.0243285 -0.02202
v 0.0791045 0.0242889 -0.01864
v 0.0790175 0.0243583 -0.02202
v 0.0790175 0.0243583 -0.01864
v 0.0789646 0.0243768 -0.02202
v 0.0789646 0.0243768 -0.01864
v 0.078909 0.024383 -0.01864
v 0.078879 0.024383 -0.01864
v 0.077616 0.024383 -0.0198553
v 0.0776271 0.024383 -0.0198183
v 0.0776283 0.024383 -0.0197797
v 0.0776196 0.024383 -0.019742
v 0.0776016 0.024383 -0.0197078
v 0.078879 0.024383 -0.01838
v 0.0775754 0.024383 -0.0196794
v 0.0775429 0.024383 -0.0196585
v 0.0775061 0.024383 -0.0196467
v 0.0774675 0.024383 -0.0196447
v 0.070599 0.024383 -0.01838
v 0.072016 0.024383 -0.0200647
v 0.071943 0.024383 -0.0200796
v 0.0718759 0.024383 -0.020112
v 0.078879 0.0243854 -0.0183585
v 0.0718189 0.024383 -0.02016
v 0.070599 0.0243854 -0.0183585
v 0.078879 0.0243926 -0.0183372
v 0.070599 0.0243926 -0.0183372
v 0.078879 0.0244045 -0.0183181
v 0.070599 0.0244045 -0.0183181
v 0.078879 0.0244204 -0.0183021
v 0.070599 0.0244204 -0.0183021
v 0.070599 0.0244204 -0.0183021
v 0.078879 0.0244204 -0.0183021
v 0.078879 0.0244394 -0.01829
v 0.070599 0.0244394 -0.01829
v 0.078879 0.0244606 -0.0182825
v 0.070599 0.0244606 -0.0182825
v 0.078879 0.024483 -0.01828
v 0.070599 0.024483 -0.01828
v 0.0715834 0.0259267 -0.01828
v 0.0715312 0.0259265 -0.01828
v 0.0781884 0.026833 -0.01828
v 0.0714807 0.0259397 -0.01828
v 0.0782807 0.0268572 -0.01828
v 0.0714353 0.0259656 -0.01828
v 0.0783646 0.0269025 -0.01828
v 0.0713982 0.0260023 -0.01828
v 0.0784355 0.0269664 -0.01828
v 0.0784891 0.0270453 -0.01828
v 0.0785226 0.0271346 -0.01828
v 0.0713718 0.0260473 -0.01828
v 0.071358 0.0260977 -0.01828
v 0.0713578 0.0261499 -0.01828
v 0.078879 0.027633 -0.01828
v 0.078534 0.0272293 -0.01828
v 0.078534 0.0280267 -0.01828
v 0.078999 0.027633 -0.01828
v 0.0785226 0.0281215 -0.01828
v 0.070599 0.030613 -0.01828
v 0.078999 0.030613 -0.01828
v 0.071371 0.0262004 -0.01828
v 0.0784891 0.0282108 -0.01828
v 0.0713969 0.0262458 -0.01828
v 0.0784355 0.0282897 -0.01828
v 0.0714336 0.0262829 -0.01828
v 0.0714786 0.0263092 -0.01828
v 0.0783646 0.0283536 -0.01828
v 0.0782807 0.0283989 -0.01828
v 0.0781884 0.028423 -0.01828
v 0.0715834 0.0293293 -0.01828
v 0.0715312 0.0293296 -0.01828
v 0.0714807 0.0293164 -0.01828
v 0.0714353 0.0292905 -0.01828
v 0.0713982 0.0292538 -0.01828
v 0.0713718 0.0292087 -0.01828
v 0.071358 0.0291584 -0.01828
v 0.0713578 0.0291062 -0.01828
v 0.071371 0.0290556 -0.01828
v 0.0713969 0.0290103 -0.01828
v 0.0714336 0.0289732 -0.01828
v 0.0714786 0.0289468 -0.01828
v 0.071529 0.028933 -0.01828
v 0.071529 0.026323 -0.01828
v 0.078052 0.0272181 -0.01828
v 0.078052 0.028038 -0.01828
v 0.079159 0.024005 -0.0186985
v 0.079159 0.0239153 -0.0188047
v 0.079159 0.0239539 -0.0187463
v 0.079159 0.0238912 -0.0188705
v 0.079299 0.030613 -0.01778
v 0.079099 0.027633 -0.01778
v 0.079099 0.030613 -0.01778
v 0.079299 0.027633 -0.01778
v 0.079099 0.030613 -0.01798
v 0.079299 0.030613 -0.01778
v 0.079099 0.030613 -0.01778
v 0.079299 0.030613 -0.01798
v 0.0790956 0.030613 -0.0180059
v 0.0792888 0.030613 -0.0180576
v 0.0790856 0.030613 -0.01803
v 0.0792588 0.030613 -0.01813
v 0.0790697 0.030613 -0.0180507
v 0.0792111 0.030613 -0.0181921
v 0.079049 0.030613 -0.0180666
v 0.079149 0.030613 -0.0182398
v 0.0790249 0.030613 -0.0180766
v 0.0790766 0.030613 -0.0182698
v 0.078999 0.030613 -0.01808
v 0.078999 0.030613 -0.01828
v 0.070599 0.030613 -0.01808
v 0.070599 0.030613 -0.01828
v 0.078879 0.024483 -0.01828
v 0.078879 0.027633 -0.01808
v 0.078879 0.027633 -0.01828
v 0.078879 0.024483 -0.01808
v 0.078879 0.0244606 -0.0182825
v 0.078879 0.0244054 -0.0180902
v 0.078879 0.0244394 -0.01829
v 0.078879 0.024333 -0.0181202
v 0.078879 0.0244204 -0.0183021
v 0.078879 0.0242709 -0.0181679
v 0.078879 0.0244045 -0.0183181
v 0.078879 0.0243926 -0.0183372
v 0.078879 0.0242232 -0.01823
v 0.078879 0.0243854 -0.0183585
v 0.078879 0.0241933 -0.0183024
v 0.078879 0.024383 -0.01838
v 0.078879 0.024183 -0.01838
v 0.078879 0.024383 -0.01864
v 0.078879 0.024183 -0.01864
v 0.071739 0.024383 -0.0203638
v 0.062199 0.024383 -0.01838
v 0.0717482 0.024383 -0.0202899
v 0.0717754 0.024383 -0.0202205
vn 1 0 0
vn 1 0 0
vn 1 0 0
vn 1 0 0
vn 1 0 0
vn 1 0 0
vn 1 0 0
vn 1 0 0
vn 1 0 0
vn 0.999945 0.0105115 0
vn 1 0 0
vn 0.981948 0.18915 0
vn 0.999945 0.0105115 0
vn 1 0 0
vn 0.979796 0.2 0
vn 0.979796 0.2 0
vn 0.979796 0.2 0
vn 0.974928 0.222521 0
vn 0.979796 0.2 0
vn 0.974928 0.222521 0
vn 0.900969 0.433884 0
vn 0.900969 0.433884 0
vn 0.781832 0.62349 0
vn 0.781832 0.62349 0
vn 0.62349 0.781832 0
vn 0.62349 0.781832 0
vn 0.62349 0.781832 0
vn 0.433884 0.900969 0
vn 0.62349 0.781832 0
vn 0.433884 0.900969 0
vn 0.222521 0.974928 0
vn 0.222521 0.974928 0
vn 0 1 0
vn 0 1 0
vn 0 1 0
vn 0 1 0
vn 0 1 0
vn 0 1 0
vn 0 1 0
vn 0 1 0
vn 0 1 0
vn 0 1 0
vn 0 1 0
vn 0 1 0
vn 0 1 0
vn 0 1 0
vn 0 1 0
vn 0 1 0
vn 0 1 0
vn 0 1 0
vn 0 1 0
vn 0 1 0
vn 0 1 0
vn 0 1 0
vn 0 1 0
vn 0 1 0
vn 0 1 0
vn 0 1 0
vn 0 1 0
vn 0 1 0
vn 0 1 0
vn 0 1 0
vn 0 1 0
vn 0 1 0
vn 0 1 0
vn 0 1 0
vn 0 1 0
vn 0 1 0
vn 0 1 0
vn 0 1 0
vn 0 1 0
vn 0 1 0
vn 0 1 0
vn 0 1 0
vn 0 1 0
vn 0 1 0
vn 0 1 0
vn 0 1 0
vn 0 1 0
vn 0 1 0
vn 0 1 0
vn 0 1 0
vn 0 1 0
vn 0 1 0
vn 0 1 0
vn 0 1 0
vn 0 1 0
vn 0 1 0
vn 0 1 0
vn 0 1 0
vn 0 1 0
vn 0 1 0
vn 0 1 0
vn 0 1 0
vn 0 1 0
vn 0 1 0
vn 0 1 0
vn 0 1 0
vn 0 1 0
vn 0 1 0
vn 0 1 0
vn 0 1 0
vn 0 1 0
vn 0 1 0
vn 0 1 0
vn 0 1 0
vn 0 1 0
vn 0 1 0
vn 0 1 0
vn 0 1 0
vn 0 1 0
vn 0 1 0
vn 1 0 0
vn 1 0 0
vn 1 0 0
vn 1 0 0
vn 1 0 0
vn 1 0 0
vn 1 0 0
vn 1 0 0
vn 1 0 0
vn 1 0 0
vn 1 0 0
vn 1 0 0
vn 1 0 0
vn 1 0 0
vn 1 0 0
vn 1 0 0
vn 1 0 0
vn 0.999945 0.0105115 0
vn 1 0 0
vn 0.981948 0.18915 0
vn 0.999945 0.0105115 0
vn 1 0 0
vn 0.979796 0.2 0
vn 0.979796 0.2 0
vn 0.979796 0.2 0
vn 0.974928 0.222521 0
vn 0.979796 0.2 0
vn 0.974928 0.222521 0
vn 0.900969 0.433884 0
vn 0.900969 0.433884 0
vn 0.781832 0.62349 0
vn 0.781832 0.62349 0
vn 0.62349 0.781832 0
vn 0.62349 0.781832 0
vn 0.62349 0.781832 0
vn 0.781832 0.62349 0
vn 0.433884 0.900969 0
vn 0.433884 0.900969 0
vn 0.222521 0.974928 0
vn 0.222521 0.974928 0
vn 0 1 0
vn 0 1 0
vn 0 1 0
vn 0 1 0
vn 0 1 0
vn 0 1 0
vn 0 1 0
vn 0 1 -2.3205E-08
vn 0 1 0
vn 0 1 0
vn 0 1 0
vn 0 1 0
vn 0 1 -4.64101E-08
vn 0 1 0
vn 0 1 0
vn 0 1 0
vn 0 0.976694 -0.214638
vn 0 1 0
vn 0 0.976694 -0.214638
vn 0 0.903869 -0.427809
vn 0 0.903869 -0.427809
vn 0 0.785178 -0.61927
vn 0 0.785178 -0.61927
vn 0 0.626643 -0.779307
vn 0 0.626643 -0.779307
vn 0 0.626643 -0.779307
vn 0 0.626643 -0.779307
vn 0 0.436308 -0.899797
vn 0 0.436308 -0.899797
vn 0 0.223833 -0.974627
vn 0 0.223833 -0.974627
vn 0 0 -1
vn 0 0 -1
vn 0 0 -1
vn 0 0 -1
vn 0 0 -1
vn 0 0 -1
vn 0 0 -1
vn 0 0 -1
vn 0 0 -1
vn 0 0 -1
vn 0 0 -1
vn 0 0 -1
vn 0 0 -1
vn 0 0 -1
vn 0 0 -1
vn 0 0 -1
vn 0 0 -1
vn 0 0 -1
vn 0 0 -1
vn 0 0 -1
vn 0 0 -1
vn 0 0 -1
vn 0 0 -1
vn 0 0 -1
vn 0 0 -1
vn 0 0 -1
vn 0 0 -1
vn 0 0 -1
vn 0 0 -1
vn 0 0 -1
vn 0 0 -1
vn 0 0 -1
vn 0 0 -1
vn 0 0 -1
vn 0 0 -1
vn 0 0 -1
vn 0 0 -1
vn 0 0 -1
vn 0 0 -1
vn 0 0 -1
vn 0 0 -1
vn 0 0 -1
vn 0 0 -1
vn 0 0 -1
vn 0 0 -1
vn 0 0 -1
vn 0 0 -1
vn 0 0 -1
vn 1 0 0
vn 1 0 0
vn 1 0 0
vn 1 0 0
vn 0 0 1
vn 0 0 1
vn 0 0 1
vn 0 0 1
vn 0 1 0
vn 0 1 0
vn 0 1 0
vn 0 1 0
vn 0 1 0
vn 0 1 0
vn 0 1 0
vn 0 1 0
vn 0 1 0
vn 0 1 0
vn 0 1 0
vn 0 1 0
vn 0 1 0
vn 0 1 0
vn 0 1 0
vn 0 1 0
vn 0 1 0
vn 0 1 0
vn 1 0 0
vn 1 0 0
vn 1 0 0
vn 1 0 0
vn 1 0 0
vn 1 0 0
vn 1 0 0
vn 1 0 0
vn 1 0 0
vn 1 0 0
vn 1 0 0
vn 1 0 0
vn 1 0 0
vn 1 0 0
vn 1 0 0
vn 1 0 0
vn 1 0 0
vn 1 0 0
vn 1 0 0
vn 0 1 0
vn 0 1 0
vn 0 1 0
vn 0 1 0


f 1/1/1 3/3/3 2/2/2
f 3/3/3 4/4/4 2/2/2
f 3/3/3 5/5/5 4/4/4
f 3/3/3 6/6/6 5/5/5
f 6/6/6 3/3/3 7/7/7
f 3/3/3 8/8/8 7/7/7
f 3/3/3 9/9/9 8/8/8
f 10/10/10 7/7/7 8/8/8
f 9/9/9 11/11/11 8/8/8
f 12/12/12 14/14/14 13/13/13
f 12/12/12 13/13/13 15/15/15
f 16/16/16 12/12/12 15/15/15
f 17/17/17 19/19/19 18/18/18
f 20/20/20 17/17/17 18/18/18
f 20/20/20 18/18/18 21/21/21
f 22/22/22 20/20/20 21/21/21
f 22/22/22 21/21/21 23/23/23
f 24/24/24 22/22/22 23/23/23
f 24/24/24 23/23/23 25/25/25
f 26/26/26 24/24/24 25/25/25
f 27/27/27 29/29/29 28/28/28
f 30/30/30 27/27/27 28/28/28
f 30/30/30 28/28/28 31/31/31
f 32/32/32 30/30/30 31/31/31
f 32/32/32 31/31/31 33/33/33
f 34/34/34 32/32/32 33/33/33
f 35/35/35 34/34/34 33/33/33
f 35/35/35 36/36/36 34/34/34
f 36/36/36 35/35/35 37/37/37
f 38/38/38 35/35/35 33/33/33
f 39/39/39 38/38/38 33/33/33
f 39/39/39 33/33/33 40/40/40
f 36/36/36 37/37/37 41/41/41
f 42/42/42 39/39/39 40/40/40
f 43/43/43 36/36/36 41/41/41
f 44/44/44 36/36/36 43/43/43
f 44/44/44 45/45/45 36/36/36
f 36/36/36 45/45/45 46/46/46
f 36/36/36 46/46/46 47/47/47
f 48/48/48 36/36/36 47/47/47
f 48/48/48 47/47/47 49/49/49
f 50/50/50 44/44/44 43/43/43
f 51/51/51 48/48/48 49/49/49
f 48/48/48 51/51/51 52/52/52
f 48/48/48 52/52/52 53/53/53
f 50/50/50 43/43/43 54/54/54
f 55/55/55 48/48/48 53/53/53
f 56/56/56 48/48/48 55/55/55
f 57/57/57 56/56/56 55/55/55
f 57/57/57 58/58/58 56/56/56
f 56/56/56 58/58/58 59/59/59
f 56/56/56 60/60/60 48/48/48
f 60/60/60 61/61/61 48/48/48
f 60/60/60 62/62/62 61/61/61
f 63/63/63 61/61/61 62/62/62
f 64/64/64 50/50/50 54/54/54
f 64/64/64 54/54/54 65/65/65
f 50/50/50 64/64/64 66/66/66
f 67/67/67 64/64/64 65/65/65
f 50/50/50 66/66/66 68/68/68
f 67/67/67 65/65/65 69/69/69
f 70/70/70 50/50/50 68/68/68
f 70/70/70 68/68/68 71/71/71
f 68/68/68 72/72/72 71/71/71
f 68/68/68 73/73/73 72/72/72
f 73/73/73 74/74/74 72/72/72
f 75/75/75 67/67/67 69/69/69
f 76/76/76 67/67/67 75/75/75
f 73/73/73 77/77/77 74/74/74
f 76/76/76 78/78/78 67/67/67
f 78/78/78 79/79/79 67/67/67
f 77/77/77 73/73/73 80/80/80
f 78/78/78 81/81/81 79/79/79
f 73/73/73 82/82/82 80/80/80
f 83/83/83 81/81/81 78/78/78
f 81/81/81 83/83/83 84/84/84
f 81/81/81 84/84/84 85/85/85
f 86/86/86 81/81/81 85/85/85
f 86/86/86 85/85/85 87/87/87
f 81/81/81 86/86/86 88/88/88
f 86/86/86 73/73/73 88/88/88
f 86/86/86 87/87/87 89/89/89
f 90/90/90 86/86/86 89/89/89
f 86/86/86 90/90/90 91/91/91
f 86/86/86 91/91/91 92/92/92
f 93/93/93 86/86/86 92/92/92
f 86/86/86 93/93/93 94/94/94
f 86/86/86 94/94/94 95/95/95
f 96/96/96 86/86/86 95/95/95
f 86/86/86 96/96/96 97/97/97
f 86/86/86 97/97/97 98/98/98
f 99/99/99 86/86/86 98/98/98
f 99/99/99 98/98/98 100/100/100
f 101/101/101 99/99/99 100/100/100
f 99/99/99 101/101/101 102/102/102
f 99/99/99 102/102/102 103/103/103
f 104/104/104 99/99/99 103/103/103
f 40/40/40 99/99/99 104/104/104
f 40/40/40 104/104/104 105/105/105
f 40/40/40 105/105/105 106/106/106
f 40/40/40 106/106/106 107/107/107
f 108/108/108 40/40/40 107/107/107
f 42/42/42 40/40/40 108/108/108
f 109/109/109 42/42/42 108/108/108
f 42/42/42 109/109/109 110/110/110
f 42/42/42 110/110/110 111/111/111
f 112/112/112 42/42/42 111/111/111
f 113/113/113 115/115/115 114/114/114
f 115/115/115 113/113/113 116/116/116
f 113/113/113 9/9/9 116/116/116
f 113/113/113 11/11/11 9/9/9
f 117/117/117 119/119/119 118/118/118
f 117/117/117 118/118/118 120/120/120
f 121/121/121 123/123/123 122/122/122
f 124/124/124 123/123/123 121/121/121
f 124/124/124 121/121/121 125/125/125
f 126/126/126 124/124/124 125/125/125
f 124/124/124 126/126/126 127/127/127
f 128/128/128 124/124/124 127/127/127
f 128/128/128 127/127/127 129/129/129
f 130/130/130 129/129/129 127/127/127
f 131/131/131 128/128/128 129/129/129
f 132/132/132 134/134/134 133/133/133
f 132/132/132 133/133/133 135/135/135
f 136/136/136 132/132/132 135/135/135
f 137/137/137 139/139/139 138/138/138
f 140/140/140 137/137/137 138/138/138
f 140/140/140 138/138/138 141/141/141
f 142/142/142 140/140/140 141/141/141
f 142/142/142 141/141/141 143/143/143
f 144/144/144 142/142/142 143/143/143
f 144/144/144 143/143/143 145/145/145
f 146/146/146 148/148/148 147/147/147
f 146/146/146 147/147/147 149/149/149
f 150/150/150 146/146/146 149/149/149
f 150/150/150 149/149/149 151/151/151
f 152/152/152 150/150/150 151/151/151
f 152/152/152 151/151/151 61/61/61
f 153/153/153 152/152/152 61/61/61
f 61/61/61 63/63/63 153/153/153
f 63/63/63 154/154/154 153/153/153
f 63/63/63 155/155/155 154/154/154
f 156/156/156 154/154/154 155/155/155
f 156/156/156 157/157/157 154/154/154
f 154/154/154 157/157/157 158/158/158
f 154/154/154 158/158/158 159/159/159
f 160/160/160 154/154/154 159/159/159
f 160/160/160 159/159/159 161/161/161
f 162/162/162 160/160/160 161/161/161
f 160/160/160 162/162/162 163/163/163
f 160/160/160 163/163/163 164/164/164
f 165/165/165 160/160/160 164/164/164
f 165/165/165 164/164/164 166/166/166
f 167/167/167 165/165/165 166/166/166
f 165/165/165 167/167/167 168/168/168
f 165/165/165 169/169/169 160/160/160
f 165/165/165 168/168/168 170/170/170
f 165/165/165 171/171/171 169/169/169
f 171/171/171 172/172/172 169/169/169
f 171/171/171 173/173/173 172/172/172
f 173/173/173 174/174/174 172/172/172
f 173/173/173 175/175/175 174/174/174
f 175/175/175 176/176/176 174/174/174
f 175/175/175 177/177/177 176/176/176
f 178/178/178 180/180/180 179/179/179
f 178/178/178 181/181/181 180/180/180
f 181/181/181 182/182/182 180/180/180
f 181/181/181 183/183/183 182/182/182
f 183/183/183 184/184/184 182/182/182
f 183/183/183 185/185/185 184/184/184
f 184/184/184 185/185/185 186/186/186
f 185/185/185 187/187/187 186/186/186
f 184/184/184 186/186/186 188/188/188
f 185/185/185 189/189/189 187/187/187
f 190/190/190 184/184/184 188/188/188
f 189/189/189 185/185/185 191/191/191
f 190/190/190 192/192/192 184/184/184
f 185/185/185 193/193/193 191/191/191
f 184/184/184 192/192/192 194/194/194
f 184/184/184 194/194/194 195/195/195
f 184/184/184 195/195/195 196/196/196
f 185/185/185 197/197/197 193/193/193
f 197/197/197 185/185/185 198/198/198
f 185/185/185 199/199/199 198/198/198
f 200/200/200 184/184/184 196/196/196
f 200/200/200 196/196/196 201/201/201
f 200/200/200 201/201/201 202/202/202
f 203/203/203 200/200/200 202/202/202
f 203/203/203 202/202/202 204/204/204
f 185/185/185 205/205/205 199/199/199
f 206/206/206 203/203/203 204/204/204
f 205/205/205 207/207/207 199/199/199
f 206/206/206 204/204/204 208/208/208
f 205/205/205 209/209/209 207/207/207
f 206/206/206 208/208/208 210/210/210
f 209/209/209 205/205/205 211/211/211
f 205/205/205 212/212/212 211/211/211
f 213/213/213 206/206/206 210/210/210
f 206/206/206 213/213/213 214/214/214
f 206/206/206 214/214/214 215/215/215
f 205/205/205 206/206/206 215/215/215
f 205/205/205 215/215/215 216/216/216
f 217/217/217 205/205/205 216/216/216
f 205/205/205 217/217/217 218/218/218
f 205/205/205 218/218/218 219/219/219
f 220/220/220 205/205/205 219/219/219
f 205/205/205 220/220/220 221/221/221
f 205/205/205 221/221/221 222/222/222
f 223/223/223 205/205/205 222/222/222
f 205/205/205 223/223/223 212/212/212
f 212/212/212 223/223/223 224/224/224
f 212/212/212 224/224/224 225/225/225
f 226/226/226 212/212/212 225/225/225
f 212/212/212 226/226/226 227/227/227
f 212/212/212 227/227/227 228/228/228
f 229/229/229 212/212/212 228/228/228
f 229/229/229 228/228/228 230/230/230
f 230/230/230 228/228/228 231/231/231
f 232/232/232 234/234/234 233/233/233
f 232/232/232 233/233/233 235/235/235
f 128/128/128 232/232/232 235/235/235
f 128/128/128 131/131/131 232/232/232
f 236/236/236 238/238/238 237/237/237
f 236/236/236 237/237/237 239/239/239
f 240/240/240 242/242/242 241/241/241
f 240/240/240 241/241/241 243/243/243
f 244/244/244 240/240/240 243/243/243
f 244/244/244 243/243/243 245/245/245
f 246/246/246 244/244/244 245/245/245
f 246/246/246 245/245/245 247/247/247
f 248/248/248 246/246/246 247/247/247
f 248/248/248 247/247/247 249/249/249
f 250/250/250 248/248/248 249/249/249
f 250/250/250 249/249/249 251/251/251
f 252/252/252 250/250/250 251/251/251
f 252/252/252 251/251/251 253/253/253
f 254/254/254 252/252/252 253/253/253
f 254/254/254 253/253/253 255/255/255
f 256/256/256 254/254/254 255/255/255
f 256/256/256 255/255/255 257/257/257
f 258/258/258 260/260/260 259/259/259
f 258/258/258 259/259/259 261/261/261
f 262/262/262 258/258/258 261/261/261
f 262/262/262 261/261/261 263/263/263
f 264/264/264 262/262/262 263/263/263
f 264/264/264 263/263/263 265/265/265
f 266/266/266 264/264/264 265/265/265
f 266/266/266 265/265/265 267/267/267
f 266/266/266 267/267/267 268/268/268
f 267/267/267 269/269/269 268/268/268
f 267/267/267 270/270/270 269/269/269
f 270/270/270 271/271/271 269/269/269
f 270/270/270 272/272/272 271/271/271
f 272/272/272 273/273/273 271/271/271
f 272/272/272 274/274/274 273/273/273
f 274/274/274 275/275/275 273/273/273
f 274/274/274 276/276/276 275/275/275
f 73/73/73 277/277/277 82/82/82
f 278/278/278 277/277/277 73/73/73
f 86/86/86 278/278/278 73/73/73
f 278/278/278 279/279/279 277/277/277
f 279/279/279 278/278/278 280/280/280
f 278/278/278 170/170/170 280/280/280
f 278/278/278 165/165/165 170/170/170
