v 0.0771476 -0.0202145 -0.0196762
v 0.081299 -0.0202144 -0.0200762
v 0.0771476 -0.0202144 -0.0200762
v 0.081299 -0.0202145 -0.0196762
v 0.081299 -0.0274645 -0.0196778
v 0.0771476 -0.0274644 -0.0200778
v 0.081299 -0.0274644 -0.0200778
v 0.0771476 -0.0274645 -0.0196778
v 0.0776192 -0.0176994 -0.0196756
v 0.079444 -0.0176993 -0.0200756
v 0.0776192 -0.0176993 -0.0200756
v 0.079444 -0.0176994 -0.0196756
v 0.0776192 -0.0291594 -0.0196782
v 0.079444 -0.0291594 -0.0200782
v 0.0776192 -0.0291594 -0.0200782
v 0.079444 -0.0291594 -0.0196782
v 0.081299 -0.0303892 -0.020963
v 0.081299 -0.0303894 -0.0200785
v 0.0798142 -0.0303892 -0.020963
v 0.075699 -0.0303894 -0.0200785
v 0.0796851 -0.0303892 -0.02098
v 0.0795649 -0.0303892 -0.0210298
v 0.0794617 -0.0303892 -0.021109
v 0.0793825 -0.0303892 -0.0212123
v 0.0793327 -0.0303891 -0.0213325
v 0.075699 -0.0303888 -0.0227035
v 0.0793157 -0.0303891 -0.0214615
v 0.0793327 -0.0303891 -0.0215905
v 0.075699 -0.0303886 -0.0237785
v 0.0793825 -0.0303891 -0.0217107
v 0.0794617 -0.030389 -0.021814
v 0.0795649 -0.030389 -0.0218932
v 0.0796851 -0.030389 -0.021943
v 0.081299 -0.0303886 -0.0237785
v 0.0798142 -0.030389 -0.02196
v 0.081299 -0.030389 -0.02196
v 0.0798142 -0.0307892 -0.0209631
v 0.081299 -0.0303892 -0.020963
v 0.0798142 -0.0303892 -0.020963
v 0.081299 -0.0307892 -0.0209631
v 0.081299 -0.0168892 -0.02096
v 0.0798142 -0.0172892 -0.0209601
v 0.081299 -0.0172892 -0.0209601
v 0.0798142 -0.0168892 -0.02096
v 0.081299 -0.0172892 -0.0209601
v 0.0798142 -0.0172892 -0.0209601
v 0.081299 -0.0172894 -0.0200755
v 0.0796851 -0.0172892 -0.0209771
v 0.075699 -0.0172894 -0.0200755
v 0.0795649 -0.0172892 -0.0210269
v 0.0794617 -0.0172892 -0.0211061
v 0.0793825 -0.0172892 -0.0212093
v 0.0793327 -0.0172891 -0.0213295
v 0.0793157 -0.0172891 -0.0214586
v 0.075699 -0.0172888 -0.0227005
v 0.0793327 -0.0172891 -0.0215876
v 0.0793825 -0.0172891 -0.0217078
v 0.075699 -0.0172886 -0.0237755
v 0.0794617 -0.017289 -0.021811
v 0.0795649 -0.017289 -0.0218903
v 0.0796851 -0.017289 -0.0219401
v 0.0798142 -0.017289 -0.021957
v 0.081299 -0.0172886 -0.0237755
v 0.081299 -0.017289 -0.021957
v 0.075699 -0.0179386 -0.0237757
v 0.075699 -0.0172886 -0.0237755
v 0.081299 -0.0172886 -0.0237755
v 0.075699 -0.0198386 -0.0237761
v 0.075699 -0.0218386 -0.0237765
v 0.081299 -0.0303886 -0.0237785
v 0.075699 -0.0238386 -0.023777
v 0.075699 -0.0258386 -0.0237774
v 0.075699 -0.0278386 -0.0237779
v 0.075699 -0.0303886 -0.0237785
v 0.075699 -0.0172888 -0.0227005
v 0.075699 -0.0172886 -0.0237755
v 0.075699 -0.0179386 -0.0237757
v 0.075699 -0.0179388 -0.0227007
v 0.075699 -0.0172894 -0.0200755
v 0.075699 -0.0198386 -0.0237761
v 0.075699 -0.0198388 -0.0227011
v 0.075699 -0.0218386 -0.0237765
v 0.075699 -0.0218388 -0.0227015
v 0.075699 -0.0238386 -0.023777
v 0.075699 -0.0238388 -0.022702
v 0.075699 -0.0258386 -0.0237774
v 0.075699 -0.0258388 -0.0227024
v 0.075699 -0.0278386 -0.0237779
v 0.075699 -0.0278388 -0.0227029
v 0.075699 -0.0303886 -0.0237785
v 0.075699 -0.0179394 -0.0200757
v 0.075699 -0.0303888 -0.0227035
v 0.075699 -0.0185892 -0.0211258
v 0.075699 -0.0190892 -0.0211259
v 0.075699 -0.0185891 -0.0216258
v 0.075699 -0.0198394 -0.0200761
v 0.075699 -0.0190891 -0.0216259
v 0.075699 -0.0205892 -0.0211263
v 0.075699 -0.0210892 -0.0211264
v 0.075699 -0.0205891 -0.0216263
v 0.075699 -0.0218394 -0.0200765
v 0.075699 -0.0210891 -0.0216264
v 0.075699 -0.0225892 -0.0211267
v 0.075699 -0.0230892 -0.0211268
v 0.075699 -0.0225891 -0.0216267
v 0.075699 -0.0238394 -0.020077
v 0.075699 -0.0230891 -0.0216268
v 0.075699 -0.0245892 -0.0211272
v 0.075699 -0.0245891 -0.0216272
v 0.075699 -0.0250892 -0.0211273
v 0.075699 -0.0258394 -0.0200774
v 0.075699 -0.0250891 -0.0216273
v 0.075699 -0.0265892 -0.0211276
v 0.075699 -0.0265891 -0.0216276
v 0.075699 -0.0270892 -0.0211277
v 0.075699 -0.0278394 -0.0200779
v 0.075699 -0.0270891 -0.0216277
v 0.075699 -0.0285892 -0.0211281
v 0.075699 -0.0285891 -0.0216281
v 0.075699 -0.0290892 -0.0211282
v 0.075699 -0.0303894 -0.0200785
v 0.075699 -0.0290891 -0.0216282
v 0.081299 -0.0172894 -0.0200755
v 0.075699 -0.0172894 -0.0200755
v 0.0776192 -0.0176993 -0.0200756
v 0.075699 -0.0179394 -0.0200757
v 0.075699 -0.0198394 -0.0200761
v 0.079444 -0.0176993 -0.0200756
v 0.079444 -0.0185195 -0.0200758
v 0.081299 -0.0202144 -0.0200762
v 0.0776192 -0.0185195 -0.0200758
v 0.0771476 -0.0202144 -0.0200762
v 0.075699 -0.0218394 -0.0200765
v 0.075699 -0.0238394 -0.020077
v 0.075699 -0.0258394 -0.0200774
v 0.0771476 -0.0274644 -0.0200778
v 0.075699 -0.0278394 -0.0200779
v 0.075699 -0.0303894 -0.0200785
v 0.0776192 -0.0291594 -0.0200782
v 0.0776192 -0.0299795 -0.0200784
v 0.079444 -0.0291594 -0.0200782
v 0.081299 -0.0303894 -0.0200785
v 0.081299 -0.0274644 -0.0200778
v 0.079444 -0.0299795 -0.0200784
vn 0 -1 -0.000225071
vn 0 -1 -0.000225071
vn 0 -1 -0.000225071
vn 0 -1 -0.000225071
vn 0 1 0.000225071
vn 0 1 0.000225071
vn 0 1 0.000225071
vn 0 1 0.000225071
vn 0 -1 -0.000225071
vn 0 -1 -0.000225071
vn 0 -1 -0.000225071
vn 0 -1 -0.000225071
vn 0 -1 -0.000225071
vn 0 -1 -0.000225071
vn 0 -1 -0.000225071
vn 0 -1 -0.000225071
vn 0 1 0.000225071
vn 0 1 0.000225071
vn 0 1 0.000225071
vn 0 1 0.000225071
vn 0 1 0.000225071
vn 0 1 0.000225071
vn 0 1 0.000225071
vn 0 1 0.000225071
vn 0 1 0.000225071
vn 0 1 0.000225071
vn 0 1 0.000225071
vn 0 1 0.000225071
vn 0 1 0.000225071
vn 0 1 0.000225071
vn 0 1 0.000225071
vn 0 1 0.000225071
vn 0 1 0.000225071
vn 0 1 0.000225071
vn 0 1 0.000225071
vn 0 1 0.000225071
vn 4.37114E-08 0.000225071 -1
vn 4.37114E-08 0.000225071 -1
vn 4.37114E-08 0.000225071 -1
vn 4.37114E-08 0.000225071 -1
vn 4.37114E-08 0.000225071 -1
vn 4.37114E-08 0.000225071 -1
vn 4.37114E-08 0.000225071 -1
vn 4.37114E-08 0.000225071 -1
vn 0 -1 -0.000225071
vn 0 -1 -0.000225071
vn 0 -1 -0.000225071
vn 0 -1 -0.000225071
vn 0 -1 -0.000225071
vn 0 -1 -0.000225071
vn 0 -1 -0.000225071
vn 0 -1 -0.000225071
vn 0 -1 -0.000225071
vn 0 -1 -0.000225071
vn 0 -1 -0.000225071
vn 0 -1 -0.000225071
vn 0 -1 -0.000225071
vn 0 -1 -0.000225071
vn 0 -1 -0.000225071
vn 0 -1 -0.000225071
vn 0 -1 -0.000225071
vn 0 -1 -0.000225071
vn 0 -1 -0.000225071
vn 0 -1 -0.000225071
vn -4.37114E-08 -0.000225071 1
vn -4.37114E-08 -0.000225071 1
vn -4.37114E-08 -0.000225071 1
vn -4.37114E-08 -0.000225071 1
vn -4.37114E-08 -0.000225071 1
vn -4.37114E-08 -0.000225071 1
vn -4.37114E-08 -0.000225071 1
vn -4.37114E-08 -0.000225071 1
vn -4.37114E-08 -0.000225071 1
vn -4.37114E-08 -0.000225071 1
vn 1 0 4.37114E-08
vn 1 0 4.37114E-08
vn 1 0 4.37114E-08
vn 1 0 4.37114E-08
vn 1 0 4.37114E-08
vn 1 0 4.37114E-08
vn 1 0 4.37114E-08
vn 1 0 4.37114E-08
vn 1 0 4.37114E-08
vn 1 0 4.37114E-08
vn 1 0 4.37114E-08
vn 1 0 4.37114E-08
vn 1 0 4.37114E-08
vn 1 0 4.37114E-08
vn 1 0 4.37114E-08
vn 1 0 4.37114E-08
vn 1 0 4.37114E-08
vn 1 0 4.37114E-08
vn 1 0 4.37114E-08
vn 1 0 4.37114E-08
vn 1 0 4.37114E-08
vn 1 0 4.37114E-08
vn 1 0 4.37114E-08
vn 1 0 4.37114E-08
vn 1 0 4.37114E-08
vn 1 0 4.37114E-08
vn 1 0 4.37114E-08
vn 1 0 4.37114E-08
vn 1 0 4.37114E-08
vn 1 0 4.37114E-08
vn 1 0 4.37114E-08
vn 1 0 4.37114E-08
vn 1 0 4.37114E-08
vn 1 0 4.37114E-08
vn 1 0 4.37114E-08
vn 1 0 4.37114E-08
vn 1 0 4.37114E-08
vn 1 0 4.37114E-08
vn 1 0 4.37114E-08
vn 1 0 4.37114E-08
vn 1 0 4.37114E-08
vn 1 0 4.37114E-08
vn 1 0 4.37114E-08
vn 1 0 4.37114E-08
vn 1 0 4.37114E-08
vn 1 0 4.37114E-08
vn 1 0 4.37114E-08
vn 1 0 4.37114E-08
vn 4.37114E-08 0.000225071 -1
vn 4.37114E-08 0.000225071 -1
vn 4.37114E-08 0.000225071 -1
vn 4.37114E-08 0.000225071 -1
vn 4.37114E-08 0.000225071 -1
vn 4.37114E-08 0.000225071 -1
vn 4.37114E-08 0.000225071 -1
vn 4.37114E-08 0.000225071 -1
vn 4.37114E-08 0.000225071 -1
vn 4.37114E-08 0.000225071 -1
vn 4.37114E-08 0.000225071 -1
vn 4.37114E-08 0.000225071 -1
vn 4.37114E-08 0.000225071 -1
vn 4.37114E-08 0.000225071 -1
vn 4.37114E-08 0.000225071 -1
vn 4.37114E-08 0.000225071 -1
vn 4.37114E-08 0.000225071 -1
vn 4.37114E-08 0.000225071 -1
vn 4.37114E-08 0.000225071 -1
vn 4.37114E-08 0.000225071 -1
vn 4.37114E-08 0.000225071 -1
vn 4.37114E-08 0.000225071 -1


f 1/1/1 3/3/3 2/2/2
f 1/1/1 2/2/2 4/4/4
f 5/5/5 7/7/7 6/6/6
f 5/5/5 6/6/6 8/8/8
f 9/9/9 11/11/11 10/10/10
f 9/9/9 10/10/10 12/12/12
f 13/13/13 15/15/15 14/14/14
f 13/13/13 14/14/14 16/16/16
f 17/17/17 19/19/19 18/18/18
f 19/19/19 20/20/20 18/18/18
f 19/19/19 21/21/21 20/20/20
f 20/20/20 21/21/21 22/22/22
f 20/20/20 22/22/22 23/23/23
f 20/20/20 23/23/23 24/24/24
f 20/20/20 24/24/24 25/25/25
f 26/26/26 20/20/20 25/25/25
f 26/26/26 25/25/25 27/27/27
f 26/26/26 27/27/27 28/28/28
f 29/29/29 26/26/26 28/28/28
f 29/29/29 28/28/28 30/30/30
f 31/31/31 29/29/29 30/30/30
f 29/29/29 31/31/31 32/32/32
f 29/29/29 32/32/32 33/33/33
f 34/34/34 29/29/29 33/33/33
f 34/34/34 33/33/33 35/35/35
f 36/36/36 34/34/34 35/35/35
f 37/37/37 39/39/39 38/38/38
f 37/37/37 38/38/38 40/40/40
f 41/41/41 43/43/43 42/42/42
f 41/41/41 42/42/42 44/44/44
f 45/45/45 47/47/47 46/46/46
f 47/47/47 48/48/48 46/46/46
f 47/47/47 49/49/49 48/48/48
f 49/49/49 50/50/50 48/48/48
f 49/49/49 51/51/51 50/50/50
f 51/51/51 49/49/49 52/52/52
f 49/49/49 53/53/53 52/52/52
f 49/49/49 54/54/54 53/53/53
f 54/54/54 49/49/49 55/55/55
f 54/54/54 55/55/55 56/56/56
f 55/55/55 57/57/57 56/56/56
f 55/55/55 58/58/58 57/57/57
f 58/58/58 59/59/59 57/57/57
f 58/58/58 60/60/60 59/59/59
f 58/58/58 61/61/61 60/60/60
f 62/62/62 61/61/61 58/58/58
f 62/62/62 58/58/58 63/63/63
f 64/64/64 62/62/62 63/63/63
f 65/65/65 67/67/67 66/66/66
f 67/67/67 65/65/65 68/68/68
f 67/67/67 68/68/68 69/69/69
f 70/70/70 67/67/67 69/69/69
f 70/70/70 69/69/69 71/71/71
f 70/70/70 71/71/71 72/72/72
f 70/70/70 72/72/72 73/73/73
f 74/74/74 70/70/70 73/73/73
f 75/75/75 77/77/77 76/76/76
f 75/75/75 78/78/78 77/77/77
f 79/79/79 78/78/78 75/75/75
f 78/78/78 80/80/80 77/77/77
f 78/78/78 81/81/81 80/80/80
f 81/81/81 82/82/82 80/80/80
f 81/81/81 83/83/83 82/82/82
f 83/83/83 84/84/84 82/82/82
f 83/83/83 85/85/85 84/84/84
f 85/85/85 86/86/86 84/84/84
f 85/85/85 87/87/87 86/86/86
f 87/87/87 88/88/88 86/86/86
f 87/87/87 89/89/89 88/88/88
f 89/89/89 90/90/90 88/88/88
f 79/79/79 91/91/91 78/78/78
f 89/89/89 92/92/92 90/90/90
f 91/91/91 93/93/93 78/78/78
f 91/91/91 94/94/94 93/93/93
f 93/93/93 95/95/95 78/78/78
f 94/94/94 91/91/91 96/96/96
f 95/95/95 81/81/81 78/78/78
f 97/97/97 94/94/94 96/96/96
f 95/95/95 97/97/97 81/81/81
f 97/97/97 96/96/96 81/81/81
f 98/98/98 81/81/81 96/96/96
f 99/99/99 98/98/98 96/96/96
f 98/98/98 100/100/100 81/81/81
f 99/99/99 96/96/96 101/101/101
f 100/100/100 83/83/83 81/81/81
f 102/102/102 99/99/99 101/101/101
f 100/100/100 102/102/102 83/83/83
f 102/102/102 101/101/101 83/83/83
f 103/103/103 83/83/83 101/101/101
f 104/104/104 103/103/103 101/101/101
f 103/103/103 105/105/105 83/83/83
f 104/104/104 101/101/101 106/106/106
f 105/105/105 85/85/85 83/83/83
f 107/107/107 104/104/104 106/106/106
f 105/105/105 107/107/107 85/85/85
f 107/107/107 106/106/106 85/85/85
f 108/108/108 85/85/85 106/106/106
f 108/108/108 109/109/109 85/85/85
f 110/110/110 108/108/108 106/106/106
f 109/109/109 87/87/87 85/85/85
f 110/110/110 106/106/106 111/111/111
f 109/109/109 112/112/112 87/87/87
f 112/112/112 110/110/110 111/111/111
f 112/112/112 111/111/111 87/87/87
f 113/113/113 87/87/87 111/111/111
f 113/113/113 114/114/114 87/87/87
f 115/115/115 113/113/113 111/111/111
f 114/114/114 89/89/89 87/87/87
f 115/115/115 111/111/111 116/116/116
f 114/114/114 117/117/117 89/89/89
f 117/117/117 115/115/115 116/116/116
f 117/117/117 116/116/116 89/89/89
f 118/118/118 89/89/89 116/116/116
f 118/118/118 119/119/119 89/89/89
f 120/120/120 118/118/118 116/116/116
f 119/119/119 92/92/92 89/89/89
f 120/120/120 116/116/116 121/121/121
f 119/119/119 122/122/122 92/92/92
f 122/122/122 120/120/120 121/121/121
f 122/122/122 121/121/121 92/92/92
f 123/123/123 125/125/125 124/124/124
f 124/124/124 125/125/125 126/126/126
f 125/125/125 127/127/127 126/126/126
f 125/125/125 123/123/123 128/128/128
f 123/123/123 129/129/129 128/128/128
f 123/123/123 130/130/130 129/129/129
f 130/130/130 131/131/131 129/129/129
f 125/125/125 131/131/131 127/127/127
f 130/130/130 132/132/132 131/131/131
f 132/132/132 127/127/127 131/131/131
f 132/132/132 133/133/133 127/127/127
f 133/133/133 132/132/132 134/134/134
f 132/132/132 135/135/135 134/134/134
f 132/132/132 136/136/136 135/135/135
f 136/136/136 137/137/137 135/135/135
f 136/136/136 138/138/138 137/137/137
f 139/139/139 138/138/138 136/136/136
f 139/139/139 140/140/140 138/138/138
f 141/141/141 139/139/139 136/136/136
f 140/140/140 142/142/142 138/138/138
f 141/141/141 136/136/136 143/143/143
f 140/140/140 144/144/144 142/142/142
f 144/144/144 141/141/141 143/143/143
f 144/144/144 143/143/143 142/142/142
