v 0.0743375 -0.0644121 -0.0260507
v 0.0743375 -0.0631522 -0.0258504
v 0.0743375 -0.0644122 -0.0258507
v 0.0743375 -0.0631521 -0.0260504
v 0.0743875 -0.0631525 -0.0242504
v 0.0743375 -0.0631526 -0.0240504
v 0.0743375 -0.0631525 -0.0242504
v 0.0748875 -0.0631526 -0.0240504
v 0.0743875 -0.0631522 -0.0258504
v 0.0748875 -0.0631521 -0.0260504
v 0.0743375 -0.0631522 -0.0258504
v 0.0743375 -0.0631521 -0.0260504
vn -1 0 -8.742269E-08
vn -1 0 -8.742269E-08
vn -1 0 -8.742269E-08
vn -1 0 -8.742269E-08
vn 0 1 0.000224853
vn 0 1 0.000224853
vn 0 1 0.000224853
vn 0 1 0.000224853
vn 0 1 0.000224853
vn 0 1 0.000224853
vn 0 1 0.000224853
vn 0 1 0.000224853


f 1/1/1 3/3/3 2/2/2
f 1/1/1 2/2/2 4/4/4
f 5/5/5 7/7/7 6/6/6
f 5/5/5 6/6/6 8/8/8
f 9/9/9 5/5/5 8/8/8
f 9/9/9 8/8/8 10/10/10
f 11/11/11 9/9/9 10/10/10
f 11/11/11 10/10/10 12/12/12
