v 0.0810819 -0.0601847 -0.0215898
v 0.075999 -0.0601845 -0.0222248
v 0.075999 -0.0601847 -0.0215898
v 0.0810819 -0.0601845 -0.0222248
v 0.0810819 -0.0595495 -0.0222246
v 0.075999 -0.0595497 -0.0215896
v 0.075999 -0.0595495 -0.0222246
v 0.0810819 -0.0595497 -0.0215896
v 0.0810819 -0.0595497 -0.0215896
v 0.081649 -0.0596495 -0.0221246
v 0.081649 -0.0596496 -0.0216896
v 0.0810819 -0.0595495 -0.0222246
v 0.081649 -0.0600845 -0.0221247
v 0.0810819 -0.0595495 -0.0222246
v 0.0810819 -0.0601845 -0.0222248
v 0.081649 -0.0596495 -0.0221246
v 0.081649 -0.0600846 -0.0216897
v 0.081649 -0.0596495 -0.0221246
v 0.081649 -0.0600845 -0.0221247
v 0.081649 -0.0596496 -0.0216896
v 0.081649 -0.0596496 -0.0216896
v 0.0810819 -0.0601847 -0.0215898
v 0.0810819 -0.0595497 -0.0215896
v 0.081649 -0.0600846 -0.0216897
v 0.0810819 -0.0595497 -0.0215896
v 0.075999 -0.0601847 -0.0215898
v 0.075999 -0.0595497 -0.0215896
v 0.0810819 -0.0601847 -0.0215898
vn 0 -1 -0.000224984
vn 0 -1 -0.000224984
vn 0 -1 -0.000224984
vn 0 -1 -0.000224984
vn 0 1 0.000224984
vn 0 1 0.000224984
vn 0 1 0.000224984
vn 0 1 0.000224984
vn 0.173648 0.984808 0.000221558
vn 0.173648 0.984808 0.000221558
vn 0.173648 0.984808 0.000221558
vn 0.173648 0.984808 0.000221558
vn 0.173648 0.000221566 -0.984808
vn 0.173648 0.000221566 -0.984808
vn 0.173648 0.000221566 -0.984808
vn 0.173648 0.000221566 -0.984808
vn 1 0 -4.37114E-08
vn 1 0 -4.37114E-08
vn 1 0 -4.37114E-08
vn 1 0 -4.37114E-08
vn 0.173648 -0.000221566 0.984808
vn 0.173648 -0.000221566 0.984808
vn 0.173648 -0.000221566 0.984808
vn 0.173648 -0.000221566 0.984808
vn 4.37114E-08 -0.000224984 1
vn 4.37114E-08 -0.000224984 1
vn 4.37114E-08 -0.000224984 1
vn 4.37114E-08 -0.000224984 1


f 1/1/1 3/3/3 2/2/2
f 1/1/1 2/2/2 4/4/4
f 5/5/5 7/7/7 6/6/6
f 5/5/5 6/6/6 8/8/8
f 9/9/9 11/11/11 10/10/10
f 9/9/9 10/10/10 12/12/12
f 13/13/13 15/15/15 14/14/14
f 13/13/13 14/14/14 16/16/16
f 17/17/17 19/19/19 18/18/18
f 17/17/17 18/18/18 20/20/20
f 21/21/21 23/23/23 22/22/22
f 21/21/21 22/22/22 24/24/24
f 25/25/25 27/27/27 26/26/26
f 25/25/25 26/26/26 28/28/28
