v 0.057939 -0.043567 -0.01232
v 0.057939 -0.040767 -0.01152
v 0.057939 -0.043567 -0.01152
v 0.057939 -0.040767 -0.01232
v 0.058939 -0.039767 -0.01232
v 0.066299 -0.039767 -0.01152
v 0.058939 -0.039767 -0.01152
v 0.066299 -0.039767 -0.01232
v 0.058939 -0.035367 -0.0058
v 0.066299 -0.035367 -0.0066
v 0.058939 -0.035367 -0.0066
v 0.066299 -0.035367 -0.0058
v 0.058939 -0.035367 -0.0066
v 0.057939 -0.034367 -0.0058
v 0.058939 -0.035367 -0.0058
v 0.057939 -0.034367 -0.0066
v 0.057939 -0.034367 -0.0066
v 0.057939 -0.031567 -0.0058
v 0.057939 -0.034367 -0.0058
v 0.057939 -0.031567 -0.0066
v 0.0610488 -0.0339036 -0.0066
v 0.0608221 -0.0337838 -0.0058
v 0.0608221 -0.0337838 -0.0066
v 0.0610488 -0.0339036 -0.0058
v 0.0612985 -0.0339619 -0.0066
v 0.0612985 -0.0339619 -0.0058
v 0.0615548 -0.0339548 -0.0066
v 0.0615548 -0.0339548 -0.0058
v 0.0618009 -0.0338826 -0.0066
v 0.0618009 -0.0338826 -0.0058
v 0.0620206 -0.0337503 -0.0066
v 0.0620206 -0.0337503 -0.0058
v 0.0621994 -0.0335665 -0.0066
v 0.0621994 -0.0335665 -0.0058
v 0.0623255 -0.0333432 -0.0066
v 0.0621994 -0.0335665 -0.0058
v 0.0621994 -0.0335665 -0.0066
v 0.0623255 -0.0333432 -0.0058
v 0.0623907 -0.0330952 -0.0066
v 0.0623907 -0.0330952 -0.0058
v 0.0623907 -0.0328388 -0.0066
v 0.0623907 -0.0328388 -0.0058
v 0.0623255 -0.0325907 -0.0066
v 0.0623255 -0.0325907 -0.0058
v 0.0621994 -0.0323675 -0.0066
v 0.0621994 -0.0323675 -0.0058
v 0.0620206 -0.0321836 -0.0066
v 0.0621994 -0.0323675 -0.0058
v 0.0621994 -0.0323675 -0.0066
v 0.0620206 -0.0321836 -0.0058
v 0.0618009 -0.0320513 -0.0066
v 0.0618009 -0.0320513 -0.0058
v 0.0615548 -0.0319792 -0.0066
v 0.0615548 -0.0319792 -0.0058
v 0.0612985 -0.031972 -0.0066
v 0.0612985 -0.031972 -0.0058
v 0.0610488 -0.0320303 -0.0066
v 0.0610488 -0.0320303 -0.0058
v 0.0608221 -0.0321502 -0.0066
v 0.0608221 -0.0321502 -0.0058
v 0.058939 -0.030567 -0.0124
v 0.0612985 -0.031972 -0.0124
v 0.0610488 -0.0320303 -0.0124
v 0.066299 -0.030567 -0.0124
v 0.0608221 -0.0321502 -0.0124
v 0.0597813 -0.0328853 -0.0124
v 0.0615548 -0.0319792 -0.0124
v 0.057939 -0.031567 -0.0124
v 0.0618009 -0.0320513 -0.0124
v 0.0597636 -0.0329013 -0.0124
v 0.0620206 -0.0321836 -0.0124
v 0.0597502 -0.032921 -0.0124
v 0.0597418 -0.0329433 -0.0124
v 0.059739 -0.032967 -0.0124
v 0.0621994 -0.0323675 -0.0124
v 0.0623255 -0.0325907 -0.0124
v 0.0623907 -0.0328388 -0.0124
v 0.066299 -0.035367 -0.0124
v 0.057939 -0.034367 -0.0124
v 0.0623907 -0.0330952 -0.0124
v 0.0597418 -0.0329906 -0.0124
v 0.0623255 -0.0333432 -0.0124
v 0.0597502 -0.033013 -0.0124
v 0.0621994 -0.0335665 -0.0124
v 0.0597636 -0.0330327 -0.0124
v 0.0597813 -0.0330486 -0.0124
v 0.0608221 -0.0337838 -0.0124
v 0.0620206 -0.0337503 -0.0124
v 0.0618009 -0.0338826 -0.0124
v 0.0615548 -0.0339548 -0.0124
v 0.058939 -0.035367 -0.0124
v 0.0610488 -0.0339036 -0.0124
v 0.0612985 -0.0339619 -0.0124
v 0.058939 -0.035367 -0.0132
v 0.0612985 -0.0339619 -0.0132
v 0.0610488 -0.0339036 -0.0132
v 0.066299 -0.035367 -0.0132
v 0.0608221 -0.0337838 -0.0132
v 0.0597813 -0.0330486 -0.0132
v 0.0615548 -0.0339548 -0.0132
v 0.057939 -0.034367 -0.0132
v 0.0618009 -0.0338826 -0.0132
v 0.0597636 -0.0330327 -0.0132
v 0.0620206 -0.0337503 -0.0132
v 0.0597502 -0.033013 -0.0132
v 0.0621994 -0.0335665 -0.0132
v 0.0623255 -0.0333432 -0.0132
v 0.0623907 -0.0330952 -0.0132
v 0.066299 -0.030567 -0.0132
v 0.0597418 -0.0329906 -0.0132
v 0.059739 -0.032967 -0.0132
v 0.0597418 -0.0329433 -0.0132
v 0.0623907 -0.0328388 -0.0132
v 0.057939 -0.031567 -0.0132
v 0.0623255 -0.0325907 -0.0132
v 0.0597502 -0.032921 -0.0132
v 0.0621994 -0.0323675 -0.0132
v 0.0597636 -0.0329013 -0.0132
v 0.0597813 -0.0328853 -0.0132
v 0.0608221 -0.0321502 -0.0132
v 0.0620206 -0.0321836 -0.0132
v 0.0618009 -0.0320513 -0.0132
v 0.0615548 -0.0319792 -0.0132
v 0.058939 -0.030567 -0.0132
v 0.0610488 -0.0320303 -0.0132
v 0.0612985 -0.031972 -0.0132
v 0.058939 -0.039767 -0.01152
v 0.0612985 -0.041172 -0.01152
v 0.0610488 -0.0412303 -0.01152
v 0.066299 -0.039767 -0.01152
v 0.0608221 -0.0413502 -0.01152
v 0.0597813 -0.0420853 -0.01152
v 0.0615548 -0.0411792 -0.01152
v 0.057939 -0.040767 -0.01152
v 0.0618009 -0.0412513 -0.01152
v 0.0597636 -0.0421013 -0.01152
v 0.0620206 -0.0413836 -0.01152
v 0.0597502 -0.042121 -0.01152
v 0.0597418 -0.0421433 -0.01152
v 0.059739 -0.042167 -0.01152
v 0.0621994 -0.0415675 -0.01152
v 0.0623255 -0.0417907 -0.01152
v 0.0623907 -0.0420387 -0.01152
v 0.066299 -0.044567 -0.01152
v 0.057939 -0.043567 -0.01152
v 0.0623907 -0.0422952 -0.01152
v 0.0597418 -0.0421906 -0.01152
v 0.0623255 -0.0425432 -0.01152
v 0.0597502 -0.042213 -0.01152
v 0.0621994 -0.0427665 -0.01152
v 0.0597636 -0.0422327 -0.01152
v 0.0597813 -0.0422487 -0.01152
v 0.0608221 -0.0429838 -0.01152
v 0.0620206 -0.0429503 -0.01152
v 0.0618009 -0.0430826 -0.01152
v 0.0615548 -0.0431548 -0.01152
v 0.058939 -0.044567 -0.01152
v 0.0610488 -0.0431036 -0.01152
v 0.0612985 -0.0431619 -0.01152
v 0.058939 -0.030567 -0.0058
v 0.0612985 -0.031972 -0.0058
v 0.0610488 -0.0320303 -0.0058
v 0.066299 -0.030567 -0.0058
v 0.0608221 -0.0321502 -0.0058
v 0.0597813 -0.0328853 -0.0058
v 0.0615548 -0.0319792 -0.0058
v 0.057939 -0.031567 -0.0058
v 0.0618009 -0.0320513 -0.0058
v 0.0597636 -0.0329013 -0.0058
v 0.0620206 -0.0321836 -0.0058
v 0.0597502 -0.032921 -0.0058
v 0.0597418 -0.0329433 -0.0058
v 0.059739 -0.032967 -0.0058
v 0.0621994 -0.0323675 -0.0058
v 0.0623255 -0.0325907 -0.0058
v 0.0623907 -0.0328388 -0.0058
v 0.066299 -0.035367 -0.0058
v 0.057939 -0.034367 -0.0058
v 0.0623907 -0.0330952 -0.0058
v 0.0597418 -0.0329906 -0.0058
v 0.0623255 -0.0333432 -0.0058
v 0.0597502 -0.033013 -0.0058
v 0.0621994 -0.0335665 -0.0058
v 0.0597636 -0.0330327 -0.0058
v 0.0597813 -0.0330486 -0.0058
v 0.0608221 -0.0337838 -0.0058
v 0.0620206 -0.0337503 -0.0058
v 0.0618009 -0.0338826 -0.0058
v 0.0615548 -0.0339548 -0.0058
v 0.058939 -0.035367 -0.0058
v 0.0610488 -0.0339036 -0.0058
v 0.0612985 -0.0339619 -0.0058
vn -1 0 0
vn -1 0 0
vn -1 0 0
vn -1 0 0
vn 0 1 0
vn 0 1 0
vn 0 1 0
vn 0 1 0
vn 0 -1 0
vn 0 -1 0
vn 0 -1 0
vn 0 -1 0
vn -0.707107 -0.707107 0
vn -0.707107 -0.707107 0
vn -0.707107 -0.707107 0
vn -0.707107 -0.707107 0
vn -1 0 0
vn -1 0 0
vn -1 0 0
vn -1 0 0
vn 0.350223 0.936666 0
vn 0.576923 0.816799 0
vn 0.576923 0.816799 0
vn 0.350223 0.936666 0
vn 0.100492 0.994938 0
vn 0.100492 0.994938 0
vn -0.155848 0.987781 0
vn -0.155848 0.987781 0
vn -0.401939 0.915667 0
vn -0.401939 0.915667 0
vn -0.621598 0.783337 0
vn -0.621598 0.783337 0
vn -0.800379 0.599494 0
vn -0.800379 0.599494 0
vn -0.926527 0.376227 0
vn -0.800379 0.599494 0
vn -0.800379 0.599494 0
vn -0.926527 0.376227 0
vn -0.991746 0.12822 0
vn -0.991746 0.12822 0
vn -0.991746 -0.12822 0
vn -0.991746 -0.12822 0
vn -0.926527 -0.376227 0
vn -0.926527 -0.376227 0
vn -0.800379 -0.599494 0
vn -0.800379 -0.599494 0
vn -0.621598 -0.783337 0
vn -0.800379 -0.599494 0
vn -0.800379 -0.599494 0
vn -0.621598 -0.783337 0
vn -0.401939 -0.915667 0
vn -0.401939 -0.915667 0
vn -0.155848 -0.987781 0
vn -0.155848 -0.987781 0
vn 0.100492 -0.994938 0
vn 0.100492 -0.994938 0
vn 0.350223 -0.936666 0
vn 0.350223 -0.936666 0
vn 0.576923 -0.816799 0
vn 0.576923 -0.816799 0
vn 0 0 1
vn 0 0 1
vn 0 0 1
vn 0 0 1
vn 0 0 1
vn 0 0 1
vn 0 0 1
vn 0 0 1
vn 0 0 1
vn 0 0 1
vn 0 0 1
vn 0 0 1
vn 0 0 1
vn 0 0 1
vn 0 0 1
vn 0 0 1
vn 0 0 1
vn 0 0 1
vn 0 0 1
vn 0 0 1
vn 0 0 1
vn 0 0 1
vn 0 0 1
vn 0 0 1
vn 0 0 1
vn 0 0 1
vn 0 0 1
vn 0 0 1
vn 0 0 1
vn 0 0 1
vn 0 0 1
vn 0 0 1
vn 0 0 1
vn 0 0 -1
vn 0 0 -1
vn 0 0 -1
vn 0 0 -1
vn 0 0 -1
vn 0 0 -1
vn 0 0 -1
vn 0 0 -1
vn 0 0 -1
vn 0 0 -1
vn 0 0 -1
vn 0 0 -1
vn 0 0 -1
vn 0 0 -1
vn 0 0 -1
vn 0 0 -1
vn 0 0 -1
vn 0 0 -1
vn 0 0 -1
vn 0 0 -1
vn 0 0 -1
vn 0 0 -1
vn 0 0 -1
vn 0 0 -1
vn 0 0 -1
vn 0 0 -1
vn 0 0 -1
vn 0 0 -1
vn 0 0 -1
vn 0 0 -1
vn 0 0 -1
vn 0 0 -1
vn 0 0 -1
vn 0 0 1
vn 0 0 1
vn 0 0 1
vn 0 0 1
vn 0 0 1
vn 0 0 1
vn 0 0 1
vn 0 0 1
vn 0 0 1
vn 0 0 1
vn 0 0 1
vn 0 0 1
vn 0 0 1
vn 0 0 1
vn 0 0 1
vn 0 0 1
vn 0 0 1
vn 0 0 1
vn 0 0 1
vn 0 0 1
vn 0 0 1
vn 0 0 1
vn 0 0 1
vn 0 0 1
vn 0 0 1
vn 0 0 1
vn 0 0 1
vn 0 0 1
vn 0 0 1
vn 0 0 1
vn 0 0 1
vn 0 0 1
vn 0 0 1
vn 0 0 1
vn 0 0 1
vn 0 0 1
vn 0 0 1
vn 0 0 1
vn 0 0 1
vn 0 0 1
vn 0 0 1
vn 0 0 1
vn 0 0 1
vn 0 0 1
vn 0 0 1
vn 0 0 1
vn 0 0 1
vn 0 0 1
vn 0 0 1
vn 0 0 1
vn 0 0 1
vn 0 0 1
vn 0 0 1
vn 0 0 1
vn 0 0 1
vn 0 0 1
vn 0 0 1
vn 0 0 1
vn 0 0 1
vn 0 0 1
vn 0 0 1
vn 0 0 1
vn 0 0 1
vn 0 0 1
vn 0 0 1
vn 0 0 1


f 1/1/1 3/3/3 2/2/2
f 1/1/1 2/2/2 4/4/4
f 5/5/5 7/7/7 6/6/6
f 5/5/5 6/6/6 8/8/8
f 9/9/9 11/11/11 10/10/10
f 9/9/9 10/10/10 12/12/12
f 13/13/13 15/15/15 14/14/14
f 13/13/13 14/14/14 16/16/16
f 17/17/17 19/19/19 18/18/18
f 17/17/17 18/18/18 20/20/20
f 21/21/21 23/23/23 22/22/22
f 21/21/21 22/22/22 24/24/24
f 25/25/25 21/21/21 24/24/24
f 25/25/25 24/24/24 26/26/26
f 27/27/27 25/25/25 26/26/26
f 27/27/27 26/26/26 28/28/28
f 29/29/29 27/27/27 28/28/28
f 29/29/29 28/28/28 30/30/30
f 31/31/31 29/29/29 30/30/30
f 31/31/31 30/30/30 32/32/32
f 33/33/33 31/31/31 32/32/32
f 33/33/33 32/32/32 34/34/34
f 35/35/35 37/37/37 36/36/36
f 35/35/35 36/36/36 38/38/38
f 39/39/39 35/35/35 38/38/38
f 39/39/39 38/38/38 40/40/40
f 41/41/41 39/39/39 40/40/40
f 41/41/41 40/40/40 42/42/42
f 43/43/43 41/41/41 42/42/42
f 43/43/43 42/42/42 44/44/44
f 45/45/45 43/43/43 44/44/44
f 45/45/45 44/44/44 46/46/46
f 47/47/47 49/49/49 48/48/48
f 47/47/47 48/48/48 50/50/50
f 51/51/51 47/47/47 50/50/50
f 51/51/51 50/50/50 52/52/52
f 53/53/53 51/51/51 52/52/52
f 53/53/53 52/52/52 54/54/54
f 55/55/55 53/53/53 54/54/54
f 55/55/55 54/54/54 56/56/56
f 57/57/57 55/55/55 56/56/56
f 57/57/57 56/56/56 58/58/58
f 59/59/59 57/57/57 58/58/58
f 59/59/59 58/58/58 60/60/60
f 61/61/61 63/63/63 62/62/62
f 64/64/64 61/61/61 62/62/62
f 63/63/63 61/61/61 65/65/65
f 61/61/61 66/66/66 65/65/65
f 64/64/64 62/62/62 67/67/67
f 61/61/61 68/68/68 66/66/66
f 69/69/69 64/64/64 67/67/67
f 68/68/68 70/70/70 66/66/66
f 64/64/64 69/69/69 71/71/71
f 68/68/68 72/72/72 70/70/70
f 72/72/72 68/68/68 73/73/73
f 68/68/68 74/74/74 73/73/73
f 64/64/64 71/71/71 75/75/75
f 64/64/64 75/75/75 76/76/76
f 64/64/64 76/76/76 77/77/77
f 78/78/78 64/64/64 77/77/77
f 68/68/68 79/79/79 74/74/74
f 78/78/78 77/77/77 80/80/80
f 79/79/79 81/81/81 74/74/74
f 82/82/82 78/78/78 80/80/80
f 79/79/79 83/83/83 81/81/81
f 84/84/84 78/78/78 82/82/82
f 79/79/79 85/85/85 83/83/83
f 85/85/85 79/79/79 86/86/86
f 79/79/79 87/87/87 86/86/86
f 84/84/84 88/88/88 78/78/78
f 89/89/89 78/78/78 88/88/88
f 89/89/89 90/90/90 78/78/78
f 79/79/79 91/91/91 87/87/87
f 90/90/90 91/91/91 78/78/78
f 91/91/91 92/92/92 87/87/87
f 90/90/90 93/93/93 91/91/91
f 91/91/91 93/93/93 92/92/92
f 94/94/94 96/96/96 95/95/95
f 97/97/97 94/94/94 95/95/95
f 96/96/96 94/94/94 98/98/98
f 94/94/94 99/99/99 98/98/98
f 97/97/97 95/95/95 100/100/100
f 94/94/94 101/101/101 99/99/99
f 102/102/102 97/97/97 100/100/100
f 101/101/101 103/103/103 99/99/99
f 97/97/97 102/102/102 104/104/104
f 101/101/101 105/105/105 103/103/103
f 97/97/97 104/104/104 106/106/106
f 97/97/97 106/106/106 107/107/107
f 97/97/97 107/107/107 108/108/108
f 109/109/109 97/97/97 108/108/108
f 101/101/101 110/110/110 105/105/105
f 110/110/110 101/101/101 111/111/111
f 101/101/101 112/112/112 111/111/111
f 109/109/109 108/108/108 113/113/113
f 101/101/101 114/114/114 112/112/112
f 115/115/115 109/109/109 113/113/113
f 114/114/114 116/116/116 112/112/112
f 117/117/117 109/109/109 115/115/115
f 114/114/114 118/118/118 116/116/116
f 118/118/118 114/114/114 119/119/119
f 114/114/114 120/120/120 119/119/119
f 117/117/117 121/121/121 109/109/109
f 122/122/122 109/109/109 121/121/121
f 122/122/122 123/123/123 109/109/109
f 114/114/114 124/124/124 120/120/120
f 123/123/123 124/124/124 109/109/109
f 124/124/124 125/125/125 120/120/120
f 123/123/123 126/126/126 124/124/124
f 124/124/124 126/126/126 125/125/125
f 127/127/127 129/129/129 128/128/128
f 130/130/130 127/127/127 128/128/128
f 129/129/129 127/127/127 131/131/131
f 127/127/127 132/132/132 131/131/131
f 130/130/130 128/128/128 133/133/133
f 127/127/127 134/134/134 132/132/132
f 135/135/135 130/130/130 133/133/133
f 134/134/134 136/136/136 132/132/132
f 130/130/130 135/135/135 137/137/137
f 134/134/134 138/138/138 136/136/136
f 138/138/138 134/134/134 139/139/139
f 134/134/134 140/140/140 139/139/139
f 130/130/130 137/137/137 141/141/141
f 130/130/130 141/141/141 142/142/142
f 130/130/130 142/142/142 143/143/143
f 144/144/144 130/130/130 143/143/143
f 134/134/134 145/145/145 140/140/140
f 144/144/144 143/143/143 146/146/146
f 145/145/145 147/147/147 140/140/140
f 144/144/144 146/146/146 148/148/148
f 145/145/145 149/149/149 147/147/147
f 144/144/144 148/148/148 150/150/150
f 149/149/149 145/145/145 151/151/151
f 145/145/145 152/152/152 151/151/151
f 145/145/145 153/153/153 152/152/152
f 154/154/154 144/144/144 150/150/150
f 144/144/144 154/154/154 155/155/155
f 144/144/144 155/155/155 156/156/156
f 145/145/145 157/157/157 153/153/153
f 157/157/157 144/144/144 156/156/156
f 153/153/153 157/157/157 158/158/158
f 157/157/157 156/156/156 159/159/159
f 158/158/158 157/157/157 159/159/159
f 160/160/160 162/162/162 161/161/161
f 163/163/163 160/160/160 161/161/161
f 162/162/162 160/160/160 164/164/164
f 160/160/160 165/165/165 164/164/164
f 163/163/163 161/161/161 166/166/166
f 160/160/160 167/167/167 165/165/165
f 168/168/168 163/163/163 166/166/166
f 167/167/167 169/169/169 165/165/165
f 163/163/163 168/168/168 170/170/170
f 167/167/167 171/171/171 169/169/169
f 171/171/171 167/167/167 172/172/172
f 167/167/167 173/173/173 172/172/172
f 163/163/163 170/170/170 174/174/174
f 163/163/163 174/174/174 175/175/175
f 163/163/163 175/175/175 176/176/176
f 177/177/177 163/163/163 176/176/176
f 167/167/167 178/178/178 173/173/173
f 177/177/177 176/176/176 179/179/179
f 178/178/178 180/180/180 173/173/173
f 181/181/181 177/177/177 179/179/179
f 178/178/178 182/182/182 180/180/180
f 183/183/183 177/177/177 181/181/181
f 178/178/178 184/184/184 182/182/182
f 184/184/184 178/178/178 185/185/185
f 178/178/178 186/186/186 185/185/185
f 183/183/183 187/187/187 177/177/177
f 188/188/188 177/177/177 187/187/187
f 188/188/188 189/189/189 177/177/177
f 178/178/178 190/190/190 186/186/186
f 189/189/189 190/190/190 177/177/177
f 190/190/190 191/191/191 186/186/186
f 189/189/189 192/192/192 190/190/190
f 190/190/190 192/192/192 191/191/191
