v 0.0724661 -0.0626832 -0.0279403
v 0.075399 -0.0620482 -0.0279402
v 0.075399 -0.0626832 -0.0279403
v 0.0724661 -0.0620482 -0.0279402
v 0.0724661 -0.0620482 -0.0279402
v 0.075399 -0.0620481 -0.0285752
v 0.075399 -0.0620482 -0.0279402
v 0.0724661 -0.0620481 -0.0285752
vn 4.37114E-08 -0.000224984 1
vn 4.37114E-08 -0.000224984 1
vn 4.37114E-08 -0.000224984 1
vn 4.37114E-08 -0.000224984 1
vn 0 1 0.000224984
vn 0 1 0.000224984
vn 0 1 0.000224984
vn 0 1 0.000224984


f 1/1/1 3/3/3 2/2/2
f 1/1/1 2/2/2 4/4/4
f 5/5/5 7/7/7 6/6/6
f 5/5/5 6/6/6 8/8/8
