v 0.081299 -0.030388 -0.0263261
v 0.081299 -0.0274631 -0.0259254
v 0.081299 -0.027463 -0.0263254
v 0.081299 -0.0307881 -0.0259262
v 0.081299 -0.0303878 -0.0272107
v 0.081299 -0.0307878 -0.0272108
v 0.075299 -0.0307871 -0.0304262
v 0.081299 -0.0168871 -0.0304231
v 0.075299 -0.0168871 -0.0304231
v 0.081299 -0.0307871 -0.0304262
v 0.07596 -0.016888 -0.026179
v 0.07596 -0.0168881 -0.0259231
v 0.075299 -0.0168881 -0.0259231
v 0.075299 -0.0168871 -0.0304231
v 0.081299 -0.0168871 -0.0304231
v 0.0764673 -0.016888 -0.026179
v 0.0794617 -0.0168876 -0.0280586
v 0.0793825 -0.0168876 -0.0279553
v 0.0795649 -0.0168876 -0.0281378
v 0.0796851 -0.0168876 -0.0281876
v 0.0798142 -0.0168876 -0.0282046
v 0.081299 -0.0168876 -0.0282046
v 0.0793327 -0.0168877 -0.0278351
v 0.0793157 -0.0168877 -0.0277061
v 0.0793327 -0.0168877 -0.0275771
v 0.0793825 -0.0168878 -0.0274569
v 0.0764673 -0.0168881 -0.0259231
v 0.0794617 -0.0168878 -0.0273536
v 0.0795649 -0.0168878 -0.0272744
v 0.0796851 -0.0168878 -0.0272246
v 0.0798142 -0.0168878 -0.0272076
v 0.081299 -0.0168881 -0.0259231
v 0.081299 -0.0168878 -0.0272076
v 0.081299 -0.0303872 -0.0300261
v 0.081299 -0.0307876 -0.0282077
v 0.081299 -0.0303876 -0.0282076
v 0.081299 -0.0307871 -0.0304262
v 0.081299 -0.0172872 -0.0300231
v 0.081299 -0.0168871 -0.0304231
v 0.081299 -0.0172876 -0.0282047
v 0.081299 -0.0168876 -0.0282046
v 0.07596 -0.030788 -0.0261821
v 0.075299 -0.0307881 -0.0259262
v 0.07596 -0.0307881 -0.0259262
v 0.075299 -0.0307871 -0.0304262
v 0.0764673 -0.030788 -0.0261821
v 0.081299 -0.0307871 -0.0304262
v 0.0794617 -0.0307876 -0.0280617
v 0.0793825 -0.0307876 -0.0279585
v 0.0795649 -0.0307876 -0.0281409
v 0.0796851 -0.0307876 -0.0281907
v 0.0798142 -0.0307876 -0.0282077
v 0.081299 -0.0307876 -0.0282077
v 0.0793327 -0.0307877 -0.0278382
v 0.0793157 -0.0307877 -0.0277092
v 0.0793327 -0.0307877 -0.0275802
v 0.0764673 -0.0307881 -0.0259262
v 0.0793825 -0.0307878 -0.02746
v 0.0794617 -0.0307878 -0.0273568
v 0.0795649 -0.0307878 -0.0272775
v 0.0796851 -0.0307878 -0.0272277
v 0.081299 -0.0307881 -0.0259262
v 0.0798142 -0.0307878 -0.0272108
v 0.081299 -0.0307878 -0.0272108
v 0.081299 -0.017288 -0.0263231
v 0.081299 -0.0168878 -0.0272076
v 0.081299 -0.0172878 -0.0272077
v 0.081299 -0.0168881 -0.0259231
v 0.081299 -0.020213 -0.0263238
v 0.081299 -0.0202131 -0.0259238
v 0.0764673 -0.0307881 -0.0259262
v 0.0776192 -0.0299782 -0.025926
v 0.079444 -0.0299782 -0.025926
v 0.0776192 -0.029158 -0.0259258
v 0.081299 -0.0307881 -0.0259262
v 0.079444 -0.029158 -0.0259258
v 0.081299 -0.0274631 -0.0259254
v 0.0771476 -0.0274631 -0.0259254
v 0.0764673 -0.0168881 -0.0259231
v 0.0771476 -0.0202131 -0.0259238
v 0.0776192 -0.0185182 -0.0259234
v 0.079444 -0.0185182 -0.0259234
v 0.0776192 -0.017698 -0.0259232
v 0.081299 -0.0202131 -0.0259238
v 0.081299 -0.0168881 -0.0259231
v 0.079444 -0.017698 -0.0259232
vn 1 0 4.37114E-08
vn 1 0 4.37114E-08
vn 1 0 4.37114E-08
vn 1 0 4.37114E-08
vn 1 0 4.37114E-08
vn 1 0 4.37114E-08
vn 4.37114E-08 0.000225071 -1
vn 4.37114E-08 0.000225071 -1
vn 4.37114E-08 0.000225071 -1
vn 4.37114E-08 0.000225071 -1
vn 0 1 0.000225071
vn 0 1 0.000225071
vn 0 1 0.000225071
vn 0 1 0.000225071
vn 0 1 0.000225071
vn 0 1 0.000225071
vn 0 1 0.000225071
vn 0 1 0.000225071
vn 0 1 0.000225071
vn 0 1 0.000225071
vn 0 1 0.000225071
vn 0 1 0.000225071
vn 0 1 0.000225071
vn 0 1 0.000225071
vn 0 1 0.000225071
vn 0 1 0.000225071
vn 0 1 0.000225071
vn 0 1 0.000225071
vn 0 1 0.000225071
vn 0 1 0.000225071
vn 0 1 0.000225071
vn 0 1 0.000225071
vn 0 1 0.000225071
vn 1 0 4.37114E-08
vn 1 0 4.37114E-08
vn 1 0 4.37114E-08
vn 1 0 4.37114E-08
vn 1 0 4.37114E-08
vn 1 0 4.37114E-08
vn 1 0 4.37114E-08
vn 1 0 4.37114E-08
vn 0 -1 -0.000225071
vn 0 -1 -0.000225071
vn 0 -1 -0.000225071
vn 0 -1 -0.000225071
vn 0 -1 -0.000225071
vn 0 -1 -0.000225071
vn 0 -1 -0.000225071
vn 0 -1 -0.000225071
vn 0 -1 -0.000225071
vn 0 -1 -0.000225071
vn 0 -1 -0.000225071
vn 0 -1 -0.000225071
vn 0 -1 -0.000225071
vn 0 -1 -0.000225071
vn 0 -1 -0.000225071
vn 0 -1 -0.000225071
vn 0 -1 -0.000225071
vn 0 -1 -0.000225071
vn 0 -1 -0.000225071
vn 0 -1 -0.000225071
vn 0 -1 -0.000225071
vn 0 -1 -0.000225071
vn 0 -1 -0.000225071
vn 1 0 4.37114E-08
vn 1 0 4.37114E-08
vn 1 0 4.37114E-08
vn 1 0 4.37114E-08
vn 1 0 4.37114E-08
vn 1 0 4.37114E-08
vn -4.37114E-08 -0.000225071 1
vn -4.37114E-08 -0.000225071 1
vn -4.37114E-08 -0.000225071 1
vn -4.37114E-08 -0.000225071 1
vn -4.37114E-08 -0.000225071 1
vn -4.37114E-08 -0.000225071 1
vn -4.37114E-08 -0.000225071 1
vn -4.37114E-08 -0.000225071 1
vn -4.37114E-08 -0.000225071 1
vn -4.37114E-08 -0.000225071 1
vn -4.37114E-08 -0.000225071 1
vn -4.37114E-08 -0.000225071 1
vn -4.37114E-08 -0.000225071 1
vn -4.37114E-08 -0.000225071 1
vn -4.37114E-08 -0.000225071 1
vn -4.37114E-08 -0.000225071 1


f 1/1/1 3/3/3 2/2/2
f 1/1/1 2/2/2 4/4/4
f 5/5/5 1/1/1 4/4/4
f 5/5/5 4/4/4 6/6/6
f 7/7/7 9/9/9 8/8/8
f 7/7/7 8/8/8 10/10/10
f 11/11/11 13/13/13 12/12/12
f 13/13/13 11/11/11 14/14/14
f 11/11/11 15/15/15 14/14/14
f 11/11/11 16/16/16 15/15/15
f 16/16/16 17/17/17 15/15/15
f 16/16/16 18/18/18 17/17/17
f 15/15/15 17/17/17 19/19/19
f 15/15/15 19/19/19 20/20/20
f 15/15/15 20/20/20 21/21/21
f 22/22/22 15/15/15 21/21/21
f 16/16/16 23/23/23 18/18/18
f 16/16/16 24/24/24 23/23/23
f 24/24/24 16/16/16 25/25/25
f 16/16/16 26/26/26 25/25/25
f 16/16/16 27/27/27 26/26/26
f 27/27/27 28/28/28 26/26/26
f 27/27/27 29/29/29 28/28/28
f 27/27/27 30/30/30 29/29/29
f 31/31/31 30/30/30 27/27/27
f 31/31/31 27/27/27 32/32/32
f 33/33/33 31/31/31 32/32/32
f 34/34/34 36/36/36 35/35/35
f 34/34/34 35/35/35 37/37/37
f 38/38/38 34/34/34 37/37/37
f 38/38/38 37/37/37 39/39/39
f 40/40/40 38/38/38 39/39/39
f 40/40/40 39/39/39 41/41/41
f 42/42/42 44/44/44 43/43/43
f 42/42/42 43/43/43 45/45/45
f 46/46/46 42/42/42 45/45/45
f 46/46/46 45/45/45 47/47/47
f 48/48/48 46/46/46 47/47/47
f 49/49/49 46/46/46 48/48/48
f 48/48/48 47/47/47 50/50/50
f 50/50/50 47/47/47 51/51/51
f 47/47/47 52/52/52 51/51/51
f 47/47/47 53/53/53 52/52/52
f 49/49/49 54/54/54 46/46/46
f 46/46/46 54/54/54 55/55/55
f 46/46/46 55/55/55 56/56/56
f 57/57/57 46/46/46 56/56/56
f 57/57/57 56/56/56 58/58/58
f 59/59/59 57/57/57 58/58/58
f 57/57/57 59/59/59 60/60/60
f 57/57/57 60/60/60 61/61/61
f 62/62/62 57/57/57 61/61/61
f 62/62/62 61/61/61 63/63/63
f 64/64/64 62/62/62 63/63/63
f 65/65/65 67/67/67 66/66/66
f 65/65/65 66/66/66 68/68/68
f 69/69/69 65/65/65 68/68/68
f 69/69/69 68/68/68 70/70/70
f 71/71/71 73/73/73 72/72/72
f 74/74/74 71/71/71 72/72/72
f 71/71/71 75/75/75 73/73/73
f 75/75/75 76/76/76 73/73/73
f 75/75/75 77/77/77 76/76/76
f 77/77/77 74/74/74 76/76/76
f 77/77/77 78/78/78 74/74/74
f 78/78/78 71/71/71 74/74/74
f 78/78/78 79/79/79 71/71/71
f 79/79/79 78/78/78 80/80/80
f 81/81/81 79/79/79 80/80/80
f 82/82/82 81/81/81 80/80/80
f 81/81/81 83/83/83 79/79/79
f 82/82/82 80/80/80 84/84/84
f 83/83/83 85/85/85 79/79/79
f 86/86/86 82/82/82 84/84/84
f 83/83/83 86/86/86 85/85/85
f 86/86/86 84/84/84 85/85/85
