v 0.078479 0.042483 -0.02934
v 0.070599 0.042483 -0.02934
v 0.070599 0.044093 -0.02934
v 0.070599 0.045373 -0.02934
v 0.070599 0.046593 -0.02934
v 0.069699 0.044093 -0.02934
v 0.069699 0.045373 -0.02934
v 0.070599 0.047873 -0.02934
v 0.069699 0.046593 -0.02934
v 0.069699 0.047873 -0.02934
v 0.070599 0.048593 -0.02934
v 0.070599 0.049873 -0.02934
v 0.069699 0.048593 -0.02934
v 0.069699 0.049873 -0.02934
v 0.070599 0.051093 -0.02934
v 0.070599 0.052373 -0.02934
v 0.069699 0.051093 -0.02934
v 0.069699 0.052373 -0.02934
v 0.070599 0.053983 -0.02934
v 0.078479 0.053983 -0.02934
v 0.078479 0.042483 -0.03118
v 0.070599 0.053983 -0.03118
v 0.070599 0.042483 -0.03118
v 0.078479 0.053983 -0.03118
v 0.078479 0.053983 -0.02934
v 0.078729 0.053983 -0.031055
v 0.078729 0.053983 -0.029465
v 0.078479 0.053983 -0.03118
v 0.070599 0.053983 -0.02934
v 0.070599 0.053983 -0.03118
v 0.078979 0.042733 -0.02959
v 0.078979 0.053733 -0.03093
v 0.078979 0.042733 -0.03093
v 0.078979 0.053733 -0.02959
v 0.078979 0.042733 -0.03093
v 0.078729 0.042483 -0.029465
v 0.078979 0.042733 -0.02959
v 0.078729 0.042483 -0.031055
v 0.078729 0.042483 -0.029465
v 0.078479 0.042483 -0.02934
v 0.078479 0.053983 -0.02934
v 0.078729 0.053983 -0.029465
v 0.078979 0.053733 -0.02959
v 0.078979 0.042733 -0.02959
v 0.078979 0.053733 -0.02959
v 0.078729 0.053983 -0.031055
v 0.078979 0.053733 -0.03093
v 0.078729 0.053983 -0.029465
vn 0 0 1
vn 0 0 1
vn 0 0 1
vn 0 0 1
vn 0 0 1
vn 0 0 1
vn 0 0 1
vn 0 0 1
vn 0 0 1
vn 0 0 1
vn 0 0 1
vn 0 0 1
vn 0 0 1
vn 0 0 1
vn 0 0 1
vn 0 0 1
vn 0 0 1
vn 0 0 1
vn 0 0 1
vn 0 0 1
vn 0 0 -1
vn 0 0 -1
vn 0 0 -1
vn 0 0 -1
vn 0 1 0
vn 0 1 0
vn 0 1 0
vn 0 1 0
vn 0 1 0
vn 0 1 0
vn 1 0 0
vn 1 0 0
vn 1 0 0
vn 1 0 0
vn 0.707107 -0.707107 0
vn 0.707107 -0.707107 0
vn 0.707107 -0.707107 0
vn 0.707107 -0.707107 0
vn 0.447214 0 0.894427
vn 0.447214 0 0.894427
vn 0.447214 0 0.894427
vn 0.447214 0 0.894427
vn 0.447214 0 0.894427
vn 0.447214 0 0.894427
vn 0.707107 0.707107 0
vn 0.707107 0.707107 0
vn 0.707107 0.707107 0
vn 0.707107 0.707107 0


f 1/1/1 3/3/3 2/2/2
f 4/4/4 3/3/3 1/1/1
f 5/5/5 4/4/4 1/1/1
f 4/4/4 6/6/6 3/3/3
f 6/6/6 4/4/4 7/7/7
f 5/5/5 1/1/1 8/8/8
f 9/9/9 5/5/5 8/8/8
f 9/9/9 8/8/8 10/10/10
f 1/1/1 11/11/11 8/8/8
f 12/12/12 11/11/11 1/1/1
f 12/12/12 13/13/13 11/11/11
f 13/13/13 12/12/12 14/14/14
f 15/15/15 12/12/12 1/1/1
f 15/15/15 1/1/1 16/16/16
f 17/17/17 15/15/15 16/16/16
f 17/17/17 16/16/16 18/18/18
f 1/1/1 19/19/19 16/16/16
f 1/1/1 20/20/20 19/19/19
f 21/21/21 23/23/23 22/22/22
f 21/21/21 22/22/22 24/24/24
f 25/25/25 27/27/27 26/26/26
f 25/25/25 26/26/26 28/28/28
f 29/29/29 25/25/25 28/28/28
f 29/29/29 28/28/28 30/30/30
f 31/31/31 33/33/33 32/32/32
f 31/31/31 32/32/32 34/34/34
f 35/35/35 37/37/37 36/36/36
f 35/35/35 36/36/36 38/38/38
f 39/39/39 41/41/41 40/40/40
f 41/41/41 39/39/39 42/42/42
f 39/39/39 43/43/43 42/42/42
f 39/39/39 44/44/44 43/43/43
f 45/45/45 47/47/47 46/46/46
f 45/45/45 46/46/46 48/48/48
