v 0.0810819 -0.0551847 -0.0215886
v 0.075999 -0.0551845 -0.0222236
v 0.075999 -0.0551847 -0.0215886
v 0.0810819 -0.0551845 -0.0222236
v 0.0810819 -0.0545495 -0.0222235
v 0.075999 -0.0545497 -0.0215885
v 0.075999 -0.0545495 -0.0222235
v 0.0810819 -0.0545497 -0.0215885
v 0.0810819 -0.0545497 -0.0215885
v 0.081649 -0.0546495 -0.0221235
v 0.081649 -0.0546496 -0.0216885
v 0.0810819 -0.0545495 -0.0222235
v 0.081649 -0.0550845 -0.0221236
v 0.0810819 -0.0545495 -0.0222235
v 0.0810819 -0.0551845 -0.0222236
v 0.081649 -0.0546495 -0.0221235
v 0.081649 -0.0550846 -0.0216886
v 0.081649 -0.0546495 -0.0221235
v 0.081649 -0.0550845 -0.0221236
v 0.081649 -0.0546496 -0.0216885
v 0.081649 -0.0546496 -0.0216885
v 0.0810819 -0.0551847 -0.0215886
v 0.0810819 -0.0545497 -0.0215885
v 0.081649 -0.0550846 -0.0216886
v 0.0810819 -0.0545497 -0.0215885
v 0.075999 -0.0551847 -0.0215886
v 0.075999 -0.0545497 -0.0215885
v 0.0810819 -0.0551847 -0.0215886
vn 0 -1 -0.000224984
vn 0 -1 -0.000224984
vn 0 -1 -0.000224984
vn 0 -1 -0.000224984
vn 0 1 0.000224984
vn 0 1 0.000224984
vn 0 1 0.000224984
vn 0 1 0.000224984
vn 0.173648 0.984808 0.000221558
vn 0.173648 0.984808 0.000221558
vn 0.173648 0.984808 0.000221558
vn 0.173648 0.984808 0.000221558
vn 0.173648 0.000221566 -0.984808
vn 0.173648 0.000221566 -0.984808
vn 0.173648 0.000221566 -0.984808
vn 0.173648 0.000221566 -0.984808
vn 1 0 -4.37114E-08
vn 1 0 -4.37114E-08
vn 1 0 -4.37114E-08
vn 1 0 -4.37114E-08
vn 0.173648 -0.000221566 0.984808
vn 0.173648 -0.000221566 0.984808
vn 0.173648 -0.000221566 0.984808
vn 0.173648 -0.000221566 0.984808
vn 4.37114E-08 -0.000224984 1
vn 4.37114E-08 -0.000224984 1
vn 4.37114E-08 -0.000224984 1
vn 4.37114E-08 -0.000224984 1


f 1/1/1 3/3/3 2/2/2
f 1/1/1 2/2/2 4/4/4
f 5/5/5 7/7/7 6/6/6
f 5/5/5 6/6/6 8/8/8
f 9/9/9 11/11/11 10/10/10
f 9/9/9 10/10/10 12/12/12
f 13/13/13 15/15/15 14/14/14
f 13/13/13 14/14/14 16/16/16
f 17/17/17 19/19/19 18/18/18
f 17/17/17 18/18/18 20/20/20
f 21/21/21 23/23/23 22/22/22
f 21/21/21 22/22/22 24/24/24
f 25/25/25 27/27/27 26/26/26
f 25/25/25 26/26/26 28/28/28
