v 0.072799 -0.0205877 -0.0278739
v 0.075299 -0.0210877 -0.027874
v 0.075299 -0.0205877 -0.0278739
v 0.072799 -0.0210877 -0.027874
v 0.072299 -0.0206759 -0.0274621
v 0.072799 -0.0210878 -0.027374
v 0.072299 -0.0209996 -0.0274621
v 0.072799 -0.0205878 -0.0273739
v 0.072799 -0.0210878 -0.027374
v 0.075299 -0.0205878 -0.0273739
v 0.075299 -0.0210878 -0.027374
v 0.072799 -0.0205878 -0.0273739
v 0.072799 -0.0205878 -0.0273739
v 0.075299 -0.0205877 -0.0278739
v 0.075299 -0.0205878 -0.0273739
v 0.072799 -0.0205877 -0.0278739
vn 4.37114E-08 0.000225071 -1
vn 4.37114E-08 0.000225071 -1
vn 4.37114E-08 0.000225071 -1
vn 4.37114E-08 0.000225071 -1
vn -0.173648 -0.000221652 0.984808
vn -0.173648 -0.000221652 0.984808
vn -0.173648 -0.000221652 0.984808
vn -0.173648 -0.000221652 0.984808
vn -4.37114E-08 -0.000225071 1
vn -4.37114E-08 -0.000225071 1
vn -4.37114E-08 -0.000225071 1
vn -4.37114E-08 -0.000225071 1
vn 0 1 0.000225071
vn 0 1 0.000225071
vn 0 1 0.000225071
vn 0 1 0.000225071


f 1/1/1 3/3/3 2/2/2
f 1/1/1 2/2/2 4/4/4
f 5/5/5 7/7/7 6/6/6
f 5/5/5 6/6/6 8/8/8
f 9/9/9 11/11/11 10/10/10
f 9/9/9 10/10/10 12/12/12
f 13/13/13 15/15/15 14/14/14
f 13/13/13 14/14/14 16/16/16
