v 0.078299 -0.0470773 -0.0299596
v 0.078299 -0.0470771 -0.0307596
v 0.0783155 -0.0472022 -0.0307596
v 0.0783155 -0.0472024 -0.0299596
v 0.0783637 -0.0473188 -0.0307597
v 0.0783637 -0.0473189 -0.0299597
v 0.0784406 -0.0474189 -0.0307597
v 0.0784406 -0.047419 -0.0299597
v 0.0784406 -0.047419 -0.0299597
v 0.0784406 -0.0474189 -0.0307597
v 0.0785406 -0.0474957 -0.0307597
v 0.0785406 -0.0474958 -0.0299597
v 0.0786572 -0.0475439 -0.0307597
v 0.0786572 -0.0475441 -0.0299597
v 0.0787823 -0.0475604 -0.0307597
v 0.0787823 -0.0475606 -0.0299597
v 0.0816809 -0.0475606 -0.0299597
v 0.0816809 -0.0475604 -0.0307597
v 0.0783155 -0.0440588 -0.0299589
v 0.078299 -0.0441837 -0.030759
v 0.078299 -0.0441839 -0.029959
v 0.0783155 -0.0440586 -0.0307589
v 0.0783637 -0.0439422 -0.0299589
v 0.0783637 -0.0439421 -0.0307589
v 0.0784406 -0.0438421 -0.0299589
v 0.0784406 -0.043842 -0.0307589
v 0.0785406 -0.0437653 -0.0299589
v 0.0785406 -0.0437652 -0.0307589
v 0.0786572 -0.0437171 -0.0299589
v 0.0786572 -0.0437169 -0.0307589
v 0.0787823 -0.0437006 -0.0299589
v 0.0787823 -0.0437004 -0.0307589
v 0.0816809 -0.0437004 -0.0307589
v 0.0816809 -0.0437006 -0.0299589
v 0.082299 -0.0418806 -0.0299584
v 0.082299 -0.0437004 -0.0307589
v 0.082299 -0.0437006 -0.0299589
v 0.082299 -0.0418804 -0.0307584
v 0.075299 -0.0418818 -0.0247584
v 0.075399 -0.0434418 -0.0247588
v 0.075299 -0.0433418 -0.0247588
v 0.076299 -0.0434418 -0.0247588
v 0.082299 -0.0418818 -0.0247584
v 0.076299 -0.0452318 -0.0247592
v 0.076299 -0.0460318 -0.0247594
v 0.082299 -0.0493818 -0.0247601
v 0.075399 -0.0460318 -0.0247594
v 0.075399 -0.0452318 -0.0247592
v 0.075299 -0.0459318 -0.0247594
v 0.075299 -0.0453318 -0.0247592
v 0.076299 -0.0478218 -0.0247598
v 0.075299 -0.0493818 -0.0247601
v 0.075299 -0.0479218 -0.0247598
v 0.075399 -0.0478218 -0.0247598
v 0.0819755 -0.0473134 -0.0299597
v 0.082299 -0.0475604 -0.0307597
v 0.082299 -0.0475606 -0.0299597
v 0.0819755 -0.0473132 -0.0307597
v 0.082299 -0.0475606 -0.0299597
v 0.082299 -0.0493804 -0.0307601
v 0.082299 -0.0493806 -0.0299601
v 0.082299 -0.0475604 -0.0307597
v 0.078859 -0.0493808 -0.0289601
v 0.082299 -0.0493818 -0.0247601
v 0.082299 -0.0493808 -0.0289601
v 0.075299 -0.0493818 -0.0247601
v 0.078859 -0.0493807 -0.0296256
v 0.075299 -0.0493804 -0.0307601
v 0.0788704 -0.0493806 -0.0297122
v 0.0789038 -0.0493806 -0.0297929
v 0.078957 -0.0493806 -0.0298622
v 0.0790263 -0.0493806 -0.0299153
v 0.0791069 -0.0493806 -0.0299487
v 0.0791935 -0.0493806 -0.0299601
v 0.082299 -0.0493804 -0.0307601
v 0.082299 -0.0493806 -0.0299601
v 0.081899 -0.0426808 -0.0289586
v 0.082299 -0.0422817 -0.0251585
v 0.082299 -0.0422808 -0.0289585
v 0.081899 -0.0426816 -0.0255586
v 0.081899 -0.0485816 -0.02556
v 0.082299 -0.0422817 -0.0251585
v 0.081899 -0.0426816 -0.0255586
v 0.082299 -0.0489817 -0.02516
v 0.082299 -0.0489808 -0.02896
v 0.081899 -0.0485816 -0.02556
v 0.081899 -0.0485808 -0.02896
v 0.082299 -0.0489817 -0.02516
v 0.078859 -0.0493808 -0.0289601
v 0.081899 -0.0485808 -0.02896
v 0.078859 -0.0485808 -0.02896
v 0.082299 -0.0489808 -0.02896
v 0.082299 -0.0493808 -0.0289601
v 0.082299 -0.0422817 -0.0251585
v 0.082299 -0.0418808 -0.0289584
v 0.082299 -0.0422808 -0.0289585
v 0.082299 -0.0418818 -0.0247584
v 0.082299 -0.0489817 -0.02516
v 0.082299 -0.0493818 -0.0247601
v 0.082299 -0.0489808 -0.02896
v 0.082299 -0.0493808 -0.0289601
v 0.081899 -0.0426808 -0.0289586
v 0.078859 -0.0418808 -0.0289584
v 0.078859 -0.0426808 -0.0289586
v 0.082299 -0.0418808 -0.0289584
v 0.082299 -0.0422808 -0.0289585
v 0.0791069 -0.0426806 -0.0299472
v 0.0791935 -0.0426806 -0.0299586
v 0.077299 -0.0426806 -0.0299586
v 0.0790263 -0.0426806 -0.0299138
v 0.078957 -0.0426806 -0.0298606
v 0.0789038 -0.0426806 -0.0297914
v 0.0788704 -0.0426806 -0.0297107
v 0.078859 -0.0426807 -0.0296241
v 0.077299 -0.0426816 -0.0255586
v 0.078859 -0.0426808 -0.0289586
v 0.081899 -0.0426816 -0.0255586
v 0.081899 -0.0426808 -0.0289586
v 0.078859 -0.0426807 -0.0296241
v 0.078859 -0.0418807 -0.0296239
v 0.0788704 -0.0418806 -0.0297105
v 0.0788704 -0.0426806 -0.0297107
v 0.0789038 -0.0418806 -0.0297912
v 0.0789038 -0.0426806 -0.0297914
v 0.078957 -0.0418806 -0.0298605
v 0.078957 -0.0426806 -0.0298606
v 0.0790263 -0.0418806 -0.0299136
v 0.0790263 -0.0426806 -0.0299138
v 0.0791069 -0.0418806 -0.029947
v 0.0791069 -0.0426806 -0.0299472
v 0.0791935 -0.0418806 -0.0299584
v 0.0791935 -0.0426806 -0.0299586
v 0.082299 -0.0437006 -0.0299589
v 0.0816898 -0.0437016 -0.0299589
v 0.082299 -0.0418806 -0.0299584
v 0.0816983 -0.0437046 -0.0299589
v 0.0817058 -0.0437094 -0.0299589
v 0.081712 -0.0437158 -0.0299589
v 0.0791935 -0.0426806 -0.0299586
v 0.0816809 -0.0437006 -0.0299589
v 0.0787823 -0.0437006 -0.0299589
v 0.0819755 -0.0439478 -0.0299589
v 0.0818825 -0.0439357 -0.0299589
v 0.0818948 -0.0439478 -0.0299589
v 0.0819605 -0.0439564 -0.0299589
v 0.0819098 -0.0439564 -0.0299589
v 0.0819438 -0.0439609 -0.0299589
v 0.0819265 -0.0439609 -0.0299589
v 0.0786572 -0.0437171 -0.0299589
v 0.0785406 -0.0437653 -0.0299589
v 0.0784406 -0.0438421 -0.0299589
v 0.0783637 -0.0439422 -0.0299589
v 0.077299 -0.0426806 -0.0299586
v 0.0783155 -0.0440588 -0.0299589
v 0.078299 -0.0441839 -0.029959
v 0.078299 -0.0470773 -0.0299596
v 0.077299 -0.0485806 -0.02996
v 0.0783155 -0.0472024 -0.0299596
v 0.0783637 -0.0473189 -0.0299597
v 0.0784406 -0.047419 -0.0299597
v 0.0785406 -0.0474958 -0.0299597
v 0.0786572 -0.0475441 -0.0299597
v 0.0787823 -0.0475606 -0.0299597
v 0.0816809 -0.0475606 -0.0299597
v 0.077299 -0.0485806 -0.02996
v 0.0816898 -0.0475596 -0.0299597
v 0.0791935 -0.0485806 -0.02996
v 0.0791935 -0.0485806 -0.02996
v 0.0816983 -0.0475566 -0.0299597
v 0.0791935 -0.0493806 -0.0299601
v 0.082299 -0.0493806 -0.0299601
v 0.0817058 -0.0475517 -0.0299597
v 0.081712 -0.0475453 -0.0299597
v 0.082299 -0.0475606 -0.0299597
v 0.0819755 -0.0473134 -0.0299597
v 0.0818825 -0.0473255 -0.0299597
v 0.0818948 -0.0473134 -0.0299597
v 0.0819605 -0.0473048 -0.0299597
v 0.0819098 -0.0473048 -0.0299597
v 0.0819438 -0.0473003 -0.0299597
v 0.0819265 -0.0473003 -0.0299597
v 0.075299 -0.0418818 -0.0247584
v 0.082299 -0.0418808 -0.0289584
v 0.082299 -0.0418818 -0.0247584
v 0.078859 -0.0418808 -0.0289584
v 0.075299 -0.0418804 -0.0307584
v 0.078859 -0.0418807 -0.0296239
v 0.0788704 -0.0418806 -0.0297105
v 0.0789038 -0.0418806 -0.0297912
v 0.078957 -0.0418806 -0.0298605
v 0.0790263 -0.0418806 -0.0299136
v 0.0791069 -0.0418806 -0.029947
v 0.0791935 -0.0418806 -0.0299584
v 0.082299 -0.0418804 -0.0307584
v 0.082299 -0.0418806 -0.0299584
v 0.075299 -0.0493804 -0.0307601
v 0.075399 -0.0478204 -0.0307598
v 0.075299 -0.0479204 -0.0307598
v 0.076299 -0.0478204 -0.0307598
v 0.082299 -0.0493804 -0.0307601
v 0.0786572 -0.0475439 -0.0307597
v 0.0787823 -0.0475604 -0.0307597
v 0.0785406 -0.0474957 -0.0307597
v 0.0816809 -0.0475604 -0.0307597
v 0.0816898 -0.0475594 -0.0307597
v 0.0816983 -0.0475564 -0.0307597
v 0.082299 -0.0475604 -0.0307597
v 0.0784406 -0.0474189 -0.0307597
v 0.0817058 -0.0475516 -0.0307597
v 0.0819755 -0.0473132 -0.0307597
v 0.0819605 -0.0473046 -0.0307597
v 0.0783637 -0.0473188 -0.0307597
v 0.0783155 -0.0472022 -0.0307596
v 0.078299 -0.0470771 -0.0307596
v 0.081712 -0.0475452 -0.0307597
v 0.0819605 -0.0473046 -0.0307597
v 0.0819438 -0.0473002 -0.0307597
v 0.0819265 -0.0473001 -0.0307597
v 0.0819098 -0.0473046 -0.0307597
v 0.0818948 -0.0473132 -0.0307597
v 0.0818825 -0.0473254 -0.0307597
v 0.076299 -0.0460304 -0.0307594
v 0.076299 -0.0452304 -0.0307592
v 0.078299 -0.0441837 -0.030759
v 0.076299 -0.0434404 -0.0307588
v 0.0783155 -0.0440586 -0.0307589
v 0.0783637 -0.0439421 -0.0307589
v 0.075399 -0.0452304 -0.0307592
v 0.075399 -0.0460304 -0.0307594
v 0.075299 -0.0453304 -0.0307592
v 0.075299 -0.0459304 -0.0307594
v 0.0784406 -0.043842 -0.0307589
v 0.0785406 -0.0437652 -0.0307589
v 0.0786572 -0.0437169 -0.0307589
v 0.082299 -0.0418804 -0.0307584
v 0.0787823 -0.0437004 -0.0307589
v 0.0816809 -0.0437004 -0.0307589
v 0.0816898 -0.0437014 -0.0307589
v 0.0816983 -0.0437044 -0.0307589
v 0.0817058 -0.0437093 -0.0307589
v 0.081712 -0.0437157 -0.0307589
v 0.075299 -0.0418804 -0.0307584
v 0.075299 -0.0433404 -0.0307588
v 0.075399 -0.0434404 -0.0307588
v 0.082299 -0.0437004 -0.0307589
v 0.0819755 -0.0439476 -0.0307589
v 0.0818825 -0.0439355 -0.0307589
v 0.0818948 -0.0439476 -0.0307589
v 0.0819605 -0.0439562 -0.0307589
v 0.0819438 -0.0439607 -0.0307589
v 0.0819265 -0.0439607 -0.0307589
v 0.0819098 -0.0439562 -0.0307589
v 0.077299 -0.0485816 -0.02556
v 0.081899 -0.0485808 -0.02896
v 0.081899 -0.0485816 -0.02556
v 0.078859 -0.0485808 -0.02896
v 0.077299 -0.0485806 -0.02996
v 0.078859 -0.0485807 -0.0296254
v 0.0788704 -0.0485807 -0.029712
v 0.0789038 -0.0485806 -0.0297927
v 0.078957 -0.0485806 -0.029862
v 0.0790263 -0.0485806 -0.0299151
v 0.0791069 -0.0485806 -0.0299486
v 0.0791935 -0.0485806 -0.02996
v 0.077299 -0.0426816 -0.0255586
v 0.081899 -0.0485816 -0.02556
v 0.081899 -0.0426816 -0.0255586
v 0.077299 -0.0485816 -0.02556
v 0.077299 -0.0426806 -0.0299586
v 0.077299 -0.0440409 -0.0286189
v 0.077299 -0.044041 -0.0279789
v 0.077299 -0.0446809 -0.0286191
v 0.077299 -0.0426816 -0.0255586
v 0.077299 -0.044681 -0.0279791
v 0.077299 -0.0485816 -0.02556
v 0.077299 -0.0465809 -0.0286195
v 0.077299 -0.0485806 -0.02996
v 0.077299 -0.0472209 -0.0286196
v 0.077299 -0.047221 -0.0279796
v 0.077299 -0.046581 -0.0279795
vn 1 0 0
vn 1 0 0
vn 0.965926 0.258819 5.82301E-05
vn 0.965926 0.258819 5.82301E-05
vn 0.866025 0.5 0.000112492
vn 0.866025 0.5 0.000112492
vn 0.707107 0.707107 0.000159088
vn 0.707107 0.707107 0.000159088
vn 0.707107 0.707107 0.000159088
vn 0.707107 0.707107 0.000159088
vn 0.5 0.866025 0.000194842
vn 0.5 0.866025 0.000194842
vn 0.258819 0.965926 0.000217318
vn 0.258819 0.965926 0.000217318
vn 0 1 0.000224984
vn 0 1 0.000224984
vn 0 1 0.000224984
vn 0 1 0.000224984
vn 0.965926 -0.258819 -5.82301E-05
vn 1 0 0
vn 1 0 0
vn 0.965926 -0.258819 -5.82301E-05
vn 0.866025 -0.5 -0.000112492
vn 0.866025 -0.5 -0.000112492
vn 0.707107 -0.707107 -0.000159088
vn 0.707107 -0.707107 -0.000159088
vn 0.5 -0.866025 -0.000194842
vn 0.5 -0.866025 -0.000194842
vn 0.258819 -0.965926 -0.000217318
vn 0.258819 -0.965926 -0.000217318
vn 0 -1 -0.000224984
vn 0 -1 -0.000224984
vn 0 -1 -0.000224984
vn 0 -1 -0.000224984
vn 1 0 0
vn 1 0 0
vn 1 0 0
vn 1 0 0
vn 0 -0.000224984 1
vn 0 -0.000224984 1
vn 0 -0.000224984 1
vn 0 -0.000224984 1
vn 0 -0.000224984 1
vn 0 -0.000224984 1
vn 0 -0.000224984 1
vn 0 -0.000224984 1
vn 0 -0.000224984 1
vn 0 -0.000224984 1
vn 0 -0.000224984 1
vn 0 -0.000224984 1
vn 0 -0.000224984 1
vn 0 -0.000224984 1
vn 0 -0.000224984 1
vn 0 -0.000224984 1
vn 0.607072 0.794647 0.000178783
vn 0.607072 0.794647 0.000178783
vn 0.607072 0.794647 0.000178783
vn 0.607072 0.794647 0.000178783
vn 1 0 0
vn 1 0 0
vn 1 0 0
vn 1 0 0
vn 0 -1 -0.000224984
vn 0 -1 -0.000224984
vn 0 -1 -0.000224984
vn 0 -1 -0.000224984
vn 0 -1 -0.000224984
vn 0 -1 -0.000224984
vn 0 -1 -0.000224984
vn 0 -1 -0.000224984
vn 0 -1 -0.000224984
vn 0 -1 -0.000224984
vn 0 -1 -0.000224984
vn 0 -1 -0.000224984
vn 0 -1 -0.000224984
vn 0 -1 -0.000224984
vn 0.707107 -0.707107 -0.000159088
vn 0.707107 -0.707107 -0.000159088
vn 0.707107 -0.707107 -0.000159088
vn 0.707107 -0.707107 -0.000159088
vn 0.707107 0.000159088 -0.707107
vn 0.707107 0.000159088 -0.707107
vn 0.707107 0.000159088 -0.707107
vn 0.707107 0.000159088 -0.707107
vn 0.707107 0.707107 0.000159088
vn 0.707107 0.707107 0.000159088
vn 0.707107 0.707107 0.000159088
vn 0.707107 0.707107 0.000159088
vn 0 0.000224984 -1
vn 0 0.000224984 -1
vn 0 0.000224984 -1
vn 0 0.000224984 -1
vn 0 0.000224984 -1
vn 1 0 0
vn 1 0 0
vn 1 0 0
vn 1 0 0
vn 1 0 0
vn 1 0 0
vn 1 0 0
vn 1 0 0
vn 0 0.000224984 -1
vn 0 0.000224984 -1
vn 0 0.000224984 -1
vn 0 0.000224984 -1
vn 0 0.000224984 -1
vn 0 -1 -0.000224984
vn 0 -1 -0.000224984
vn 0 -1 -0.000224984
vn 0 -1 -0.000224984
vn 0 -1 -0.000224984
vn 0 -1 -0.000224984
vn 0 -1 -0.000224984
vn 0 -1 -0.000224984
vn 0 -1 -0.000224984
vn 0 -1 -0.000224984
vn 0 -1 -0.000224984
vn 0 -1 -0.000224984
vn 1 0 0
vn 1 0 0
vn 0.965926 -5.82301E-05 0.258819
vn 0.965926 -5.82301E-05 0.258819
vn 0.866025 -0.000112492 0.5
vn 0.866025 -0.000112492 0.5
vn 0.707107 -0.000159088 0.707107
vn 0.707107 -0.000159088 0.707107
vn 0.5 -0.000194842 0.866025
vn 0.5 -0.000194842 0.866025
vn 0.258819 -0.000217318 0.965926
vn 0.258819 -0.000217318 0.965926
vn 0 -0.000224984 1
vn 0 -0.000224984 1
vn 0 -0.000224984 1
vn 0 -0.000224984 1
vn 0 -0.000224984 1
vn 0 -0.000224984 1
vn 0 -0.000224984 1
vn 0 -0.000224984 1
vn 0 -0.000224984 1
vn 0 -0.000224984 1
vn 0 -0.000224984 1
vn 0 -0.000224984 1
vn 0 -0.000224984 1
vn 0 -0.000224984 1
vn 0 -0.000224984 1
vn 0 -0.000224984 1
vn 0 -0.000224984 1
vn 0 -0.000224984 1
vn 0 -0.000224984 1
vn 0 -0.000224984 1
vn 0 -0.000224984 1
vn 0 -0.000224984 1
vn 0 -0.000224984 1
vn 0 -0.000224984 1
vn 0 -0.000224984 1
vn 0 -0.000224984 1
vn 0 -0.000224984 1
vn 0 -0.000224984 1
vn 0 -0.000224984 1
vn 0 -0.000224984 1
vn 0 -0.000224984 1
vn 0 -0.000224984 1
vn 0 -0.000224984 1
vn 0 -0.000224984 1
vn 0 -0.000224984 1
vn 0 -0.000224984 1
vn 0 -0.000224984 1
vn 0 -0.000224984 1
vn 0 -0.000224984 1
vn 0 -0.000224984 1
vn 0 -0.000224984 1
vn 0 -0.000224984 1
vn 0 -0.000224984 1
vn 0 -0.000224984 1
vn 0 -0.000224984 1
vn 0 -0.000224984 1
vn 0 -0.000224984 1
vn 0 -0.000224984 1
vn 0 -0.000224984 1
vn 0 -0.000224984 1
vn 0 -0.000224984 1
vn 0 1 0.000224984
vn 0 1 0.000224984
vn 0 1 0.000224984
vn 0 1 0.000224984
vn 0 1 0.000224984
vn 0 1 0.000224984
vn 0 1 0.000224984
vn 0 1 0.000224984
vn 0 1 0.000224984
vn 0 1 0.000224984
vn 0 1 0.000224984
vn 0 1 0.000224984
vn 0 1 0.000224984
vn 0 1 0.000224984
vn 0 0.000224984 -1
vn 0 0.000224984 -1
vn 0 0.000224984 -1
vn 0 0.000224984 -1
vn 0 0.000224984 -1
vn 0 0.000224984 -1
vn 0 0.000224984 -1
vn 0 0.000224984 -1
vn 0 0.000224984 -1
vn 0 0.000224984 -1
vn 0 0.000224984 -1
vn 0 0.000224984 -1
vn 0 0.000224984 -1
vn 0 0.000224984 -1
vn 0 0.000224984 -1
vn 0 0.000224984 -1
vn 0 0.000224984 -1
vn 0 0.000224984 -1
vn 0 0.000224984 -1
vn 0 0.000224984 -1
vn 0 0.000224984 -1
vn 0 0.000224984 -1
vn 0 0.000224984 -1
vn 0 0.000224984 -1
vn 0 0.000224984 -1
vn 0 0.000224984 -1
vn 0 0.000224984 -1
vn 0 0.000224984 -1
vn 0 0.000224984 -1
vn 0 0.000224984 -1
vn 0 0.000224984 -1
vn 0 0.000224984 -1
vn 0 0.000224984 -1
vn 0 0.000224984 -1
vn 0 0.000224984 -1
vn 0 0.000224984 -1
vn 0 0.000224984 -1
vn 0 0.000224984 -1
vn 0 0.000224984 -1
vn 0 0.000224984 -1
vn 0 0.000224984 -1
vn 0 0.000224984 -1
vn 0 0.000224984 -1
vn 0 0.000224984 -1
vn 0 0.000224984 -1
vn 0 0.000224984 -1
vn 0 0.000224984 -1
vn 0 0.000224984 -1
vn 0 0.000224984 -1
vn 0 0.000224984 -1
vn 0 0.000224984 -1
vn 0 0.000224984 -1
vn 0 0.000224984 -1
vn 0 0.000224984 -1
vn 0 0.000224984 -1
vn 0 0.000224984 -1
vn 0 0.000224984 -1
vn 0 1 0.000224984
vn 0 1 0.000224984
vn 0 1 0.000224984
vn 0 1 0.000224984
vn 0 1 0.000224984
vn 0 1 0.000224984
vn 0 1 0.000224984
vn 0 1 0.000224984
vn 0 1 0.000224984
vn 0 1 0.000224984
vn 0 1 0.000224984
vn 0 1 0.000224984
vn 0 0.000224984 -1
vn 0 0.000224984 -1
vn 0 0.000224984 -1
vn 0 0.000224984 -1
vn 1 0 0
vn 1 0 0
vn 1 0 0
vn 1 0 0
vn 1 0 0
vn 1 0 0
vn 1 0 0
vn 1 0 0
vn 1 0 0
vn 1 0 0
vn 1 0 0
vn 1 0 0


f 1/1/1 3/3/3 2/2/2
f 1/1/1 4/4/4 3/3/3
f 4/4/4 5/5/5 3/3/3
f 4/4/4 6/6/6 5/5/5
f 6/6/6 7/7/7 5/5/5
f 6/6/6 8/8/8 7/7/7
f 9/9/9 11/11/11 10/10/10
f 9/9/9 12/12/12 11/11/11
f 12/12/12 13/13/13 11/11/11
f 12/12/12 14/14/14 13/13/13
f 14/14/14 15/15/15 13/13/13
f 14/14/14 16/16/16 15/15/15
f 17/17/17 15/15/15 16/16/16
f 17/17/17 18/18/18 15/15/15
f 19/19/19 21/21/21 20/20/20
f 19/19/19 20/20/20 22/22/22
f 23/23/23 19/19/19 22/22/22
f 23/23/23 22/22/22 24/24/24
f 25/25/25 23/23/23 24/24/24
f 25/25/25 24/24/24 26/26/26
f 27/27/27 25/25/25 26/26/26
f 27/27/27 26/26/26 28/28/28
f 29/29/29 27/27/27 28/28/28
f 29/29/29 28/28/28 30/30/30
f 31/31/31 29/29/29 30/30/30
f 31/31/31 30/30/30 32/32/32
f 31/31/31 32/32/32 33/33/33
f 31/31/31 33/33/33 34/34/34
f 35/35/35 37/37/37 36/36/36
f 35/35/35 36/36/36 38/38/38
f 39/39/39 41/41/41 40/40/40
f 39/39/39 40/40/40 42/42/42
f 43/43/43 39/39/39 42/42/42
f 43/43/43 42/42/42 44/44/44
f 45/45/45 43/43/43 44/44/44
f 45/45/45 46/46/46 43/43/43
f 47/47/47 45/45/45 44/44/44
f 47/47/47 44/44/44 48/48/48
f 49/49/49 47/47/47 48/48/48
f 49/49/49 48/48/48 50/50/50
f 46/46/46 45/45/45 51/51/51
f 46/46/46 51/51/51 52/52/52
f 51/51/51 53/53/53 52/52/52
f 51/51/51 54/54/54 53/53/53
f 55/55/55 57/57/57 56/56/56
f 55/55/55 56/56/56 58/58/58
f 59/59/59 61/61/61 60/60/60
f 59/59/59 60/60/60 62/62/62
f 63/63/63 65/65/65 64/64/64
f 63/63/63 64/64/64 66/66/66
f 67/67/67 63/63/63 66/66/66
f 67/67/67 66/66/66 68/68/68
f 69/69/69 67/67/67 68/68/68
f 69/69/69 68/68/68 70/70/70
f 70/70/70 68/68/68 71/71/71
f 68/68/68 72/72/72 71/71/71
f 68/68/68 73/73/73 72/72/72
f 74/74/74 73/73/73 68/68/68
f 74/74/74 68/68/68 75/75/75
f 76/76/76 74/74/74 75/75/75
f 77/77/77 79/79/79 78/78/78
f 77/77/77 78/78/78 80/80/80
f 81/81/81 83/83/83 82/82/82
f 81/81/81 82/82/82 84/84/84
f 85/85/85 87/87/87 86/86/86
f 85/85/85 86/86/86 88/88/88
f 89/89/89 91/91/91 90/90/90
f 89/89/89 90/90/90 92/92/92
f 93/93/93 89/89/89 92/92/92
f 94/94/94 96/96/96 95/95/95
f 94/94/94 95/95/95 97/97/97
f 98/98/98 94/94/94 97/97/97
f 98/98/98 97/97/97 99/99/99
f 100/100/100 98/98/98 99/99/99
f 100/100/100 99/99/99 101/101/101
f 102/102/102 104/104/104 103/103/103
f 102/102/102 103/103/103 105/105/105
f 106/106/106 102/102/102 105/105/105
f 107/107/107 109/109/109 108/108/108
f 109/109/109 107/107/107 110/110/110
f 109/109/109 110/110/110 111/111/111
f 112/112/112 109/109/109 111/111/111
f 113/113/113 109/109/109 112/112/112
f 113/113/113 114/114/114 109/109/109
f 114/114/114 115/115/115 109/109/109
f 114/114/114 116/116/116 115/115/115
f 116/116/116 117/117/117 115/115/115
f 116/116/116 118/118/118 117/117/117
f 119/119/119 121/121/121 120/120/120
f 119/119/119 122/122/122 121/121/121
f 122/122/122 123/123/123 121/121/121
f 122/122/122 124/124/124 123/123/123
f 124/124/124 125/125/125 123/123/123
f 124/124/124 126/126/126 125/125/125
f 126/126/126 127/127/127 125/125/125
f 126/126/126 128/128/128 127/127/127
f 128/128/128 129/129/129 127/127/127
f 128/128/128 130/130/130 129/129/129
f 130/130/130 131/131/131 129/129/129
f 130/130/130 132/132/132 131/131/131
f 133/133/133 131/131/131 132/132/132
f 133/133/133 132/132/132 134/134/134
f 133/133/133 135/135/135 131/131/131
f 132/132/132 134/134/134 134/134/134
f 133/133/133 134/134/134 136/136/136
f 137/137/137 133/133/133 136/136/136
f 138/138/138 133/133/133 137/137/137
f 139/139/139 141/141/141 140/140/140
f 138/138/138 142/142/142 133/133/133
f 142/142/142 138/138/138 143/143/143
f 142/142/142 143/143/143 144/144/144
f 145/145/145 142/142/142 144/144/144
f 145/145/145 144/144/144 146/146/146
f 147/147/147 145/145/145 146/146/146
f 147/147/147 146/146/146 148/148/148
f 141/141/141 139/139/139 149/149/149
f 139/139/139 150/150/150 149/149/149
f 139/139/139 151/151/151 150/150/150
f 152/152/152 151/151/151 139/139/139
f 152/152/152 139/139/139 153/153/153
f 154/154/154 152/152/152 153/153/153
f 154/154/154 153/153/153 155/155/155
f 153/153/153 156/156/156 155/155/155
f 153/153/153 157/157/157 156/156/156
f 157/157/157 158/158/158 156/156/156
f 157/157/157 159/159/159 158/158/158
f 159/159/159 157/157/157 160/160/160
f 157/157/157 161/161/161 160/160/160
f 157/157/157 162/162/162 161/161/161
f 157/157/157 163/163/163 162/162/162
f 163/163/163 157/157/157 164/164/164
f 157/157/157 164/164/164 164/164/164
f 165/165/165 167/167/167 166/166/166
f 167/167/167 166/166/166 166/166/166
f 168/168/168 170/170/170 169/169/169
f 169/169/169 170/170/170 171/171/171
f 169/169/169 171/171/171 172/172/172
f 173/173/173 172/172/172 171/171/171
f 173/173/173 171/171/171 174/174/174
f 175/175/175 173/173/173 174/174/174
f 175/175/175 176/176/176 173/173/173
f 177/177/177 176/176/176 175/175/175
f 177/177/177 175/175/175 178/178/178
f 179/179/179 177/177/177 178/178/178
f 179/179/179 178/178/178 180/180/180
f 181/181/181 179/179/179 180/180/180
f 182/182/182 184/184/184 183/183/183
f 182/182/182 183/183/183 185/185/185
f 186/186/186 182/182/182 185/185/185
f 186/186/186 185/185/185 187/187/187
f 188/188/188 186/186/186 187/187/187
f 186/186/186 188/188/188 189/189/189
f 186/186/186 189/189/189 190/190/190
f 191/191/191 186/186/186 190/190/190
f 192/192/192 186/186/186 191/191/191
f 192/192/192 193/193/193 186/186/186
f 193/193/193 194/194/194 186/186/186
f 193/193/193 195/195/195 194/194/194
f 196/196/196 198/198/198 197/197/197
f 196/196/196 197/197/197 199/199/199
f 200/200/200 196/196/196 199/199/199
f 200/200/200 199/199/199 201/201/201
f 200/200/200 201/201/201 202/202/202
f 199/199/199 203/203/203 201/201/201
f 204/204/204 200/200/200 202/202/202
f 200/200/200 204/204/204 205/205/205
f 200/200/200 205/205/205 206/206/206
f 207/207/207 200/200/200 206/206/206
f 199/199/199 208/208/208 203/203/203
f 207/207/207 206/206/206 209/209/209
f 207/207/207 209/209/209 210/210/210
f 209/209/209 211/211/211 210/210/210
f 208/208/208 199/199/199 212/212/212
f 199/199/199 213/213/213 212/212/212
f 209/209/209 209/209/209 211/211/211
f 199/199/199 214/214/214 213/213/213
f 215/215/215 217/217/217 216/216/216
f 215/215/215 218/218/218 217/217/217
f 218/218/218 215/215/215 219/219/219
f 215/215/215 220/220/220 219/219/219
f 215/215/215 221/221/221 220/220/220
f 214/214/214 199/199/199 222/222/222
f 214/214/214 222/222/222 223/223/223
f 224/224/224 214/214/214 223/223/223
f 224/224/224 223/223/223 225/225/225
f 226/226/226 224/224/224 225/225/225
f 226/226/226 225/225/225 227/227/227
f 228/228/228 223/223/223 222/222/222
f 228/228/228 222/222/222 229/229/229
f 230/230/230 228/228/228 229/229/229
f 230/230/230 229/229/229 231/231/231
f 227/227/227 225/225/225 232/232/232
f 232/232/232 225/225/225 233/233/233
f 225/225/225 234/234/234 233/233/233
f 225/225/225 235/235/235 234/234/234
f 235/235/235 236/236/236 234/234/234
f 235/235/235 237/237/237 236/236/236
f 237/237/237 235/235/235 238/238/238
f 235/235/235 239/239/239 238/238/238
f 235/235/235 240/240/240 239/239/239
f 241/241/241 240/240/240 235/235/235
f 235/235/235 225/225/225 242/242/242
f 225/225/225 243/243/243 242/242/242
f 225/225/225 244/244/244 243/243/243
f 241/241/241 235/235/235 245/245/245
f 246/246/246 241/241/241 245/245/245
f 241/241/241 246/246/246 247/247/247
f 246/246/246 248/248/248 247/247/247
f 246/246/246 249/249/249 248/248/248
f 248/248/248 249/249/249 250/250/250
f 248/248/248 250/250/250 251/251/251
f 252/252/252 248/248/248 251/251/251
f 253/253/253 255/255/255 254/254/254
f 253/253/253 254/254/254 256/256/256
f 257/257/257 253/253/253 256/256/256
f 257/257/257 256/256/256 258/258/258
f 257/257/257 258/258/258 259/259/259
f 257/257/257 259/259/259 260/260/260
f 261/261/261 257/257/257 260/260/260
f 257/257/257 261/261/261 262/262/262
f 257/257/257 262/262/262 263/263/263
f 264/264/264 257/257/257 263/263/263
f 265/265/265 267/267/267 266/266/266
f 265/265/265 266/266/266 268/268/268
f 269/269/269 271/271/271 270/270/270
f 272/272/272 269/269/269 270/270/270
f 269/269/269 273/273/273 271/271/271
f 273/273/273 274/274/274 271/271/271
f 275/275/275 274/274/274 273/273/273
f 276/276/276 269/269/269 272/272/272
f 276/276/276 277/277/277 269/269/269
f 277/277/277 276/276/276 278/278/278
f 275/275/275 277/277/277 278/278/278
f 275/275/275 278/278/278 279/279/279
f 280/280/280 276/276/276 272/272/272
f 280/280/280 272/272/272 274/274/274
f 280/280/280 275/275/275 279/279/279
f 275/275/275 280/280/280 274/274/274
