v 0.0725875 -0.0410563 -0.03502
v 0.0725875 -0.040919 -0.035082
v 0.0725875 -0.0410412 -0.0349941
v 0.0725875 -0.0410649 -0.0350368
v 0.0725875 -0.0409046 -0.0350567
v 0.0725875 -0.0409315 -0.0351076
v 0.0725875 -0.0410244 -0.0349684
v 0.0725875 -0.0410782 -0.0350665
v 0.0725875 -0.0408886 -0.0350322
v 0.0725875 -0.0409378 -0.0351223
v 0.0725875 -0.0410059 -0.0349434
v 0.0725875 -0.0410899 -0.0350985
v 0.0725875 -0.0409505 -0.0351562
v 0.0725875 -0.040871 -0.0350089
v 0.0725875 -0.0409858 -0.0349195
v 0.0725875 -0.040964 -0.0348965
v 0.0725875 -0.0408516 -0.0349865
v 0.0725875 -0.0411003 -0.0351333
v 0.0725875 -0.0409531 -0.0351636
v 0.0725875 -0.0409586 -0.0351829
v 0.0725875 -0.0411095 -0.0351714
v 0.0725875 -0.0409656 -0.035213
v 0.0725875 -0.0411155 -0.0352019
v 0.0725875 -0.0409714 -0.0352476
v 0.0725875 -0.0411224 -0.0352469
v 0.0725875 -0.0409734 -0.0352617
v 0.0725875 -0.0411274 -0.0352952
v 0.0725875 -0.0409795 -0.0353168
v 0.0725875 -0.0411308 -0.0353458
v 0.0725875 -0.0409838 -0.0353748
v 0.0725875 -0.0411321 -0.0353981
v 0.0725875 -0.0409857 -0.0354122
v 0.0725875 -0.0411322 -0.0354163
v 0.0725875 -0.040988 -0.0354899
v 0.0725875 -0.0409886 -0.0355638
v 0.0725875 -0.0411321 -0.0358502
v 0.0725875 -0.0409886 -0.0357245
v 0.0725875 -0.0397321 -0.0358499
v 0.0725875 -0.0398758 -0.0357243
v 0.0725875 -0.0397322 -0.0355672
v 0.0725875 -0.0398758 -0.0356258
v 0.0725875 -0.0398759 -0.0356058
v 0.0725875 -0.0397324 -0.0355472
v 0.0725875 -0.039877 -0.0355258
v 0.0725875 -0.0397337 -0.0354672
v 0.0725875 -0.0398794 -0.0354633
v 0.0725875 -0.0397364 -0.0354031
v 0.0725875 -0.0398827 -0.0354049
v 0.0725875 -0.0397374 -0.0353873
v 0.0725875 -0.039742 -0.0353303
v 0.0725875 -0.0398864 -0.0353605
v 0.0725875 -0.0397444 -0.0353076
v 0.0725875 -0.0398909 -0.0353201
v 0.0725875 -0.0397493 -0.0352679
v 0.0725875 -0.0398964 -0.0352811
v 0.0725875 -0.0397556 -0.0352283
v 0.0725875 -0.039903 -0.0352442
v 0.0725875 -0.039763 -0.0351917
v 0.0725875 -0.0399107 -0.0352119
v 0.0725875 -0.0397715 -0.0351584
v 0.0725875 -0.0399151 -0.0351956
v 0.0725875 -0.0397828 -0.035123
v 0.0725875 -0.0399214 -0.0351766
v 0.0725875 -0.03979 -0.0351043
v 0.0725875 -0.0399319 -0.0351477
v 0.0725875 -0.0398026 -0.0350737
v 0.0725875 -0.0399438 -0.0351198
v 0.0725875 -0.0398165 -0.0350448
v 0.0725875 -0.0398236 -0.0350316
v 0.0725875 -0.0399523 -0.0351026
v 0.0725875 -0.0398408 -0.0350022
v 0.0725875 -0.0399672 -0.0350757
v 0.0725875 -0.0398592 -0.0349743
v 0.0725875 -0.0399832 -0.0350503
v 0.0725875 -0.0398788 -0.034948
v 0.0725875 -0.0400006 -0.0350265
v 0.0725875 -0.0399005 -0.0349225
v 0.0725875 -0.0400205 -0.0350028
v 0.0725875 -0.0399236 -0.0348981
v 0.0725875 -0.0399489 -0.034874
v 0.0725875 -0.0400415 -0.0349804
v 0.0725875 -0.0400489 -0.0349732
v 0.0725875 -0.0399757 -0.0348516
v 0.0725875 -0.0400719 -0.0349526
v 0.0725875 -0.0400043 -0.0348304
v 0.0725875 -0.0400964 -0.0349335
v 0.0725875 -0.0400338 -0.0348109
v 0.0725875 -0.040122 -0.0349157
v 0.0725875 -0.040064 -0.034793
v 0.0725875 -0.0401476 -0.0349001
v 0.0725875 -0.040095 -0.0347768
v 0.0725875 -0.0401176 -0.0347662
v 0.0725875 -0.0401745 -0.0348861
v 0.0725875 -0.0401848 -0.0348812
v 0.0725875 -0.0401523 -0.034752
v 0.0725875 -0.0402151 -0.0348682
v 0.0725875 -0.0401884 -0.0347395
v 0.0725875 -0.0402457 -0.0348572
v 0.0725875 -0.0402252 -0.0347288
v 0.0725875 -0.0402777 -0.0348478
v 0.0725875 -0.0402622 -0.0347199
v 0.0725875 -0.0402998 -0.0347129
v 0.0725875 -0.0403105 -0.0348403
v 0.0725875 -0.0403252 -0.0347092
v 0.0725875 -0.0403455 -0.0348343
v 0.0725875 -0.0403671 -0.0347046
v 0.0725875 -0.0403817 -0.0348298
v 0.0725875 -0.0404086 -0.0347022
v 0.0725875 -0.0404168 -0.0348276
v 0.0725875 -0.0404501 -0.0347013
v 0.0725875 -0.0404498 -0.034827
v 0.0725875 -0.0404701 -0.0347017
v 0.0725875 -0.0404698 -0.0348274
v 0.0725875 -0.040511 -0.0347033
v 0.0725875 -0.040505 -0.0348289
v 0.0725875 -0.04055 -0.0347067
v 0.0725875 -0.0405395 -0.0348324
v 0.0725875 -0.0405864 -0.0347114
v 0.0725875 -0.0405496 -0.0348338
v 0.0725875 -0.0406222 -0.0347178
v 0.0725875 -0.0405807 -0.034839
v 0.0725875 -0.0406573 -0.0347259
v 0.0725875 -0.0406112 -0.0348458
v 0.0725875 -0.0406916 -0.0347354
v 0.0725875 -0.0406409 -0.0348541
v 0.0725875 -0.0407254 -0.0347468
v 0.0725875 -0.040669 -0.0348639
v 0.0725875 -0.0407581 -0.0347597
v 0.0725875 -0.0406971 -0.0348757
v 0.0725875 -0.0407048 -0.0348793
v 0.0725875 -0.0407907 -0.0347746
v 0.0725875 -0.0407318 -0.034893
v 0.0725875 -0.0408213 -0.0347906
v 0.0725875 -0.0407576 -0.0349082
v 0.0725875 -0.0408507 -0.0348078
v 0.0725875 -0.0407823 -0.0349249
v 0.0725875 -0.0408788 -0.0348261
v 0.0725875 -0.0408057 -0.034943
v 0.0725875 -0.0409056 -0.0348455
v 0.0725875 -0.0409312 -0.0348662
v 0.0725875 -0.0408279 -0.0349626
v 0.0725875 -0.0409556 -0.0348883
v 0.0725875 -0.0408491 -0.0349837
vn -1 0 -8.742269E-08
vn -1 0 -8.742269E-08
vn -1 0 -8.742269E-08
vn -1 0 -8.742269E-08
vn -1 0 -8.742269E-08
vn -1 0 -8.742269E-08
vn -1 0 -8.742269E-08
vn -1 0 -8.742269E-08
vn -1 0 -8.742269E-08
vn -1 0 -8.742269E-08
vn -1 0 -8.742269E-08
vn -1 0 -8.742269E-08
vn -1 0 -8.742269E-08
vn -1 0 -8.742269E-08
vn -1 0 -8.742269E-08
vn -1 0 -8.742269E-08
vn -1 0 -8.742269E-08
vn -1 0 -8.742269E-08
vn -1 0 -8.742269E-08
vn -1 0 -8.742269E-08
vn -1 0 -8.742269E-08
vn -1 0 -8.742269E-08
vn -1 0 -8.742269E-08
vn -1 0 -8.742269E-08
vn -1 0 -8.742269E-08
vn -1 0 -8.742269E-08
vn -1 0 -8.742269E-08
vn -1 0 -8.742269E-08
vn -1 0 -8.742269E-08
vn -1 0 -8.742269E-08
vn -1 0 -8.742269E-08
vn -1 0 -8.742269E-08
vn -1 0 -8.742269E-08
vn -1 0 -8.742269E-08
vn -1 0 -8.742269E-08
vn -1 0 -8.742269E-08
vn -1 0 -8.742269E-08
vn -1 0 -8.742269E-08
vn -1 0 -8.742269E-08
vn -1 0 -8.742269E-08
vn -1 0 -8.742269E-08
vn -1 0 -8.742269E-08
vn -1 0 -8.742269E-08
vn -1 0 -8.742269E-08
vn -1 0 -8.742269E-08
vn -1 0 -8.742269E-08
vn -1 0 -8.742269E-08
vn -1 0 -8.742269E-08
vn -1 0 -8.742269E-08
vn -1 0 -8.742269E-08
vn -1 0 -8.742269E-08
vn -1 0 -8.742269E-08
vn -1 0 -8.742269E-08
vn -1 0 -8.742269E-08
vn -1 0 -8.742269E-08
vn -1 0 -8.742269E-08
vn -1 0 -8.742269E-08
vn -1 0 -8.742269E-08
vn -1 0 -8.742269E-08
vn -1 0 -8.742269E-08
vn -1 0 -8.742269E-08
vn -1 0 -8.742269E-08
vn -1 0 -8.742269E-08
vn -1 0 -8.742269E-08
vn -1 0 -8.742269E-08
vn -1 0 -8.742269E-08
vn -1 0 -8.742269E-08
vn -1 0 -8.742269E-08
vn -1 0 -8.742269E-08
vn -1 0 -8.742269E-08
vn -1 0 -8.742269E-08
vn -1 0 -8.742269E-08
vn -1 0 -8.742269E-08
vn -1 0 -8.742269E-08
vn -1 0 -8.742269E-08
vn -1 0 -8.742269E-08
vn -1 0 -8.742269E-08
vn -1 0 -8.742269E-08
vn -1 0 -8.742269E-08
vn -1 0 -8.742269E-08
vn -1 0 -8.742269E-08
vn -1 0 -8.742269E-08
vn -1 0 -8.742269E-08
vn -1 0 -8.742269E-08
vn -1 0 -8.742269E-08
vn -1 0 -8.742269E-08
vn -1 0 -8.742269E-08
vn -1 0 -8.742269E-08
vn -1 0 -8.742269E-08
vn -1 0 -8.742269E-08
vn -1 0 -8.742269E-08
vn -1 0 -8.742269E-08
vn -1 0 -8.742269E-08
vn -1 0 -8.742269E-08
vn -1 0 -8.742269E-08
vn -1 0 -8.742269E-08
vn -1 0 -8.742269E-08
vn -1 0 -8.742269E-08
vn -1 0 -8.742269E-08
vn -1 0 -8.742269E-08
vn -1 0 -8.742269E-08
vn -1 0 -8.742269E-08
vn -1 0 -8.742269E-08
vn -1 0 -8.742269E-08
vn -1 0 -8.742269E-08
vn -1 0 -8.742269E-08
vn -1 0 -8.742269E-08
vn -1 0 -8.742269E-08
vn -1 0 -8.742269E-08
vn -1 0 -8.742269E-08
vn -1 0 -8.742269E-08
vn -1 0 -8.742269E-08
vn -1 0 -8.742269E-08
vn -1 0 -8.742269E-08
vn -1 0 -8.742269E-08
vn -1 0 -8.742269E-08
vn -1 0 -8.742269E-08
vn -1 0 -8.742269E-08
vn -1 0 -8.742269E-08
vn -1 0 -8.742269E-08
vn -1 0 -8.742269E-08
vn -1 0 -8.742269E-08
vn -1 0 -8.742269E-08
vn -1 0 -8.742269E-08
vn -1 0 -8.742269E-08
vn -1 0 -8.742269E-08
vn -1 0 -8.742269E-08
vn -1 0 -8.742269E-08
vn -1 0 -8.742269E-08
vn -1 0 -8.742269E-08
vn -1 0 -8.742269E-08
vn -1 0 -8.742269E-08
vn -1 0 -8.742269E-08
vn -1 0 -8.742269E-08
vn -1 0 -8.742269E-08
vn -1 0 -8.742269E-08
vn -1 0 -8.742269E-08
vn -1 0 -8.742269E-08
vn -1 0 -8.742269E-08
vn -1 0 -8.742269E-08
vn -1 0 -8.742269E-08
vn -1 0 -8.742269E-08
vn -1 0 -8.742269E-08


f 1/1/1 3/3/3 2/2/2
f 4/4/4 1/1/1 2/2/2
f 3/3/3 5/5/5 2/2/2
f 4/4/4 2/2/2 6/6/6
f 3/3/3 7/7/7 5/5/5
f 8/8/8 4/4/4 6/6/6
f 7/7/7 9/9/9 5/5/5
f 8/8/8 6/6/6 10/10/10
f 7/7/7 11/11/11 9/9/9
f 12/12/12 8/8/8 10/10/10
f 12/12/12 10/10/10 13/13/13
f 11/11/11 14/14/14 9/9/9
f 15/15/15 14/14/14 11/11/11
f 15/15/15 16/16/16 14/14/14
f 16/16/16 17/17/17 14/14/14
f 18/18/18 12/12/12 13/13/13
f 18/18/18 13/13/13 19/19/19
f 18/18/18 19/19/19 20/20/20
f 21/21/21 18/18/18 20/20/20
f 21/21/21 20/20/20 22/22/22
f 23/23/23 21/21/21 22/22/22
f 23/23/23 22/22/22 24/24/24
f 25/25/25 23/23/23 24/24/24
f 25/25/25 24/24/24 26/26/26
f 27/27/27 25/25/25 26/26/26
f 27/27/27 26/26/26 28/28/28
f 29/29/29 27/27/27 28/28/28
f 29/29/29 28/28/28 30/30/30
f 31/31/31 29/29/29 30/30/30
f 31/31/31 30/30/30 32/32/32
f 33/33/33 31/31/31 32/32/32
f 33/33/33 32/32/32 34/34/34
f 33/33/33 34/34/34 35/35/35
f 36/36/36 33/33/33 35/35/35
f 36/36/36 35/35/35 37/37/37
f 38/38/38 36/36/36 37/37/37
f 38/38/38 37/37/37 39/39/39
f 40/40/40 38/38/38 39/39/39
f 40/40/40 39/39/39 41/41/41
f 40/40/40 41/41/41 42/42/42
f 43/43/43 40/40/40 42/42/42
f 43/43/43 42/42/42 44/44/44
f 45/45/45 43/43/43 44/44/44
f 45/45/45 44/44/44 46/46/46
f 47/47/47 45/45/45 46/46/46
f 47/47/47 46/46/46 48/48/48
f 49/49/49 47/47/47 48/48/48
f 49/49/49 48/48/48 50/50/50
f 48/48/48 51/51/51 50/50/50
f 51/51/51 52/52/52 50/50/50
f 51/51/51 53/53/53 52/52/52
f 53/53/53 54/54/54 52/52/52
f 53/53/53 55/55/55 54/54/54
f 55/55/55 56/56/56 54/54/54
f 55/55/55 57/57/57 56/56/56
f 57/57/57 58/58/58 56/56/56
f 57/57/57 59/59/59 58/58/58
f 59/59/59 60/60/60 58/58/58
f 59/59/59 61/61/61 60/60/60
f 61/61/61 62/62/62 60/60/60
f 61/61/61 63/63/63 62/62/62
f 63/63/63 64/64/64 62/62/62
f 63/63/63 65/65/65 64/64/64
f 65/65/65 66/66/66 64/64/64
f 65/65/65 67/67/67 66/66/66
f 66/66/66 67/67/67 68/68/68
f 67/67/67 69/69/69 68/68/68
f 67/67/67 70/70/70 69/69/69
f 70/70/70 71/71/71 69/69/69
f 70/70/70 72/72/72 71/71/71
f 72/72/72 73/73/73 71/71/71
f 72/72/72 74/74/74 73/73/73
f 74/74/74 75/75/75 73/73/73
f 74/74/74 76/76/76 75/75/75
f 76/76/76 77/77/77 75/75/75
f 76/76/76 78/78/78 77/77/77
f 78/78/78 79/79/79 77/77/77
f 78/78/78 80/80/80 79/79/79
f 81/81/81 80/80/80 78/78/78
f 81/81/81 82/82/82 80/80/80
f 82/82/82 83/83/83 80/80/80
f 82/82/82 84/84/84 83/83/83
f 84/84/84 85/85/85 83/83/83
f 84/84/84 86/86/86 85/85/85
f 86/86/86 87/87/87 85/85/85
f 86/86/86 88/88/88 87/87/87
f 88/88/88 89/89/89 87/87/87
f 88/88/88 90/90/90 89/89/89
f 90/90/90 91/91/91 89/89/89
f 90/90/90 92/92/92 91/91/91
f 92/92/92 90/90/90 93/93/93
f 92/92/92 93/93/93 94/94/94
f 95/95/95 92/92/92 94/94/94
f 95/95/95 94/94/94 96/96/96
f 97/97/97 95/95/95 96/96/96
f 97/97/97 96/96/96 98/98/98
f 99/99/99 97/97/97 98/98/98
f 99/99/99 98/98/98 100/100/100
f 99/99/99 100/100/100 101/101/101
f 100/100/100 102/102/102 101/101/101
f 100/100/100 103/103/103 102/102/102
f 103/103/103 104/104/104 102/102/102
f 103/103/103 105/105/105 104/104/104
f 105/105/105 106/106/106 104/104/104
f 105/105/105 107/107/107 106/106/106
f 107/107/107 108/108/108 106/106/106
f 107/107/107 109/109/109 108/108/108
f 109/109/109 110/110/110 108/108/108
f 109/109/109 111/111/111 110/110/110
f 111/111/111 112/112/112 110/110/110
f 111/111/111 113/113/113 112/112/112
f 113/113/113 114/114/114 112/112/112
f 113/113/113 115/115/115 114/114/114
f 115/115/115 116/116/116 114/114/114
f 115/115/115 117/117/117 116/116/116
f 117/117/117 118/118/118 116/116/116
f 117/117/117 119/119/119 118/118/118
f 119/119/119 120/120/120 118/118/118
f 119/119/119 121/121/121 120/120/120
f 121/121/121 122/122/122 120/120/120
f 121/121/121 123/123/123 122/122/122
f 123/123/123 124/124/124 122/122/122
f 123/123/123 125/125/125 124/124/124
f 125/125/125 126/126/126 124/124/124
f 125/125/125 127/127/127 126/126/126
f 127/127/127 128/128/128 126/126/126
f 127/127/127 129/129/129 128/128/128
f 129/129/129 130/130/130 128/128/128
f 130/130/130 131/131/131 128/128/128
f 130/130/130 132/132/132 131/131/131
f 132/132/132 133/133/133 131/131/131
f 132/132/132 134/134/134 133/133/133
f 134/134/134 135/135/135 133/133/133
f 134/134/134 136/136/136 135/135/135
f 136/136/136 137/137/137 135/135/135
f 136/136/136 138/138/138 137/137/137
f 138/138/138 139/139/139 137/137/137
f 138/138/138 140/140/140 139/139/139
f 140/140/140 138/138/138 141/141/141
f 142/142/142 140/140/140 141/141/141
f 142/142/142 141/141/141 143/143/143
f 142/142/142 143/143/143 17/17/17
f 16/16/16 142/142/142 17/17/17
