v 0.071899 -0.0365788 -0.022226
v 0.0724661 -0.0360438 -0.0223258
v 0.071899 -0.0361438 -0.0222259
v 0.0724661 -0.0366788 -0.022326
v 0.0724661 -0.0360438 -0.0223258
v 0.075399 -0.0366788 -0.022326
v 0.075399 -0.0360438 -0.0223258
v 0.0724661 -0.0366788 -0.022326
v 0.0724661 -0.0360439 -0.0216908
v 0.075399 -0.0360438 -0.0223258
v 0.075399 -0.0360439 -0.0216908
v 0.0724661 -0.0360438 -0.0223258
vn -0.173648 0.000221566 -0.984808
vn -0.173648 0.000221566 -0.984808
vn -0.173648 0.000221566 -0.984808
vn -0.173648 0.000221566 -0.984808
vn -4.37114E-08 0.000224984 -1
vn -4.37114E-08 0.000224984 -1
vn -4.37114E-08 0.000224984 -1
vn -4.37114E-08 0.000224984 -1
vn 0 1 0.000224984
vn 0 1 0.000224984
vn 0 1 0.000224984
vn 0 1 0.000224984


f 1/1/1 3/3/3 2/2/2
f 1/1/1 2/2/2 4/4/4
f 5/5/5 7/7/7 6/6/6
f 5/5/5 6/6/6 8/8/8
f 9/9/9 11/11/11 10/10/10
f 9/9/9 10/10/10 12/12/12
