v 0.076234 0.070458 -0.0286523
v 0.076534 0.070458 -0.0290474
v 0.076234 0.070458 -0.0290474
v 0.076534 0.070458 -0.02855
v 0.07623 0.070458 -0.0286104
v 0.0762164 0.070458 -0.028568
v 0.0765303 0.070458 -0.0285048
v 0.0765481 0.0704594 -0.0285028
v 0.0765508 0.0704594 -0.02855
v 0.0765743 0.0704665 -0.02855
v 0.0765288 0.070458 -0.0284859
v 0.0765149 0.070458 -0.0284299
v 0.0761923 0.070458 -0.0285289
v 0.0765715 0.0704665 -0.0285002
v 0.0765955 0.0704792 -0.02855
v 0.0765315 0.0704594 -0.0284247
v 0.0765925 0.0704792 -0.0284978
v 0.0766129 0.0704966 -0.02855
v 0.0765955 0.0704792 -0.02855
v 0.0765925 0.0704792 -0.0284978
v 0.0765133 0.070458 -0.0284231
v 0.0765539 0.0704665 -0.0284176
v 0.0766098 0.0704966 -0.0284958
v 0.0766255 0.0705177 -0.02855
v 0.0764893 0.070458 -0.028366
v 0.0765002 0.0704594 -0.0283511
v 0.0765741 0.0704792 -0.0284112
v 0.0765741 0.0704792 -0.0284112
v 0.0766223 0.0705177 -0.0284944
v 0.0766326 0.0705413 -0.02855
v 0.0764851 0.070458 -0.0283594
v 0.076521 0.0704665 -0.0283399
v 0.0765907 0.0704966 -0.028406
v 0.0764542 0.070458 -0.0283102
v 0.0764556 0.0704594 -0.0282849
v 0.0765395 0.0704792 -0.0283298
v 0.0765395 0.0704792 -0.0283298
v 0.076442 0.070458 -0.0282962
v 0.0764168 0.070458 -0.0282672
v 0.0763991 0.0704594 -0.0282284
v 0.076159 0.070458 -0.0284951
v 0.0764738 0.0704665 -0.0282699
v 0.0763877 0.070458 -0.0282422
v 0.0763679 0.070458 -0.0282254
v 0.0763246 0.070458 -0.0281988
v 0.0763192 0.070458 -0.0281955
v 0.0761211 0.070458 -0.0284703
v 0.0763329 0.0704594 -0.0281838
v 0.0764141 0.0704665 -0.0282102
v 0.0764901 0.0704792 -0.0282565
v 0.0762608 0.070458 -0.0281705
v 0.0765548 0.0704966 -0.0283215
v 0.0765548 0.0704966 -0.0283215
v 0.0766028 0.0705177 -0.0284022
v 0.0766294 0.0705413 -0.0284936
v 0.0766308 0.070558 -0.0284934
v 0.076634 0.070558 -0.02855
v 0.0766109 0.070558 -0.0283996
v 0.0766095 0.0705413 -0.0284001
v 0.0765734 0.070558 -0.0283114
v 0.0765659 0.0705177 -0.0283155
v 0.0765722 0.0705413 -0.0283121
v 0.0765198 0.070558 -0.028232
v 0.0764901 0.0704792 -0.0282565
v 0.0765035 0.0704966 -0.0282454
v 0.0765187 0.0705413 -0.0282329
v 0.076452 0.070558 -0.0281642
v 0.0765133 0.0705177 -0.0282374
v 0.0764275 0.0704792 -0.0281939
v 0.0764275 0.0704792 -0.0281939
v 0.0764511 0.0705413 -0.0281653
v 0.0763726 0.070558 -0.0281106
v 0.0764466 0.0705177 -0.0281707
v 0.0764386 0.0704966 -0.0281805
v 0.0763441 0.0704665 -0.028163
v 0.0763719 0.0705413 -0.0281118
v 0.0762844 0.070558 -0.0280731
v 0.0763542 0.0704792 -0.0281445
v 0.0763542 0.0704792 -0.0281445
v 0.0763685 0.0705177 -0.0281181
v 0.0763625 0.0704966 -0.0281292
v 0.0762593 0.0704594 -0.0281525
v 0.0762839 0.0705413 -0.0280745
v 0.0761906 0.070558 -0.0280532
v 0.0762664 0.0704665 -0.02813
v 0.0762728 0.0704792 -0.0281099
v 0.0762728 0.0704792 -0.0281099
v 0.0762818 0.0705177 -0.0280812
v 0.076278 0.0704966 -0.0280933
v 0.0762542 0.070458 -0.0281689
v 0.0762016 0.070458 -0.0281556
v 0.0761812 0.0704594 -0.0281359
v 0.0761792 0.070458 -0.0281537
v 0.0760785 0.070458 -0.0284551
v 0.0761838 0.0704665 -0.0281125
v 0.0761862 0.0704792 -0.0280915
v 0.0761838 0.0704665 -0.0281125
v 0.0761882 0.0704966 -0.0280742
v 0.076134 0.070458 -0.02815
v 0.0760317 0.070458 -0.02845
v 0.0755289 0.070458 -0.02845
v 0.0756488 0.070458 -0.02815
v 0.0755691 0.070458 -0.0281448
v 0.0754701 0.070458 -0.0284458
v 0.076134 0.0704594 -0.0281332
v 0.076134 0.0704665 -0.0281097
v 0.076134 0.0704665 -0.0281097
v 0.076134 0.0704792 -0.0280885
v 0.075492 0.070458 -0.0281294
v 0.0754076 0.070458 -0.0284313
v 0.0753475 0.070458 -0.0284065
v 0.0754179 0.070458 -0.0281039
v 0.0753767 0.070458 -0.0280847
v 0.0690767 0.070458 -0.0252153
v 0.0691059 0.070458 -0.0248935
v 0.0690355 0.070458 -0.0251961
v 0.0689614 0.070458 -0.0251706
v 0.0690458 0.070458 -0.0248687
v 0.0689833 0.070458 -0.0248542
v 0.0688843 0.070458 -0.0251552
v 0.0689245 0.070458 -0.02485
v 0.0688046 0.070458 -0.02515
v 0.0684245 0.070458 -0.02515
v 0.0684245 0.070458 -0.02485
v 0.076134 0.0705413 -0.0280514
v 0.076134 0.070558 -0.02805
v 0.0761904 0.0705413 -0.0280546
v 0.076134 0.0705177 -0.0280585
v 0.0761896 0.0705177 -0.0280617
v 0.076134 0.0704966 -0.0280711
vn 0 -1 0
vn 0 -1 0
vn 0 -1 0
vn 0 -1 0
vn 0 -1 0
vn 0 -1 0
vn 0 -1 0
vn 0.166429 -0.985871 0.0189622
vn 0.167506 -0.985871 0
vn 0.403317 -0.91506 0
vn 0 -1 0
vn 0 -1 0
vn 0 -1 0
vn 0.400725 -0.91506 0.0456568
vn 0.614679 -0.788778 0
vn 0.159754 -0.985871 0.0503701
vn 0.610727 -0.788778 0.0695836
vn 0.788778 -0.614679 0
vn 0.614679 -0.788778 0
vn 0.610727 -0.788778 0.0695836
vn 0 -1 0
vn 0.38465 -0.91506 0.12128
vn 0.783707 -0.614679 0.0892922
vn 0.91506 -0.403317 0
vn 0 -1 0
vn 0.147207 -0.985871 0.0799271
vn 0.586229 -0.788778 0.184837
vn 0.586229 -0.788778 0.184837
vn 0.909178 -0.403317 0.103588
vn 0.985871 -0.167506 0
vn 0 -1 0
vn 0.354442 -0.91506 0.192446
vn 0.752271 -0.614679 0.23719
vn 0 -1 0
vn 0.129252 -0.985871 0.106547
vn 0.54019 -0.788778 0.293299
vn 0.54019 -0.788778 0.293299
vn 0 -1 0
vn 0 -1 0
vn 0.106547 -0.985871 0.129252
vn 0 -1 0
vn 0.311209 -0.91506 0.256541
vn 0 -1 0
vn 0 -1 0
vn 0 -1 0
vn 0 -1 0
vn 0 -1 0
vn 0.0799271 -0.985871 0.147207
vn 0.256541 -0.91506 0.311209
vn 0.474301 -0.788778 0.390984
vn 0 -1 0
vn 0.693191 -0.614679 0.376372
vn 0.693191 -0.614679 0.376372
vn 0.872708 -0.403317 0.275164
vn 0.979534 -0.167506 0.111604
vn 0.993572 0 0.113203
vn 1 0 0
vn 0.953717 0 0.300706
vn 0.940242 -0.167506 0.296457
vn 0.878817 0 0.477159
vn 0.804171 -0.403317 0.436629
vn 0.8664 -0.167506 0.470417
vn 0.771625 0 0.636078
vn 0.474301 -0.788778 0.390984
vn 0.60864 -0.614679 0.501724
vn 0.760722 -0.167506 0.627091
vn 0.636078 0 0.771625
vn 0.706083 -0.403317 0.58205
vn 0.390984 -0.788778 0.474301
vn 0.390984 -0.788778 0.474301
vn 0.627091 -0.167506 0.760722
vn 0.477159 0 0.878817
vn 0.58205 -0.403317 0.706083
vn 0.501724 -0.614679 0.60864
vn 0.192446 -0.91506 0.354442
vn 0.470417 -0.167506 0.8664
vn 0.300706 0 0.953717
vn 0.293299 -0.788778 0.54019
vn 0.293299 -0.788778 0.54019
vn 0.436629 -0.403317 0.804171
vn 0.376372 -0.614679 0.693191
vn 0.0503701 -0.985871 0.159754
vn 0.296457 -0.167506 0.940242
vn 0.113203 0 0.993572
vn 0.12128 -0.91506 0.38465
vn 0.184837 -0.788778 0.586229
vn 0.184837 -0.788778 0.586229
vn 0.275164 -0.403317 0.872708
vn 0.23719 -0.614679 0.752271
vn 0 -1 0
vn 0 -1 0
vn 0.0189622 -0.985871 0.166429
vn 0 -1 0
vn 0 -1 0
vn 0.0456568 -0.91506 0.400725
vn 0.0695836 -0.788778 0.610727
vn 0.0456568 -0.91506 0.400725
vn 0.0892922 -0.614679 0.783707
vn 0 -1 0
vn 0 -1 0
vn 0 -1 0
vn 0 -1 0
vn 0 -1 0
vn 0 -1 0
vn 0 -0.985871 0.167506
vn 0 -0.91506 0.403317
vn 0 -0.91506 0.403317
vn 0 -0.788778 0.614679
vn 0 -1 0
vn 0 -1 0
vn 0 -1 0
vn 0 -1 0
vn 0 -1 0
vn 0 -1 0
vn 0 -1 0
vn 0 -1 0
vn 0 -1 0
vn 0 -1 0
vn 0 -1 0
vn 0 -1 0
vn 0 -1 0
vn 0 -1 0
vn 0 -1 0
vn 0 -1 0
vn 0 -0.167506 0.985871
vn 0 0 1
vn 0.111604 -0.167506 0.979534
vn 0 -0.403317 0.91506
vn 0.103588 -0.403317 0.909178
vn 0 -0.614679 0.788778


f 1/1/1 3/3/3 2/2/2
f 1/1/1 2/2/2 4/4/4
f 5/5/5 1/1/1 4/4/4
f 5/5/5 4/4/4 6/6/6
f 6/6/6 4/4/4 7/7/7
f 4/4/4 8/8/8 7/7/7
f 4/4/4 9/9/9 8/8/8
f 10/10/10 8/8/8 9/9/9
f 6/6/6 7/7/7 11/11/11
f 7/7/7 8/8/8 11/11/11
f 6/6/6 11/11/11 12/12/12
f 8/8/8 12/12/12 11/11/11
f 13/13/13 6/6/6 12/12/12
f 10/10/10 14/14/14 8/8/8
f 15/15/15 14/14/14 10/10/10
f 8/8/8 16/16/16 12/12/12
f 14/14/14 16/16/16 8/8/8
f 15/15/15 17/17/17 14/14/14
f 18/18/18 20/20/20 19/19/19
f 13/13/13 12/12/12 21/21/21
f 16/16/16 21/21/21 12/12/12
f 17/17/17 22/22/22 14/14/14
f 14/14/14 22/22/22 16/16/16
f 18/18/18 23/23/23 20/20/20
f 24/24/24 23/23/23 18/18/18
f 16/16/16 25/25/25 21/21/21
f 25/25/25 13/13/13 21/21/21
f 16/16/16 26/26/26 25/25/25
f 22/22/22 26/26/26 16/16/16
f 17/17/17 27/27/27 22/22/22
f 23/23/23 28/28/28 20/20/20
f 24/24/24 29/29/29 23/23/23
f 30/30/30 29/29/29 24/24/24
f 25/25/25 31/31/31 13/13/13
f 25/25/25 26/26/26 31/31/31
f 27/27/27 32/32/32 22/22/22
f 22/22/22 32/32/32 26/26/26
f 23/23/23 33/33/33 28/28/28
f 29/29/29 33/33/33 23/23/23
f 34/34/34 31/31/31 26/26/26
f 13/13/13 31/31/31 34/34/34
f 34/34/34 26/26/26 35/35/35
f 32/32/32 35/35/35 26/26/26
f 27/27/27 36/36/36 32/32/32
f 33/33/33 37/37/37 28/28/28
f 13/13/13 34/34/34 38/38/38
f 38/38/38 34/34/34 35/35/35
f 13/13/13 38/38/38 39/39/39
f 39/39/39 38/38/38 35/35/35
f 39/39/39 35/35/35 40/40/40
f 41/41/41 13/13/13 39/39/39
f 32/32/32 42/42/42 35/35/35
f 36/36/36 42/42/42 32/32/32
f 42/42/42 40/40/40 35/35/35
f 41/41/41 39/39/39 43/43/43
f 43/43/43 39/39/39 40/40/40
f 44/44/44 41/41/41 43/43/43
f 43/43/43 40/40/40 44/44/44
f 41/41/41 44/44/44 45/45/45
f 40/40/40 45/45/45 44/44/44
f 41/41/41 45/45/45 46/46/46
f 47/47/47 41/41/41 46/46/46
f 40/40/40 48/48/48 45/45/45
f 48/48/48 46/46/46 45/45/45
f 42/42/42 49/49/49 40/40/40
f 49/49/49 48/48/48 40/40/40
f 36/36/36 50/50/50 42/42/42
f 50/50/50 49/49/49 42/42/42
f 47/47/47 46/46/46 51/51/51
f 48/48/48 51/51/51 46/46/46
f 52/52/52 50/50/50 36/36/36
f 33/33/33 53/53/53 37/37/37
f 54/54/54 53/53/53 33/33/33
f 29/29/29 54/54/54 33/33/33
f 55/55/55 54/54/54 29/29/29
f 30/30/30 55/55/55 29/29/29
f 56/56/56 55/55/55 30/30/30
f 57/57/57 56/56/56 30/30/30
f 56/56/56 58/58/58 55/55/55
f 58/58/58 59/59/59 55/55/55
f 55/55/55 59/59/59 54/54/54
f 58/58/58 60/60/60 59/59/59
f 54/54/54 61/61/61 53/53/53
f 59/59/59 61/61/61 54/54/54
f 60/60/60 62/62/62 59/59/59
f 59/59/59 62/62/62 61/61/61
f 60/60/60 63/63/63 62/62/62
f 53/53/53 65/65/65 64/64/64
f 61/61/61 65/65/65 53/53/53
f 63/63/63 66/66/66 62/62/62
f 63/63/63 67/67/67 66/66/66
f 62/62/62 68/68/68 61/61/61
f 61/61/61 68/68/68 65/65/65
f 62/62/62 66/66/66 68/68/68
f 65/65/65 69/69/69 64/64/64
f 50/50/50 70/70/70 49/49/49
f 67/67/67 71/71/71 66/66/66
f 67/67/67 72/72/72 71/71/71
f 66/66/66 73/73/73 68/68/68
f 66/66/66 71/71/71 73/73/73
f 68/68/68 74/74/74 65/65/65
f 65/65/65 74/74/74 69/69/69
f 68/68/68 73/73/73 74/74/74
f 70/70/70 75/75/75 49/49/49
f 49/49/49 75/75/75 48/48/48
f 72/72/72 76/76/76 71/71/71
f 72/72/72 77/77/77 76/76/76
f 74/74/74 78/78/78 69/69/69
f 70/70/70 79/79/79 75/75/75
f 71/71/71 80/80/80 73/73/73
f 71/71/71 76/76/76 80/80/80
f 73/73/73 81/81/81 74/74/74
f 74/74/74 81/81/81 78/78/78
f 73/73/73 80/80/80 81/81/81
f 75/75/75 82/82/82 48/48/48
f 48/48/48 82/82/82 51/51/51
f 77/77/77 83/83/83 76/76/76
f 77/77/77 84/84/84 83/83/83
f 79/79/79 85/85/85 75/75/75
f 75/75/75 85/85/85 82/82/82
f 81/81/81 86/86/86 78/78/78
f 79/79/79 87/87/87 85/85/85
f 76/76/76 88/88/88 80/80/80
f 76/76/76 83/83/83 88/88/88
f 80/80/80 89/89/89 81/81/81
f 81/81/81 89/89/89 86/86/86
f 80/80/80 88/88/88 89/89/89
f 51/51/51 82/82/82 90/90/90
f 90/90/90 47/47/47 51/51/51
f 91/91/91 90/90/90 82/82/82
f 47/47/47 90/90/90 91/91/91
f 85/85/85 92/92/92 82/82/82
f 91/91/91 82/82/82 92/92/92
f 47/47/47 91/91/91 93/93/93
f 93/93/93 91/91/91 92/92/92
f 94/94/94 47/47/47 93/93/93
f 87/87/87 95/95/95 85/85/85
f 85/85/85 95/95/95 92/92/92
f 89/89/89 96/96/96 86/86/86
f 86/86/86 96/96/96 97/97/97
f 88/88/88 98/98/98 89/89/89
f 89/89/89 98/98/98 96/96/96
f 94/94/94 93/93/93 99/99/99
f 100/100/100 94/94/94 99/99/99
f 100/100/100 99/99/99 101/101/101
f 102/102/102 101/101/101 99/99/99
f 102/102/102 103/103/103 101/101/101
f 103/103/103 104/104/104 101/101/101
f 99/99/99 93/93/93 105/105/105
f 93/93/93 92/92/92 105/105/105
f 95/95/95 105/105/105 92/92/92
f 95/95/95 106/106/106 105/105/105
f 96/96/96 107/107/107 97/97/97
f 96/96/96 108/108/108 107/107/107
f 98/98/98 108/108/108 96/96/96
f 103/103/103 109/109/109 104/104/104
f 109/109/109 110/110/110 104/104/104
f 109/109/109 111/111/111 110/110/110
f 112/112/112 111/111/111 109/109/109
f 112/112/112 113/113/113 111/111/111
f 113/113/113 114/114/114 111/111/111
f 113/113/113 115/115/115 114/114/114
f 115/115/115 116/116/116 114/114/114
f 115/115/115 117/117/117 116/116/116
f 118/118/118 117/117/117 115/115/115
f 118/118/118 119/119/119 117/117/117
f 119/119/119 120/120/120 117/117/117
f 119/119/119 121/121/121 120/120/120
f 121/121/121 122/122/122 120/120/120
f 121/121/121 123/123/123 122/122/122
f 123/123/123 121/121/121 124/124/124
f 125/125/125 84/84/84 126/126/126
f 84/84/84 125/125/125 127/127/127
f 84/84/84 127/127/127 83/83/83
f 127/127/127 125/125/125 128/128/128
f 83/83/83 127/127/127 129/129/129
f 127/127/127 128/128/128 129/129/129
f 83/83/83 129/129/129 88/88/88
f 129/129/129 128/128/128 130/130/130
f 88/88/88 129/129/129 98/98/98
f 129/129/129 130/130/130 98/98/98
f 98/98/98 130/130/130 108/108/108
