v -0.065 0.07 -0.015
v -0.0729439 0.0690538 -0.015
v -0.073 0.07 -0.015
v -0.0729439 0.0709462 -0.015
v -0.0727762 0.0681209 -0.015
v -0.0727762 0.0718791 -0.015
v -0.0724994 0.0672144 -0.015
v -0.0724994 0.0727856 -0.015
v -0.0721173 0.066347 -0.015
v -0.0721173 0.073653 -0.015
v -0.0716352 0.0655308 -0.015
v -0.0716352 0.0744692 -0.015
v -0.0710601 0.0647774 -0.015
v -0.0710601 0.0752226 -0.015
v -0.0703999 0.0640973 -0.015
v -0.0703999 0.0759027 -0.015
v -0.0696638 0.0635001 -0.015
v -0.0696638 0.0764999 -0.015
v -0.0688623 0.0629941 -0.015
v -0.0688623 0.0770059 -0.015
v -0.0680066 0.0625865 -0.015
v -0.0680066 0.0774135 -0.015
v -0.0671087 0.0622829 -0.015
v -0.0671087 0.0777171 -0.015
v -0.0661812 0.0620877 -0.015
v -0.0661812 0.0779123 -0.015
v -0.0652371 0.0620035 -0.015
v -0.0652371 0.0779965 -0.015
v -0.0642896 0.0620316 -0.015
v -0.0642896 0.0779684 -0.015
v -0.0633522 0.0621715 -0.015
v -0.0633522 0.0778285 -0.015
v -0.0624378 0.0624214 -0.015
v -0.0624378 0.0775786 -0.015
v -0.0615595 0.0627776 -0.015
v -0.0615595 0.0772224 -0.015
v -0.0607294 0.0632352 -0.015
v -0.0607294 0.0767648 -0.015
v -0.0599593 0.0637878 -0.015
v -0.0599593 0.0762122 -0.015
v -0.0592599 0.0644276 -0.015
v -0.0592599 0.0755724 -0.015
v -0.0586412 0.0651456 -0.015
v -0.0586412 0.0748544 -0.015
v -0.0581117 0.0659318 -0.015
v -0.0581117 0.0740682 -0.015
v -0.0576788 0.066775 -0.015
v -0.0576788 0.073225 -0.015
v -0.0573488 0.0676635 -0.015
v -0.0573488 0.0723365 -0.015
v -0.0571262 0.0685849 -0.015
v -0.0571262 0.0714151 -0.015
v -0.0570141 0.0695261 -0.015
v -0.0570141 0.0704739 -0.015
v -0.065 0.07 -0.02
v -0.0729439 0.0709462 -0.02
v -0.073 0.07 -0.02
v -0.0729439 0.0690538 -0.02
v -0.0727762 0.0718791 -0.02
v -0.0727762 0.0681209 -0.02
v -0.0724994 0.0727856 -0.02
v -0.0724994 0.0672144 -0.02
v -0.0721173 0.073653 -0.02
v -0.0721173 0.066347 -0.02
v -0.0716352 0.0744692 -0.02
v -0.0716352 0.0655308 -0.02
v -0.0710601 0.0752226 -0.02
v -0.0710601 0.0647774 -0.02
v -0.0703999 0.0759027 -0.02
v -0.0703999 0.0640973 -0.02
v -0.0696638 0.0764999 -0.02
v -0.0696638 0.0635001 -0.02
v -0.0688623 0.0770059 -0.02
v -0.0688623 0.0629941 -0.02
v -0.0680066 0.0774135 -0.02
v -0.0680066 0.0625865 -0.02
v -0.0671087 0.0777171 -0.02
v -0.0671087 0.0622829 -0.02
v -0.0661812 0.0779123 -0.02
v -0.0661812 0.0620877 -0.02
v -0.0652371 0.0779965 -0.02
v -0.0652371 0.0620035 -0.02
v -0.0642896 0.0779684 -0.02
v -0.0642896 0.0620316 -0.02
v -0.0633522 0.0778285 -0.02
v -0.0633522 0.0621715 -0.02
v -0.0624378 0.0775786 -0.02
v -0.0624378 0.0624214 -0.02
v -0.0615595 0.0772224 -0.02
v -0.0615595 0.0627776 -0.02
v -0.0607294 0.0767648 -0.02
v -0.0607294 0.0632352 -0.02
v -0.0599593 0.0762122 -0.02
v -0.0599593 0.0637878 -0.02
v -0.0592599 0.0755724 -0.02
v -0.0592599 0.0644276 -0.02
v -0.0586412 0.0748544 -0.02
v -0.0586412 0.0651456 -0.02
v -0.0581117 0.0740682 -0.02
v -0.0581117 0.0659318 -0.02
v -0.0576788 0.073225 -0.02
v -0.0576788 0.066775 -0.02
v -0.0573488 0.0723365 -0.02
v -0.0573488 0.0676635 -0.02
v -0.0571262 0.0714151 -0.02
v -0.0571262 0.0685849 -0.02
v -0.0570141 0.0704739 -0.02
v -0.0570141 0.0695261 -0.02
v -0.0729439 0.0709462 -0.02
v -0.0729439 0.0709462 -0.015
v -0.073 0.07 -0.02
v -0.0727762 0.0718791 -0.015
v -0.073 0.07 -0.015
v -0.0727762 0.0718791 -0.02
v -0.0729439 0.0690538 -0.02
v -0.0727762 0.0718791 -0.02
v -0.0724994 0.0727856 -0.015
v -0.0727762 0.0718791 -0.015
v -0.0729439 0.0690538 -0.015
v -0.0724994 0.0727856 -0.02
v -0.0727762 0.0681209 -0.02
v -0.0721173 0.073653 -0.015
v -0.0727762 0.0681209 -0.015
v -0.0721173 0.073653 -0.02
v -0.0724994 0.0672144 -0.02
v -0.0716352 0.0744692 -0.015
v -0.0724994 0.0672144 -0.015
v -0.0716352 0.0744692 -0.02
v -0.0721173 0.066347 -0.02
v -0.0710601 0.0752226 -0.015
v -0.0721173 0.066347 -0.015
v -0.0710601 0.0752226 -0.02
v -0.0716352 0.0655308 -0.02
v -0.0703999 0.0759027 -0.015
v -0.0716352 0.0655308 -0.015
v -0.0703999 0.0759027 -0.02
v -0.0710601 0.0647774 -0.02
v -0.0696638 0.0764999 -0.015
v -0.0710601 0.0647774 -0.015
v -0.0696638 0.0764999 -0.02
v -0.0703999 0.0640973 -0.02
v -0.0688623 0.0770059 -0.015
v -0.0703999 0.0640973 -0.015
v -0.0688623 0.0770059 -0.02
v -0.0696638 0.0635001 -0.02
v -0.0680066 0.0774135 -0.015
v -0.0696638 0.0635001 -0.015
v -0.0680066 0.0774135 -0.02
v -0.0696638 0.0635001 -0.02
v -0.0696638 0.0635001 -0.015
v -0.0688623 0.0629941 -0.02
v -0.0671087 0.0777171 -0.015
v -0.0688623 0.0629941 -0.015
v -0.0671087 0.0777171 -0.02
v -0.0680066 0.0625865 -0.02
v -0.0661812 0.0779123 -0.015
v -0.0680066 0.0625865 -0.015
v -0.0661812 0.0779123 -0.02
v -0.0671087 0.0622829 -0.02
v -0.0652371 0.0779965 -0.015
v -0.0671087 0.0622829 -0.015
v -0.0652371 0.0779965 -0.02
v -0.0661812 0.0620877 -0.02
v -0.0642896 0.0779684 -0.015
v -0.0661812 0.0620877 -0.015
v -0.0642896 0.0779684 -0.02
v -0.0652371 0.0620035 -0.02
v -0.0633522 0.0778285 -0.015
v -0.0652371 0.0620035 -0.015
v -0.0633522 0.0778285 -0.02
v -0.0642896 0.0620316 -0.02
v -0.0633522 0.0778285 -0.02
v -0.0624378 0.0775786 -0.015
v -0.0633522 0.0778285 -0.015
v -0.0642896 0.0620316 -0.015
v -0.0624378 0.0775786 -0.02
v -0.0633522 0.0621715 -0.02
v -0.0615595 0.0772224 -0.015
v -0.0633522 0.0621715 -0.015
v -0.0615595 0.0772224 -0.02
v -0.0624378 0.0624214 -0.02
v -0.0607294 0.0767648 -0.015
v -0.0624378 0.0624214 -0.015
v -0.0607294 0.0767648 -0.02
v -0.0615595 0.0627776 -0.02
v -0.0599593 0.0762122 -0.015
v -0.0615595 0.0627776 -0.015
v -0.0599593 0.0762122 -0.02
v -0.0607294 0.0632352 -0.02
v -0.0592599 0.0755724 -0.015
v -0.0607294 0.0632352 -0.015
v -0.0592599 0.0755724 -0.02
v -0.0599593 0.0637878 -0.02
v -0.0586412 0.0748544 -0.015
v -0.0599593 0.0637878 -0.015
v -0.0586412 0.0748544 -0.02
v -0.0592599 0.0644276 -0.02
v -0.0581117 0.0740682 -0.015
v -0.0592599 0.0644276 -0.015
v -0.0581117 0.0740682 -0.02
v -0.0586412 0.0651456 -0.02
v -0.0576788 0.073225 -0.015
v -0.0586412 0.0651456 -0.015
v -0.0576788 0.073225 -0.02
v -0.0581117 0.0659318 -0.02
v -0.0573488 0.0723365 -0.015
v -0.0581117 0.0659318 -0.015
v -0.0573488 0.0723365 -0.02
v -0.0581117 0.0659318 -0.02
v -0.0581117 0.0659318 -0.015
v -0.0576788 0.066775 -0.02
v -0.0571262 0.0714151 -0.015
v -0.0576788 0.066775 -0.015
v -0.0571262 0.0714151 -0.02
v -0.0573488 0.0676635 -0.02
v -0.0570141 0.0704739 -0.015
v -0.0573488 0.0676635 -0.015
v -0.0570141 0.0704739 -0.02
v -0.0571262 0.0685849 -0.02
v -0.0570141 0.0695261 -0.015
v -0.0571262 0.0685849 -0.015
v -0.0570141 0.0695261 -0.02
vn 0 0 1
vn 0 0 1
vn 0 0 1
vn 0 0 1
vn 0 0 1
vn 0 0 1
vn 0 0 1
vn 0 0 1
vn 0 0 1
vn 0 0 1
vn 0 0 1
vn 0 0 1
vn 0 0 1
vn 0 0 1
vn 0 0 1
vn 0 0 1
vn 0 0 1
vn 0 0 1
vn 0 0 1
vn 0 0 1
vn 0 0 1
vn 0 0 1
vn 0 0 1
vn 0 0 1
vn 0 0 1
vn 0 0 1
vn 0 0 1
vn 0 0 1
vn 0 0 1
vn 0 0 1
vn 0 0 1
vn 0 0 1
vn 0 0 1
vn 0 0 1
vn 0 0 1
vn 0 0 1
vn 0 0 1
vn 0 0 1
vn 0 0 1
vn 0 0 1
vn 0 0 1
vn 0 0 1
vn 0 0 1
vn 0 0 1
vn 0 0 1
vn 0 0 1
vn 0 0 1
vn 0 0 1
vn 0 0 1
vn 0 0 1
vn 0 0 1
vn 0 0 1
vn 0 0 1
vn 0 0 1
vn 0 0 -1
vn 0 0 -1
vn 0 0 -1
vn 0 0 -1
vn 0 0 -1
vn 0 0 -1
vn 0 0 -1
vn 0 0 -1
vn 0 0 -1
vn 0 0 -1
vn 0 0 -1
vn 0 0 -1
vn 0 0 -1
vn 0 0 -1
vn 0 0 -1
vn 0 0 -1
vn 0 0 -1
vn 0 0 -1
vn 0 0 -1
vn 0 0 -1
vn 0 0 -1
vn 0 0 -1
vn 0 0 -1
vn 0 0 -1
vn 0 0 -1
vn 0 0 -1
vn 0 0 -1
vn 0 0 -1
vn 0 0 -1
vn 0 0 -1
vn 0 0 -1
vn 0 0 -1
vn 0 0 -1
vn 0 0 -1
vn 0 0 -1
vn 0 0 -1
vn 0 0 -1
vn 0 0 -1
vn 0 0 -1
vn 0 0 -1
vn 0 0 -1
vn 0 0 -1
vn 0 0 -1
vn 0 0 -1
vn 0 0 -1
vn 0 0 -1
vn 0 0 -1
vn 0 0 -1
vn 0 0 -1
vn 0 0 -1
vn 0 0 -1
vn 0 0 -1
vn 0 0 -1
vn 0 0 -1
vn -0.992981 0.118273 0
vn -0.992981 0.118273 0
vn -1 0 0
vn -0.972023 0.234886 0
vn -1 0 0
vn -0.972023 0.234886 0
vn -0.992981 -0.118273 0
vn -0.972023 0.234886 0
vn -0.93742 0.348202 0
vn -0.972023 0.234886 0
vn -0.992981 -0.118273 0
vn -0.93742 0.348202 0
vn -0.972023 -0.234886 0
vn -0.889657 0.456629 0
vn -0.972023 -0.234886 0
vn -0.889657 0.456629 0
vn -0.93742 -0.348202 0
vn -0.829406 0.558647 0
vn -0.93742 -0.348202 0
vn -0.829406 0.558647 0
vn -0.889657 -0.456629 0
vn -0.757511 0.652822 0
vn -0.889657 -0.456629 0
vn -0.757511 0.652822 0
vn -0.829406 -0.558647 0
vn -0.674983 0.737833 0
vn -0.829406 -0.558647 0
vn -0.674983 0.737833 0
vn -0.757511 -0.652822 0
vn -0.58298 0.812487 0
vn -0.757511 -0.652822 0
vn -0.58298 0.812487 0
vn -0.674983 -0.737833 0
vn -0.482792 0.875735 0
vn -0.674983 -0.737833 0
vn -0.482792 0.875735 0
vn -0.58298 -0.812487 0
vn -0.375828 0.92669 0
vn -0.58298 -0.812487 0
vn -0.375828 0.92669 0
vn -0.58298 -0.812487 0
vn -0.58298 -0.812487 0
vn -0.482792 -0.875735 0
vn -0.263587 0.964636 0
vn -0.482792 -0.875735 0
vn -0.263587 0.964636 0
vn -0.375828 -0.92669 0
vn -0.147647 0.98904 0
vn -0.375828 -0.92669 0
vn -0.147647 0.98904 0
vn -0.263587 -0.964636 0
vn -0.0296333 0.999561 0
vn -0.263587 -0.964636 0
vn -0.0296333 0.999561 0
vn -0.147647 -0.98904 0
vn 0.0887959 0.99605 0
vn -0.147647 -0.98904 0
vn 0.0887959 0.99605 0
vn -0.0296333 -0.999561 0
vn 0.205979 0.978557 0
vn -0.0296333 -0.999561 0
vn 0.205979 0.978557 0
vn 0.0887959 -0.99605 0
vn 0.205979 0.978557 0
vn 0.32027 0.947326 0
vn 0.205979 0.978557 0
vn 0.0887959 -0.99605 0
vn 0.32027 0.947326 0
vn 0.205979 -0.978557 0
vn 0.430065 0.902798 0
vn 0.205979 -0.978557 0
vn 0.430065 0.902798 0
vn 0.32027 -0.947326 0
vn 0.533823 0.845596 0
vn 0.32027 -0.947326 0
vn 0.533823 0.845596 0
vn 0.430065 -0.902798 0
vn 0.630088 0.776524 0
vn 0.430065 -0.902798 0
vn 0.630088 0.776524 0
vn 0.533823 -0.845596 0
vn 0.717507 0.696551 0
vn 0.533823 -0.845596 0
vn 0.717507 0.696551 0
vn 0.630088 -0.776524 0
vn 0.794854 0.6068 0
vn 0.630088 -0.776524 0
vn 0.794854 0.6068 0
vn 0.717507 -0.696551 0
vn 0.861044 0.508531 0
vn 0.717507 -0.696551 0
vn 0.861044 0.508531 0
vn 0.794854 -0.6068 0
vn 0.915146 0.403123 0
vn 0.794854 -0.6068 0
vn 0.915146 0.403123 0
vn 0.861044 -0.508531 0
vn 0.956401 0.292057 0
vn 0.861044 -0.508531 0
vn 0.956401 0.292057 0
vn 0.861044 -0.508531 0
vn 0.861044 -0.508531 0
vn 0.915146 -0.403123 0
vn 0.984231 0.17689 0
vn 0.915146 -0.403123 0
vn 0.984231 0.17689 0
vn 0.956401 -0.292057 0
vn 0.998244 0.0592406 0
vn 0.956401 -0.292057 0
vn 0.998244 0.0592406 0
vn 0.984231 -0.17689 0
vn 0.998244 -0.0592406 0
vn 0.984231 -0.17689 0
vn 0.998244 -0.0592406 0


f 1/1/1 3/3/3 2/2/2
f 4/4/4 3/3/3 1/1/1
f 1/1/1 2/2/2 5/5/5
f 4/4/4 1/1/1 6/6/6
f 1/1/1 5/5/5 7/7/7
f 1/1/1 8/8/8 6/6/6
f 9/9/9 1/1/1 7/7/7
f 1/1/1 10/10/10 8/8/8
f 1/1/1 9/9/9 11/11/11
f 10/10/10 1/1/1 12/12/12
f 1/1/1 11/11/11 13/13/13
f 1/1/1 14/14/14 12/12/12
f 15/15/15 1/1/1 13/13/13
f 1/1/1 16/16/16 14/14/14
f 1/1/1 15/15/15 17/17/17
f 16/16/16 1/1/1 18/18/18
f 1/1/1 17/17/17 19/19/19
f 1/1/1 20/20/20 18/18/18
f 21/21/21 1/1/1 19/19/19
f 1/1/1 22/22/22 20/20/20
f 1/1/1 21/21/21 23/23/23
f 22/22/22 1/1/1 24/24/24
f 1/1/1 23/23/23 25/25/25
f 1/1/1 26/26/26 24/24/24
f 27/27/27 1/1/1 25/25/25
f 1/1/1 28/28/28 26/26/26
f 1/1/1 27/27/27 29/29/29
f 28/28/28 1/1/1 30/30/30
f 1/1/1 29/29/29 31/31/31
f 1/1/1 32/32/32 30/30/30
f 33/33/33 1/1/1 31/31/31
f 1/1/1 34/34/34 32/32/32
f 1/1/1 33/33/33 35/35/35
f 34/34/34 1/1/1 36/36/36
f 1/1/1 35/35/35 37/37/37
f 1/1/1 38/38/38 36/36/36
f 39/39/39 1/1/1 37/37/37
f 1/1/1 40/40/40 38/38/38
f 1/1/1 39/39/39 41/41/41
f 40/40/40 1/1/1 42/42/42
f 1/1/1 41/41/41 43/43/43
f 1/1/1 44/44/44 42/42/42
f 45/45/45 1/1/1 43/43/43
f 1/1/1 46/46/46 44/44/44
f 1/1/1 45/45/45 47/47/47
f 46/46/46 1/1/1 48/48/48
f 1/1/1 47/47/47 49/49/49
f 1/1/1 50/50/50 48/48/48
f 51/51/51 1/1/1 49/49/49
f 1/1/1 52/52/52 50/50/50
f 1/1/1 51/51/51 53/53/53
f 52/52/52 1/1/1 54/54/54
f 1/1/1 53/53/53 54/54/54
f 55/55/55 57/57/57 56/56/56
f 58/58/58 57/57/57 55/55/55
f 55/55/55 56/56/56 59/59/59
f 58/58/58 55/55/55 60/60/60
f 55/55/55 59/59/59 61/61/61
f 55/55/55 62/62/62 60/60/60
f 63/63/63 55/55/55 61/61/61
f 55/55/55 64/64/64 62/62/62
f 55/55/55 63/63/63 65/65/65
f 64/64/64 55/55/55 66/66/66
f 55/55/55 65/65/65 67/67/67
f 55/55/55 68/68/68 66/66/66
f 69/69/69 55/55/55 67/67/67
f 55/55/55 70/70/70 68/68/68
f 55/55/55 69/69/69 71/71/71
f 70/70/70 55/55/55 72/72/72
f 55/55/55 71/71/71 73/73/73
f 55/55/55 74/74/74 72/72/72
f 75/75/75 55/55/55 73/73/73
f 55/55/55 76/76/76 74/74/74
f 55/55/55 75/75/75 77/77/77
f 76/76/76 55/55/55 78/78/78
f 55/55/55 77/77/77 79/79/79
f 55/55/55 80/80/80 78/78/78
f 81/81/81 55/55/55 79/79/79
f 55/55/55 82/82/82 80/80/80
f 55/55/55 81/81/81 83/83/83
f 82/82/82 55/55/55 84/84/84
f 55/55/55 83/83/83 85/85/85
f 55/55/55 86/86/86 84/84/84
f 87/87/87 55/55/55 85/85/85
f 55/55/55 88/88/88 86/86/86
f 55/55/55 87/87/87 89/89/89
f 88/88/88 55/55/55 90/90/90
f 55/55/55 89/89/89 91/91/91
f 55/55/55 92/92/92 90/90/90
f 93/93/93 55/55/55 91/91/91
f 55/55/55 94/94/94 92/92/92
f 55/55/55 93/93/93 95/95/95
f 94/94/94 55/55/55 96/96/96
f 55/55/55 95/95/95 97/97/97
f 55/55/55 98/98/98 96/96/96
f 99/99/99 55/55/55 97/97/97
f 55/55/55 100/100/100 98/98/98
f 55/55/55 99/99/99 101/101/101
f 100/100/100 55/55/55 102/102/102
f 55/55/55 101/101/101 103/103/103
f 55/55/55 104/104/104 102/102/102
f 105/105/105 55/55/55 103/103/103
f 55/55/55 106/106/106 104/104/104
f 55/55/55 105/105/105 107/107/107
f 106/106/106 55/55/55 108/108/108
f 55/55/55 107/107/107 108/108/108
f 109/109/109 111/111/111 110/110/110
f 109/109/109 110/110/110 112/112/112
f 111/111/111 113/113/113 110/110/110
f 114/114/114 109/109/109 112/112/112
f 111/111/111 115/115/115 113/113/113
f 116/116/116 118/118/118 117/117/117
f 115/115/115 119/119/119 113/113/113
f 120/120/120 116/116/116 117/117/117
f 115/115/115 121/121/121 119/119/119
f 120/120/120 117/117/117 122/122/122
f 121/121/121 123/123/123 119/119/119
f 124/124/124 120/120/120 122/122/122
f 121/121/121 125/125/125 123/123/123
f 124/124/124 122/122/122 126/126/126
f 125/125/125 127/127/127 123/123/123
f 128/128/128 124/124/124 126/126/126
f 125/125/125 129/129/129 127/127/127
f 128/128/128 126/126/126 130/130/130
f 129/129/129 131/131/131 127/127/127
f 132/132/132 128/128/128 130/130/130
f 129/129/129 133/133/133 131/131/131
f 132/132/132 130/130/130 134/134/134
f 133/133/133 135/135/135 131/131/131
f 136/136/136 132/132/132 134/134/134
f 133/133/133 137/137/137 135/135/135
f 136/136/136 134/134/134 138/138/138
f 137/137/137 139/139/139 135/135/135
f 140/140/140 136/136/136 138/138/138
f 137/137/137 141/141/141 139/139/139
f 140/140/140 138/138/138 142/142/142
f 141/141/141 143/143/143 139/139/139
f 144/144/144 140/140/140 142/142/142
f 141/141/141 145/145/145 143/143/143
f 144/144/144 142/142/142 146/146/146
f 145/145/145 147/147/147 143/143/143
f 148/148/148 144/144/144 146/146/146
f 149/149/149 151/151/151 150/150/150
f 148/148/148 146/146/146 152/152/152
f 151/151/151 153/153/153 150/150/150
f 154/154/154 148/148/148 152/152/152
f 151/151/151 155/155/155 153/153/153
f 154/154/154 152/152/152 156/156/156
f 155/155/155 157/157/157 153/153/153
f 158/158/158 154/154/154 156/156/156
f 155/155/155 159/159/159 157/157/157
f 158/158/158 156/156/156 160/160/160
f 159/159/159 161/161/161 157/157/157
f 162/162/162 158/158/158 160/160/160
f 159/159/159 163/163/163 161/161/161
f 162/162/162 160/160/160 164/164/164
f 163/163/163 165/165/165 161/161/161
f 166/166/166 162/162/162 164/164/164
f 163/163/163 167/167/167 165/165/165
f 166/166/166 164/164/164 168/168/168
f 167/167/167 169/169/169 165/165/165
f 170/170/170 166/166/166 168/168/168
f 167/167/167 171/171/171 169/169/169
f 172/172/172 174/174/174 173/173/173
f 171/171/171 175/175/175 169/169/169
f 176/176/176 172/172/172 173/173/173
f 171/171/171 177/177/177 175/175/175
f 176/176/176 173/173/173 178/178/178
f 177/177/177 179/179/179 175/175/175
f 180/180/180 176/176/176 178/178/178
f 177/177/177 181/181/181 179/179/179
f 180/180/180 178/178/178 182/182/182
f 181/181/181 183/183/183 179/179/179
f 184/184/184 180/180/180 182/182/182
f 181/181/181 185/185/185 183/183/183
f 184/184/184 182/182/182 186/186/186
f 185/185/185 187/187/187 183/183/183
f 188/188/188 184/184/184 186/186/186
f 185/185/185 189/189/189 187/187/187
f 188/188/188 186/186/186 190/190/190
f 189/189/189 191/191/191 187/187/187
f 192/192/192 188/188/188 190/190/190
f 189/189/189 193/193/193 191/191/191
f 192/192/192 190/190/190 194/194/194
f 193/193/193 195/195/195 191/191/191
f 196/196/196 192/192/192 194/194/194
f 193/193/193 197/197/197 195/195/195
f 196/196/196 194/194/194 198/198/198
f 197/197/197 199/199/199 195/195/195
f 200/200/200 196/196/196 198/198/198
f 197/197/197 201/201/201 199/199/199
f 200/200/200 198/198/198 202/202/202
f 201/201/201 203/203/203 199/199/199
f 204/204/204 200/200/200 202/202/202
f 201/201/201 205/205/205 203/203/203
f 204/204/204 202/202/202 206/206/206
f 205/205/205 207/207/207 203/203/203
f 208/208/208 204/204/204 206/206/206
f 209/209/209 211/211/211 210/210/210
f 208/208/208 206/206/206 212/212/212
f 211/211/211 213/213/213 210/210/210
f 214/214/214 208/208/208 212/212/212
f 211/211/211 215/215/215 213/213/213
f 214/214/214 212/212/212 216/216/216
f 215/215/215 217/217/217 213/213/213
f 218/218/218 214/214/214 216/216/216
f 215/215/215 219/219/219 217/217/217
f 218/218/218 216/216/216 220/220/220
f 219/219/219 221/221/221 217/217/217
f 222/222/222 218/218/218 220/220/220
f 219/219/219 222/222/222 221/221/221
f 222/222/222 220/220/220 221/221/221
