v 0.0736875 -0.0615153 -0.0253661
v 0.0736875 -0.0615109 -0.0253637
v 0.0736875 -0.06152 -0.0253681
v 0.0736875 -0.0615067 -0.0253609
v 0.0736875 -0.0615023 -0.0253574
v 0.0736875 -0.0614982 -0.0253536
v 0.0736875 -0.0615249 -0.0253698
v 0.0736875 -0.0614944 -0.0253494
v 0.0736875 -0.061529 -0.0253709
v 0.0736875 -0.0615341 -0.0253718
v 0.0736875 -0.0615393 -0.0253722
v 0.0736875 -0.0614924 -0.0253469
v 0.0736875 -0.0614886 -0.0253414
v 0.0736875 -0.061485 -0.0253354
v 0.0736875 -0.0614817 -0.0253287
v 0.0736875 -0.0614787 -0.0253216
v 0.0736875 -0.0615448 -0.0253725
v 0.0736875 -0.0615462 -0.0253724
v 0.0736875 -0.0614773 -0.0253179
v 0.0736875 -0.0614742 -0.0253087
v 0.0736875 -0.061471 -0.0252978
v 0.0736875 -0.0614684 -0.0252872
v 0.0736875 -0.061466 -0.0252755
v 0.0736875 -0.0614649 -0.0252691
v 0.0736875 -0.0614628 -0.0252548
v 0.0736875 -0.0614611 -0.0252398
v 0.0736875 -0.0614599 -0.0252244
v 0.0736875 -0.0615523 -0.0253721
v 0.0736875 -0.0615546 -0.0253718
v 0.0736875 -0.0615592 -0.0253709
v 0.0736875 -0.0615637 -0.0253695
v 0.0736875 -0.0615682 -0.0253678
v 0.0736875 -0.0615727 -0.0253657
v 0.0736875 -0.0615775 -0.0253628
v 0.0736875 -0.0615817 -0.0253598
v 0.0736875 -0.0615858 -0.0253564
v 0.0736875 -0.0615896 -0.0253526
v 0.0736875 -0.0615926 -0.0253492
v 0.0736875 -0.0615966 -0.0253442
v 0.0736875 -0.0616003 -0.0253388
v 0.0736875 -0.0616038 -0.0253331
v 0.0736875 -0.0616071 -0.025327
v 0.0736875 -0.0616079 -0.0253254
v 0.0736875 -0.0616113 -0.0253179
v 0.0736875 -0.0616143 -0.0253102
v 0.0736875 -0.061617 -0.0253023
v 0.0736875 -0.0616194 -0.0252942
v 0.0736875 -0.0616215 -0.0252857
v 0.0736875 -0.0616234 -0.0252772
v 0.0736875 -0.0616254 -0.025266
v 0.0736875 -0.061627 -0.0252546
v 0.0736875 -0.0616284 -0.025243
v 0.0736875 -0.0616294 -0.025231
v 0.0736875 -0.0614592 -0.0252079
v 0.0736875 -0.0616302 -0.0252186
v 0.0736875 -0.0616307 -0.025206
v 0.0736875 -0.0614588 -0.0251859
v 0.0736875 -0.061631 -0.025186
v 0.0736875 -0.061459 -0.0251659
v 0.0736875 -0.0616308 -0.0251688
v 0.0736875 -0.0614594 -0.0251523
v 0.0736875 -0.0616303 -0.0251526
v 0.0736875 -0.0614601 -0.025139
v 0.0736875 -0.0614611 -0.0251261
v 0.0736875 -0.0616292 -0.0251363
v 0.0736875 -0.0614623 -0.0251137
v 0.0736875 -0.0614638 -0.0251017
v 0.0736875 -0.0616277 -0.0251202
v 0.0736875 -0.0614657 -0.0250901
v 0.0736875 -0.0614664 -0.0250861
v 0.0736875 -0.0614681 -0.0250779
v 0.0736875 -0.0616261 -0.025107
v 0.0736875 -0.0616243 -0.0250958
v 0.0736875 -0.061622 -0.0250846
v 0.0736875 -0.0616195 -0.0250739
v 0.0736875 -0.06147 -0.02507
v 0.0736875 -0.0616182 -0.0250693
v 0.0736875 -0.0616155 -0.0250607
v 0.0736875 -0.0616125 -0.0250527
v 0.0736875 -0.0616091 -0.0250451
v 0.0736875 -0.0616054 -0.0250379
v 0.0736875 -0.0616012 -0.025031
v 0.0736875 -0.0616 -0.0250291
v 0.0736875 -0.0614721 -0.0250625
v 0.0736875 -0.0615958 -0.0250231
v 0.0736875 -0.0615914 -0.0250177
v 0.0736875 -0.0615869 -0.025013
v 0.0736875 -0.0615823 -0.0250087
v 0.0736875 -0.0615787 -0.0250059
v 0.0736875 -0.0615742 -0.0250029
v 0.0736875 -0.0615696 -0.0250004
v 0.0736875 -0.0615648 -0.0249983
v 0.0736875 -0.0615643 -0.0249981
v 0.0736875 -0.0615594 -0.0249966
v 0.0736875 -0.0615548 -0.0249955
v 0.0736875 -0.06155 -0.024995
v 0.0736875 -0.0615449 -0.0249947
v 0.0736875 -0.0615405 -0.0249949
v 0.0736875 -0.0614745 -0.0250553
v 0.0736875 -0.0614771 -0.0250484
v 0.0736875 -0.0614794 -0.0250431
v 0.0736875 -0.0614826 -0.0250369
v 0.0736875 -0.0614861 -0.0250309
v 0.0736875 -0.06149 -0.0250252
v 0.0736875 -0.0614941 -0.0250198
v 0.0736875 -0.0614967 -0.0250167
v 0.0736875 -0.0615346 -0.0249955
v 0.0736875 -0.0615329 -0.0249958
v 0.0736875 -0.0615005 -0.0250127
v 0.0736875 -0.0615046 -0.0250091
v 0.0736875 -0.0615089 -0.0250058
v 0.0736875 -0.061528 -0.0249969
v 0.0736875 -0.0615231 -0.0249984
v 0.0736875 -0.0615137 -0.0250028
v 0.0736875 -0.0615184 -0.0250004
vn -1 0 -8.742269E-08
vn -1 0 -8.742269E-08
vn -1 0 -8.742269E-08
vn -1 0 -8.742269E-08
vn -1 0 -8.742269E-08
vn -1 0 -8.742269E-08
vn -1 0 -8.742269E-08
vn -1 0 -8.742269E-08
vn -1 0 -8.742269E-08
vn -1 0 -8.742269E-08
vn -1 0 -8.742269E-08
vn -1 0 -8.742269E-08
vn -1 0 -8.742269E-08
vn -1 0 -8.742269E-08
vn -1 0 -8.742269E-08
vn -1 0 -8.742269E-08
vn -1 0 -8.742269E-08
vn -1 0 -8.742269E-08
vn -1 0 -8.742269E-08
vn -1 0 -8.742269E-08
vn -1 0 -8.742269E-08
vn -1 0 -8.742269E-08
vn -1 0 -8.742269E-08
vn -1 0 -8.742269E-08
vn -1 0 -8.742269E-08
vn -1 0 -8.742269E-08
vn -1 0 -8.742269E-08
vn -1 0 -8.742269E-08
vn -1 0 -8.742269E-08
vn -1 0 -8.742269E-08
vn -1 0 -8.742269E-08
vn -1 0 -8.742269E-08
vn -1 0 -8.742269E-08
vn -1 0 -8.742269E-08
vn -1 0 -8.742269E-08
vn -1 0 -8.742269E-08
vn -1 0 -8.742269E-08
vn -1 0 -8.742269E-08
vn -1 0 -8.742269E-08
vn -1 0 -8.742269E-08
vn -1 0 -8.742269E-08
vn -1 0 -8.742269E-08
vn -1 0 -8.742269E-08
vn -1 0 -8.742269E-08
vn -1 0 -8.742269E-08
vn -1 0 -8.742269E-08
vn -1 0 -8.742269E-08
vn -1 0 -8.742269E-08
vn -1 0 -8.742269E-08
vn -1 0 -8.742269E-08
vn -1 0 -8.742269E-08
vn -1 0 -8.742269E-08
vn -1 0 -8.742269E-08
vn -1 0 -8.742269E-08
vn -1 0 -8.742269E-08
vn -1 0 -8.742269E-08
vn -1 0 -8.742269E-08
vn -1 0 -8.742269E-08
vn -1 0 -8.742269E-08
vn -1 0 -8.742269E-08
vn -1 0 -8.742269E-08
vn -1 0 -8.742269E-08
vn -1 0 -8.742269E-08
vn -1 0 -8.742269E-08
vn -1 0 -8.742269E-08
vn -1 0 -8.742269E-08
vn -1 0 -8.742269E-08
vn -1 0 -8.742269E-08
vn -1 0 -8.742269E-08
vn -1 0 -8.742269E-08
vn -1 0 -8.742269E-08
vn -1 0 -8.742269E-08
vn -1 0 -8.742269E-08
vn -1 0 -8.742269E-08
vn -1 0 -8.742269E-08
vn -1 0 -8.742269E-08
vn -1 0 -8.742269E-08
vn -1 0 -8.742269E-08
vn -1 0 -8.742269E-08
vn -1 0 -8.742269E-08
vn -1 0 -8.742269E-08
vn -1 0 -8.742269E-08
vn -1 0 -8.742269E-08
vn -1 0 -8.742269E-08
vn -1 0 -8.742269E-08
vn -1 0 -8.742269E-08
vn -1 0 -8.742269E-08
vn -1 0 -8.742269E-08
vn -1 0 -8.742269E-08
vn -1 0 -8.742269E-08
vn -1 0 -8.742269E-08
vn -1 0 -8.742269E-08
vn -1 0 -8.742269E-08
vn -1 0 -8.742269E-08
vn -1 0 -8.742269E-08
vn -1 0 -8.742269E-08
vn -1 0 -8.742269E-08
vn -1 0 -8.742269E-08
vn -1 0 -8.742269E-08
vn -1 0 -8.742269E-08
vn -1 0 -8.742269E-08
vn -1 0 -8.742269E-08
vn -1 0 -8.742269E-08
vn -1 0 -8.742269E-08
vn -1 0 -8.742269E-08
vn -1 0 -8.742269E-08
vn -1 0 -8.742269E-08
vn -1 0 -8.742269E-08
vn -1 0 -8.742269E-08
vn -1 0 -8.742269E-08
vn -1 0 -8.742269E-08
vn -1 0 -8.742269E-08
vn -1 0 -8.742269E-08
vn -1 0 -8.742269E-08
vn -1 0 -8.742269E-08


f 1/1/1 3/3/3 2/2/2
f 3/3/3 4/4/4 2/2/2
f 3/3/3 5/5/5 4/4/4
f 6/6/6 5/5/5 3/3/3
f 6/6/6 3/3/3 7/7/7
f 8/8/8 6/6/6 7/7/7
f 8/8/8 7/7/7 9/9/9
f 10/10/10 8/8/8 9/9/9
f 8/8/8 10/10/10 11/11/11
f 8/8/8 11/11/11 12/12/12
f 11/11/11 13/13/13 12/12/12
f 11/11/11 14/14/14 13/13/13
f 14/14/14 11/11/11 15/15/15
f 11/11/11 16/16/16 15/15/15
f 11/11/11 17/17/17 16/16/16
f 16/16/16 17/17/17 18/18/18
f 16/16/16 18/18/18 19/19/19
f 19/19/19 18/18/18 20/20/20
f 18/18/18 21/21/21 20/20/20
f 18/18/18 22/22/22 21/21/21
f 22/22/22 18/18/18 23/23/23
f 18/18/18 24/24/24 23/23/23
f 18/18/18 25/25/25 24/24/24
f 25/25/25 18/18/18 26/26/26
f 27/27/27 26/26/26 18/18/18
f 27/27/27 18/18/18 28/28/28
f 29/29/29 27/27/27 28/28/28
f 27/27/27 29/29/29 30/30/30
f 27/27/27 30/30/30 31/31/31
f 32/32/32 27/27/27 31/31/31
f 27/27/27 32/32/32 33/33/33
f 27/27/27 33/33/33 34/34/34
f 35/35/35 27/27/27 34/34/34
f 27/27/27 35/35/35 36/36/36
f 27/27/27 36/36/36 37/37/37
f 38/38/38 27/27/27 37/37/37
f 27/27/27 38/38/38 39/39/39
f 27/27/27 39/39/39 40/40/40
f 27/27/27 40/40/40 41/41/41
f 42/42/42 27/27/27 41/41/41
f 43/43/43 27/27/27 42/42/42
f 27/27/27 43/43/43 44/44/44
f 27/27/27 44/44/44 45/45/45
f 46/46/46 27/27/27 45/45/45
f 27/27/27 46/46/46 47/47/47
f 27/27/27 47/47/47 48/48/48
f 49/49/49 27/27/27 48/48/48
f 27/27/27 49/49/49 50/50/50
f 27/27/27 50/50/50 51/51/51
f 52/52/52 27/27/27 51/51/51
f 27/27/27 52/52/52 53/53/53
f 54/54/54 27/27/27 53/53/53
f 55/55/55 54/54/54 53/53/53
f 55/55/55 56/56/56 54/54/54
f 56/56/56 57/57/57 54/54/54
f 56/56/56 58/58/58 57/57/57
f 58/58/58 59/59/59 57/57/57
f 58/58/58 60/60/60 59/59/59
f 60/60/60 61/61/61 59/59/59
f 60/60/60 62/62/62 61/61/61
f 62/62/62 63/63/63 61/61/61
f 62/62/62 64/64/64 63/63/63
f 64/64/64 62/62/62 65/65/65
f 64/64/64 65/65/65 66/66/66
f 65/65/65 67/67/67 66/66/66
f 65/65/65 68/68/68 67/67/67
f 68/68/68 69/69/69 67/67/67
f 68/68/68 70/70/70 69/69/69
f 71/71/71 70/70/70 68/68/68
f 71/71/71 68/68/68 72/72/72
f 71/71/71 72/72/72 73/73/73
f 71/71/71 73/73/73 74/74/74
f 75/75/75 71/71/71 74/74/74
f 76/76/76 71/71/71 75/75/75
f 76/76/76 75/75/75 77/77/77
f 76/76/76 77/77/77 78/78/78
f 76/76/76 78/78/78 79/79/79
f 80/80/80 76/76/76 79/79/79
f 76/76/76 80/80/80 81/81/81
f 76/76/76 81/81/81 82/82/82
f 83/83/83 76/76/76 82/82/82
f 83/83/83 84/84/84 76/76/76
f 84/84/84 83/83/83 85/85/85
f 84/84/84 85/85/85 86/86/86
f 87/87/87 84/84/84 86/86/86
f 84/84/84 87/87/87 88/88/88
f 84/84/84 88/88/88 89/89/89
f 90/90/90 84/84/84 89/89/89
f 84/84/84 90/90/90 91/91/91
f 84/84/84 91/91/91 92/92/92
f 93/93/93 84/84/84 92/92/92
f 94/94/94 84/84/84 93/93/93
f 84/84/84 94/94/94 95/95/95
f 84/84/84 95/95/95 96/96/96
f 97/97/97 84/84/84 96/96/96
f 84/84/84 97/97/97 98/98/98
f 84/84/84 98/98/98 99/99/99
f 98/98/98 100/100/100 99/99/99
f 98/98/98 101/101/101 100/100/100
f 101/101/101 98/98/98 102/102/102
f 98/98/98 103/103/103 102/102/102
f 98/98/98 104/104/104 103/103/103
f 104/104/104 98/98/98 105/105/105
f 98/98/98 106/106/106 105/105/105
f 98/98/98 107/107/107 106/106/106
f 106/106/106 107/107/107 108/108/108
f 106/106/106 108/108/108 109/109/109
f 108/108/108 110/110/110 109/109/109
f 108/108/108 111/111/111 110/110/110
f 111/111/111 108/108/108 112/112/112
f 111/111/111 112/112/112 113/113/113
f 114/114/114 111/111/111 113/113/113
f 114/114/114 113/113/113 115/115/115
