v 0.078879 0.053983 -0.02608
v 0.078379 0.042483 -0.02658
v 0.078879 0.042483 -0.02608
v 0.078379 0.053983 -0.02658
v 0.070599 0.041983 -0.02658
v 0.074439 0.041983 -0.02658
v 0.074439 0.042483 -0.02658
v 0.070599 0.054483 -0.02658
v 0.074439 0.053983 -0.02658
v 0.074439 0.054483 -0.02658
v 0.078379 0.042483 -0.02658
v 0.078379 0.053983 -0.02658
vn 0.707107 0 -0.707107
vn 0.707107 0 -0.707107
vn 0.707107 0 -0.707107
vn 0.707107 0 -0.707107
vn 0 0 -1
vn 0 0 -1
vn 0 0 -1
vn 0 0 -1
vn 0 0 -1
vn 0 0 -1
vn 0 0 -1
vn 0 0 -1


f 1/1/1 3/3/3 2/2/2
f 1/1/1 2/2/2 4/4/4
f 5/5/5 7/7/7 6/6/6
f 8/8/8 7/7/7 5/5/5
f 8/8/8 9/9/9 7/7/7
f 9/9/9 8/8/8 10/10/10
f 9/9/9 11/11/11 7/7/7
f 9/9/9 12/12/12 11/11/11
