v 0.0802319 -0.0205891 -0.0216263
v 0.075699 -0.0205892 -0.0211263
v 0.075699 -0.0205891 -0.0216263
v 0.0802319 -0.0205892 -0.0211263
v 0.080799 -0.0206892 -0.0212263
v 0.0802319 -0.0210892 -0.0211264
v 0.0802319 -0.0205892 -0.0211263
v 0.080799 -0.0209892 -0.0212263
v 0.0802319 -0.0205892 -0.0211263
v 0.075699 -0.0210892 -0.0211264
v 0.075699 -0.0205892 -0.0211263
v 0.0802319 -0.0210892 -0.0211264
v 0.0802319 -0.0210892 -0.0211264
v 0.075699 -0.0210891 -0.0216264
v 0.075699 -0.0210892 -0.0211264
v 0.0802319 -0.0210891 -0.0216264
v 0.0802319 -0.0225891 -0.0216267
v 0.080799 -0.0229891 -0.0215268
v 0.080799 -0.0226891 -0.0215267
v 0.0802319 -0.0230891 -0.0216268
v 0.0802319 -0.0225891 -0.0216267
v 0.075699 -0.0225892 -0.0211267
v 0.075699 -0.0225891 -0.0216267
v 0.0802319 -0.0225892 -0.0211267
v 0.0802319 -0.0225892 -0.0211267
v 0.075699 -0.0230892 -0.0211268
v 0.075699 -0.0225892 -0.0211267
v 0.0802319 -0.0230892 -0.0211268
v 0.080799 -0.0226892 -0.0212267
v 0.0802319 -0.0230892 -0.0211268
v 0.0802319 -0.0225892 -0.0211267
v 0.080799 -0.0229892 -0.0212268
v 0.080799 -0.0229892 -0.0212268
v 0.0802319 -0.0230891 -0.0216268
v 0.0802319 -0.0230892 -0.0211268
v 0.080799 -0.0229891 -0.0215268
v 0.0802319 -0.0230892 -0.0211268
v 0.075699 -0.0230891 -0.0216268
v 0.075699 -0.0230892 -0.0211268
v 0.0802319 -0.0230891 -0.0216268
v 0.0802319 -0.0190892 -0.0211259
v 0.075699 -0.0190891 -0.0216259
v 0.075699 -0.0190892 -0.0211259
v 0.0802319 -0.0190891 -0.0216259
v 0.0802319 -0.0285891 -0.0216281
v 0.075699 -0.0285892 -0.0211281
v 0.075699 -0.0285891 -0.0216281
v 0.0802319 -0.0285892 -0.0211281
v 0.0802319 -0.0290891 -0.0216282
v 0.075699 -0.0285891 -0.0216281
v 0.075699 -0.0290891 -0.0216282
v 0.0802319 -0.0285891 -0.0216281
v 0.0802319 -0.0245891 -0.0216272
v 0.080799 -0.0249891 -0.0215272
v 0.080799 -0.0246891 -0.0215272
v 0.0802319 -0.0250891 -0.0216273
v 0.0802319 -0.0245891 -0.0216272
v 0.075699 -0.0245892 -0.0211272
v 0.075699 -0.0245891 -0.0216272
v 0.0802319 -0.0245892 -0.0211272
v 0.0802319 -0.0245892 -0.0211272
v 0.075699 -0.0250892 -0.0211273
v 0.075699 -0.0245892 -0.0211272
v 0.0802319 -0.0250892 -0.0211273
v 0.080799 -0.0246892 -0.0212272
v 0.0802319 -0.0250892 -0.0211273
v 0.0802319 -0.0245892 -0.0211272
v 0.080799 -0.0249892 -0.0212272
v 0.080799 -0.0249892 -0.0212272
v 0.0802319 -0.0250891 -0.0216273
v 0.0802319 -0.0250892 -0.0211273
v 0.080799 -0.0249891 -0.0215272
v 0.0802319 -0.0250892 -0.0211273
v 0.075699 -0.0250891 -0.0216273
v 0.075699 -0.0250892 -0.0211273
v 0.0802319 -0.0250891 -0.0216273
v 0.0802319 -0.0270891 -0.0216277
v 0.075699 -0.0265891 -0.0216276
v 0.075699 -0.0270891 -0.0216277
v 0.0802319 -0.0265891 -0.0216276
v 0.0802319 -0.0265891 -0.0216276
v 0.075699 -0.0265892 -0.0211276
v 0.075699 -0.0265891 -0.0216276
v 0.0802319 -0.0265892 -0.0211276
v 0.0802319 -0.0265892 -0.0211276
v 0.075699 -0.0270892 -0.0211277
v 0.075699 -0.0265892 -0.0211276
v 0.0802319 -0.0270892 -0.0211277
vn 0 1 0.000225071
vn 0 1 0.000225071
vn 0 1 0.000225071
vn 0 1 0.000225071
vn 0.173648 -0.000221652 0.984808
vn 0.173648 -0.000221652 0.984808
vn 0.173648 -0.000221652 0.984808
vn 0.173648 -0.000221652 0.984808
vn -4.37114E-08 -0.000225071 1
vn -4.37114E-08 -0.000225071 1
vn -4.37114E-08 -0.000225071 1
vn -4.37114E-08 -0.000225071 1
vn 0 -1 -0.000225071
vn 0 -1 -0.000225071
vn 0 -1 -0.000225071
vn 0 -1 -0.000225071
vn 0.173648 0.000221652 -0.984808
vn 0.173648 0.000221652 -0.984808
vn 0.173648 0.000221652 -0.984808
vn 0.173648 0.000221652 -0.984808
vn 0 1 0.000225071
vn 0 1 0.000225071
vn 0 1 0.000225071
vn 0 1 0.000225071
vn -4.37114E-08 -0.000225071 1
vn -4.37114E-08 -0.000225071 1
vn -4.37114E-08 -0.000225071 1
vn -4.37114E-08 -0.000225071 1
vn 0.173648 -0.000221652 0.984808
vn 0.173648 -0.000221652 0.984808
vn 0.173648 -0.000221652 0.984808
vn 0.173648 -0.000221652 0.984808
vn 0.173648 -0.984808 -0.000221644
vn 0.173648 -0.984808 -0.000221644
vn 0.173648 -0.984808 -0.000221644
vn 0.173648 -0.984808 -0.000221644
vn 0 -1 -0.000225071
vn 0 -1 -0.000225071
vn 0 -1 -0.000225071
vn 0 -1 -0.000225071
vn 0 -1 -0.000225071
vn 0 -1 -0.000225071
vn 0 -1 -0.000225071
vn 0 -1 -0.000225071
vn 0 1 0.000225071
vn 0 1 0.000225071
vn 0 1 0.000225071
vn 0 1 0.000225071
vn 4.37114E-08 0.000225071 -1
vn 4.37114E-08 0.000225071 -1
vn 4.37114E-08 0.000225071 -1
vn 4.37114E-08 0.000225071 -1
vn 0.173648 0.000221652 -0.984808
vn 0.173648 0.000221652 -0.984808
vn 0.173648 0.000221652 -0.984808
vn 0.173648 0.000221652 -0.984808
vn 0 1 0.000225071
vn 0 1 0.000225071
vn 0 1 0.000225071
vn 0 1 0.000225071
vn -4.37114E-08 -0.000225071 1
vn -4.37114E-08 -0.000225071 1
vn -4.37114E-08 -0.000225071 1
vn -4.37114E-08 -0.000225071 1
vn 0.173648 -0.000221652 0.984808
vn 0.173648 -0.000221652 0.984808
vn 0.173648 -0.000221652 0.984808
vn 0.173648 -0.000221652 0.984808
vn 0.173648 -0.984808 -0.000221644
vn 0.173648 -0.984808 -0.000221644
vn 0.173648 -0.984808 -0.000221644
vn 0.173648 -0.984808 -0.000221644
vn 0 -1 -0.000225071
vn 0 -1 -0.000225071
vn 0 -1 -0.000225071
vn 0 -1 -0.000225071
vn 4.37114E-08 0.000225071 -1
vn 4.37114E-08 0.000225071 -1
vn 4.37114E-08 0.000225071 -1
vn 4.37114E-08 0.000225071 -1
vn 0 1 0.000225071
vn 0 1 0.000225071
vn 0 1 0.000225071
vn 0 1 0.000225071
vn -4.37114E-08 -0.000225071 1
vn -4.37114E-08 -0.000225071 1
vn -4.37114E-08 -0.000225071 1
vn -4.37114E-08 -0.000225071 1


f 1/1/1 3/3/3 2/2/2
f 1/1/1 2/2/2 4/4/4
f 5/5/5 7/7/7 6/6/6
f 5/5/5 6/6/6 8/8/8
f 9/9/9 11/11/11 10/10/10
f 9/9/9 10/10/10 12/12/12
f 13/13/13 15/15/15 14/14/14
f 13/13/13 14/14/14 16/16/16
f 17/17/17 19/19/19 18/18/18
f 17/17/17 18/18/18 20/20/20
f 21/21/21 23/23/23 22/22/22
f 21/21/21 22/22/22 24/24/24
f 25/25/25 27/27/27 26/26/26
f 25/25/25 26/26/26 28/28/28
f 29/29/29 31/31/31 30/30/30
f 29/29/29 30/30/30 32/32/32
f 33/33/33 35/35/35 34/34/34
f 33/33/33 34/34/34 36/36/36
f 37/37/37 39/39/39 38/38/38
f 37/37/37 38/38/38 40/40/40
f 41/41/41 43/43/43 42/42/42
f 41/41/41 42/42/42 44/44/44
f 45/45/45 47/47/47 46/46/46
f 45/45/45 46/46/46 48/48/48
f 49/49/49 51/51/51 50/50/50
f 49/49/49 50/50/50 52/52/52
f 53/53/53 55/55/55 54/54/54
f 53/53/53 54/54/54 56/56/56
f 57/57/57 59/59/59 58/58/58
f 57/57/57 58/58/58 60/60/60
f 61/61/61 63/63/63 62/62/62
f 61/61/61 62/62/62 64/64/64
f 65/65/65 67/67/67 66/66/66
f 65/65/65 66/66/66 68/68/68
f 69/69/69 71/71/71 70/70/70
f 69/69/69 70/70/70 72/72/72
f 73/73/73 75/75/75 74/74/74
f 73/73/73 74/74/74 76/76/76
f 77/77/77 79/79/79 78/78/78
f 77/77/77 78/78/78 80/80/80
f 81/81/81 83/83/83 82/82/82
f 81/81/81 82/82/82 84/84/84
f 85/85/85 87/87/87 86/86/86
f 85/85/85 86/86/86 88/88/88
