v 0.075299 -0.0338857 -0.028681
v 0.072149 -0.0338813 -0.0287278
v 0.072149 -0.0338818 -0.0287435
v 0.072149 -0.0338857 -0.028681
v 0.072149 -0.0339051 -0.0286214
v 0.075299 -0.0338818 -0.0287435
v 0.075299 -0.0339051 -0.0286214
v 0.075299 -0.0338935 -0.0288051
v 0.075299 -0.0339051 -0.0286214
v 0.072149 -0.0339387 -0.0285685
v 0.072149 -0.0339051 -0.0286214
v 0.072149 -0.0338935 -0.0288051
v 0.075299 -0.0339387 -0.0285685
v 0.075299 -0.0339202 -0.0288618
v 0.072149 -0.0339844 -0.0285256
v 0.072149 -0.0339202 -0.0288618
v 0.075299 -0.0339844 -0.0285256
v 0.075299 -0.0339601 -0.0289101
v 0.072149 -0.0340393 -0.0284954
v 0.072149 -0.0339601 -0.0289101
v 0.075299 -0.0340393 -0.0284954
v 0.075299 -0.0339601 -0.0289101
v 0.072149 -0.0339601 -0.0289101
v 0.075299 -0.0340108 -0.0289469
v 0.072149 -0.0341 -0.0284798
v 0.072149 -0.0340108 -0.0289469
v 0.075299 -0.0341 -0.0284798
v 0.075299 -0.034069 -0.02897
v 0.075299 -0.0341 -0.0284798
v 0.072149 -0.0341627 -0.0284798
v 0.072149 -0.0341 -0.0284798
v 0.072149 -0.034069 -0.02897
v 0.075299 -0.0341627 -0.0284798
v 0.075299 -0.0341312 -0.0289779
v 0.072149 -0.0342234 -0.0284954
v 0.072149 -0.0341312 -0.0289779
v 0.075299 -0.0342234 -0.0284954
v 0.075299 -0.0341934 -0.02897
v 0.072149 -0.0342783 -0.0285256
v 0.072149 -0.0341934 -0.02897
v 0.075299 -0.0342783 -0.0285256
v 0.075299 -0.0342517 -0.028947
v 0.072149 -0.0343239 -0.0285686
v 0.072149 -0.0342517 -0.028947
v 0.075299 -0.0343239 -0.0285686
v 0.075299 -0.0342517 -0.028947
v 0.072149 -0.0342517 -0.028947
v 0.075299 -0.0343024 -0.0289101
v 0.072149 -0.0343575 -0.0286215
v 0.072149 -0.0343024 -0.0289101
v 0.075299 -0.0343575 -0.0286215
v 0.075299 -0.0343423 -0.0288619
v 0.072149 -0.0343769 -0.0286811
v 0.072149 -0.0343423 -0.0288619
v 0.075299 -0.0343769 -0.0286811
v 0.072149 -0.0343769 -0.0286811
v 0.075299 -0.0343575 -0.0286215
v 0.075299 -0.034369 -0.0288052
v 0.072149 -0.0343813 -0.0287279
v 0.072149 -0.034369 -0.0288052
v 0.075299 -0.0343808 -0.0287436
v 0.072149 -0.0343808 -0.0287436
vn 8.1907E-09 0.982245 0.187602
vn 0 1 0.000224984
vn -2.74466E-09 0.998041 -0.062566
vn 8.1907E-09 0.982245 0.187602
vn 1.86114E-08 0.904731 0.425983
vn -2.74466E-09 0.998041 -0.062566
vn 1.86114E-08 0.904731 0.425983
vn -1.35076E-08 0.951126 -0.308803
vn 1.86114E-08 0.904731 0.425983
vn 2.78627E-08 0.77037 0.637597
vn 1.86114E-08 0.904731 0.425983
vn -1.35076E-08 0.951126 -0.308803
vn 2.78627E-08 0.77037 0.637597
vn -2.34217E-08 0.844448 -0.535637
vn 3.53633E-08 0.587603 0.809149
vn -2.34217E-08 0.844448 -0.535637
vn 3.53633E-08 0.587603 0.809149
vn -3.18642E-08 0.684711 -0.728815
vn 4.06418E-08 0.367915 0.929859
vn -3.18642E-08 0.684711 -0.728815
vn 4.06418E-08 0.367915 0.929859
vn -3.18642E-08 0.684711 -0.728815
vn -3.18642E-08 0.684711 -0.728815
vn -3.83046E-08 0.481951 -0.876198
vn 4.33667E-08 0.12511 0.992143
vn -3.83046E-08 0.481951 -0.876198
vn 4.33667E-08 0.12511 0.992143
vn -4.23381E-08 0.248908 -0.968527
vn 4.33667E-08 0.12511 0.992143
vn 4.33667E-08 -0.125556 0.992086
vn 4.33667E-08 0.12511 0.992143
vn -4.23381E-08 0.248908 -0.968527
vn 4.33667E-08 -0.125556 0.992086
vn -4.37114E-08 0.000224984 -1
vn 4.06418E-08 -0.368334 0.929694
vn -4.37114E-08 0.000224984 -1
vn 4.06418E-08 -0.368334 0.929694
vn -4.23381E-08 -0.248472 -0.968639
vn 3.53633E-08 -0.587967 0.808885
vn -4.23381E-08 -0.248472 -0.968639
vn 3.53633E-08 -0.587967 0.808885
vn -3.83046E-08 -0.481557 -0.876415
vn 2.78627E-08 -0.770657 0.637251
vn -3.83046E-08 -0.481557 -0.876415
vn 2.78627E-08 -0.770657 0.637251
vn -3.83046E-08 -0.481557 -0.876415
vn -3.83046E-08 -0.481557 -0.876415
vn -3.18642E-08 -0.684383 -0.729123
vn 1.86114E-08 -0.904923 0.425576
vn -3.18642E-08 -0.684383 -0.729123
vn 1.86114E-08 -0.904923 0.425576
vn -2.34217E-08 -0.844207 -0.536017
vn 8.1907E-09 -0.982329 0.18716
vn -2.34217E-08 -0.844207 -0.536017
vn 8.1907E-09 -0.982329 0.18716
vn 8.1907E-09 -0.982329 0.18716
vn 1.86114E-08 -0.904923 0.425576
vn -1.35076E-08 -0.950987 -0.309231
vn 0 -1 -0.000224984
vn -1.35076E-08 -0.950987 -0.309231
vn -2.74466E-09 -0.998013 -0.0630151
vn -2.74466E-09 -0.998013 -0.0630151


f 1/1/1 3/3/3 2/2/2
f 1/1/1 2/2/2 4/4/4
f 5/5/5 1/1/1 4/4/4
f 6/6/6 3/3/3 1/1/1
f 7/7/7 1/1/1 5/5/5
f 6/6/6 8/8/8 3/3/3
f 9/9/9 11/11/11 10/10/10
f 8/8/8 12/12/12 3/3/3
f 13/13/13 9/9/9 10/10/10
f 8/8/8 14/14/14 12/12/12
f 13/13/13 10/10/10 15/15/15
f 14/14/14 16/16/16 12/12/12
f 17/17/17 13/13/13 15/15/15
f 14/14/14 18/18/18 16/16/16
f 17/17/17 15/15/15 19/19/19
f 18/18/18 20/20/20 16/16/16
f 21/21/21 17/17/17 19/19/19
f 22/22/22 24/24/24 23/23/23
f 21/21/21 19/19/19 25/25/25
f 24/24/24 26/26/26 23/23/23
f 27/27/27 21/21/21 25/25/25
f 24/24/24 28/28/28 26/26/26
f 29/29/29 31/31/31 30/30/30
f 28/28/28 32/32/32 26/26/26
f 33/33/33 29/29/29 30/30/30
f 28/28/28 34/34/34 32/32/32
f 33/33/33 30/30/30 35/35/35
f 34/34/34 36/36/36 32/32/32
f 37/37/37 33/33/33 35/35/35
f 34/34/34 38/38/38 36/36/36
f 37/37/37 35/35/35 39/39/39
f 38/38/38 40/40/40 36/36/36
f 41/41/41 37/37/37 39/39/39
f 38/38/38 42/42/42 40/40/40
f 41/41/41 39/39/39 43/43/43
f 42/42/42 44/44/44 40/40/40
f 45/45/45 41/41/41 43/43/43
f 46/46/46 48/48/48 47/47/47
f 45/45/45 43/43/43 49/49/49
f 48/48/48 50/50/50 47/47/47
f 51/51/51 45/45/45 49/49/49
f 48/48/48 52/52/52 50/50/50
f 51/51/51 49/49/49 53/53/53
f 52/52/52 54/54/54 50/50/50
f 55/55/55 57/57/57 56/56/56
f 52/52/52 58/58/58 54/54/54
f 55/55/55 56/56/56 59/59/59
f 58/58/58 60/60/60 54/54/54
f 61/61/61 55/55/55 59/59/59
f 58/58/58 61/61/61 60/60/60
f 61/61/61 59/59/59 62/62/62
f 61/61/61 62/62/62 60/60/60
