v 0.072799 -0.0185892 -0.0211258
v 0.075299 -0.0185891 -0.0216258
v 0.075299 -0.0185892 -0.0211258
v 0.072799 -0.0185891 -0.0216258
v 0.072799 -0.0190892 -0.0211259
v 0.075299 -0.0185892 -0.0211258
v 0.075299 -0.0190892 -0.0211259
v 0.072799 -0.0185892 -0.0211258
vn 0 1 0.000225071
vn 0 1 0.000225071
vn 0 1 0.000225071
vn 0 1 0.000225071
vn -4.37114E-08 -0.000225071 1
vn -4.37114E-08 -0.000225071 1
vn -4.37114E-08 -0.000225071 1
vn -4.37114E-08 -0.000225071 1


f 1/1/1 3/3/3 2/2/2
f 1/1/1 2/2/2 4/4/4
f 5/5/5 7/7/7 6/6/6
f 5/5/5 6/6/6 8/8/8
