v 0.071899 -0.0336438 -0.0222253
v 0.0724661 -0.0335439 -0.0216903
v 0.071899 -0.0336439 -0.0217903
v 0.0724661 -0.0335438 -0.0223253
v 0.073799 -0.0341788 -0.0223254
v 0.0724661 -0.0335438 -0.0223253
v 0.0724661 -0.0341788 -0.0223254
v 0.073799 -0.0335438 -0.0223253
v 0.073799 -0.0335438 -0.0223253
v 0.0724661 -0.0335439 -0.0216903
v 0.0724661 -0.0335438 -0.0223253
v 0.073799 -0.0335439 -0.0216903
vn -0.173648 0.984808 0.000221573
vn -0.173648 0.984808 0.000221573
vn -0.173648 0.984808 0.000221573
vn -0.173648 0.984808 0.000221573
vn -4.37114E-08 0.000224984 -1
vn -4.37114E-08 0.000224984 -1
vn -4.37114E-08 0.000224984 -1
vn -4.37114E-08 0.000224984 -1
vn 0 1 0.000224984
vn 0 1 0.000224984
vn 0 1 0.000224984
vn 0 1 0.000224984


f 1/1/1 3/3/3 2/2/2
f 1/1/1 2/2/2 4/4/4
f 5/5/5 7/7/7 6/6/6
f 5/5/5 6/6/6 8/8/8
f 9/9/9 11/11/11 10/10/10
f 9/9/9 10/10/10 12/12/12
