v 0.0810819 -0.0551832 -0.0279386
v 0.075999 -0.0551831 -0.0285736
v 0.075999 -0.0551832 -0.0279386
v 0.0810819 -0.0551831 -0.0285736
v 0.081649 -0.0550832 -0.0280386
v 0.081649 -0.0546481 -0.0284735
v 0.081649 -0.0550831 -0.0284736
v 0.081649 -0.0546482 -0.0280385
v 0.081649 -0.0546482 -0.0280385
v 0.0810819 -0.0551832 -0.0279386
v 0.0810819 -0.0545482 -0.0279385
v 0.081649 -0.0550832 -0.0280386
v 0.0810819 -0.0545482 -0.0279385
v 0.075999 -0.0551832 -0.0279386
v 0.075999 -0.0545482 -0.0279385
v 0.0810819 -0.0551832 -0.0279386
v 0.0810819 -0.0601832 -0.0279397
v 0.075999 -0.0601831 -0.0285747
v 0.075999 -0.0601832 -0.0279397
v 0.0810819 -0.0601831 -0.0285747
v 0.081649 -0.0600832 -0.0280397
v 0.081649 -0.0596481 -0.0284746
v 0.081649 -0.0600831 -0.0284747
v 0.081649 -0.0596482 -0.0280396
v 0.081649 -0.0596482 -0.0280396
v 0.0810819 -0.0601832 -0.0279397
v 0.0810819 -0.0595482 -0.0279396
v 0.081649 -0.0600832 -0.0280397
v 0.0810819 -0.0595482 -0.0279396
v 0.081649 -0.0596481 -0.0284746
v 0.081649 -0.0596482 -0.0280396
v 0.0810819 -0.0595481 -0.0285746
v 0.0810819 -0.0595481 -0.0285746
v 0.075999 -0.0595482 -0.0279396
v 0.075999 -0.0595481 -0.0285746
v 0.0810819 -0.0595482 -0.0279396
v 0.0810819 -0.0570482 -0.027939
v 0.075999 -0.0576832 -0.0279392
v 0.075999 -0.0570482 -0.027939
v 0.0810819 -0.0576832 -0.0279392
v 0.0810819 -0.0620482 -0.0279402
v 0.075999 -0.0626832 -0.0279403
v 0.075999 -0.0620482 -0.0279402
v 0.0810819 -0.0626832 -0.0279403
v 0.081649 -0.0525832 -0.028038
v 0.0810819 -0.0526831 -0.0285731
v 0.0810819 -0.0526832 -0.0279381
v 0.081649 -0.0525831 -0.028473
v 0.0810819 -0.0526832 -0.0279381
v 0.075999 -0.0526831 -0.0285731
v 0.075999 -0.0526832 -0.0279381
v 0.0810819 -0.0526831 -0.0285731
v 0.0810819 -0.0520482 -0.0279379
v 0.081649 -0.0521481 -0.0284729
v 0.081649 -0.0521482 -0.0280379
v 0.0810819 -0.0520481 -0.0285729
v 0.0810819 -0.0520481 -0.0285729
v 0.075999 -0.0520482 -0.0279379
v 0.075999 -0.0520481 -0.0285729
v 0.0810819 -0.0520482 -0.0279379
v 0.0810819 -0.0520482 -0.0279379
v 0.075999 -0.0526832 -0.0279381
v 0.075999 -0.0520482 -0.0279379
v 0.0810819 -0.0526832 -0.0279381
v 0.0810819 -0.0545481 -0.0285735
v 0.075999 -0.0545482 -0.0279385
v 0.075999 -0.0545481 -0.0285735
v 0.0810819 -0.0545482 -0.0279385
vn 0 -1 -0.000224984
vn 0 -1 -0.000224984
vn 0 -1 -0.000224984
vn 0 -1 -0.000224984
vn 1 0 -4.37114E-08
vn 1 0 -4.37114E-08
vn 1 0 -4.37114E-08
vn 1 0 -4.37114E-08
vn 0.173648 -0.000221566 0.984808
vn 0.173648 -0.000221566 0.984808
vn 0.173648 -0.000221566 0.984808
vn 0.173648 -0.000221566 0.984808
vn 4.37114E-08 -0.000224984 1
vn 4.37114E-08 -0.000224984 1
vn 4.37114E-08 -0.000224984 1
vn 4.37114E-08 -0.000224984 1
vn 0 -1 -0.000224984
vn 0 -1 -0.000224984
vn 0 -1 -0.000224984
vn 0 -1 -0.000224984
vn 1 0 -4.37114E-08
vn 1 0 -4.37114E-08
vn 1 0 -4.37114E-08
vn 1 0 -4.37114E-08
vn 0.173648 -0.000221566 0.984808
vn 0.173648 -0.000221566 0.984808
vn 0.173648 -0.000221566 0.984808
vn 0.173648 -0.000221566 0.984808
vn 0.173648 0.984808 0.000221558
vn 0.173648 0.984808 0.000221558
vn 0.173648 0.984808 0.000221558
vn 0.173648 0.984808 0.000221558
vn 0 1 0.000224984
vn 0 1 0.000224984
vn 0 1 0.000224984
vn 0 1 0.000224984
vn 4.37114E-08 -0.000224984 1
vn 4.37114E-08 -0.000224984 1
vn 4.37114E-08 -0.000224984 1
vn 4.37114E-08 -0.000224984 1
vn 4.37114E-08 -0.000224984 1
vn 4.37114E-08 -0.000224984 1
vn 4.37114E-08 -0.000224984 1
vn 4.37114E-08 -0.000224984 1
vn 0.173648 -0.984808 -0.000221573
vn 0.173648 -0.984808 -0.000221573
vn 0.173648 -0.984808 -0.000221573
vn 0.173648 -0.984808 -0.000221573
vn 0 -1 -0.000224984
vn 0 -1 -0.000224984
vn 0 -1 -0.000224984
vn 0 -1 -0.000224984
vn 0.173648 0.984808 0.000221558
vn 0.173648 0.984808 0.000221558
vn 0.173648 0.984808 0.000221558
vn 0.173648 0.984808 0.000221558
vn 0 1 0.000224984
vn 0 1 0.000224984
vn 0 1 0.000224984
vn 0 1 0.000224984
vn 4.37114E-08 -0.000224984 1
vn 4.37114E-08 -0.000224984 1
vn 4.37114E-08 -0.000224984 1
vn 4.37114E-08 -0.000224984 1
vn 0 1 0.000224984
vn 0 1 0.000224984
vn 0 1 0.000224984
vn 0 1 0.000224984


f 1/1/1 3/3/3 2/2/2
f 1/1/1 2/2/2 4/4/4
f 5/5/5 7/7/7 6/6/6
f 5/5/5 6/6/6 8/8/8
f 9/9/9 11/11/11 10/10/10
f 9/9/9 10/10/10 12/12/12
f 13/13/13 15/15/15 14/14/14
f 13/13/13 14/14/14 16/16/16
f 17/17/17 19/19/19 18/18/18
f 17/17/17 18/18/18 20/20/20
f 21/21/21 23/23/23 22/22/22
f 21/21/21 22/22/22 24/24/24
f 25/25/25 27/27/27 26/26/26
f 25/25/25 26/26/26 28/28/28
f 29/29/29 31/31/31 30/30/30
f 29/29/29 30/30/30 32/32/32
f 33/33/33 35/35/35 34/34/34
f 33/33/33 34/34/34 36/36/36
f 37/37/37 39/39/39 38/38/38
f 37/37/37 38/38/38 40/40/40
f 41/41/41 43/43/43 42/42/42
f 41/41/41 42/42/42 44/44/44
f 45/45/45 47/47/47 46/46/46
f 45/45/45 46/46/46 48/48/48
f 49/49/49 51/51/51 50/50/50
f 49/49/49 50/50/50 52/52/52
f 53/53/53 55/55/55 54/54/54
f 53/53/53 54/54/54 56/56/56
f 57/57/57 59/59/59 58/58/58
f 57/57/57 58/58/58 60/60/60
f 61/61/61 63/63/63 62/62/62
f 61/61/61 62/62/62 64/64/64
f 65/65/65 67/67/67 66/66/66
f 65/65/65 66/66/66 68/68/68
