v 0.0802319 -0.0265877 -0.0278752
v 0.075699 -0.0265878 -0.0273752
v 0.075699 -0.0265877 -0.0278752
v 0.0802319 -0.0265878 -0.0273752
v 0.0802319 -0.0270877 -0.0278753
v 0.075699 -0.0265877 -0.0278752
v 0.075699 -0.0270877 -0.0278753
v 0.0802319 -0.0265877 -0.0278752
vn 0 1 0.000225071
vn 0 1 0.000225071
vn 0 1 0.000225071
vn 0 1 0.000225071
vn 4.37114E-08 0.000225071 -1
vn 4.37114E-08 0.000225071 -1
vn 4.37114E-08 0.000225071 -1
vn 4.37114E-08 0.000225071 -1


f 1/1/1 3/3/3 2/2/2
f 1/1/1 2/2/2 4/4/4
f 5/5/5 7/7/7 6/6/6
f 5/5/5 6/6/6 8/8/8
