v 0.062399 0.0230659 -0.0147835
v 0.063954 0.0230919 -0.0147406
v 0.062399 0.0230919 -0.0147406
v 0.063954 0.0230659 -0.0147835
v 0.062399 0.0230474 -0.0148302
v 0.063954 0.0230474 -0.0148302
v 0.062399 0.023037 -0.0148793
v 0.063954 0.023037 -0.0148793
v 0.062399 0.0230349 -0.0149295
v 0.063954 0.0230349 -0.0149295
v 0.062399 0.0230412 -0.0149793
v 0.063954 0.0230412 -0.0149793
v 0.062399 0.0230557 -0.0150274
v 0.063954 0.0230557 -0.0150274
v 0.062399 0.023078 -0.0150723
v 0.063954 0.023078 -0.0150723
v 0.062399 0.0231075 -0.0151129
v 0.063954 0.023078 -0.0150723
v 0.062399 0.023078 -0.0150723
v 0.063954 0.0231075 -0.0151129
v 0.062399 0.0231434 -0.0151481
v 0.063954 0.0231434 -0.0151481
v 0.062399 0.0231846 -0.0151767
v 0.063954 0.0231846 -0.0151767
v 0.063954 0.023933 -0.0156088
v 0.062399 0.023933 -0.0156088
vn 0 0.895712 -0.444635
vn 0 0.809017 -0.587785
vn 0 0.809017 -0.587785
vn 0 0.895712 -0.444635
vn 0 0.957319 -0.289032
vn 0 0.957319 -0.289032
vn 0 0.992115 -0.125333
vn 0 0.992115 -0.125333
vn 0 0.999123 0.0418757
vn 0 0.999123 0.0418757
vn 0 0.978148 0.207912
vn 0 0.978148 0.207912
vn 0 0.929776 0.368125
vn 0 0.929776 0.368125
vn 0 0.855364 0.518027
vn 0 0.855364 0.518027
vn 0 0.756995 0.653421
vn 0 0.855364 0.518027
vn 0 0.855364 0.518027
vn 0 0.756995 0.653421
vn 0 0.637424 0.770513
vn 0 0.637424 0.770513
vn 0 0.5 0.866025
vn 0 0.5 0.866025
vn 0 0.5 0.866025
vn 0 0.5 0.866025


f 1/1/1 3/3/3 2/2/2
f 1/1/1 2/2/2 4/4/4
f 5/5/5 1/1/1 4/4/4
f 5/5/5 4/4/4 6/6/6
f 7/7/7 5/5/5 6/6/6
f 7/7/7 6/6/6 8/8/8
f 9/9/9 7/7/7 8/8/8
f 9/9/9 8/8/8 10/10/10
f 11/11/11 9/9/9 10/10/10
f 11/11/11 10/10/10 12/12/12
f 13/13/13 11/11/11 12/12/12
f 13/13/13 12/12/12 14/14/14
f 15/15/15 13/13/13 14/14/14
f 15/15/15 14/14/14 16/16/16
f 17/17/17 19/19/19 18/18/18
f 17/17/17 18/18/18 20/20/20
f 21/21/21 17/17/17 20/20/20
f 21/21/21 20/20/20 22/22/22
f 23/23/23 21/21/21 22/22/22
f 23/23/23 22/22/22 24/24/24
f 25/25/25 23/23/23 24/24/24
f 25/25/25 26/26/26 23/23/23
