v 0.081649 -0.0575832 -0.0280392
v 0.0810819 -0.0576831 -0.0285742
v 0.0810819 -0.0576832 -0.0279392
v 0.081649 -0.0575831 -0.0284742
v 0.081649 -0.0575832 -0.0280392
v 0.081649 -0.0571481 -0.0284741
v 0.081649 -0.0575831 -0.0284742
v 0.081649 -0.0571482 -0.0280391
vn 0.173648 -0.984808 -0.000221573
vn 0.173648 -0.984808 -0.000221573
vn 0.173648 -0.984808 -0.000221573
vn 0.173648 -0.984808 -0.000221573
vn 1 0 -4.37114E-08
vn 1 0 -4.37114E-08
vn 1 0 -4.37114E-08
vn 1 0 -4.37114E-08


f 1/1/1 3/3/3 2/2/2
f 1/1/1 2/2/2 4/4/4
f 5/5/5 7/7/7 6/6/6
f 5/5/5 6/6/6 8/8/8
