v 0.035999 0.077083 -0.0223
v 0.035999 0.074283 -0.0223
v 0.037199 0.074283 -0.0223
v 0.038999 0.077083 -0.0223
v 0.038999 0.072533 -0.0223
v 0.037199 0.057783 -0.0223
v 0.038999 0.059533 -0.0223
v 0.039999 0.060533 -0.0223
v 0.039999 0.071533 -0.0223
v 0.038999 0.054983 -0.0223
v 0.035999 0.057783 -0.0223
v 0.035999 0.054983 -0.0223
v 0.037199 0.074283 -0.0213
v 0.037199 0.057783 -0.0223
v 0.037199 0.074283 -0.0223
v 0.037199 0.057783 -0.0213
vn 0 0 -1
vn 0 0 -1
vn 0 0 -1
vn 0 0 -1
vn 0 0 -1
vn 0 0 -1
vn 0 0 -1
vn 0 0 -1
vn 0 0 -1
vn 0 0 -1
vn 0 0 -1
vn 0 0 -1
vn -1 0 0
vn -1 0 0
vn -1 0 0
vn -1 0 0


f 1/1/1 3/3/3 2/2/2
f 3/3/3 1/1/1 4/4/4
f 3/3/3 4/4/4 5/5/5
f 6/6/6 3/3/3 5/5/5
f 6/6/6 5/5/5 7/7/7
f 5/5/5 8/8/8 7/7/7
f 5/5/5 9/9/9 8/8/8
f 6/6/6 7/7/7 10/10/10
f 11/11/11 6/6/6 10/10/10
f 11/11/11 10/10/10 12/12/12
f 13/13/13 15/15/15 14/14/14
f 13/13/13 14/14/14 16/16/16
