v 0.0725775 -0.0409 -0.0304295
v 0.0725775 -0.0403615 -0.0309469
v 0.0725775 -0.0397334 -0.0302589
v 0.0725775 -0.0409002 -0.0297668
v 0.0725775 -0.0411334 -0.0302053
v 0.0725775 -0.0374645 -0.029766
v 0.0725775 -0.0435645 -0.0297674
v 0.0725775 -0.0397334 -0.0304381
v 0.0725775 -0.0402664 -0.0310218
v 0.0725775 -0.0397332 -0.0310217
v 0.0725775 -0.0397332 -0.0311473
v 0.0725775 -0.0374635 -0.033884
v 0.0725775 -0.0411334 -0.0303728
v 0.0725775 -0.039733 -0.0320448
v 0.0725775 -0.0408999 -0.0311476
v 0.0725775 -0.0408998 -0.0315066
v 0.0725775 -0.0411332 -0.0311476
v 0.0725775 -0.0411331 -0.0313989
v 0.0725775 -0.0411332 -0.031022
v 0.0725775 -0.0408999 -0.0310219
v 0.0725775 -0.0409 -0.0305969
v 0.0725775 -0.0404576 -0.0310218
v 0.0725775 -0.0435635 -0.0338854
v 0.0725775 -0.0411331 -0.0315355
v 0.0725775 -0.039733 -0.0320627
v 0.0725775 -0.0411329 -0.03259
v 0.0725775 -0.0411328 -0.0327271
v 0.0725775 -0.0411326 -0.0336425
v 0.0725775 -0.0408993 -0.0336425
v 0.0725775 -0.0408996 -0.0324792
v 0.0725775 -0.0408998 -0.0316431
v 0.0725775 -0.0406842 -0.032377
v 0.0725775 -0.0406843 -0.0317424
v 0.0725775 -0.0411326 -0.0337681
v 0.0725775 -0.0408993 -0.0338848
v 0.0725775 -0.0408993 -0.0337681
v 0.0725775 -0.0408995 -0.0326164
v 0.0725775 -0.0397326 -0.0337678
v 0.0725775 -0.040208 -0.032917
v 0.0725775 -0.0402617 -0.0329342
v 0.0725775 -0.0403087 -0.032958
v 0.0725775 -0.0401912 -0.0329136
v 0.0725775 -0.0401283 -0.0329068
v 0.0725775 -0.0401083 -0.0329064
v 0.0725775 -0.0400549 -0.0329093
v 0.0725775 -0.0403509 -0.0329895
v 0.0725775 -0.0399934 -0.0329212
v 0.0725775 -0.0403875 -0.0330272
v 0.0725775 -0.0399439 -0.0329394
v 0.0725775 -0.04042 -0.0330741
v 0.0725775 -0.0398979 -0.0329652
v 0.0725775 -0.0404417 -0.0331186
v 0.0725775 -0.0404636 -0.0331858
v 0.0725775 -0.0404676 -0.0332054
v 0.0725775 -0.039852 -0.0330027
v 0.0725775 -0.0398127 -0.0330475
v 0.0725775 -0.0397908 -0.0330811
v 0.0725775 -0.0397801 -0.0331015
v 0.0725775 -0.0397592 -0.0331552
v 0.0725775 -0.0397538 -0.0331744
v 0.0725775 -0.0397432 -0.0332362
v 0.0725775 -0.040478 -0.0332849
v 0.0725775 -0.039737 -0.0333133
v 0.0725775 -0.0404846 -0.0334047
v 0.0725775 -0.0404857 -0.0334447
v 0.0725775 -0.0404865 -0.0335422
v 0.0725775 -0.0404865 -0.0336424
v 0.0725775 -0.0397339 -0.0333933
v 0.0725775 -0.0397327 -0.0334733
v 0.0725775 -0.0397327 -0.0334933
v 0.0725775 -0.0405223 -0.0340013
v 0.0725775 -0.0406659 -0.0340014
v 0.0725775 -0.040899 -0.0348417
v 0.0725775 -0.0406658 -0.0345398
v 0.0725775 -0.0408847 -0.0348302
v 0.0725775 -0.0409472 -0.0348803
v 0.0725775 -0.0409968 -0.0349322
v 0.0725775 -0.0410021 -0.0349387
v 0.0725775 -0.0410423 -0.0349957
v 0.0725775 -0.0410477 -0.0350048
v 0.0725775 -0.0408165 -0.034788
v 0.0725775 -0.0410774 -0.0350644
v 0.0725775 -0.040744 -0.034754
v 0.0725775 -0.0410818 -0.0350757
v 0.0725775 -0.0407064 -0.0347401
v 0.0725775 -0.0406291 -0.0347193
v 0.0725775 -0.04055 -0.0347067
v 0.0725775 -0.0405222 -0.0345398
v 0.0725775 -0.0404701 -0.0347017
v 0.0725775 -0.0404501 -0.0347013
v 0.0725775 -0.0403783 -0.0347038
v 0.0725775 -0.0410944 -0.0351128
v 0.0725775 -0.0403073 -0.0347118
v 0.0725775 -0.0411131 -0.035189
v 0.0725775 -0.0411197 -0.0352276
v 0.0725775 -0.0411247 -0.0352665
v 0.0725775 -0.0402679 -0.0347187
v 0.0725775 -0.043563 -0.0363674
v 0.0725775 -0.0401904 -0.0347389
v 0.0725775 -0.0411306 -0.0353412
v 0.0725775 -0.0411322 -0.0354163
v 0.0725775 -0.0411321 -0.0358502
v 0.0725775 -0.0401526 -0.0347519
v 0.0725775 -0.0401156 -0.0347671
v 0.0725775 -0.0408987 -0.0363668
v 0.0725775 -0.0408988 -0.0358501
v 0.0725775 -0.0397321 -0.0358499
v 0.0725775 -0.0400445 -0.0348043
v 0.0725775 -0.037463 -0.036366
v 0.0725775 -0.0397322 -0.0355672
v 0.0725775 -0.0400109 -0.0348259
v 0.0725775 -0.0397324 -0.0355472
v 0.0725775 -0.0397337 -0.0354672
v 0.0725775 -0.0397374 -0.0353873
v 0.0725775 -0.0399785 -0.0348494
v 0.0725775 -0.0397444 -0.0353076
v 0.0725775 -0.0399188 -0.034903
v 0.0725775 -0.0397493 -0.0352679
v 0.0725775 -0.0399124 -0.0349096
v 0.0725775 -0.0397556 -0.0352283
v 0.0725775 -0.0398666 -0.0349639
v 0.0725775 -0.0397748 -0.0351477
v 0.0725775 -0.0398236 -0.0350316
v 0.0725775 -0.0397828 -0.035123
v 0.0725775 -0.03979 -0.0351043
v 0.0725775 -0.0408987 -0.0363668
v 0.0748775 -0.037463 -0.036366
v 0.0725775 -0.037463 -0.036366
v 0.0748775 -0.043563 -0.0363674
v 0.0725775 -0.043563 -0.0363674
v 0.0725775 -0.0374635 -0.033884
v 0.0748775 -0.0374645 -0.029766
v 0.0725775 -0.0374645 -0.029766
v 0.0748775 -0.037463 -0.036366
v 0.0725775 -0.037463 -0.036366
vn -1 0 -8.742269E-08
vn -1 0 -8.742269E-08
vn -1 0 -8.742269E-08
vn -1 0 -8.742269E-08
vn -1 0 -8.742269E-08
vn -1 0 -8.742269E-08
vn -1 0 -8.742269E-08
vn -1 0 -8.742269E-08
vn -1 0 -8.742269E-08
vn -1 0 -8.742269E-08
vn -1 0 -8.742269E-08
vn -1 0 -8.742269E-08
vn -1 0 -8.742269E-08
vn -1 0 -8.742269E-08
vn -1 0 -8.742269E-08
vn -1 0 -8.742269E-08
vn -1 0 -8.742269E-08
vn -1 0 -8.742269E-08
vn -1 0 -8.742269E-08
vn -1 0 -8.742269E-08
vn -1 0 -8.742269E-08
vn -1 0 -8.742269E-08
vn -1 0 -8.742269E-08
vn -1 0 -8.742269E-08
vn -1 0 -8.742269E-08
vn -1 0 -8.742269E-08
vn -1 0 -8.742269E-08
vn -1 0 -8.742269E-08
vn -1 0 -8.742269E-08
vn -1 0 -8.742269E-08
vn -1 0 -8.742269E-08
vn -1 0 -8.742269E-08
vn -1 0 -8.742269E-08
vn -1 0 -8.742269E-08
vn -1 0 -8.742269E-08
vn -1 0 -8.742269E-08
vn -1 0 -8.742269E-08
vn -1 0 -8.742269E-08
vn -1 0 -8.742269E-08
vn -1 0 -8.742269E-08
vn -1 0 -8.742269E-08
vn -1 0 -8.742269E-08
vn -1 0 -8.742269E-08
vn -1 0 -8.742269E-08
vn -1 0 -8.742269E-08
vn -1 0 -8.742269E-08
vn -1 0 -8.742269E-08
vn -1 0 -8.742269E-08
vn -1 0 -8.742269E-08
vn -1 0 -8.742269E-08
vn -1 0 -8.742269E-08
vn -1 0 -8.742269E-08
vn -1 0 -8.742269E-08
vn -1 0 -8.742269E-08
vn -1 0 -8.742269E-08
vn -1 0 -8.742269E-08
vn -1 0 -8.742269E-08
vn -1 0 -8.742269E-08
vn -1 0 -8.742269E-08
vn -1 0 -8.742269E-08
vn -1 0 -8.742269E-08
vn -1 0 -8.742269E-08
vn -1 0 -8.742269E-08
vn -1 0 -8.742269E-08
vn -1 0 -8.742269E-08
vn -1 0 -8.742269E-08
vn -1 0 -8.742269E-08
vn -1 0 -8.742269E-08
vn -1 0 -8.742269E-08
vn -1 0 -8.742269E-08
vn -1 0 -8.742269E-08
vn -1 0 -8.742269E-08
vn -1 0 -8.742269E-08
vn -1 0 -8.742269E-08
vn -1 0 -8.742269E-08
vn -1 0 -8.742269E-08
vn -1 0 -8.742269E-08
vn -1 0 -8.742269E-08
vn -1 0 -8.742269E-08
vn -1 0 -8.742269E-08
vn -1 0 -8.742269E-08
vn -1 0 -8.742269E-08
vn -1 0 -8.742269E-08
vn -1 0 -8.742269E-08
vn -1 0 -8.742269E-08
vn -1 0 -8.742269E-08
vn -1 0 -8.742269E-08
vn -1 0 -8.742269E-08
vn -1 0 -8.742269E-08
vn -1 0 -8.742269E-08
vn -1 0 -8.742269E-08
vn -1 0 -8.742269E-08
vn -1 0 -8.742269E-08
vn -1 0 -8.742269E-08
vn -1 0 -8.742269E-08
vn -1 0 -8.742269E-08
vn -1 0 -8.742269E-08
vn -1 0 -8.742269E-08
vn -1 0 -8.742269E-08
vn -1 0 -8.742269E-08
vn -1 0 -8.742269E-08
vn -1 0 -8.742269E-08
vn -1 0 -8.742269E-08
vn -1 0 -8.742269E-08
vn -1 0 -8.742269E-08
vn -1 0 -8.742269E-08
vn -1 0 -8.742269E-08
vn -1 0 -8.742269E-08
vn -1 0 -8.742269E-08
vn -1 0 -8.742269E-08
vn -1 0 -8.742269E-08
vn -1 0 -8.742269E-08
vn -1 0 -8.742269E-08
vn -1 0 -8.742269E-08
vn -1 0 -8.742269E-08
vn -1 0 -8.742269E-08
vn -1 0 -8.742269E-08
vn -1 0 -8.742269E-08
vn -1 0 -8.742269E-08
vn -1 0 -8.742269E-08
vn -1 0 -8.742269E-08
vn -1 0 -8.742269E-08
vn -1 0 -8.742269E-08
vn -1 0 -8.742269E-08
vn -1 0 -8.742269E-08
vn 8.742269E-08 0.000224853 -1
vn 8.742269E-08 0.000224853 -1
vn 8.742269E-08 0.000224853 -1
vn 8.742269E-08 0.000224853 -1
vn 8.742269E-08 0.000224853 -1
vn 0 1 0.000224853
vn 0 1 0.000224853
vn 0 1 0.000224853
vn 0 1 0.000224853
vn 0 1 0.000224853


f 1/1/1 3/3/3 2/2/2
f 4/4/4 3/3/3 1/1/1
f 5/5/5 4/4/4 1/1/1
f 4/4/4 6/6/6 3/3/3
f 5/5/5 7/7/7 4/4/4
f 6/6/6 8/8/8 3/3/3
f 6/6/6 9/9/9 8/8/8
f 9/9/9 6/6/6 10/10/10
f 6/6/6 11/11/11 10/10/10
f 6/6/6 12/12/12 11/11/11
f 5/5/5 13/13/13 7/7/7
f 12/12/12 14/14/14 11/11/11
f 14/14/14 15/15/15 11/11/11
f 14/14/14 16/16/16 15/15/15
f 16/16/16 17/17/17 15/15/15
f 16/16/16 18/18/18 17/17/17
f 18/18/18 7/7/7 17/17/17
f 19/19/19 17/17/17 7/7/7
f 19/19/19 7/7/7 13/13/13
f 20/20/20 19/19/19 13/13/13
f 20/20/20 13/13/13 21/21/21
f 22/22/22 20/20/20 21/21/21
f 18/18/18 23/23/23 7/7/7
f 23/23/23 18/18/18 24/24/24
f 12/12/12 25/25/25 14/14/14
f 26/26/26 23/23/23 24/24/24
f 26/26/26 27/27/27 23/23/23
f 27/27/27 28/28/28 23/23/23
f 27/27/27 29/29/29 28/28/28
f 30/30/30 26/26/26 24/24/24
f 30/30/30 24/24/24 31/31/31
f 32/32/32 30/30/30 31/31/31
f 32/32/32 31/31/31 33/33/33
f 28/28/28 34/34/34 23/23/23
f 34/34/34 35/35/35 23/23/23
f 34/34/34 36/36/36 35/35/35
f 29/29/29 27/27/27 37/37/37
f 35/35/35 36/36/36 38/38/38
f 39/39/39 37/37/37 25/25/25
f 39/39/39 40/40/40 37/37/37
f 37/37/37 40/40/40 41/41/41
f 42/42/42 39/39/39 25/25/25
f 42/42/42 25/25/25 43/43/43
f 25/25/25 44/44/44 43/43/43
f 25/25/25 45/45/45 44/44/44
f 37/37/37 41/41/41 46/46/46
f 45/45/45 25/25/25 47/47/47
f 37/37/37 46/46/46 48/48/48
f 25/25/25 49/49/49 47/47/47
f 37/37/37 48/48/48 50/50/50
f 25/25/25 51/51/51 49/49/49
f 52/52/52 37/37/37 50/50/50
f 37/37/37 52/52/52 53/53/53
f 37/37/37 53/53/53 54/54/54
f 25/25/25 55/55/55 51/51/51
f 55/55/55 25/25/25 56/56/56
f 25/25/25 57/57/57 56/56/56
f 25/25/25 12/12/12 57/57/57
f 12/12/12 58/58/58 57/57/57
f 12/12/12 59/59/59 58/58/58
f 59/59/59 12/12/12 60/60/60
f 29/29/29 37/37/37 54/54/54
f 60/60/60 12/12/12 61/61/61
f 29/29/29 54/54/54 62/62/62
f 12/12/12 63/63/63 61/61/61
f 64/64/64 29/29/29 62/62/62
f 29/29/29 64/64/64 65/65/65
f 29/29/29 65/65/65 66/66/66
f 67/67/67 29/29/29 66/66/66
f 12/12/12 68/68/68 63/63/63
f 68/68/68 12/12/12 69/69/69
f 12/12/12 70/70/70 69/69/69
f 12/12/12 38/38/38 70/70/70
f 35/35/35 38/38/38 12/12/12
f 71/71/71 35/35/35 12/12/12
f 35/35/35 71/71/71 72/72/72
f 35/35/35 72/72/72 73/73/73
f 72/72/72 74/74/74 73/73/73
f 23/23/23 35/35/35 73/73/73
f 74/74/74 75/75/75 73/73/73
f 23/23/23 73/73/73 76/76/76
f 77/77/77 23/23/23 76/76/76
f 23/23/23 77/77/77 78/78/78
f 23/23/23 78/78/78 79/79/79
f 23/23/23 79/79/79 80/80/80
f 75/75/75 74/74/74 81/81/81
f 82/82/82 23/23/23 80/80/80
f 74/74/74 83/83/83 81/81/81
f 23/23/23 82/82/82 84/84/84
f 74/74/74 85/85/85 83/83/83
f 85/85/85 74/74/74 86/86/86
f 74/74/74 87/87/87 86/86/86
f 74/74/74 88/88/88 87/87/87
f 88/88/88 89/89/89 87/87/87
f 88/88/88 90/90/90 89/89/89
f 90/90/90 88/88/88 91/91/91
f 23/23/23 84/84/84 92/92/92
f 88/88/88 93/93/93 91/91/91
f 94/94/94 23/23/23 92/92/92
f 23/23/23 94/94/94 95/95/95
f 23/23/23 95/95/95 96/96/96
f 88/88/88 97/97/97 93/93/93
f 98/98/98 23/23/23 96/96/96
f 97/97/97 88/88/88 99/99/99
f 98/98/98 96/96/96 100/100/100
f 101/101/101 98/98/98 100/100/100
f 101/101/101 102/102/102 98/98/98
f 88/88/88 103/103/103 99/99/99
f 88/88/88 104/104/104 103/103/103
f 102/102/102 105/105/105 98/98/98
f 102/102/102 106/106/106 105/105/105
f 107/107/107 105/105/105 106/106/106
f 88/88/88 108/108/108 104/104/104
f 88/88/88 71/71/71 108/108/108
f 109/109/109 105/105/105 107/107/107
f 71/71/71 12/12/12 108/108/108
f 109/109/109 107/107/107 110/110/110
f 108/108/108 12/12/12 111/111/111
f 112/112/112 109/109/109 110/110/110
f 109/109/109 112/112/112 113/113/113
f 109/109/109 113/113/113 114/114/114
f 12/12/12 109/109/109 114/114/114
f 12/12/12 115/115/115 111/111/111
f 12/12/12 114/114/114 116/116/116
f 12/12/12 117/117/117 115/115/115
f 118/118/118 12/12/12 116/116/116
f 117/117/117 12/12/12 119/119/119
f 118/118/118 120/120/120 12/12/12
f 12/12/12 121/121/121 119/119/119
f 12/12/12 120/120/120 122/122/122
f 12/12/12 123/123/123 121/121/121
f 12/12/12 122/122/122 124/124/124
f 123/123/123 12/12/12 125/125/125
f 12/12/12 124/124/124 125/125/125
f 126/126/126 128/128/128 127/127/127
f 126/126/126 127/127/127 129/129/129
f 130/130/130 126/126/126 129/129/129
f 131/131/131 133/133/133 132/132/132
f 131/131/131 132/132/132 134/134/134
f 135/135/135 131/131/131 134/134/134
