v 0.078979 0.036133 -0.02109
v 0.078729 0.036383 -0.022555
v 0.078979 0.036133 -0.02243
v 0.078729 0.036383 -0.020965
v 0.078979 0.036133 -0.02243
v 0.078979 0.025133 -0.02109
v 0.078979 0.036133 -0.02109
v 0.078979 0.025133 -0.02243
v 0.078979 0.025133 -0.02243
v 0.078729 0.024883 -0.020965
v 0.078979 0.025133 -0.02109
v 0.078729 0.024883 -0.022555
v 0.078479 0.024883 -0.02268
v 0.078729 0.024883 -0.020965
v 0.078729 0.024883 -0.022555
v 0.078479 0.024883 -0.02084
v 0.070599 0.024883 -0.02268
v 0.070599 0.024883 -0.02084
v 0.078479 0.024883 -0.02084
v 0.070599 0.024883 -0.02084
v 0.070599 0.026493 -0.02084
v 0.070599 0.027773 -0.02084
v 0.070599 0.028993 -0.02084
v 0.069699 0.026493 -0.02084
v 0.069699 0.027773 -0.02084
v 0.070599 0.030273 -0.02084
v 0.069699 0.028993 -0.02084
v 0.069699 0.030273 -0.02084
v 0.070599 0.030993 -0.02084
v 0.070599 0.032273 -0.02084
v 0.069699 0.030993 -0.02084
v 0.069699 0.032273 -0.02084
v 0.070599 0.033493 -0.02084
v 0.070599 0.034773 -0.02084
v 0.069699 0.033493 -0.02084
v 0.069699 0.034773 -0.02084
v 0.070599 0.036383 -0.02084
v 0.078479 0.036383 -0.02084
v 0.078729 0.024883 -0.020965
v 0.078479 0.024883 -0.02084
v 0.078479 0.036383 -0.02084
v 0.078729 0.036383 -0.020965
v 0.078979 0.036133 -0.02109
v 0.078979 0.025133 -0.02109
vn 0.707107 0.707107 0
vn 0.707107 0.707107 0
vn 0.707107 0.707107 0
vn 0.707107 0.707107 0
vn 1 0 0
vn 1 0 0
vn 1 0 0
vn 1 0 0
vn 0.707107 -0.707107 0
vn 0.707107 -0.707107 0
vn 0.707107 -0.707107 0
vn 0.707107 -0.707107 0
vn 0 -1 0
vn 0 -1 0
vn 0 -1 0
vn 0 -1 0
vn 0 -1 0
vn 0 -1 0
vn 0 0 1
vn 0 0 1
vn 0 0 1
vn 0 0 1
vn 0 0 1
vn 0 0 1
vn 0 0 1
vn 0 0 1
vn 0 0 1
vn 0 0 1
vn 0 0 1
vn 0 0 1
vn 0 0 1
vn 0 0 1
vn 0 0 1
vn 0 0 1
vn 0 0 1
vn 0 0 1
vn 0 0 1
vn 0 0 1
vn 0.447214 0 0.894427
vn 0.447214 0 0.894427
vn 0.447214 0 0.894427
vn 0.447214 0 0.894427
vn 0.447214 0 0.894427
vn 0.447214 0 0.894427


f 1/1/1 3/3/3 2/2/2
f 1/1/1 2/2/2 4/4/4
f 5/5/5 7/7/7 6/6/6
f 5/5/5 6/6/6 8/8/8
f 9/9/9 11/11/11 10/10/10
f 9/9/9 10/10/10 12/12/12
f 13/13/13 15/15/15 14/14/14
f 13/13/13 14/14/14 16/16/16
f 17/17/17 13/13/13 16/16/16
f 17/17/17 16/16/16 18/18/18
f 19/19/19 21/21/21 20/20/20
f 22/22/22 21/21/21 19/19/19
f 23/23/23 22/22/22 19/19/19
f 22/22/22 24/24/24 21/21/21
f 24/24/24 22/22/22 25/25/25
f 23/23/23 19/19/19 26/26/26
f 27/27/27 23/23/23 26/26/26
f 27/27/27 26/26/26 28/28/28
f 19/19/19 29/29/29 26/26/26
f 19/19/19 30/30/30 29/29/29
f 30/30/30 31/31/31 29/29/29
f 30/30/30 32/32/32 31/31/31
f 33/33/33 30/30/30 19/19/19
f 33/33/33 19/19/19 34/34/34
f 35/35/35 33/33/33 34/34/34
f 35/35/35 34/34/34 36/36/36
f 19/19/19 37/37/37 34/34/34
f 19/19/19 38/38/38 37/37/37
f 39/39/39 41/41/41 40/40/40
f 41/41/41 39/39/39 42/42/42
f 39/39/39 43/43/43 42/42/42
f 39/39/39 44/44/44 43/43/43
