v 0.076234 0.066558 -0.0290474
v 0.076534 0.066558 -0.0290474
v 0.076534 0.066558 -0.02855
v 0.076234 0.066558 -0.0286523
v 0.0762299 0.066558 -0.0286096
v 0.0765288 0.066558 -0.0284861
v 0.0762161 0.066558 -0.0285674
v 0.0765134 0.066558 -0.0284234
v 0.0764893 0.066558 -0.028366
v 0.076192 0.066558 -0.0285285
v 0.0764543 0.066558 -0.0283104
v 0.0764168 0.066558 -0.0282672
v 0.0761587 0.066558 -0.0284948
v 0.0763681 0.066558 -0.0282255
v 0.0763192 0.066558 -0.0281955
v 0.0761208 0.066558 -0.0284702
v 0.076261 0.066558 -0.0281706
v 0.0762019 0.066558 -0.0281557
v 0.0760784 0.066558 -0.0284551
v 0.076141 0.066558 -0.0281501
v 0.076134 0.066558 -0.02815
v 0.0760317 0.066558 -0.02845
v 0.0756488 0.066558 -0.02815
v 0.0755289 0.066558 -0.02845
v 0.0755693 0.066558 -0.0281449
v 0.0754697 0.066558 -0.0284457
v 0.0754925 0.066558 -0.0281295
v 0.0754074 0.066558 -0.0284312
v 0.0754185 0.066558 -0.0281041
v 0.0753475 0.066558 -0.0284065
v 0.0753767 0.066558 -0.0280847
v 0.0691059 0.066558 -0.0248935
v 0.0690767 0.066558 -0.0252153
v 0.0690349 0.066558 -0.0251959
v 0.069116 0.0665555 -0.0248737
v 0.069046 0.066558 -0.0248688
v 0.0753868 0.0665555 -0.0280649
v 0.0689609 0.066558 -0.0251705
v 0.0691256 0.0665481 -0.0248548
v 0.0689837 0.066558 -0.0248543
v 0.0753964 0.0665481 -0.0280461
v 0.0688841 0.066558 -0.0251551
v 0.0691342 0.0665362 -0.0248379
v 0.0689245 0.066558 -0.02485
v 0.075405 0.0665362 -0.0280292
v 0.0688046 0.066558 -0.02515
v 0.0684245 0.066558 -0.02485
v 0.0684245 0.066558 -0.02515
v 0.0691342 0.0665362 -0.0248379
v 0.075405 0.0665362 -0.0280292
v 0.0691414 0.0665204 -0.0248238
v 0.0754121 0.0665204 -0.0280151
v 0.0691468 0.0665014 -0.0248132
v 0.0754175 0.0665014 -0.0280044
v 0.0691501 0.0664803 -0.0248066
v 0.0754209 0.0664803 -0.0279978
v 0.0691513 0.066458 -0.0248044
v 0.075422 0.066458 -0.0279956
v 0.075422 0.066158 -0.0279956
v 0.0691513 0.066158 -0.0248044
v 0.0691497 0.0661322 -0.0248074
v 0.0754205 0.0661322 -0.0279987
v 0.0691452 0.066108 -0.0248163
v 0.075416 0.066108 -0.0280076
v 0.069138 0.0660873 -0.0248305
v 0.0754088 0.0660873 -0.0280217
v 0.0754088 0.0660873 -0.0280217
v 0.0691286 0.0660714 -0.0248489
v 0.069138 0.0660873 -0.0248305
v 0.0753994 0.0660714 -0.0280402
v 0.0691177 0.0660614 -0.0248704
v 0.0753884 0.0660614 -0.0280617
v 0.0691059 0.066058 -0.0248935
v 0.0753767 0.066058 -0.0280847
v 0.0690767 0.066058 -0.0252153
v 0.0690349 0.066058 -0.0251959
v 0.0753475 0.066058 -0.0284065
v 0.0754185 0.066058 -0.0281041
v 0.0689609 0.066058 -0.0251705
v 0.069046 0.066058 -0.0248688
v 0.0689837 0.066058 -0.0248543
v 0.0688841 0.066058 -0.0251551
v 0.0754925 0.066058 -0.0281295
v 0.0754074 0.066058 -0.0284312
v 0.0754697 0.066058 -0.0284457
v 0.0755693 0.066058 -0.0281449
v 0.0689245 0.066058 -0.02485
v 0.0688046 0.066058 -0.02515
v 0.0684245 0.066058 -0.02515
v 0.0684245 0.066058 -0.02485
v 0.0755289 0.066058 -0.02845
v 0.0756488 0.066058 -0.02815
v 0.076134 0.066058 -0.02815
v 0.0760317 0.066058 -0.02845
v 0.076141 0.066058 -0.0281501
v 0.0760784 0.066058 -0.0284551
v 0.0762019 0.066058 -0.0281557
v 0.0761208 0.066058 -0.0284702
v 0.076261 0.066058 -0.0281706
v 0.0763192 0.066058 -0.0281955
v 0.0761587 0.066058 -0.0284948
v 0.0763681 0.066058 -0.0282255
v 0.0764168 0.066058 -0.0282672
v 0.076192 0.066058 -0.0285285
v 0.0764543 0.066058 -0.0283104
v 0.0764893 0.066058 -0.028366
v 0.0762161 0.066058 -0.0285674
v 0.0765134 0.066058 -0.0284234
v 0.0765288 0.066058 -0.0284861
v 0.0762299 0.066058 -0.0286096
v 0.076534 0.066058 -0.02855
v 0.076234 0.066058 -0.0286523
v 0.076534 0.066058 -0.0290474
v 0.076234 0.066058 -0.0290474
vn 0 1 0
vn 0 1 0
vn 0 1 0
vn 0 1 0
vn 0 1 0
vn 0 1 0
vn 0 1 0
vn 0 1 0
vn 0 1 0
vn 0 1 0
vn 0 1 0
vn 0 1 0
vn 0 1 0
vn 0 1 0
vn 0 1 0
vn 0 1 0
vn 0 1 0
vn 0 1 0
vn 0 1 0
vn 0 1 0
vn 0 1 0
vn 0 1 0
vn 0 1 0
vn 0 1 0
vn 0 1 0
vn 0 1 0
vn 0 1 0
vn 0 1 0
vn 0 1 0
vn 0 1 0
vn 0 1 0
vn 0 1 0
vn 0 1 0
vn 0 1 0
vn 0.100925 0.974928 0.198317
vn 0 1 0
vn 0.100925 0.974928 0.198317
vn 0 1 0
vn 0.196789 0.900969 0.38669
vn 0 1 0
vn 0.196789 0.900969 0.38669
vn 0 1 0
vn 0.282785 0.781832 0.555673
vn 0 1 0
vn 0.282785 0.781832 0.555673
vn 0 1 0
vn 0 1 0
vn 0 1 0
vn 0.282785 0.781832 0.555673
vn 0.282785 0.781832 0.555673
vn 0.354601 0.62349 0.696792
vn 0.354601 0.62349 0.696792
vn 0.408636 0.433884 0.802971
vn 0.408636 0.433884 0.802971
vn 0.44218 0.222521 0.868885
vn 0.44218 0.222521 0.868885
vn 0.453551 0 0.89123
vn 0.453551 0 0.89123
vn 0.453551 0 0.89123
vn 0.453551 0 0.89123
vn 0.438097 -0.258819 0.860862
vn 0.438097 -0.258819 0.860862
vn 0.392787 -0.5 0.771828
vn 0.392787 -0.5 0.771828
vn 0.320709 -0.707107 0.630195
vn 0.320709 -0.707107 0.630195
vn 0.320709 -0.707107 0.630195
vn 0.226776 -0.866025 0.445615
vn 0.320709 -0.707107 0.630195
vn 0.226776 -0.866025 0.445615
vn 0.117388 -0.965926 0.230667
vn 0.117388 -0.965926 0.230667
vn 0 -1 0
vn 0 -1 0
vn 0 -1 0
vn 0 -1 0
vn 0 -1 0
vn 0 -1 0
vn 0 -1 0
vn 0 -1 0
vn 0 -1 0
vn 0 -1 0
vn 0 -1 0
vn 0 -1 0
vn 0 -1 0
vn 0 -1 0
vn 0 -1 0
vn 0 -1 0
vn 0 -1 0
vn 0 -1 0
vn 0 -1 0
vn 0 -1 0
vn 0 -1 0
vn 0 -1 0
vn 0 -1 0
vn 0 -1 0
vn 0 -1 0
vn 0 -1 0
vn 0 -1 0
vn 0 -1 0
vn 0 -1 0
vn 0 -1 0
vn 0 -1 0
vn 0 -1 0
vn 0 -1 0
vn 0 -1 0
vn 0 -1 0
vn 0 -1 0
vn 0 -1 0
vn 0 -1 0
vn 0 -1 0
vn 0 -1 0
vn 0 -1 0
vn 0 -1 0


f 1/1/1 3/3/3 2/2/2
f 3/3/3 1/1/1 4/4/4
f 3/3/3 4/4/4 5/5/5
f 6/6/6 3/3/3 5/5/5
f 6/6/6 5/5/5 7/7/7
f 6/6/6 7/7/7 8/8/8
f 7/7/7 9/9/9 8/8/8
f 7/7/7 10/10/10 9/9/9
f 9/9/9 10/10/10 11/11/11
f 10/10/10 12/12/12 11/11/11
f 10/10/10 13/13/13 12/12/12
f 13/13/13 14/14/14 12/12/12
f 13/13/13 15/15/15 14/14/14
f 13/13/13 16/16/16 15/15/15
f 16/16/16 17/17/17 15/15/15
f 16/16/16 18/18/18 17/17/17
f 19/19/19 18/18/18 16/16/16
f 18/18/18 19/19/19 20/20/20
f 19/19/19 21/21/21 20/20/20
f 19/19/19 22/22/22 21/21/21
f 22/22/22 23/23/23 21/21/21
f 22/22/22 24/24/24 23/23/23
f 24/24/24 25/25/25 23/23/23
f 24/24/24 26/26/26 25/25/25
f 26/26/26 27/27/27 25/25/25
f 26/26/26 28/28/28 27/27/27
f 28/28/28 29/29/29 27/27/27
f 28/28/28 30/30/30 29/29/29
f 30/30/30 31/31/31 29/29/29
f 30/30/30 32/32/32 31/31/31
f 33/33/33 32/32/32 30/30/30
f 33/33/33 34/34/34 32/32/32
f 32/32/32 35/35/35 31/31/31
f 34/34/34 36/36/36 32/32/32
f 35/35/35 37/37/37 31/31/31
f 34/34/34 38/38/38 36/36/36
f 35/35/35 39/39/39 37/37/37
f 38/38/38 40/40/40 36/36/36
f 39/39/39 41/41/41 37/37/37
f 38/38/38 42/42/42 40/40/40
f 39/39/39 43/43/43 41/41/41
f 42/42/42 44/44/44 40/40/40
f 43/43/43 45/45/45 41/41/41
f 42/42/42 46/46/46 44/44/44
f 46/46/46 47/47/47 44/44/44
f 46/46/46 48/48/48 47/47/47
f 49/49/49 51/51/51 50/50/50
f 51/51/51 52/52/52 50/50/50
f 51/51/51 53/53/53 52/52/52
f 53/53/53 54/54/54 52/52/52
f 53/53/53 55/55/55 54/54/54
f 55/55/55 56/56/56 54/54/54
f 55/55/55 57/57/57 56/56/56
f 56/56/56 57/57/57 58/58/58
f 59/59/59 58/58/58 57/57/57
f 59/59/59 57/57/57 60/60/60
f 61/61/61 59/59/59 60/60/60
f 62/62/62 59/59/59 61/61/61
f 62/62/62 61/61/61 63/63/63
f 64/64/64 62/62/62 63/63/63
f 64/64/64 63/63/63 65/65/65
f 66/66/66 64/64/64 65/65/65
f 67/67/67 69/69/69 68/68/68
f 70/70/70 67/67/67 68/68/68
f 70/70/70 68/68/68 71/71/71
f 72/72/72 70/70/70 71/71/71
f 72/72/72 71/71/71 73/73/73
f 74/74/74 72/72/72 73/73/73
f 75/75/75 74/74/74 73/73/73
f 76/76/76 75/75/75 73/73/73
f 75/75/75 77/77/77 74/74/74
f 77/77/77 78/78/78 74/74/74
f 76/76/76 73/73/73 79/79/79
f 80/80/80 79/79/79 73/73/73
f 80/80/80 81/81/81 79/79/79
f 81/81/81 82/82/82 79/79/79
f 77/77/77 83/83/83 78/78/78
f 84/84/84 83/83/83 77/77/77
f 84/84/84 85/85/85 83/83/83
f 85/85/85 86/86/86 83/83/83
f 81/81/81 87/87/87 82/82/82
f 87/87/87 88/88/88 82/82/82
f 87/87/87 89/89/89 88/88/88
f 89/89/89 87/87/87 90/90/90
f 85/85/85 91/91/91 86/86/86
f 86/86/86 91/91/91 92/92/92
f 91/91/91 93/93/93 92/92/92
f 91/91/91 94/94/94 93/93/93
f 94/94/94 95/95/95 93/93/93
f 94/94/94 96/96/96 95/95/95
f 96/96/96 97/97/97 95/95/95
f 96/96/96 98/98/98 97/97/97
f 98/98/98 99/99/99 97/97/97
f 98/98/98 100/100/100 99/99/99
f 98/98/98 101/101/101 100/100/100
f 101/101/101 102/102/102 100/100/100
f 101/101/101 103/103/103 102/102/102
f 101/101/101 104/104/104 103/103/103
f 104/104/104 105/105/105 103/103/103
f 104/104/104 106/106/106 105/105/105
f 107/107/107 106/106/106 104/104/104
f 106/106/106 107/107/107 108/108/108
f 107/107/107 109/109/109 108/108/108
f 107/107/107 110/110/110 109/109/109
f 110/110/110 111/111/111 109/109/109
f 110/110/110 112/112/112 111/111/111
f 112/112/112 113/113/113 111/111/111
f 112/112/112 114/114/114 113/113/113
