v 0.0810819 -0.0570497 -0.021589
v 0.081649 -0.0571495 -0.0221241
v 0.081649 -0.0571496 -0.0216891
v 0.0810819 -0.0570495 -0.022224
v 0.081649 -0.0575845 -0.0221242
v 0.0810819 -0.0570495 -0.022224
v 0.0810819 -0.0576845 -0.0222242
v 0.081649 -0.0571495 -0.0221241
v 0.081649 -0.0575846 -0.0216892
v 0.0810819 -0.0576845 -0.0222242
v 0.0810819 -0.0576847 -0.0215892
v 0.081649 -0.0575845 -0.0221242
v 0.0810819 -0.0576847 -0.0215892
v 0.075999 -0.0576845 -0.0222242
v 0.075999 -0.0576847 -0.0215892
v 0.0810819 -0.0576845 -0.0222242
v 0.0810819 -0.0570497 -0.021589
v 0.075999 -0.0576847 -0.0215892
v 0.075999 -0.0570497 -0.021589
v 0.0810819 -0.0576847 -0.0215892
vn 0.173648 0.984808 0.000221558
vn 0.173648 0.984808 0.000221558
vn 0.173648 0.984808 0.000221558
vn 0.173648 0.984808 0.000221558
vn 0.173648 0.000221566 -0.984808
vn 0.173648 0.000221566 -0.984808
vn 0.173648 0.000221566 -0.984808
vn 0.173648 0.000221566 -0.984808
vn 0.173648 -0.984808 -0.000221573
vn 0.173648 -0.984808 -0.000221573
vn 0.173648 -0.984808 -0.000221573
vn 0.173648 -0.984808 -0.000221573
vn 0 -1 -0.000224984
vn 0 -1 -0.000224984
vn 0 -1 -0.000224984
vn 0 -1 -0.000224984
vn 4.37114E-08 -0.000224984 1
vn 4.37114E-08 -0.000224984 1
vn 4.37114E-08 -0.000224984 1
vn 4.37114E-08 -0.000224984 1


f 1/1/1 3/3/3 2/2/2
f 1/1/1 2/2/2 4/4/4
f 5/5/5 7/7/7 6/6/6
f 5/5/5 6/6/6 8/8/8
f 9/9/9 11/11/11 10/10/10
f 9/9/9 10/10/10 12/12/12
f 13/13/13 15/15/15 14/14/14
f 13/13/13 14/14/14 16/16/16
f 17/17/17 19/19/19 18/18/18
f 17/17/17 18/18/18 20/20/20
