v 0.081509 -0.0472223 -0.0222696
v 0.077299 -0.0472225 -0.0216296
v 0.081509 -0.0472225 -0.0216296
v 0.077299 -0.0472223 -0.0222696
v 0.081509 -0.0472225 -0.0216296
v 0.077299 -0.0465825 -0.0216295
v 0.081509 -0.0465825 -0.0216295
v 0.077299 -0.0472225 -0.0216296
v 0.081509 -0.0465825 -0.0216295
v 0.077299 -0.0465823 -0.0222695
v 0.081509 -0.0465823 -0.0222695
v 0.077299 -0.0465825 -0.0216295
v 0.081509 -0.0465823 -0.0222695
v 0.077299 -0.0472223 -0.0222696
v 0.081509 -0.0472223 -0.0222696
v 0.077299 -0.0465823 -0.0222695
vn 0 -1 -0.000224984
vn 0 -1 -0.000224984
vn 0 -1 -0.000224984
vn 0 -1 -0.000224984
vn 0 -0.000224984 1
vn 0 -0.000224984 1
vn 0 -0.000224984 1
vn 0 -0.000224984 1
vn 0 1 0.000224984
vn 0 1 0.000224984
vn 0 1 0.000224984
vn 0 1 0.000224984
vn 0 0.000224984 -1
vn 0 0.000224984 -1
vn 0 0.000224984 -1
vn 0 0.000224984 -1


f 1/1/1 3/3/3 2/2/2
f 1/1/1 2/2/2 4/4/4
f 5/5/5 7/7/7 6/6/6
f 5/5/5 6/6/6 8/8/8
f 9/9/9 11/11/11 10/10/10
f 9/9/9 10/10/10 12/12/12
f 13/13/13 15/15/15 14/14/14
f 13/13/13 14/14/14 16/16/16
