v 0.072499 -0.0472223 -0.0222696
v 0.075799 -0.0465823 -0.0222695
v 0.072499 -0.0465823 -0.0222695
v 0.075799 -0.0472223 -0.0222696
v 0.072499 -0.0465823 -0.0222695
v 0.075799 -0.0465825 -0.0216295
v 0.072499 -0.0465825 -0.0216295
v 0.075799 -0.0465823 -0.0222695
vn 0 0.000224984 -1
vn 0 0.000224984 -1
vn 0 0.000224984 -1
vn 0 0.000224984 -1
vn 0 1 0.000224984
vn 0 1 0.000224984
vn 0 1 0.000224984
vn 0 1 0.000224984


f 1/1/1 3/3/3 2/2/2
f 1/1/1 2/2/2 4/4/4
f 5/5/5 7/7/7 6/6/6
f 5/5/5 6/6/6 8/8/8
