v 0.005899 0.023963 -0.0252
v 0.005899 0.023463 -0.0193
v 0.005899 0.023963 -0.0193
v 0.005899 0.023463 -0.0252
v 0.005899 0.023463 -0.0252
v 0.005399 0.023463 -0.0193
v 0.005899 0.023463 -0.0193
v 0.005399 0.023463 -0.0252
v 0.005399 0.023463 -0.0252
v 0.005399 0.023963 -0.0193
v 0.005399 0.023463 -0.0193
v 0.005399 0.023963 -0.0252
vn 1 0 0
vn 1 0 0
vn 1 0 0
vn 1 0 0
vn 0 -1 0
vn 0 -1 0
vn 0 -1 0
vn 0 -1 0
vn -1 0 0
vn -1 0 0
vn -1 0 0
vn -1 0 0


f 1/1/1 3/3/3 2/2/2
f 1/1/1 2/2/2 4/4/4
f 5/5/5 7/7/7 6/6/6
f 5/5/5 6/6/6 8/8/8
f 9/9/9 11/11/11 10/10/10
f 9/9/9 10/10/10 12/12/12
