v 0.081509 -0.0472209 -0.0286196
v 0.077299 -0.047221 -0.0279796
v 0.081509 -0.047221 -0.0279796
v 0.077299 -0.0472209 -0.0286196
v 0.081509 -0.047221 -0.0279796
v 0.077299 -0.046581 -0.0279795
v 0.081509 -0.046581 -0.0279795
v 0.077299 -0.047221 -0.0279796
v 0.081509 -0.046581 -0.0279795
v 0.077299 -0.0465809 -0.0286195
v 0.081509 -0.0465809 -0.0286195
v 0.077299 -0.046581 -0.0279795
v 0.081509 -0.0465809 -0.0286195
v 0.077299 -0.0472209 -0.0286196
v 0.081509 -0.0472209 -0.0286196
v 0.077299 -0.0465809 -0.0286195
v 0.081659 -0.0441909 -0.028469
v 0.081659 -0.044531 -0.028129
v 0.081659 -0.044191 -0.028129
v 0.081659 -0.0445309 -0.028469
v 0.081659 -0.044191 -0.028129
v 0.081509 -0.044681 -0.0279791
v 0.081509 -0.044041 -0.0279789
v 0.081659 -0.044531 -0.028129
v 0.077299 -0.044041 -0.0279789
v 0.081509 -0.0440409 -0.0286189
v 0.081509 -0.044041 -0.0279789
v 0.077299 -0.0440409 -0.0286189
v 0.077299 -0.0440409 -0.0286189
v 0.081509 -0.0446809 -0.0286191
v 0.081509 -0.0440409 -0.0286189
v 0.077299 -0.0446809 -0.0286191
v 0.077299 -0.0446809 -0.0286191
v 0.081509 -0.044681 -0.0279791
v 0.081509 -0.0446809 -0.0286191
v 0.077299 -0.044681 -0.0279791
v 0.077299 -0.044681 -0.0279791
v 0.081509 -0.044041 -0.0279789
v 0.081509 -0.044681 -0.0279791
v 0.077299 -0.044041 -0.0279789
vn 0 -1 -0.000224984
vn 0 -1 -0.000224984
vn 0 -1 -0.000224984
vn 0 -1 -0.000224984
vn 0 -0.000224984 1
vn 0 -0.000224984 1
vn 0 -0.000224984 1
vn 0 -0.000224984 1
vn 0 1 0.000224984
vn 0 1 0.000224984
vn 0 1 0.000224984
vn 0 1 0.000224984
vn 0 0.000224984 -1
vn 0 0.000224984 -1
vn 0 0.000224984 -1
vn 0 0.000224984 -1
vn 1 0 0
vn 1 0 0
vn 1 0 0
vn 1 0 0
vn 0.707107 -0.000159088 0.707107
vn 0.707107 -0.000159088 0.707107
vn 0.707107 -0.000159088 0.707107
vn 0.707107 -0.000159088 0.707107
vn 0 1 0.000224984
vn 0 1 0.000224984
vn 0 1 0.000224984
vn 0 1 0.000224984
vn 0 0.000224984 -1
vn 0 0.000224984 -1
vn 0 0.000224984 -1
vn 0 0.000224984 -1
vn 0 -1 -0.000224984
vn 0 -1 -0.000224984
vn 0 -1 -0.000224984
vn 0 -1 -0.000224984
vn 0 -0.000224984 1
vn 0 -0.000224984 1
vn 0 -0.000224984 1
vn 0 -0.000224984 1


f 1/1/1 3/3/3 2/2/2
f 1/1/1 2/2/2 4/4/4
f 5/5/5 7/7/7 6/6/6
f 5/5/5 6/6/6 8/8/8
f 9/9/9 11/11/11 10/10/10
f 9/9/9 10/10/10 12/12/12
f 13/13/13 15/15/15 14/14/14
f 13/13/13 14/14/14 16/16/16
f 17/17/17 19/19/19 18/18/18
f 17/17/17 18/18/18 20/20/20
f 21/21/21 23/23/23 22/22/22
f 21/21/21 22/22/22 24/24/24
f 25/25/25 27/27/27 26/26/26
f 25/25/25 26/26/26 28/28/28
f 29/29/29 31/31/31 30/30/30
f 29/29/29 30/30/30 32/32/32
f 33/33/33 35/35/35 34/34/34
f 33/33/33 34/34/34 36/36/36
f 37/37/37 39/39/39 38/38/38
f 37/37/37 38/38/38 40/40/40
