v 0.077 -0.0915 -0.015
v 0.0690562 -0.0924462 -0.015
v 0.069 -0.0915 -0.015
v 0.0690562 -0.0905538 -0.015
v 0.0692238 -0.0933791 -0.015
v 0.0692238 -0.0896209 -0.015
v 0.0695006 -0.0942856 -0.015
v 0.0695006 -0.0887144 -0.015
v 0.0698827 -0.095153 -0.015
v 0.0698827 -0.087847 -0.015
v 0.0703648 -0.0959692 -0.015
v 0.0703648 -0.0870308 -0.015
v 0.0709399 -0.0967226 -0.015
v 0.0709399 -0.0862774 -0.015
v 0.0716001 -0.0974027 -0.015
v 0.0716001 -0.0855973 -0.015
v 0.0723362 -0.0979999 -0.015
v 0.0723362 -0.0850001 -0.015
v 0.0731377 -0.0985059 -0.015
v 0.0731377 -0.0844941 -0.015
v 0.0739934 -0.0989135 -0.015
v 0.0739934 -0.0840865 -0.015
v 0.0748913 -0.0992171 -0.015
v 0.0748913 -0.0837829 -0.015
v 0.0758188 -0.0994123 -0.015
v 0.0758188 -0.0835877 -0.015
v 0.0767629 -0.0994965 -0.015
v 0.0767629 -0.0835035 -0.015
v 0.0777104 -0.0994684 -0.015
v 0.0777104 -0.0835316 -0.015
v 0.0786478 -0.0993285 -0.015
v 0.0786478 -0.0836715 -0.015
v 0.0795622 -0.0990786 -0.015
v 0.0795622 -0.0839214 -0.015
v 0.0804405 -0.0987224 -0.015
v 0.0804405 -0.0842776 -0.015
v 0.0812706 -0.0982648 -0.015
v 0.0812706 -0.0847352 -0.015
v 0.0820407 -0.0977122 -0.015
v 0.0820407 -0.0852878 -0.015
v 0.0827401 -0.0970724 -0.015
v 0.0827401 -0.0859276 -0.015
v 0.0833588 -0.0963544 -0.015
v 0.0833588 -0.0866456 -0.015
v 0.0838884 -0.0955682 -0.015
v 0.0838884 -0.0874318 -0.015
v 0.0843212 -0.094725 -0.015
v 0.0843212 -0.088275 -0.015
v 0.0846512 -0.0938365 -0.015
v 0.0846512 -0.0891635 -0.015
v 0.0848738 -0.0929151 -0.015
v 0.0848738 -0.0900849 -0.015
v 0.0849859 -0.0919739 -0.015
v 0.0849859 -0.0910261 -0.015
v 0.077 -0.0915 -0.02
v 0.0690562 -0.0905538 -0.02
v 0.069 -0.0915 -0.02
v 0.0690562 -0.0924462 -0.02
v 0.0692238 -0.0896209 -0.02
v 0.0692238 -0.0933791 -0.02
v 0.0695006 -0.0887144 -0.02
v 0.0695006 -0.0942856 -0.02
v 0.0698827 -0.087847 -0.02
v 0.0698827 -0.095153 -0.02
v 0.0703648 -0.0870308 -0.02
v 0.0703648 -0.0959692 -0.02
v 0.0709399 -0.0862774 -0.02
v 0.0709399 -0.0967226 -0.02
v 0.0716001 -0.0855973 -0.02
v 0.0716001 -0.0974027 -0.02
v 0.0723362 -0.0850001 -0.02
v 0.0723362 -0.0979999 -0.02
v 0.0731377 -0.0844941 -0.02
v 0.0731377 -0.0985059 -0.02
v 0.0739934 -0.0840865 -0.02
v 0.0739934 -0.0989135 -0.02
v 0.0748913 -0.0837829 -0.02
v 0.0748913 -0.0992171 -0.02
v 0.0758188 -0.0835877 -0.02
v 0.0758188 -0.0994123 -0.02
v 0.0767629 -0.0835035 -0.02
v 0.0767629 -0.0994965 -0.02
v 0.0777104 -0.0835316 -0.02
v 0.0777104 -0.0994684 -0.02
v 0.0786478 -0.0836715 -0.02
v 0.0786478 -0.0993285 -0.02
v 0.0795622 -0.0839214 -0.02
v 0.0795622 -0.0990786 -0.02
v 0.0804405 -0.0842776 -0.02
v 0.0804405 -0.0987224 -0.02
v 0.0812706 -0.0847352 -0.02
v 0.0812706 -0.0982648 -0.02
v 0.0820407 -0.0852878 -0.02
v 0.0820407 -0.0977122 -0.02
v 0.0827401 -0.0859276 -0.02
v 0.0827401 -0.0970724 -0.02
v 0.0833588 -0.0866456 -0.02
v 0.0833588 -0.0963544 -0.02
v 0.0838884 -0.0874318 -0.02
v 0.0838884 -0.0955682 -0.02
v 0.0843212 -0.088275 -0.02
v 0.0843212 -0.094725 -0.02
v 0.0846512 -0.0891635 -0.02
v 0.0846512 -0.0938365 -0.02
v 0.0848738 -0.0900849 -0.02
v 0.0848738 -0.0929151 -0.02
v 0.0849859 -0.0910261 -0.02
v 0.0849859 -0.0919739 -0.02
v 0.0690562 -0.0905538 -0.02
v 0.0690562 -0.0905538 -0.015
v 0.069 -0.0915 -0.02
v 0.0692238 -0.0896209 -0.015
v 0.069 -0.0915 -0.015
v 0.0692238 -0.0896209 -0.02
v 0.0690562 -0.0924462 -0.02
v 0.0695006 -0.0887144 -0.015
v 0.0690562 -0.0924462 -0.015
v 0.0695006 -0.0887144 -0.02
v 0.0692238 -0.0933791 -0.02
v 0.0695006 -0.0887144 -0.02
v 0.0698827 -0.087847 -0.015
v 0.0695006 -0.0887144 -0.015
v 0.0692238 -0.0933791 -0.015
v 0.0698827 -0.087847 -0.02
v 0.0695006 -0.0942856 -0.02
v 0.0703648 -0.0870308 -0.015
v 0.0695006 -0.0942856 -0.015
v 0.0703648 -0.0870308 -0.02
v 0.0698827 -0.095153 -0.02
v 0.0709399 -0.0862774 -0.015
v 0.0698827 -0.095153 -0.015
v 0.0709399 -0.0862774 -0.02
v 0.0703648 -0.0959692 -0.02
v 0.0716001 -0.0855973 -0.015
v 0.0703648 -0.0959692 -0.02
v 0.0698827 -0.095153 -0.015
v 0.0703648 -0.0959692 -0.015
v 0.0716001 -0.0855973 -0.02
v 0.0709399 -0.0967226 -0.02
v 0.0723362 -0.0850001 -0.015
v 0.0709399 -0.0967226 -0.015
v 0.0723362 -0.0850001 -0.02
v 0.0716001 -0.0974027 -0.02
v 0.0731377 -0.0844941 -0.015
v 0.0716001 -0.0974027 -0.015
v 0.0731377 -0.0844941 -0.02
v 0.0723362 -0.0979999 -0.02
v 0.0739934 -0.0840865 -0.015
v 0.0723362 -0.0979999 -0.015
v 0.0739934 -0.0840865 -0.02
v 0.0731377 -0.0985059 -0.02
v 0.0748913 -0.0837829 -0.015
v 0.0731377 -0.0985059 -0.015
v 0.0748913 -0.0837829 -0.02
v 0.0739934 -0.0989135 -0.02
v 0.0758188 -0.0835877 -0.015
v 0.0739934 -0.0989135 -0.015
v 0.0758188 -0.0835877 -0.02
v 0.0748913 -0.0992171 -0.02
v 0.0767629 -0.0835035 -0.015
v 0.0748913 -0.0992171 -0.015
v 0.0767629 -0.0835035 -0.02
v 0.0758188 -0.0994123 -0.02
v 0.0767629 -0.0835035 -0.02
v 0.0777104 -0.0835316 -0.015
v 0.0767629 -0.0835035 -0.015
v 0.0758188 -0.0994123 -0.015
v 0.0777104 -0.0835316 -0.02
v 0.0767629 -0.0994965 -0.02
v 0.0786478 -0.0836715 -0.015
v 0.0767629 -0.0994965 -0.015
v 0.0786478 -0.0836715 -0.02
v 0.0777104 -0.0994684 -0.02
v 0.0795622 -0.0839214 -0.015
v 0.0777104 -0.0994684 -0.015
v 0.0795622 -0.0839214 -0.02
v 0.0786478 -0.0993285 -0.02
v 0.0804405 -0.0842776 -0.015
v 0.0786478 -0.0993285 -0.015
v 0.0804405 -0.0842776 -0.02
v 0.0786478 -0.0993285 -0.02
v 0.0786478 -0.0993285 -0.015
v 0.0795622 -0.0990786 -0.02
v 0.0812706 -0.0847352 -0.015
v 0.0795622 -0.0990786 -0.015
v 0.0812706 -0.0847352 -0.02
v 0.0804405 -0.0987224 -0.02
v 0.0820407 -0.0852878 -0.015
v 0.0804405 -0.0987224 -0.015
v 0.0820407 -0.0852878 -0.02
v 0.0812706 -0.0982648 -0.02
v 0.0827401 -0.0859276 -0.015
v 0.0812706 -0.0982648 -0.015
v 0.0827401 -0.0859276 -0.02
v 0.0820407 -0.0977122 -0.02
v 0.0833588 -0.0866456 -0.015
v 0.0820407 -0.0977122 -0.015
v 0.0833588 -0.0866456 -0.02
v 0.0827401 -0.0970724 -0.02
v 0.0838884 -0.0874318 -0.015
v 0.0827401 -0.0970724 -0.015
v 0.0838884 -0.0874318 -0.02
v 0.0833588 -0.0963544 -0.02
v 0.0843212 -0.088275 -0.015
v 0.0833588 -0.0963544 -0.015
v 0.0843212 -0.088275 -0.02
v 0.0838884 -0.0955682 -0.02
v 0.0846512 -0.0891635 -0.015
v 0.0838884 -0.0955682 -0.015
v 0.0846512 -0.0891635 -0.02
v 0.0846512 -0.0891635 -0.015
v 0.0843212 -0.088275 -0.02
v 0.0843212 -0.094725 -0.02
v 0.0848738 -0.0900849 -0.015
v 0.0843212 -0.094725 -0.015
v 0.0848738 -0.0900849 -0.02
v 0.0846512 -0.0938365 -0.02
v 0.0849859 -0.0910261 -0.015
v 0.0846512 -0.0938365 -0.015
v 0.0849859 -0.0910261 -0.02
v 0.0848738 -0.0929151 -0.02
v 0.0849859 -0.0919739 -0.015
v 0.0848738 -0.0929151 -0.015
v 0.0849859 -0.0919739 -0.02
vn 0 0 1
vn 0 0 1
vn 0 0 1
vn 0 0 1
vn 0 0 1
vn 0 0 1
vn 0 0 1
vn 0 0 1
vn 0 0 1
vn 0 0 1
vn 0 0 1
vn 0 0 1
vn 0 0 1
vn 0 0 1
vn 0 0 1
vn 0 0 1
vn 0 0 1
vn 0 0 1
vn 0 0 1
vn 0 0 1
vn 0 0 1
vn 0 0 1
vn 0 0 1
vn 0 0 1
vn 0 0 1
vn 0 0 1
vn 0 0 1
vn 0 0 1
vn 0 0 1
vn 0 0 1
vn 0 0 1
vn 0 0 1
vn 0 0 1
vn 0 0 1
vn 0 0 1
vn 0 0 1
vn 0 0 1
vn 0 0 1
vn 0 0 1
vn 0 0 1
vn 0 0 1
vn 0 0 1
vn 0 0 1
vn 0 0 1
vn 0 0 1
vn 0 0 1
vn 0 0 1
vn 0 0 1
vn 0 0 1
vn 0 0 1
vn 0 0 1
vn 0 0 1
vn 0 0 1
vn 0 0 1
vn 0 0 -1
vn 0 0 -1
vn 0 0 -1
vn 0 0 -1
vn 0 0 -1
vn 0 0 -1
vn 0 0 -1
vn 0 0 -1
vn 0 0 -1
vn 0 0 -1
vn 0 0 -1
vn 0 0 -1
vn 0 0 -1
vn 0 0 -1
vn 0 0 -1
vn 0 0 -1
vn 0 0 -1
vn 0 0 -1
vn 0 0 -1
vn 0 0 -1
vn 0 0 -1
vn 0 0 -1
vn 0 0 -1
vn 0 0 -1
vn 0 0 -1
vn 0 0 -1
vn 0 0 -1
vn 0 0 -1
vn 0 0 -1
vn 0 0 -1
vn 0 0 -1
vn 0 0 -1
vn 0 0 -1
vn 0 0 -1
vn 0 0 -1
vn 0 0 -1
vn 0 0 -1
vn 0 0 -1
vn 0 0 -1
vn 0 0 -1
vn 0 0 -1
vn 0 0 -1
vn 0 0 -1
vn 0 0 -1
vn 0 0 -1
vn 0 0 -1
vn 0 0 -1
vn 0 0 -1
vn 0 0 -1
vn 0 0 -1
vn 0 0 -1
vn 0 0 -1
vn 0 0 -1
vn 0 0 -1
vn -0.992981 0.118273 0
vn -0.992981 0.118273 0
vn -1 0 0
vn -0.972023 0.234886 0
vn -1 0 0
vn -0.972023 0.234886 0
vn -0.992981 -0.118273 0
vn -0.93742 0.348202 0
vn -0.992981 -0.118273 0
vn -0.93742 0.348202 0
vn -0.972023 -0.234886 0
vn -0.93742 0.348202 0
vn -0.889657 0.456629 0
vn -0.93742 0.348202 0
vn -0.972023 -0.234886 0
vn -0.889657 0.456629 0
vn -0.93742 -0.348202 0
vn -0.829406 0.558647 0
vn -0.93742 -0.348202 0
vn -0.829406 0.558647 0
vn -0.889657 -0.456629 0
vn -0.757511 0.652822 0
vn -0.889657 -0.456629 0
vn -0.757511 0.652822 0
vn -0.829406 -0.558647 0
vn -0.674983 0.737833 0
vn -0.829406 -0.558647 0
vn -0.889657 -0.456629 0
vn -0.829406 -0.558647 0
vn -0.674983 0.737833 0
vn -0.757511 -0.652822 0
vn -0.58298 0.812487 0
vn -0.757511 -0.652822 0
vn -0.58298 0.812487 0
vn -0.674983 -0.737833 0
vn -0.482792 0.875735 0
vn -0.674983 -0.737833 0
vn -0.482792 0.875735 0
vn -0.58298 -0.812487 0
vn -0.375828 0.92669 0
vn -0.58298 -0.812487 0
vn -0.375828 0.92669 0
vn -0.482792 -0.875735 0
vn -0.263587 0.964636 0
vn -0.482792 -0.875735 0
vn -0.263587 0.964636 0
vn -0.375828 -0.92669 0
vn -0.147647 0.98904 0
vn -0.375828 -0.92669 0
vn -0.147647 0.98904 0
vn -0.263587 -0.964636 0
vn -0.0296333 0.999561 0
vn -0.263587 -0.964636 0
vn -0.0296333 0.999561 0
vn -0.147647 -0.98904 0
vn -0.0296333 0.999561 0
vn 0.0887959 0.99605 0
vn -0.0296333 0.999561 0
vn -0.147647 -0.98904 0
vn 0.0887959 0.99605 0
vn -0.0296333 -0.999561 0
vn 0.205979 0.978557 0
vn -0.0296333 -0.999561 0
vn 0.205979 0.978557 0
vn 0.0887959 -0.99605 0
vn 0.32027 0.947326 0
vn 0.0887959 -0.99605 0
vn 0.32027 0.947326 0
vn 0.205979 -0.978557 0
vn 0.430065 0.902798 0
vn 0.205979 -0.978557 0
vn 0.430065 0.902798 0
vn 0.205979 -0.978557 0
vn 0.205979 -0.978557 0
vn 0.32027 -0.947326 0
vn 0.533823 0.845596 0
vn 0.32027 -0.947326 0
vn 0.533823 0.845596 0
vn 0.430065 -0.902798 0
vn 0.630088 0.776524 0
vn 0.430065 -0.902798 0
vn 0.630088 0.776524 0
vn 0.533823 -0.845596 0
vn 0.717507 0.696551 0
vn 0.533823 -0.845596 0
vn 0.717507 0.696551 0
vn 0.630088 -0.776524 0
vn 0.794854 0.6068 0
vn 0.630088 -0.776524 0
vn 0.794854 0.6068 0
vn 0.717507 -0.696551 0
vn 0.861044 0.508531 0
vn 0.717507 -0.696551 0
vn 0.861044 0.508531 0
vn 0.794854 -0.6068 0
vn 0.915146 0.403123 0
vn 0.794854 -0.6068 0
vn 0.915146 0.403123 0
vn 0.861044 -0.508531 0
vn 0.956401 0.292057 0
vn 0.861044 -0.508531 0
vn 0.956401 0.292057 0
vn 0.956401 0.292057 0
vn 0.915146 0.403123 0
vn 0.915146 -0.403123 0
vn 0.984231 0.17689 0
vn 0.915146 -0.403123 0
vn 0.984231 0.17689 0
vn 0.956401 -0.292057 0
vn 0.998244 0.0592406 0
vn 0.956401 -0.292057 0
vn 0.998244 0.0592406 0
vn 0.984231 -0.17689 0
vn 0.998244 -0.0592406 0
vn 0.984231 -0.17689 0
vn 0.998244 -0.0592406 0


f 1/1/1 3/3/3 2/2/2
f 4/4/4 3/3/3 1/1/1
f 1/1/1 2/2/2 5/5/5
f 4/4/4 1/1/1 6/6/6
f 1/1/1 5/5/5 7/7/7
f 1/1/1 8/8/8 6/6/6
f 9/9/9 1/1/1 7/7/7
f 1/1/1 10/10/10 8/8/8
f 1/1/1 9/9/9 11/11/11
f 10/10/10 1/1/1 12/12/12
f 1/1/1 11/11/11 13/13/13
f 1/1/1 14/14/14 12/12/12
f 15/15/15 1/1/1 13/13/13
f 1/1/1 16/16/16 14/14/14
f 1/1/1 15/15/15 17/17/17
f 16/16/16 1/1/1 18/18/18
f 1/1/1 17/17/17 19/19/19
f 1/1/1 20/20/20 18/18/18
f 21/21/21 1/1/1 19/19/19
f 1/1/1 22/22/22 20/20/20
f 1/1/1 21/21/21 23/23/23
f 22/22/22 1/1/1 24/24/24
f 1/1/1 23/23/23 25/25/25
f 1/1/1 26/26/26 24/24/24
f 27/27/27 1/1/1 25/25/25
f 1/1/1 28/28/28 26/26/26
f 1/1/1 27/27/27 29/29/29
f 28/28/28 1/1/1 30/30/30
f 1/1/1 29/29/29 31/31/31
f 1/1/1 32/32/32 30/30/30
f 33/33/33 1/1/1 31/31/31
f 1/1/1 34/34/34 32/32/32
f 1/1/1 33/33/33 35/35/35
f 34/34/34 1/1/1 36/36/36
f 1/1/1 35/35/35 37/37/37
f 1/1/1 38/38/38 36/36/36
f 39/39/39 1/1/1 37/37/37
f 1/1/1 40/40/40 38/38/38
f 1/1/1 39/39/39 41/41/41
f 40/40/40 1/1/1 42/42/42
f 1/1/1 41/41/41 43/43/43
f 1/1/1 44/44/44 42/42/42
f 45/45/45 1/1/1 43/43/43
f 1/1/1 46/46/46 44/44/44
f 1/1/1 45/45/45 47/47/47
f 46/46/46 1/1/1 48/48/48
f 1/1/1 47/47/47 49/49/49
f 1/1/1 50/50/50 48/48/48
f 51/51/51 1/1/1 49/49/49
f 1/1/1 52/52/52 50/50/50
f 1/1/1 51/51/51 53/53/53
f 52/52/52 1/1/1 54/54/54
f 1/1/1 53/53/53 54/54/54
f 55/55/55 57/57/57 56/56/56
f 58/58/58 57/57/57 55/55/55
f 55/55/55 56/56/56 59/59/59
f 58/58/58 55/55/55 60/60/60
f 55/55/55 59/59/59 61/61/61
f 55/55/55 62/62/62 60/60/60
f 63/63/63 55/55/55 61/61/61
f 55/55/55 64/64/64 62/62/62
f 55/55/55 63/63/63 65/65/65
f 64/64/64 55/55/55 66/66/66
f 55/55/55 65/65/65 67/67/67
f 55/55/55 68/68/68 66/66/66
f 69/69/69 55/55/55 67/67/67
f 55/55/55 70/70/70 68/68/68
f 55/55/55 69/69/69 71/71/71
f 70/70/70 55/55/55 72/72/72
f 55/55/55 71/71/71 73/73/73
f 55/55/55 74/74/74 72/72/72
f 75/75/75 55/55/55 73/73/73
f 55/55/55 76/76/76 74/74/74
f 55/55/55 75/75/75 77/77/77
f 76/76/76 55/55/55 78/78/78
f 55/55/55 77/77/77 79/79/79
f 55/55/55 80/80/80 78/78/78
f 81/81/81 55/55/55 79/79/79
f 55/55/55 82/82/82 80/80/80
f 55/55/55 81/81/81 83/83/83
f 82/82/82 55/55/55 84/84/84
f 55/55/55 83/83/83 85/85/85
f 55/55/55 86/86/86 84/84/84
f 87/87/87 55/55/55 85/85/85
f 55/55/55 88/88/88 86/86/86
f 55/55/55 87/87/87 89/89/89
f 88/88/88 55/55/55 90/90/90
f 55/55/55 89/89/89 91/91/91
f 55/55/55 92/92/92 90/90/90
f 93/93/93 55/55/55 91/91/91
f 55/55/55 94/94/94 92/92/92
f 55/55/55 93/93/93 95/95/95
f 94/94/94 55/55/55 96/96/96
f 55/55/55 95/95/95 97/97/97
f 55/55/55 98/98/98 96/96/96
f 99/99/99 55/55/55 97/97/97
f 55/55/55 100/100/100 98/98/98
f 55/55/55 99/99/99 101/101/101
f 100/100/100 55/55/55 102/102/102
f 55/55/55 101/101/101 103/103/103
f 55/55/55 104/104/104 102/102/102
f 105/105/105 55/55/55 103/103/103
f 55/55/55 106/106/106 104/104/104
f 55/55/55 105/105/105 107/107/107
f 106/106/106 55/55/55 108/108/108
f 55/55/55 107/107/107 108/108/108
f 109/109/109 111/111/111 110/110/110
f 109/109/109 110/110/110 112/112/112
f 111/111/111 113/113/113 110/110/110
f 114/114/114 109/109/109 112/112/112
f 111/111/111 115/115/115 113/113/113
f 114/114/114 112/112/112 116/116/116
f 115/115/115 117/117/117 113/113/113
f 118/118/118 114/114/114 116/116/116
f 115/115/115 119/119/119 117/117/117
f 120/120/120 122/122/122 121/121/121
f 119/119/119 123/123/123 117/117/117
f 124/124/124 120/120/120 121/121/121
f 119/119/119 125/125/125 123/123/123
f 124/124/124 121/121/121 126/126/126
f 125/125/125 127/127/127 123/123/123
f 128/128/128 124/124/124 126/126/126
f 125/125/125 129/129/129 127/127/127
f 128/128/128 126/126/126 130/130/130
f 129/129/129 131/131/131 127/127/127
f 132/132/132 128/128/128 130/130/130
f 129/129/129 133/133/133 131/131/131
f 132/132/132 130/130/130 134/134/134
f 135/135/135 137/137/137 136/136/136
f 138/138/138 132/132/132 134/134/134
f 135/135/135 139/139/139 137/137/137
f 138/138/138 134/134/134 140/140/140
f 139/139/139 141/141/141 137/137/137
f 142/142/142 138/138/138 140/140/140
f 139/139/139 143/143/143 141/141/141
f 142/142/142 140/140/140 144/144/144
f 143/143/143 145/145/145 141/141/141
f 146/146/146 142/142/142 144/144/144
f 143/143/143 147/147/147 145/145/145
f 146/146/146 144/144/144 148/148/148
f 147/147/147 149/149/149 145/145/145
f 150/150/150 146/146/146 148/148/148
f 147/147/147 151/151/151 149/149/149
f 150/150/150 148/148/148 152/152/152
f 151/151/151 153/153/153 149/149/149
f 154/154/154 150/150/150 152/152/152
f 151/151/151 155/155/155 153/153/153
f 154/154/154 152/152/152 156/156/156
f 155/155/155 157/157/157 153/153/153
f 158/158/158 154/154/154 156/156/156
f 155/155/155 159/159/159 157/157/157
f 158/158/158 156/156/156 160/160/160
f 159/159/159 161/161/161 157/157/157
f 162/162/162 158/158/158 160/160/160
f 159/159/159 163/163/163 161/161/161
f 164/164/164 166/166/166 165/165/165
f 163/163/163 167/167/167 161/161/161
f 168/168/168 164/164/164 165/165/165
f 163/163/163 169/169/169 167/167/167
f 168/168/168 165/165/165 170/170/170
f 169/169/169 171/171/171 167/167/167
f 172/172/172 168/168/168 170/170/170
f 169/169/169 173/173/173 171/171/171
f 172/172/172 170/170/170 174/174/174
f 173/173/173 175/175/175 171/171/171
f 176/176/176 172/172/172 174/174/174
f 173/173/173 177/177/177 175/175/175
f 176/176/176 174/174/174 178/178/178
f 177/177/177 179/179/179 175/175/175
f 180/180/180 176/176/176 178/178/178
f 181/181/181 183/183/183 182/182/182
f 180/180/180 178/178/178 184/184/184
f 183/183/183 185/185/185 182/182/182
f 186/186/186 180/180/180 184/184/184
f 183/183/183 187/187/187 185/185/185
f 186/186/186 184/184/184 188/188/188
f 187/187/187 189/189/189 185/185/185
f 190/190/190 186/186/186 188/188/188
f 187/187/187 191/191/191 189/189/189
f 190/190/190 188/188/188 192/192/192
f 191/191/191 193/193/193 189/189/189
f 194/194/194 190/190/190 192/192/192
f 191/191/191 195/195/195 193/193/193
f 194/194/194 192/192/192 196/196/196
f 195/195/195 197/197/197 193/193/193
f 198/198/198 194/194/194 196/196/196
f 195/195/195 199/199/199 197/197/197
f 198/198/198 196/196/196 200/200/200
f 199/199/199 201/201/201 197/197/197
f 202/202/202 198/198/198 200/200/200
f 199/199/199 203/203/203 201/201/201
f 202/202/202 200/200/200 204/204/204
f 203/203/203 205/205/205 201/201/201
f 206/206/206 202/202/202 204/204/204
f 203/203/203 207/207/207 205/205/205
f 206/206/206 204/204/204 208/208/208
f 207/207/207 209/209/209 205/205/205
f 210/210/210 212/212/212 211/211/211
f 207/207/207 213/213/213 209/209/209
f 210/210/210 211/211/211 214/214/214
f 213/213/213 215/215/215 209/209/209
f 216/216/216 210/210/210 214/214/214
f 213/213/213 217/217/217 215/215/215
f 216/216/216 214/214/214 218/218/218
f 217/217/217 219/219/219 215/215/215
f 220/220/220 216/216/216 218/218/218
f 217/217/217 221/221/221 219/219/219
f 220/220/220 218/218/218 222/222/222
f 221/221/221 223/223/223 219/219/219
f 224/224/224 220/220/220 222/222/222
f 221/221/221 224/224/224 223/223/223
f 224/224/224 222/222/222 223/223/223
