v 0.078879 0.043823 -0.01808
v 0.078879 0.043183 -0.01671
v 0.078879 0.043823 -0.01671
v 0.078879 0.043183 -0.01761
v 0.078879 0.041783 -0.01808
v 0.078879 0.042833 -0.01761
v 0.078879 0.041783 -0.01711
v 0.078879 0.042833 -0.01711
v 0.078879 0.042733 -0.01701
v 0.078879 0.0428296 -0.0170841
v 0.078879 0.0428196 -0.01706
v 0.078879 0.0427589 -0.0170134
v 0.078879 0.0428037 -0.0170393
v 0.078879 0.042783 -0.0170234
v 0.078879 0.041883 -0.01701
v 0.078879 0.0417864 -0.0170841
v 0.078879 0.0417964 -0.01706
v 0.078879 0.0418123 -0.0170393
v 0.078879 0.0418571 -0.0170134
v 0.078879 0.041833 -0.0170234
v 0.078879 0.043823 -0.01671
v 0.074539 0.043823 -0.01808
v 0.078879 0.043823 -0.01808
v 0.074539 0.043823 -0.01671
vn 1 0 0
vn 1 0 0
vn 1 0 0
vn 1 0 0
vn 1 0 0
vn 1 0 0
vn 1 0 0
vn 1 0 0
vn 1 0 0
vn 1 0 0
vn 1 0 0
vn 1 0 0
vn 1 0 0
vn 1 0 0
vn 1 0 0
vn 1 0 0
vn 1 0 0
vn 1 0 0
vn 1 0 0
vn 1 0 0
vn 0 1 0
vn 0 1 0
vn 0 1 0
vn 0 1 0


f 1/1/1 3/3/3 2/2/2
f 1/1/1 2/2/2 4/4/4
f 5/5/5 1/1/1 4/4/4
f 5/5/5 4/4/4 6/6/6
f 7/7/7 5/5/5 6/6/6
f 7/7/7 6/6/6 8/8/8
f 7/7/7 8/8/8 9/9/9
f 9/9/9 8/8/8 10/10/10
f 9/9/9 10/10/10 11/11/11
f 12/12/12 9/9/9 11/11/11
f 12/12/12 11/11/11 13/13/13
f 14/14/14 12/12/12 13/13/13
f 7/7/7 9/9/9 15/15/15
f 16/16/16 7/7/7 15/15/15
f 16/16/16 15/15/15 17/17/17
f 15/15/15 18/18/18 17/17/17
f 15/15/15 19/19/19 18/18/18
f 18/18/18 19/19/19 20/20/20
f 21/21/21 23/23/23 22/22/22
f 21/21/21 22/22/22 24/24/24
