v 0.076134 0.064258 -0.02805
v 0.076134 0.0642748 -0.0280514
v 0.0761906 0.064258 -0.0280532
v 0.0761904 0.0642748 -0.0280546
v 0.0762844 0.064258 -0.0280731
v 0.0761896 0.0642984 -0.0280617
v 0.076134 0.0642984 -0.0280585
v 0.0762839 0.0642748 -0.0280745
v 0.0763726 0.064258 -0.0281106
v 0.0761882 0.0643195 -0.0280742
v 0.076134 0.0643195 -0.0280711
v 0.0762818 0.0642984 -0.0280812
v 0.0763719 0.0642748 -0.0281118
v 0.076452 0.064258 -0.0281642
v 0.0761862 0.0643369 -0.0280915
v 0.076134 0.0643369 -0.0280885
v 0.076278 0.0643195 -0.0280933
v 0.0763685 0.0642984 -0.0281181
v 0.0764511 0.0642748 -0.0281653
v 0.0765198 0.064258 -0.028232
v 0.0761838 0.0643495 -0.0281125
v 0.0761862 0.0643369 -0.0280915
v 0.076134 0.0643369 -0.0280885
v 0.076134 0.0643495 -0.0281097
v 0.0762728 0.0643369 -0.0281099
v 0.0763625 0.0643195 -0.0281292
v 0.0764466 0.0642984 -0.0281707
v 0.0765187 0.0642748 -0.0282329
v 0.0765734 0.064258 -0.0283114
v 0.0761812 0.0643566 -0.0281359
v 0.076134 0.0643566 -0.0281332
v 0.0761793 0.064358 -0.0281526
v 0.076134 0.064358 -0.02815
v 0.0762593 0.0643566 -0.0281525
v 0.0764386 0.0643195 -0.0281805
v 0.0763685 0.0642984 -0.0281181
v 0.0763625 0.0643195 -0.0281292
v 0.0764466 0.0642984 -0.0281707
v 0.0765133 0.0642984 -0.0282374
v 0.0765722 0.0642748 -0.0283121
v 0.0766109 0.064258 -0.0283996
v 0.0762664 0.0643495 -0.02813
v 0.0762728 0.0643369 -0.0281099
v 0.0765035 0.0643195 -0.0282454
v 0.0765133 0.0642984 -0.0282374
v 0.0765659 0.0642984 -0.0283155
v 0.0766095 0.0642748 -0.0284001
v 0.0766308 0.064258 -0.0284934
v 0.0765548 0.0643195 -0.0283215
v 0.0765659 0.0642984 -0.0283155
v 0.0766028 0.0642984 -0.0284022
v 0.0766294 0.0642748 -0.0284936
v 0.076634 0.064258 -0.02855
v 0.0766326 0.0642748 -0.02855
v 0.0766255 0.0642984 -0.02855
v 0.0766223 0.0642984 -0.0284944
v 0.0766129 0.0643195 -0.02855
v 0.0766098 0.0643195 -0.0284958
v 0.0765955 0.0643369 -0.02855
v 0.0765907 0.0643195 -0.028406
v 0.0766028 0.0642984 -0.0284022
v 0.0765907 0.0643195 -0.028406
v 0.0765925 0.0643369 -0.0284978
v 0.0765925 0.0643369 -0.0284978
v 0.0766098 0.0643195 -0.0284958
v 0.0765743 0.0643495 -0.02855
v 0.0765955 0.0643369 -0.02855
v 0.0765741 0.0643369 -0.0284112
v 0.0765715 0.0643495 -0.0285002
v 0.0765508 0.0643566 -0.02855
v 0.0765395 0.0643369 -0.0283298
v 0.0765539 0.0643495 -0.0284176
v 0.0765481 0.0643566 -0.0285028
v 0.0764901 0.0643369 -0.0282565
v 0.076521 0.0643495 -0.0283399
v 0.0764275 0.0643369 -0.0281939
v 0.0765314 0.064358 -0.0285047
v 0.076534 0.064358 -0.02855
v 0.0765315 0.0643566 -0.0284247
v 0.0764738 0.0643495 -0.0282699
v 0.0763542 0.0643369 -0.0281445
v 0.0763542 0.0643369 -0.0281445
v 0.0764141 0.0643495 -0.0282102
v 0.0763441 0.0643495 -0.028163
v 0.0765002 0.0643566 -0.0283511
v 0.0765155 0.064358 -0.0284297
v 0.0764556 0.0643566 -0.0282849
v 0.0763329 0.0643566 -0.0281838
v 0.0763991 0.0643566 -0.0282284
v 0.0764855 0.064358 -0.0283591
v 0.0762164 0.064358 -0.028568
v 0.07623 0.064358 -0.0286104
v 0.076234 0.064358 -0.0286523
v 0.076234 0.064358 -0.0290474
v 0.076534 0.064358 -0.0290474
v 0.0761923 0.064358 -0.0285289
v 0.0764427 0.064358 -0.0282956
v 0.0763884 0.064358 -0.0282413
v 0.076159 0.064358 -0.0284951
v 0.0763249 0.064358 -0.0281985
v 0.0761211 0.064358 -0.0284703
v 0.0762543 0.064358 -0.0281685
v 0.0760785 0.064358 -0.0284551
v 0.0760317 0.064358 -0.02845
v 0.0756488 0.064358 -0.02815
v 0.0755289 0.064358 -0.02845
v 0.0755691 0.064358 -0.0281448
v 0.0754701 0.064358 -0.0284458
v 0.075492 0.064358 -0.0281294
v 0.0754076 0.064358 -0.0284313
v 0.0754179 0.064358 -0.0281039
v 0.0753475 0.064358 -0.0284065
v 0.0753767 0.064358 -0.0280847
v 0.0691059 0.064358 -0.0248935
v 0.0690767 0.064358 -0.0252153
v 0.0690355 0.064358 -0.0251961
v 0.0690458 0.064358 -0.0248687
v 0.0689614 0.064358 -0.0251706
v 0.0689833 0.064358 -0.0248542
v 0.0688843 0.064358 -0.0251552
v 0.0689245 0.064358 -0.02485
v 0.0688046 0.064358 -0.02515
v 0.0684245 0.064358 -0.02485
v 0.0684245 0.064358 -0.02515
vn 0 0 1
vn 0 0.167506 0.985871
vn 0.113203 0 0.993572
vn 0.111604 0.167506 0.979534
vn 0.300706 0 0.953717
vn 0.103588 0.403317 0.909178
vn 0 0.403317 0.91506
vn 0.296457 0.167506 0.940242
vn 0.477159 0 0.878817
vn 0.0892922 0.614679 0.783707
vn 0 0.614679 0.788778
vn 0.275164 0.403317 0.872708
vn 0.470417 0.167506 0.8664
vn 0.636078 0 0.771625
vn 0.0695836 0.788778 0.610727
vn 0 0.788778 0.614679
vn 0.23719 0.614679 0.752271
vn 0.436629 0.403317 0.804171
vn 0.627091 0.167506 0.760722
vn 0.771625 0 0.636078
vn 0.0456568 0.91506 0.400725
vn 0.0695836 0.788778 0.610727
vn 0 0.788778 0.614679
vn 0 0.91506 0.403317
vn 0.184837 0.788778 0.586229
vn 0.376372 0.614679 0.693191
vn 0.58205 0.403317 0.706083
vn 0.760722 0.167506 0.627091
vn 0.878817 0 0.477159
vn 0.0189622 0.985871 0.166429
vn 0 0.985871 0.167506
vn 0 1 0
vn 0 1 0
vn 0.0503701 0.985871 0.159754
vn 0.501724 0.614679 0.60864
vn 0.436629 0.403317 0.804171
vn 0.376372 0.614679 0.693191
vn 0.58205 0.403317 0.706083
vn 0.706083 0.403317 0.58205
vn 0.8664 0.167506 0.470417
vn 0.953717 0 0.300706
vn 0.12128 0.91506 0.38465
vn 0.184837 0.788778 0.586229
vn 0.60864 0.614679 0.501724
vn 0.706083 0.403317 0.58205
vn 0.804171 0.403317 0.436629
vn 0.940242 0.167506 0.296457
vn 0.993572 0 0.113203
vn 0.693191 0.614679 0.376372
vn 0.804171 0.403317 0.436629
vn 0.872708 0.403317 0.275164
vn 0.979534 0.167506 0.111604
vn 1 0 0
vn 0.985871 0.167506 0
vn 0.91506 0.403317 0
vn 0.909178 0.403317 0.103588
vn 0.788778 0.614679 0
vn 0.783707 0.614679 0.0892922
vn 0.614679 0.788778 0
vn 0.752271 0.614679 0.23719
vn 0.872708 0.403317 0.275164
vn 0.752271 0.614679 0.23719
vn 0.610727 0.788778 0.0695836
vn 0.610727 0.788778 0.0695836
vn 0.783707 0.614679 0.0892922
vn 0.403317 0.91506 0
vn 0.614679 0.788778 0
vn 0.586229 0.788778 0.184837
vn 0.400725 0.91506 0.0456568
vn 0.167506 0.985871 0
vn 0.54019 0.788778 0.293299
vn 0.38465 0.91506 0.12128
vn 0.166429 0.985871 0.0189622
vn 0.474301 0.788778 0.390984
vn 0.354442 0.91506 0.192446
vn 0.390984 0.788778 0.474301
vn 0 1 0
vn 0 1 0
vn 0.159754 0.985871 0.0503701
vn 0.311209 0.91506 0.256541
vn 0.293299 0.788778 0.54019
vn 0.293299 0.788778 0.54019
vn 0.256541 0.91506 0.311209
vn 0.192446 0.91506 0.354442
vn 0.147207 0.985871 0.0799271
vn 0 1 0
vn 0.129252 0.985871 0.106547
vn 0.0799271 0.985871 0.147207
vn 0.106547 0.985871 0.129252
vn 0 1 0
vn 0 1 0
vn 0 1 0
vn 0 1 0
vn 0 1 0
vn 0 1 0
vn 0 1 0
vn 0 1 0
vn 0 1 0
vn 0 1 0
vn 0 1 0
vn 0 1 0
vn 0 1 0
vn 0 1 0
vn 0 1 0
vn 0 1 0
vn 0 1 0
vn 0 1 0
vn 0 1 0
vn 0 1 0
vn 0 1 0
vn 0 1 0
vn 0 1 0
vn 0 1 0
vn 0 1 0
vn 0 1 0
vn 0 1 0
vn 0 1 0
vn 0 1 0
vn 0 1 0
vn 0 1 0
vn 0 1 0
vn 0 1 0
vn 0 1 0
vn 0 1 0


f 1/1/1 3/3/3 2/2/2
f 3/3/3 4/4/4 2/2/2
f 3/3/3 5/5/5 4/4/4
f 6/6/6 2/2/2 4/4/4
f 6/6/6 7/7/7 2/2/2
f 5/5/5 8/8/8 4/4/4
f 5/5/5 9/9/9 8/8/8
f 10/10/10 7/7/7 6/6/6
f 10/10/10 11/11/11 7/7/7
f 12/12/12 6/6/6 4/4/4
f 12/12/12 4/4/4 8/8/8
f 9/9/9 13/13/13 8/8/8
f 9/9/9 14/14/14 13/13/13
f 15/15/15 11/11/11 10/10/10
f 15/15/15 16/16/16 11/11/11
f 17/17/17 10/10/10 6/6/6
f 17/17/17 6/6/6 12/12/12
f 18/18/18 12/12/12 8/8/8
f 18/18/18 8/8/8 13/13/13
f 14/14/14 19/19/19 13/13/13
f 14/14/14 20/20/20 19/19/19
f 21/21/21 23/23/23 22/22/22
f 21/21/21 24/24/24 23/23/23
f 25/25/25 15/15/15 10/10/10
f 25/25/25 10/10/10 17/17/17
f 26/26/26 17/17/17 12/12/12
f 26/26/26 12/12/12 18/18/18
f 27/27/27 18/18/18 13/13/13
f 27/27/27 13/13/13 19/19/19
f 20/20/20 28/28/28 19/19/19
f 20/20/20 29/29/29 28/28/28
f 30/30/30 24/24/24 21/21/21
f 30/30/30 31/31/31 24/24/24
f 32/32/32 31/31/31 30/30/30
f 31/31/31 32/32/32 33/33/33
f 34/34/34 30/30/30 21/21/21
f 32/32/32 30/30/30 34/34/34
f 35/35/35 37/37/37 36/36/36
f 35/35/35 36/36/36 38/38/38
f 39/39/39 27/27/27 19/19/19
f 39/39/39 19/19/19 28/28/28
f 29/29/29 40/40/40 28/28/28
f 29/29/29 41/41/41 40/40/40
f 34/34/34 21/21/21 42/42/42
f 42/42/42 21/21/21 22/22/22
f 42/42/42 22/22/22 43/43/43
f 44/44/44 35/35/35 38/38/38
f 44/44/44 38/38/38 45/45/45
f 46/46/46 39/39/39 28/28/28
f 46/46/46 28/28/28 40/40/40
f 41/41/41 47/47/47 40/40/40
f 41/41/41 48/48/48 47/47/47
f 49/49/49 44/44/44 45/45/45
f 49/49/49 45/45/45 50/50/50
f 51/51/51 46/46/46 40/40/40
f 51/51/51 40/40/40 47/47/47
f 48/48/48 52/52/52 47/47/47
f 48/48/48 53/53/53 52/52/52
f 52/52/52 53/53/53 54/54/54
f 55/55/55 52/52/52 54/54/54
f 56/56/56 47/47/47 52/52/52
f 55/55/55 56/56/56 52/52/52
f 56/56/56 51/51/51 47/47/47
f 57/57/57 56/56/56 55/55/55
f 57/57/57 58/58/58 56/56/56
f 58/58/58 51/51/51 56/56/56
f 59/59/59 58/58/58 57/57/57
f 60/60/60 50/50/50 61/61/61
f 58/58/58 62/62/62 51/51/51
f 60/60/60 49/49/49 50/50/50
f 59/59/59 63/63/63 58/58/58
f 64/64/64 60/60/60 65/65/65
f 66/66/66 64/64/64 67/67/67
f 68/68/68 49/49/49 60/60/60
f 64/64/64 68/68/68 60/60/60
f 66/66/66 69/69/69 64/64/64
f 69/69/69 68/68/68 64/64/64
f 70/70/70 69/69/69 66/66/66
f 68/68/68 71/71/71 49/49/49
f 71/71/71 44/44/44 49/49/49
f 69/69/69 72/72/72 68/68/68
f 72/72/72 71/71/71 68/68/68
f 70/70/70 73/73/73 69/69/69
f 73/73/73 72/72/72 69/69/69
f 71/71/71 74/74/74 44/44/44
f 74/74/74 35/35/35 44/44/44
f 72/72/72 75/75/75 71/71/71
f 75/75/75 74/74/74 71/71/71
f 74/74/74 76/76/76 35/35/35
f 76/76/76 37/37/37 35/35/35
f 77/77/77 73/73/73 70/70/70
f 78/78/78 77/77/77 70/70/70
f 73/73/73 79/79/79 72/72/72
f 79/79/79 75/75/75 72/72/72
f 75/75/75 80/80/80 74/74/74
f 80/80/80 76/76/76 74/74/74
f 76/76/76 81/81/81 37/37/37
f 82/82/82 17/17/17 26/26/26
f 82/82/82 25/25/25 17/17/17
f 83/83/83 81/81/81 76/76/76
f 80/80/80 83/83/83 76/76/76
f 84/84/84 43/43/43 81/81/81
f 83/83/83 84/84/84 81/81/81
f 84/84/84 42/42/42 43/43/43
f 85/85/85 80/80/80 75/75/75
f 79/79/79 85/85/85 75/75/75
f 86/86/86 79/79/79 73/73/73
f 77/77/77 86/86/86 73/73/73
f 87/87/87 83/83/83 80/80/80
f 85/85/85 87/87/87 80/80/80
f 88/88/88 42/42/42 84/84/84
f 88/88/88 34/34/34 42/42/42
f 89/89/89 84/84/84 83/83/83
f 87/87/87 89/89/89 83/83/83
f 89/89/89 88/88/88 84/84/84
f 90/90/90 85/85/85 79/79/79
f 86/86/86 90/90/90 79/79/79
f 77/77/77 91/91/91 86/86/86
f 91/91/91 90/90/90 86/86/86
f 77/77/77 92/92/92 91/91/91
f 77/77/77 78/78/78 92/92/92
f 78/78/78 93/93/93 92/92/92
f 78/78/78 94/94/94 93/93/93
f 94/94/94 78/78/78 95/95/95
f 91/91/91 96/96/96 90/90/90
f 90/90/90 97/97/97 85/85/85
f 90/90/90 96/96/96 97/97/97
f 97/97/97 87/87/87 85/85/85
f 96/96/96 98/98/98 97/97/97
f 97/97/97 98/98/98 87/87/87
f 96/96/96 99/99/99 98/98/98
f 98/98/98 89/89/89 87/87/87
f 99/99/99 100/100/100 98/98/98
f 98/98/98 100/100/100 89/89/89
f 100/100/100 88/88/88 89/89/89
f 99/99/99 101/101/101 100/100/100
f 100/100/100 102/102/102 88/88/88
f 100/100/100 101/101/101 102/102/102
f 102/102/102 34/34/34 88/88/88
f 102/102/102 32/32/32 34/34/34
f 101/101/101 32/32/32 102/102/102
f 101/101/101 103/103/103 32/32/32
f 103/103/103 33/33/33 32/32/32
f 103/103/103 104/104/104 33/33/33
f 104/104/104 105/105/105 33/33/33
f 104/104/104 106/106/106 105/105/105
f 106/106/106 107/107/107 105/105/105
f 106/106/106 108/108/108 107/107/107
f 108/108/108 109/109/109 107/107/107
f 108/108/108 110/110/110 109/109/109
f 110/110/110 111/111/111 109/109/109
f 110/110/110 112/112/112 111/111/111
f 112/112/112 113/113/113 111/111/111
f 112/112/112 114/114/114 113/113/113
f 115/115/115 114/114/114 112/112/112
f 115/115/115 116/116/116 114/114/114
f 116/116/116 117/117/117 114/114/114
f 116/116/116 118/118/118 117/117/117
f 118/118/118 119/119/119 117/117/117
f 118/118/118 120/120/120 119/119/119
f 120/120/120 121/121/121 119/119/119
f 120/120/120 122/122/122 121/121/121
f 122/122/122 123/123/123 121/121/121
f 122/122/122 124/124/124 123/123/123
