v 0.082299 -0.06163 -0.0306076
v 0.078299 -0.0616302 -0.0299076
v 0.082299 -0.0616302 -0.0299076
v 0.078299 -0.06163 -0.0306076
v 0.078299 -0.0531002 -0.0306057
v 0.082299 -0.0531004 -0.0299057
v 0.078299 -0.0531004 -0.0299057
v 0.082299 -0.0531002 -0.0306057
v 0.078299 -0.0516002 -0.0306053
v 0.078299 -0.0531004 -0.0299057
v 0.078299 -0.0516004 -0.0299053
v 0.078299 -0.0531002 -0.0306057
v 0.0814806 -0.0516002 -0.0306053
v 0.078299 -0.0516004 -0.0299053
v 0.0814806 -0.0516004 -0.0299053
v 0.078299 -0.0516002 -0.0306053
v 0.082299 -0.0516002 -0.0306053
v 0.0817545 -0.0521449 -0.0299054
v 0.082299 -0.0516004 -0.0299053
v 0.0817545 -0.0521447 -0.0306054
v 0.078299 -0.0505506 -0.0289051
v 0.082299 -0.0498506 -0.0289049
v 0.078299 -0.0498506 -0.0289049
v 0.082299 -0.0505506 -0.0289051
v 0.075999 -0.0586163 -0.0255569
v 0.082299 -0.0505514 -0.0255551
v 0.075999 -0.0505514 -0.0255551
v 0.082299 -0.0641811 -0.0255581
v 0.075999 -0.0641811 -0.0255581
v 0.078299 -0.0641804 -0.0289082
v 0.075999 -0.0641802 -0.0299081
v 0.078299 -0.0641802 -0.0299082
v 0.075999 -0.0641809 -0.0267494
v 0.075999 -0.0641811 -0.0255581
v 0.082299 -0.0641811 -0.0255581
v 0.082299 -0.0641804 -0.0289082
v 0.082299 -0.0641804 -0.0289082
v 0.078299 -0.0648804 -0.0289083
v 0.082299 -0.0648804 -0.0289083
v 0.078299 -0.0641804 -0.0289082
v 0.0817545 -0.0625855 -0.0306078
v 0.082299 -0.0631302 -0.0299079
v 0.0817545 -0.0625857 -0.0299078
v 0.082299 -0.06313 -0.0306079
v 0.078299 -0.06313 -0.0306079
v 0.0814806 -0.0631302 -0.0299079
v 0.078299 -0.0631302 -0.0299079
v 0.0814806 -0.06313 -0.0306079
v 0.082299 -0.0648802 -0.0299083
v 0.078299 -0.0648802 -0.0299083
v 0.078299 -0.0641802 -0.0299082
v 0.0814806 -0.0631302 -0.0299079
v 0.0816722 -0.0626039 -0.0299078
v 0.082299 -0.0631302 -0.0299079
v 0.0817545 -0.0625857 -0.0299078
v 0.078299 -0.0631302 -0.0299079
v 0.075999 -0.0641802 -0.0299081
v 0.0817446 -0.062578 -0.0299078
v 0.075999 -0.0586153 -0.0299069
v 0.0817331 -0.062573 -0.0299078
v 0.0817208 -0.062571 -0.0299078
v 0.0817083 -0.0625722 -0.0299078
v 0.0816965 -0.0625764 -0.0299078
v 0.0816862 -0.0625834 -0.0299078
v 0.0816779 -0.0625928 -0.0299078
v 0.078299 -0.0616302 -0.0299076
v 0.082299 -0.0531004 -0.0299057
v 0.082299 -0.0616302 -0.0299076
v 0.078299 -0.0531004 -0.0299057
v 0.075999 -0.0505504 -0.0299051
v 0.078299 -0.0516004 -0.0299053
v 0.078299 -0.0505504 -0.0299051
v 0.0814806 -0.0516004 -0.0299053
v 0.082299 -0.0498504 -0.0299049
v 0.078299 -0.0498504 -0.0299049
v 0.082299 -0.0516004 -0.0299053
v 0.0816722 -0.0521266 -0.0299054
v 0.0817545 -0.0521449 -0.0299054
v 0.0817446 -0.0521526 -0.0299054
v 0.0817331 -0.0521575 -0.0299054
v 0.0817208 -0.0521595 -0.0299054
v 0.0817083 -0.0521584 -0.0299054
v 0.0816965 -0.0521541 -0.0299054
v 0.0816862 -0.0521471 -0.0299054
v 0.0816779 -0.0521378 -0.0299054
v 0.075999 -0.0505511 -0.0267463
v 0.075999 -0.0505514 -0.0255551
v 0.082299 -0.0505514 -0.0255551
v 0.078299 -0.0505506 -0.0289051
v 0.082299 -0.0505506 -0.0289051
v 0.078299 -0.0505504 -0.0299051
v 0.075999 -0.0505504 -0.0299051
v 0.075999 -0.0641809 -0.0267494
v 0.075999 -0.0641811 -0.0255581
v 0.075999 -0.0586163 -0.0255569
v 0.075999 -0.058616 -0.0267481
v 0.075999 -0.0505514 -0.0255551
v 0.075999 -0.0505511 -0.0267463
v 0.075999 -0.0526832 -0.0279381
v 0.075999 -0.0545482 -0.0279385
v 0.075999 -0.0551832 -0.0279386
v 0.075999 -0.0520482 -0.0279379
v 0.075999 -0.0526831 -0.0285731
v 0.075999 -0.0505504 -0.0299051
v 0.075999 -0.0520481 -0.0285729
v 0.075999 -0.0545481 -0.0285735
v 0.075999 -0.0586153 -0.0299069
v 0.075999 -0.0551831 -0.0285736
v 0.075999 -0.0570482 -0.027939
v 0.075999 -0.0570481 -0.028574
v 0.075999 -0.0576832 -0.0279392
v 0.075999 -0.0576831 -0.0285742
v 0.075999 -0.0595482 -0.0279396
v 0.075999 -0.0595481 -0.0285746
v 0.075999 -0.0601832 -0.0279397
v 0.075999 -0.0641802 -0.0299081
v 0.075999 -0.0601831 -0.0285747
v 0.075999 -0.0620482 -0.0279402
v 0.075999 -0.0620481 -0.0285752
v 0.075999 -0.0626832 -0.0279403
v 0.075999 -0.0626831 -0.0285753
vn 0 -1 -0.000224984
vn 0 -1 -0.000224984
vn 0 -1 -0.000224984
vn 0 -1 -0.000224984
vn 0 1 0.000224984
vn 0 1 0.000224984
vn 0 1 0.000224984
vn 0 1 0.000224984
vn 1 0 -4.37114E-08
vn 1 0 -4.37114E-08
vn 1 0 -4.37114E-08
vn 1 0 -4.37114E-08
vn 0 -1 -0.000224984
vn 0 -1 -0.000224984
vn 0 -1 -0.000224984
vn 0 -1 -0.000224984
vn 0.707107 -0.707107 -0.000159119
vn 0.707107 -0.707107 -0.000159119
vn 0.707107 -0.707107 -0.000159119
vn 0.707107 -0.707107 -0.000159119
vn -4.37114E-08 0.000224984 -1
vn -4.37114E-08 0.000224984 -1
vn -4.37114E-08 0.000224984 -1
vn -4.37114E-08 0.000224984 -1
vn -4.37114E-08 0.000224984 -1
vn -4.37114E-08 0.000224984 -1
vn -4.37114E-08 0.000224984 -1
vn -4.37114E-08 0.000224984 -1
vn -4.37114E-08 0.000224984 -1
vn 0 1 0.000224984
vn 0 1 0.000224984
vn 0 1 0.000224984
vn 0 1 0.000224984
vn 0 1 0.000224984
vn 0 1 0.000224984
vn 0 1 0.000224984
vn -4.37114E-08 0.000224984 -1
vn -4.37114E-08 0.000224984 -1
vn -4.37114E-08 0.000224984 -1
vn -4.37114E-08 0.000224984 -1
vn 0.707107 0.707107 0.000159057
vn 0.707107 0.707107 0.000159057
vn 0.707107 0.707107 0.000159057
vn 0.707107 0.707107 0.000159057
vn 0 1 0.000224984
vn 0 1 0.000224984
vn 0 1 0.000224984
vn 0 1 0.000224984
vn 4.37114E-08 -0.000224984 1
vn 4.37114E-08 -0.000224984 1
vn 4.37114E-08 -0.000224984 1
vn 4.37114E-08 -0.000224984 1
vn 4.37114E-08 -0.000224984 1
vn 4.37114E-08 -0.000224984 1
vn 4.37114E-08 -0.000224984 1
vn 4.37114E-08 -0.000224984 1
vn 4.37114E-08 -0.000224984 1
vn 4.37114E-08 -0.000224984 1
vn 4.37114E-08 -0.000224984 1
vn 4.37114E-08 -0.000224984 1
vn 4.37114E-08 -0.000224984 1
vn 4.37114E-08 -0.000224984 1
vn 4.37114E-08 -0.000224984 1
vn 4.37114E-08 -0.000224984 1
vn 4.37114E-08 -0.000224984 1
vn 4.37114E-08 -0.000224984 1
vn 4.37114E-08 -0.000224984 1
vn 4.37114E-08 -0.000224984 1
vn 4.37114E-08 -0.000224984 1
vn 4.37114E-08 -0.000224984 1
vn 4.37114E-08 -0.000224984 1
vn 4.37114E-08 -0.000224984 1
vn 4.37114E-08 -0.000224984 1
vn 4.37114E-08 -0.000224984 1
vn 4.37114E-08 -0.000224984 1
vn 4.37114E-08 -0.000224984 1
vn 4.37114E-08 -0.000224984 1
vn 4.37114E-08 -0.000224984 1
vn 4.37114E-08 -0.000224984 1
vn 4.37114E-08 -0.000224984 1
vn 4.37114E-08 -0.000224984 1
vn 4.37114E-08 -0.000224984 1
vn 4.37114E-08 -0.000224984 1
vn 4.37114E-08 -0.000224984 1
vn 4.37114E-08 -0.000224984 1
vn 0 -1 -0.000224984
vn 0 -1 -0.000224984
vn 0 -1 -0.000224984
vn 0 -1 -0.000224984
vn 0 -1 -0.000224984
vn 0 -1 -0.000224984
vn 0 -1 -0.000224984
vn 1 0 -4.37114E-08
vn 1 0 -4.37114E-08
vn 1 0 -4.37114E-08
vn 1 0 -4.37114E-08
vn 1 0 -4.37114E-08
vn 1 0 -4.37114E-08
vn 1 0 -4.37114E-08
vn 1 0 -4.37114E-08
vn 1 0 -4.37114E-08
vn 1 0 -4.37114E-08
vn 1 0 -4.37114E-08
vn 1 0 -4.37114E-08
vn 1 0 -4.37114E-08
vn 1 0 -4.37114E-08
vn 1 0 -4.37114E-08
vn 1 0 -4.37114E-08
vn 1 0 -4.37114E-08
vn 1 0 -4.37114E-08
vn 1 0 -4.37114E-08
vn 1 0 -4.37114E-08
vn 1 0 -4.37114E-08
vn 1 0 -4.37114E-08
vn 1 0 -4.37114E-08
vn 1 0 -4.37114E-08
vn 1 0 -4.37114E-08
vn 1 0 -4.37114E-08
vn 1 0 -4.37114E-08
vn 1 0 -4.37114E-08
vn 1 0 -4.37114E-08


f 1/1/1 3/3/3 2/2/2
f 1/1/1 2/2/2 4/4/4
f 5/5/5 7/7/7 6/6/6
f 5/5/5 6/6/6 8/8/8
f 9/9/9 11/11/11 10/10/10
f 9/9/9 10/10/10 12/12/12
f 13/13/13 15/15/15 14/14/14
f 13/13/13 14/14/14 16/16/16
f 17/17/17 19/19/19 18/18/18
f 17/17/17 18/18/18 20/20/20
f 21/21/21 23/23/23 22/22/22
f 21/21/21 22/22/22 24/24/24
f 25/25/25 27/27/27 26/26/26
f 25/25/25 26/26/26 28/28/28
f 29/29/29 25/25/25 28/28/28
f 30/30/30 32/32/32 31/31/31
f 30/30/30 31/31/31 33/33/33
f 30/30/30 33/33/33 34/34/34
f 30/30/30 34/34/34 35/35/35
f 36/36/36 30/30/30 35/35/35
f 37/37/37 39/39/39 38/38/38
f 37/37/37 38/38/38 40/40/40
f 41/41/41 43/43/43 42/42/42
f 41/41/41 42/42/42 44/44/44
f 45/45/45 47/47/47 46/46/46
f 45/45/45 46/46/46 48/48/48
f 49/49/49 51/51/51 50/50/50
f 52/52/52 51/51/51 49/49/49
f 53/53/53 52/52/52 49/49/49
f 53/53/53 49/49/49 54/54/54
f 53/53/53 54/54/54 55/55/55
f 52/52/52 56/56/56 51/51/51
f 56/56/56 57/57/57 51/51/51
f 58/58/58 53/53/53 55/55/55
f 56/56/56 59/59/59 57/57/57
f 53/53/53 58/58/58 60/60/60
f 53/53/53 60/60/60 61/61/61
f 62/62/62 53/53/53 61/61/61
f 53/53/53 62/62/62 63/63/63
f 53/53/53 63/63/63 64/64/64
f 65/65/65 53/53/53 64/64/64
f 59/59/59 56/56/56 66/66/66
f 67/67/67 59/59/59 66/66/66
f 68/68/68 67/67/67 66/66/66
f 67/67/67 69/69/69 59/59/59
f 69/69/69 70/70/70 59/59/59
f 69/69/69 71/71/71 70/70/70
f 71/71/71 72/72/72 70/70/70
f 71/71/71 73/73/73 72/72/72
f 73/73/73 74/74/74 72/72/72
f 72/72/72 74/74/74 75/75/75
f 73/73/73 76/76/76 74/74/74
f 76/76/76 73/73/73 77/77/77
f 76/76/76 77/77/77 78/78/78
f 77/77/77 79/79/79 78/78/78
f 77/77/77 80/80/80 79/79/79
f 80/80/80 77/77/77 81/81/81
f 77/77/77 82/82/82 81/81/81
f 77/77/77 83/83/83 82/82/82
f 84/84/84 83/83/83 77/77/77
f 84/84/84 77/77/77 85/85/85
f 86/86/86 88/88/88 87/87/87
f 89/89/89 88/88/88 86/86/86
f 89/89/89 90/90/90 88/88/88
f 91/91/91 89/89/89 86/86/86
f 91/91/91 86/86/86 92/92/92
f 93/93/93 95/95/95 94/94/94
f 93/93/93 96/96/96 95/95/95
f 96/96/96 97/97/97 95/95/95
f 96/96/96 98/98/98 97/97/97
f 96/96/96 99/99/99 98/98/98
f 96/96/96 100/100/100 99/99/99
f 101/101/101 100/100/100 96/96/96
f 99/99/99 102/102/102 98/98/98
f 100/100/100 103/103/103 99/99/99
f 102/102/102 104/104/104 98/98/98
f 102/102/102 105/105/105 104/104/104
f 103/103/103 104/104/104 105/105/105
f 100/100/100 106/106/106 103/103/103
f 106/106/106 104/104/104 103/103/103
f 106/106/106 107/107/107 104/104/104
f 107/107/107 106/106/106 108/108/108
f 108/108/108 101/101/101 109/109/109
f 101/101/101 96/96/96 109/109/109
f 108/108/108 109/109/109 110/110/110
f 107/107/107 108/108/108 110/110/110
f 109/109/109 96/96/96 111/111/111
f 107/107/107 110/110/110 112/112/112
f 96/96/96 112/112/112 111/111/111
f 96/96/96 107/107/107 112/112/112
f 113/113/113 107/107/107 96/96/96
f 113/113/113 114/114/114 107/107/107
f 115/115/115 113/113/113 96/96/96
f 114/114/114 116/116/116 107/107/107
f 115/115/115 96/96/96 93/93/93
f 114/114/114 117/117/117 116/116/116
f 118/118/118 117/117/117 115/115/115
f 118/118/118 115/115/115 93/93/93
f 117/117/117 118/118/118 119/119/119
f 117/117/117 119/119/119 116/116/116
f 118/118/118 93/93/93 120/120/120
f 119/119/119 121/121/121 116/116/116
f 121/121/121 120/120/120 93/93/93
f 121/121/121 93/93/93 116/116/116
