v 0.077299 -0.0446825 -0.0216291
v 0.081509 -0.0440425 -0.0216289
v 0.081509 -0.0446825 -0.0216291
v 0.077299 -0.0440425 -0.0216289
v 0.077299 -0.0440425 -0.0216289
v 0.081509 -0.0440423 -0.0222689
v 0.081509 -0.0440425 -0.0216289
v 0.077299 -0.0440423 -0.0222689
v 0.077299 -0.0440423 -0.0222689
v 0.081509 -0.0446823 -0.0222691
v 0.081509 -0.0440423 -0.0222689
v 0.077299 -0.0446823 -0.0222691
v 0.077299 -0.0446823 -0.0222691
v 0.081509 -0.0446825 -0.0216291
v 0.081509 -0.0446823 -0.0222691
v 0.077299 -0.0446825 -0.0216291
v 0.081659 -0.0445324 -0.021779
v 0.081509 -0.0446823 -0.0222691
v 0.081509 -0.0446825 -0.0216291
v 0.081659 -0.0445324 -0.022119
vn 0 -0.000224984 1
vn 0 -0.000224984 1
vn 0 -0.000224984 1
vn 0 -0.000224984 1
vn 0 1 0.000224984
vn 0 1 0.000224984
vn 0 1 0.000224984
vn 0 1 0.000224984
vn 0 0.000224984 -1
vn 0 0.000224984 -1
vn 0 0.000224984 -1
vn 0 0.000224984 -1
vn 0 -1 -0.000224984
vn 0 -1 -0.000224984
vn 0 -1 -0.000224984
vn 0 -1 -0.000224984
vn 0.707107 -0.707107 -0.000159088
vn 0.707107 -0.707107 -0.000159088
vn 0.707107 -0.707107 -0.000159088
vn 0.707107 -0.707107 -0.000159088


f 1/1/1 3/3/3 2/2/2
f 1/1/1 2/2/2 4/4/4
f 5/5/5 7/7/7 6/6/6
f 5/5/5 6/6/6 8/8/8
f 9/9/9 11/11/11 10/10/10
f 9/9/9 10/10/10 12/12/12
f 13/13/13 15/15/15 14/14/14
f 13/13/13 14/14/14 16/16/16
f 17/17/17 19/19/19 18/18/18
f 17/17/17 18/18/18 20/20/20
