v -0.069797 -0.050538 0
v -0.068935 -0.049372 0
v -0.0671951 -0.049115 0
v -0.0706473 -0.0497736 0
v -0.0674161 -0.0501017 0
v -0.0721079 -0.0512581 0
v -0.0654398 -0.0490046 0
v -0.07232 -0.0503171 0
v -0.065 -0.0499555 0
v -0.0636814 -0.0490414 0
v -0.0743151 -0.0522515 0
v -0.0739414 -0.0509986 0
v -0.0755 -0.0518135 0
v -0.0763866 -0.0535037 0
v -0.076985 -0.0527559 0
v -0.0625839 -0.0501017 0
v -0.0619323 -0.0492253 0
v -0.0602046 -0.0495548 0
v -0.060203 -0.050538 0
v -0.0585106 -0.0500278 0
v -0.078292 -0.0549965 0
v -0.0783859 -0.0538192 0
v -0.0796929 -0.0549961 0
v -0.0800035 -0.056708 0
v -0.0808969 -0.0562782 0
v -0.0578921 -0.0512581 0
v -0.0568622 -0.0506409 0
v -0.0552708 -0.0513897 0
v -0.0556849 -0.0522515 0
v -0.0537476 -0.0522691 0
v -0.0814963 -0.0586134 0
v -0.0819894 -0.0576565 0
v -0.0829626 -0.0591214 0
v -0.0827485 -0.0606849 0
v -0.0838099 -0.0606627 0
v -0.0837419 -0.0628921 0
v -0.0845253 -0.0622694 0
v -0.0536134 -0.0535037 0
v -0.0523034 -0.0532729 0
v -0.0509483 -0.054394 0
v -0.051708 -0.0549965 0
v -0.0496917 -0.0556245 0
v -0.084462 -0.065203 0
v -0.0851037 -0.0639303 0
v -0.0855411 -0.0656339 0
v -0.0848983 -0.0675839 0
v -0.0858344 -0.067368 0
v -0.0499965 -0.056708 0
v -0.0485424 -0.0569559 0
v -0.0475087 -0.0583788 0
v -0.0485037 -0.0586134 0
v -0.0465976 -0.0598832 0
v -0.0472515 -0.0606849 0
v -0.0458155 -0.0614585 0
v -0.0850445 -0.07 0
v -0.0859816 -0.0691206 0
v -0.0859816 -0.0708794 0
v -0.0848983 -0.0724161 0
v -0.0858344 -0.072632 0
v -0.0462581 -0.0628921 0
v -0.0451681 -0.0630938 0
v -0.0446598 -0.0647775 0
v -0.045538 -0.065203 0
v -0.0442941 -0.0664979 0
v -0.084462 -0.074797 0
v -0.0855411 -0.0743661 0
v -0.0851037 -0.0760697 0
v -0.0837419 -0.0771079 0
v -0.0845253 -0.0777306 0
v -0.0827485 -0.0793151 0
v -0.0838099 -0.0793373 0
v -0.0451017 -0.0675839 0
v -0.0440736 -0.0682428 0
v -0.044 -0.07 0
v -0.0449555 -0.07 0
v -0.0440736 -0.0717572 0
v -0.0814963 -0.0813866 0
v -0.0829626 -0.0808786 0
v -0.0819894 -0.0823435 0
v -0.0800035 -0.083292 0
v -0.0808969 -0.0837218 0
v -0.0451017 -0.0724161 0
v -0.0442941 -0.0735021 0
v -0.0446598 -0.0752225 0
v -0.045538 -0.074797 0
v -0.0451681 -0.0769062 0
v -0.078292 -0.0850035 0
v -0.0796929 -0.0850039 0
v -0.0783859 -0.0861808 0
v -0.0763866 -0.0864963 0
v -0.076985 -0.0872441 0
v -0.0462581 -0.0771079 0
v -0.0458155 -0.0785415 0
v -0.0465976 -0.0801168 0
v -0.0472515 -0.0793151 0
v -0.0475087 -0.0816212 0
v -0.0485037 -0.0813866 0
v -0.0485424 -0.0830441 0
v -0.0743151 -0.0877485 0
v -0.0755 -0.0881865 0
v -0.0739414 -0.0890014 0
v -0.0721079 -0.0887419 0
v -0.07232 -0.0896829 0
v -0.0499965 -0.083292 0
v -0.0496917 -0.0843755 0
v -0.0509483 -0.085606 0
v -0.051708 -0.0850035 0
v -0.0523034 -0.0867271 0
v -0.069797 -0.089462 0
v -0.0706473 -0.0902264 0
v -0.068935 -0.090628 0
v -0.0674161 -0.0898983 0
v -0.0671951 -0.090885 0
v -0.065 -0.0900445 0
v -0.0654398 -0.0909954 0
v -0.0536134 -0.0864963 0
v -0.0537476 -0.0877309 0
v -0.0552708 -0.0886103 0
v -0.0556849 -0.0877485 0
v -0.0568622 -0.0893591 0
v -0.0625839 -0.0898983 0
v -0.0636814 -0.0909586 0
v -0.0619323 -0.0907747 0
v -0.060203 -0.089462 0
v -0.0602046 -0.0904452 0
v -0.0578921 -0.0887419 0
v -0.0585106 -0.0899722 0
vn 0 0 1
vn 0 0 1
vn 0 0 1
vn 0 0 1
vn 0 0 1
vn 0 0 1
vn 0 0 1
vn 0 0 1
vn 0 0 1
vn 0 0 1
vn 0 0 1
vn 0 0 1
vn 0 0 1
vn 0 0 1
vn 0 0 1
vn 0 0 1
vn 0 0 1
vn 0 0 1
vn 0 0 1
vn 0 0 1
vn 0 0 1
vn 0 0 1
vn 0 0 1
vn 0 0 1
vn 0 0 1
vn 0 0 1
vn 0 0 1
vn 0 0 1
vn 0 0 1
vn 0 0 1
vn 0 0 1
vn 0 0 1
vn 0 0 1
vn 0 0 1
vn 0 0 1
vn 0 0 1
vn 0 0 1
vn 0 0 1
vn 0 0 1
vn 0 0 1
vn 0 0 1
vn 0 0 1
vn 0 0 1
vn 0 0 1
vn 0 0 1
vn 0 0 1
vn 0 0 1
vn 0 0 1
vn 0 0 1
vn 0 0 1
vn 0 0 1
vn 0 0 1
vn 0 0 1
vn 0 0 1
vn 0 0 1
vn 0 0 1
vn 0 0 1
vn 0 0 1
vn 0 0 1
vn 0 0 1
vn 0 0 1
vn 0 0 1
vn 0 0 1
vn 0 0 1
vn 0 0 1
vn 0 0 1
vn 0 0 1
vn 0 0 1
vn 0 0 1
vn 0 0 1
vn 0 0 1
vn 0 0 1
vn 0 0 1
vn 0 0 1
vn 0 0 1
vn 0 0 1
vn 0 0 1
vn 0 0 1
vn 0 0 1
vn 0 0 1
vn 0 0 1
vn 0 0 1
vn 0 0 1
vn 0 0 1
vn 0 0 1
vn 0 0 1
vn 0 0 1
vn 0 0 1
vn 0 0 1
vn 0 0 1
vn 0 0 1
vn 0 0 1
vn 0 0 1
vn 0 0 1
vn 0 0 1
vn 0 0 1
vn 0 0 1
vn 0 0 1
vn 0 0 1
vn 0 0 1
vn 0 0 1
vn 0 0 1
vn 0 0 1
vn 0 0 1
vn 0 0 1
vn 0 0 1
vn 0 0 1
vn 0 0 1
vn 0 0 1
vn 0 0 1
vn 0 0 1
vn 0 0 1
vn 0 0 1
vn 0 0 1
vn 0 0 1
vn 0 0 1
vn 0 0 1
vn 0 0 1
vn 0 0 1
vn 0 0 1
vn 0 0 1
vn 0 0 1
vn 0 0 1
vn 0 0 1
vn 0 0 1
vn 0 0 1
vn 0 0 1


f 1/1/1 3/3/3 2/2/2
f 4/4/4 1/1/1 2/2/2
f 1/1/1 5/5/5 3/3/3
f 6/6/6 1/1/1 4/4/4
f 5/5/5 7/7/7 3/3/3
f 6/6/6 4/4/4 8/8/8
f 5/5/5 9/9/9 7/7/7
f 9/9/9 10/10/10 7/7/7
f 11/11/11 6/6/6 8/8/8
f 11/11/11 8/8/8 12/12/12
f 11/11/11 12/12/12 13/13/13
f 14/14/14 11/11/11 13/13/13
f 14/14/14 13/13/13 15/15/15
f 9/9/9 16/16/16 10/10/10
f 10/10/10 16/16/16 17/17/17
f 16/16/16 18/18/18 17/17/17
f 16/16/16 19/19/19 18/18/18
f 19/19/19 20/20/20 18/18/18
f 21/21/21 14/14/14 15/15/15
f 21/21/21 15/15/15 22/22/22
f 21/21/21 22/22/22 23/23/23
f 24/24/24 21/21/21 23/23/23
f 24/24/24 23/23/23 25/25/25
f 19/19/19 26/26/26 20/20/20
f 20/20/20 26/26/26 27/27/27
f 26/26/26 28/28/28 27/27/27
f 26/26/26 29/29/29 28/28/28
f 29/29/29 30/30/30 28/28/28
f 31/31/31 24/24/24 25/25/25
f 31/31/31 25/25/25 32/32/32
f 31/31/31 32/32/32 33/33/33
f 34/34/34 31/31/31 33/33/33
f 34/34/34 33/33/33 35/35/35
f 36/36/36 34/34/34 35/35/35
f 36/36/36 35/35/35 37/37/37
f 29/29/29 38/38/38 30/30/30
f 38/38/38 39/39/39 30/30/30
f 38/38/38 40/40/40 39/39/39
f 38/38/38 41/41/41 40/40/40
f 41/41/41 42/42/42 40/40/40
f 43/43/43 36/36/36 37/37/37
f 43/43/43 37/37/37 44/44/44
f 45/45/45 43/43/43 44/44/44
f 46/46/46 43/43/43 45/45/45
f 46/46/46 45/45/45 47/47/47
f 41/41/41 48/48/48 42/42/42
f 42/42/42 48/48/48 49/49/49
f 48/48/48 50/50/50 49/49/49
f 48/48/48 51/51/51 50/50/50
f 51/51/51 52/52/52 50/50/50
f 51/51/51 53/53/53 52/52/52
f 53/53/53 54/54/54 52/52/52
f 55/55/55 46/46/46 47/47/47
f 55/55/55 47/47/47 56/56/56
f 55/55/55 56/56/56 57/57/57
f 58/58/58 55/55/55 57/57/57
f 58/58/58 57/57/57 59/59/59
f 53/53/53 60/60/60 54/54/54
f 60/60/60 61/61/61 54/54/54
f 60/60/60 62/62/62 61/61/61
f 60/60/60 63/63/63 62/62/62
f 63/63/63 64/64/64 62/62/62
f 65/65/65 58/58/58 59/59/59
f 65/65/65 59/59/59 66/66/66
f 67/67/67 65/65/65 66/66/66
f 68/68/68 65/65/65 67/67/67
f 68/68/68 67/67/67 69/69/69
f 70/70/70 68/68/68 69/69/69
f 70/70/70 69/69/69 71/71/71
f 63/63/63 72/72/72 64/64/64
f 64/64/64 72/72/72 73/73/73
f 72/72/72 74/74/74 73/73/73
f 72/72/72 75/75/75 74/74/74
f 75/75/75 76/76/76 74/74/74
f 77/77/77 70/70/70 71/71/71
f 77/77/77 71/71/71 78/78/78
f 79/79/79 77/77/77 78/78/78
f 80/80/80 77/77/77 79/79/79
f 80/80/80 79/79/79 81/81/81
f 75/75/75 82/82/82 76/76/76
f 82/82/82 83/83/83 76/76/76
f 82/82/82 84/84/84 83/83/83
f 82/82/82 85/85/85 84/84/84
f 85/85/85 86/86/86 84/84/84
f 87/87/87 80/80/80 81/81/81
f 87/87/87 81/81/81 88/88/88
f 87/87/87 88/88/88 89/89/89
f 90/90/90 87/87/87 89/89/89
f 90/90/90 89/89/89 91/91/91
f 85/85/85 92/92/92 86/86/86
f 86/86/86 92/92/92 93/93/93
f 92/92/92 94/94/94 93/93/93
f 92/92/92 95/95/95 94/94/94
f 95/95/95 96/96/96 94/94/94
f 95/95/95 97/97/97 96/96/96
f 97/97/97 98/98/98 96/96/96
f 99/99/99 90/90/90 91/91/91
f 99/99/99 91/91/91 100/100/100
f 101/101/101 99/99/99 100/100/100
f 102/102/102 99/99/99 101/101/101
f 102/102/102 101/101/101 103/103/103
f 97/97/97 104/104/104 98/98/98
f 104/104/104 105/105/105 98/98/98
f 104/104/104 106/106/106 105/105/105
f 104/104/104 107/107/107 106/106/106
f 107/107/107 108/108/108 106/106/106
f 109/109/109 102/102/102 103/103/103
f 109/109/109 103/103/103 110/110/110
f 111/111/111 109/109/109 110/110/110
f 112/112/112 109/109/109 111/111/111
f 112/112/112 111/111/111 113/113/113
f 114/114/114 112/112/112 113/113/113
f 114/114/114 113/113/113 115/115/115
f 107/107/107 116/116/116 108/108/108
f 116/116/116 117/117/117 108/108/108
f 116/116/116 118/118/118 117/117/117
f 116/116/116 119/119/119 118/118/118
f 119/119/119 120/120/120 118/118/118
f 121/121/121 114/114/114 115/115/115
f 121/121/121 115/115/115 122/122/122
f 123/123/123 121/121/121 122/122/122
f 124/124/124 121/121/121 123/123/123
f 124/124/124 123/123/123 125/125/125
f 119/119/119 126/126/126 120/120/120
f 126/126/126 124/124/124 125/125/125
f 120/120/120 126/126/126 127/127/127
f 126/126/126 125/125/125 127/127/127
