v -0.165434 0.0153653 0.0348
v -0.164406 0.0160542 0.0348
v -0.164174 0.0158513 0.0348
v -0.16466 0.0162283 0.0348
v -0.163968 0.0156224 0.0348
v -0.164933 0.0163711 0.0348
v -0.165221 0.0164806 0.0348
v -0.16552 0.0165553 0.0348
v -0.165826 0.0165942 0.0348
v -0.166134 0.0165966 0.0348
v -0.163791 0.0153707 0.0348
v -0.16644 0.0165625 0.0348
v -0.166899 0.0151729 0.0348
v -0.16674 0.0164925 0.0348
v -0.16703 0.0163875 0.0348
v -0.164535 0.0141923 0.0348
v -0.163644 0.0150998 0.0348
v -0.163531 0.0148135 0.0348
v -0.163452 0.0145157 0.0348
v -0.167305 0.016249 0.0348
v -0.163409 0.0142106 0.0348
v -0.167562 0.0160789 0.0348
v -0.163402 0.0139027 0.0348
v -0.167796 0.0158796 0.0348
v -0.163432 0.0135961 0.0348
v -0.168006 0.0156539 0.0348
v -0.168188 0.0154051 0.0348
v -0.168338 0.0151365 0.0348
v -0.163497 0.0132951 0.0348
v -0.163598 0.0130041 0.0348
v -0.163733 0.012727 0.0348
v -0.165101 0.0128271 0.0348
v -0.163899 0.0124678 0.0348
v -0.164095 0.0122301 0.0348
v -0.167465 0.0138077 0.0348
v -0.168456 0.0148519 0.0348
v -0.16854 0.0145554 0.0348
v -0.168588 0.0142511 0.0348
v -0.168599 0.0139432 0.0348
v -0.164318 0.0120173 0.0348
v -0.168574 0.0136362 0.0348
v -0.164564 0.0118323 0.0348
v -0.168513 0.0133343 0.0348
v -0.164831 0.0116777 0.0348
v -0.168417 0.0130417 0.0348
v -0.165114 0.0115557 0.0348
v -0.165409 0.0114681 0.0348
v -0.165713 0.0114159 0.0348
v -0.166566 0.0126347 0.0348
v -0.16602 0.0114001 0.0348
v -0.166328 0.0114207 0.0348
v -0.168287 0.0127626 0.0348
v -0.168124 0.0125008 0.0348
v -0.167932 0.0122601 0.0348
v -0.16663 0.0114776 0.0348
v -0.167713 0.0120438 0.0348
v -0.166924 0.0115698 0.0348
v -0.167469 0.0118549 0.0348
v -0.167205 0.0116962 0.0348
vn 0 0 1
vn 0 0 1
vn 0 0 1
vn 0 0 1
vn 0 0 1
vn 0 0 1
vn 0 0 1
vn 0 0 1
vn 0 0 1
vn 0 0 1
vn 0 0 1
vn 0 0 1
vn 0 0 1
vn 0 0 1
vn 0 0 1
vn 0 0 1
vn 0 0 1
vn 0 0 1
vn 0 0 1
vn 0 0 1
vn 0 0 1
vn 0 0 1
vn 0 0 1
vn 0 0 1
vn 0 0 1
vn 0 0 1
vn 0 0 1
vn 0 0 1
vn 0 0 1
vn 0 0 1
vn 0 0 1
vn 0 0 1
vn 0 0 1
vn 0 0 1
vn 0 0 1
vn 0 0 1
vn 0 0 1
vn 0 0 1
vn 0 0 1
vn 0 0 1
vn 0 0 1
vn 0 0 1
vn 0 0 1
vn 0 0 1
vn 0 0 1
vn 0 0 1
vn 0 0 1
vn 0 0 1
vn 0 0 1
vn 0 0 1
vn 0 0 1
vn 0 0 1
vn 0 0 1
vn 0 0 1
vn 0 0 1
vn 0 0 1
vn 0 0 1
vn 0 0 1
vn 0 0 1


f 1/1/1 3/3/3 2/2/2
f 1/1/1 2/2/2 4/4/4
f 3/3/3 1/1/1 5/5/5
f 1/1/1 4/4/4 6/6/6
f 7/7/7 1/1/1 6/6/6
f 1/1/1 7/7/7 8/8/8
f 1/1/1 8/8/8 9/9/9
f 1/1/1 9/9/9 10/10/10
f 1/1/1 11/11/11 5/5/5
f 1/1/1 10/10/10 12/12/12
f 13/13/13 1/1/1 12/12/12
f 13/13/13 12/12/12 14/14/14
f 15/15/15 13/13/13 14/14/14
f 1/1/1 16/16/16 11/11/11
f 16/16/16 17/17/17 11/11/11
f 16/16/16 18/18/18 17/17/17
f 19/19/19 18/18/18 16/16/16
f 20/20/20 13/13/13 15/15/15
f 19/19/19 16/16/16 21/21/21
f 13/13/13 20/20/20 22/22/22
f 21/21/21 16/16/16 23/23/23
f 13/13/13 22/22/22 24/24/24
f 16/16/16 25/25/25 23/23/23
f 26/26/26 13/13/13 24/24/24
f 13/13/13 26/26/26 27/27/27
f 13/13/13 27/27/27 28/28/28
f 16/16/16 29/29/29 25/25/25
f 29/29/29 16/16/16 30/30/30
f 16/16/16 31/31/31 30/30/30
f 16/16/16 32/32/32 31/31/31
f 32/32/32 33/33/33 31/31/31
f 32/32/32 34/34/34 33/33/33
f 35/35/35 13/13/13 28/28/28
f 35/35/35 28/28/28 36/36/36
f 37/37/37 35/35/35 36/36/36
f 35/35/35 37/37/37 38/38/38
f 35/35/35 38/38/38 39/39/39
f 34/34/34 32/32/32 40/40/40
f 41/41/41 35/35/35 39/39/39
f 32/32/32 42/42/42 40/40/40
f 35/35/35 41/41/41 43/43/43
f 32/32/32 44/44/44 42/42/42
f 35/35/35 43/43/43 45/45/45
f 32/32/32 46/46/46 44/44/44
f 46/46/46 32/32/32 47/47/47
f 32/32/32 48/48/48 47/47/47
f 32/32/32 49/49/49 48/48/48
f 49/49/49 50/50/50 48/48/48
f 49/49/49 51/51/51 50/50/50
f 52/52/52 35/35/35 45/45/45
f 35/35/35 52/52/52 53/53/53
f 35/35/35 53/53/53 54/54/54
f 49/49/49 35/35/35 54/54/54
f 51/51/51 49/49/49 55/55/55
f 49/49/49 54/54/54 56/56/56
f 55/55/55 49/49/49 57/57/57
f 58/58/58 49/49/49 56/56/56
f 49/49/49 59/59/59 57/57/57
f 49/49/49 58/58/58 59/59/59
