v -0.224235 -0.00719935 -0.0497
v -0.224261 -0.00734861 -0.0497
v -0.22299 -0.0075 -0.048961
v -0.22299 -0.0075 -0.048961
v -0.22419 -0.0070543 -0.0497
v -0.22299 -0.0075 -0.048961
v -0.22427 -0.0075 -0.0497
v -0.22299 -0.0075 -0.048961
v -0.224129 -0.00691551 -0.0497
v -0.22299 -0.0075 -0.048961
v -0.224261 -0.00765139 -0.0497
v -0.224052 -0.00678493 -0.0497
v -0.22299 -0.0075 -0.048961
v -0.224235 -0.00780065 -0.0497
v -0.22299 -0.0075 -0.048961
v -0.22299 -0.0075 -0.048961
v -0.22396 -0.00666439 -0.0497
v -0.22299 -0.0075 -0.048961
v -0.22419 -0.0079457 -0.0497
v -0.22299 -0.0075 -0.048961
v -0.223854 -0.00655557 -0.0497
v -0.22299 -0.0075 -0.048961
v -0.224129 -0.00808449 -0.0497
v -0.223737 -0.00646002 -0.0497
v -0.22299 -0.0075 -0.048961
v -0.224052 -0.00821507 -0.0497
v -0.22299 -0.0075 -0.048961
v -0.22299 -0.0075 -0.048961
v -0.22363 -0.00639149 -0.0497
v -0.22299 -0.0075 -0.048961
v -0.22396 -0.00833561 -0.0497
v -0.22299 -0.0075 -0.048961
v -0.223608 -0.00637906 -0.0497
v -0.22299 -0.0075 -0.048961
v -0.223854 -0.00844443 -0.0497
v -0.22299 -0.0075 -0.048961
v -0.223471 -0.00631384 -0.0497
v -0.223737 -0.00853998 -0.0497
v -0.22299 -0.0075 -0.048961
v -0.223328 -0.00626527 -0.0497
v -0.22299 -0.0075 -0.048961
v -0.22299 -0.0075 -0.048961
v -0.22363 -0.00860851 -0.0497
v -0.22299 -0.0075 -0.048961
v -0.223179 -0.00623403 -0.0497
v -0.22299 -0.0075 -0.048961
v -0.223608 -0.00862094 -0.0497
v -0.22299 -0.0075 -0.048961
v -0.223028 -0.00622056 -0.0497
v -0.223471 -0.00868616 -0.0497
v -0.22299 -0.0075 -0.048961
v -0.222877 -0.00622506 -0.0497
v -0.22299 -0.0075 -0.048961
v -0.22299 -0.0075 -0.048961
v -0.223328 -0.00873473 -0.0497
v -0.22299 -0.0075 -0.048961
v -0.222727 -0.00624745 -0.0497
v -0.22299 -0.0075 -0.048961
v -0.223179 -0.00876597 -0.0497
v -0.22299 -0.0075 -0.048961
v -0.22258 -0.00628742 -0.0497
v -0.223028 -0.00877944 -0.0497
v -0.22299 -0.0075 -0.048961
v -0.22244 -0.00634442 -0.0497
v -0.22299 -0.0075 -0.048961
v -0.22299 -0.0075 -0.048961
v -0.222877 -0.00877494 -0.0497
v -0.22299 -0.0075 -0.048961
v -0.22235 -0.00639149 -0.0497
v -0.22299 -0.0075 -0.048961
v -0.222727 -0.00875255 -0.0497
v -0.22299 -0.0075 -0.048961
v -0.222307 -0.00641764 -0.0497
v -0.22258 -0.00871258 -0.0497
v -0.22299 -0.0075 -0.048961
v -0.22299 -0.0075 -0.048961
v -0.222184 -0.00650605 -0.0497
v -0.22299 -0.0075 -0.048961
v -0.22244 -0.00865558 -0.0497
v -0.222072 -0.00660841 -0.0497
v -0.22299 -0.0075 -0.048961
v -0.22299 -0.0075 -0.048961
v -0.22235 -0.00860851 -0.0497
v -0.22299 -0.0075 -0.048961
v -0.221973 -0.0067233 -0.0497
v -0.22299 -0.0075 -0.048961
v -0.222307 -0.00858236 -0.0497
v -0.22299 -0.0075 -0.048961
v -0.221888 -0.00684908 -0.0497
v -0.222184 -0.00849395 -0.0497
v -0.22299 -0.0075 -0.048961
v -0.221819 -0.006984 -0.0497
v -0.22299 -0.0075 -0.048961
v -0.22299 -0.0075 -0.048961
v -0.222072 -0.00839159 -0.0497
v -0.22299 -0.0075 -0.048961
v -0.221766 -0.00712617 -0.0497
v -0.22299 -0.0075 -0.048961
v -0.221973 -0.0082767 -0.0497
v -0.22299 -0.0075 -0.048961
v -0.221731 -0.00727358 -0.0497
v -0.221888 -0.00815092 -0.0497
v -0.22299 -0.0075 -0.048961
v -0.221713 -0.00742417 -0.0497
v -0.22299 -0.0075 -0.048961
v -0.22299 -0.0075 -0.048961
v -0.221819 -0.008016 -0.0497
v -0.22299 -0.0075 -0.048961
v -0.22171 -0.0075 -0.0497
v -0.22299 -0.0075 -0.048961
v -0.221766 -0.00787383 -0.0497
v -0.22299 -0.0075 -0.048961
v -0.221713 -0.00757583 -0.0497
v -0.221731 -0.00772642 -0.0497
v -0.22299 -0.0075 -0.048961
v -0.22299 -0.0075 -0.048961
vn 0.486011 -0.117443 -0.866025
vn 0.496491 -0.0591366 -0.866025
vn 0.486011 -0.117443 -0.866025
vn 0.46871 -0.174101 -0.866025
vn 0.46871 -0.174101 -0.866025
vn 0.496491 -0.0591366 -0.866025
vn 0.5 0 -0.866025
vn 0.444829 -0.228315 -0.866025
vn 0.444829 -0.228315 -0.866025
vn 0.5 0 -0.866025
vn 0.496491 0.0591366 -0.866025
vn 0.414703 -0.279323 -0.866025
vn 0.414703 -0.279323 -0.866025
vn 0.486011 0.117443 -0.866025
vn 0.496491 0.0591366 -0.866025
vn 0.378756 -0.326411 -0.866025
vn 0.378756 -0.326411 -0.866025
vn 0.486011 0.117443 -0.866025
vn 0.46871 0.174101 -0.866025
vn 0.337492 -0.368917 -0.866025
vn 0.337492 -0.368917 -0.866025
vn 0.46871 0.174101 -0.866025
vn 0.444829 0.228315 -0.866025
vn 0.29149 -0.406243 -0.866025
vn 0.29149 -0.406243 -0.866025
vn 0.414703 0.279323 -0.866025
vn 0.444829 0.228315 -0.866025
vn 0.25 -0.433013 -0.866025
vn 0.25 -0.433013 -0.866025
vn 0.414703 0.279323 -0.866025
vn 0.378756 0.326411 -0.866025
vn 0.241396 -0.437867 -0.866025
vn 0.241396 -0.437867 -0.866025
vn 0.378756 0.326411 -0.866025
vn 0.337492 0.368917 -0.866025
vn 0.187914 -0.463345 -0.866025
vn 0.187914 -0.463345 -0.866025
vn 0.29149 0.406243 -0.866025
vn 0.337492 0.368917 -0.866025
vn 0.131794 -0.482318 -0.866025
vn 0.131794 -0.482318 -0.866025
vn 0.29149 0.406243 -0.866025
vn 0.25 0.433013 -0.866025
vn 0.0738233 -0.49452 -0.866025
vn 0.0738233 -0.49452 -0.866025
vn 0.25 0.433013 -0.866025
vn 0.241396 0.437867 -0.866025
vn 0.0148167 -0.49978 -0.866025
vn 0.0148167 -0.49978 -0.866025
vn 0.187914 0.463345 -0.866025
vn 0.241396 0.437867 -0.866025
vn -0.0443979 -0.498025 -0.866025
vn -0.0443979 -0.498025 -0.866025
vn 0.187914 0.463345 -0.866025
vn 0.131794 0.482318 -0.866025
vn -0.102989 -0.489278 -0.866025
vn -0.102989 -0.489278 -0.866025
vn 0.131794 0.482318 -0.866025
vn 0.0738233 0.49452 -0.866025
vn -0.160135 -0.473663 -0.866025
vn -0.160135 -0.473663 -0.866025
vn 0.0148167 0.49978 -0.866025
vn 0.0738233 0.49452 -0.866025
vn -0.215033 -0.451399 -0.866025
vn -0.215033 -0.451399 -0.866025
vn 0.0148167 0.49978 -0.866025
vn -0.0443979 0.498025 -0.866025
vn -0.25 -0.433013 -0.866025
vn -0.25 -0.433013 -0.866025
vn -0.0443979 0.498025 -0.866025
vn -0.102989 0.489278 -0.866025
vn -0.266912 -0.422798 -0.866025
vn -0.266912 -0.422798 -0.866025
vn -0.160135 0.473663 -0.866025
vn -0.102989 0.489278 -0.866025
vn -0.315044 -0.388262 -0.866025
vn -0.315044 -0.388262 -0.866025
vn -0.160135 0.473663 -0.866025
vn -0.215033 0.451399 -0.866025
vn -0.358754 -0.348276 -0.866025
vn -0.358754 -0.348276 -0.866025
vn -0.215033 0.451399 -0.866025
vn -0.25 0.433013 -0.866025
vn -0.397427 -0.3034 -0.866025
vn -0.397427 -0.3034 -0.866025
vn -0.25 0.433013 -0.866025
vn -0.266912 0.422798 -0.866025
vn -0.430522 -0.254266 -0.866025
vn -0.430522 -0.254266 -0.866025
vn -0.315044 0.388262 -0.866025
vn -0.266912 0.422798 -0.866025
vn -0.457573 -0.201562 -0.866025
vn -0.457573 -0.201562 -0.866025
vn -0.315044 0.388262 -0.866025
vn -0.358754 0.348276 -0.866025
vn -0.4782 -0.146028 -0.866025
vn -0.4782 -0.146028 -0.866025
vn -0.358754 0.348276 -0.866025
vn -0.397427 0.3034 -0.866025
vn -0.492115 -0.0884451 -0.866025
vn -0.492115 -0.0884451 -0.866025
vn -0.430522 0.254266 -0.866025
vn -0.397427 0.3034 -0.866025
vn -0.499122 -0.0296203 -0.866025
vn -0.499122 -0.0296203 -0.866025
vn -0.430522 0.254266 -0.866025
vn -0.457573 0.201562 -0.866025
vn -0.5 0 -0.866025
vn -0.5 0 -0.866025
vn -0.457573 0.201562 -0.866025
vn -0.4782 0.146028 -0.866025
vn -0.499122 0.0296203 -0.866025
vn -0.499122 0.0296203 -0.866025
vn -0.492115 0.0884451 -0.866025
vn -0.4782 0.146028 -0.866025
vn -0.492115 0.0884451 -0.866025


f 1/1/1 3/3/3 2/2/2
f 4/4/4 1/1/1 5/5/5
f 6/6/6 7/7/7 2/2/2
f 8/8/8 5/5/5 9/9/9
f 10/10/10 11/11/11 7/7/7
f 12/12/12 13/13/13 9/9/9
f 11/11/11 15/15/15 14/14/14
f 16/16/16 12/12/12 17/17/17
f 18/18/18 19/19/19 14/14/14
f 20/20/20 17/17/17 21/21/21
f 22/22/22 23/23/23 19/19/19
f 24/24/24 25/25/25 21/21/21
f 23/23/23 27/27/27 26/26/26
f 28/28/28 24/24/24 29/29/29
f 30/30/30 31/31/31 26/26/26
f 32/32/32 29/29/29 33/33/33
f 34/34/34 35/35/35 31/31/31
f 36/36/36 33/33/33 37/37/37
f 35/35/35 39/39/39 38/38/38
f 40/40/40 41/41/41 37/37/37
f 42/42/42 43/43/43 38/38/38
f 44/44/44 40/40/40 45/45/45
f 46/46/46 47/47/47 43/43/43
f 48/48/48 45/45/45 49/49/49
f 47/47/47 51/51/51 50/50/50
f 52/52/52 53/53/53 49/49/49
f 54/54/54 55/55/55 50/50/50
f 56/56/56 52/52/52 57/57/57
f 58/58/58 59/59/59 55/55/55
f 60/60/60 57/57/57 61/61/61
f 59/59/59 63/63/63 62/62/62
f 64/64/64 65/65/65 61/61/61
f 66/66/66 67/67/67 62/62/62
f 68/68/68 64/64/64 69/69/69
f 70/70/70 71/71/71 67/67/67
f 72/72/72 69/69/69 73/73/73
f 71/71/71 75/75/75 74/74/74
f 76/76/76 73/73/73 77/77/77
f 78/78/78 79/79/79 74/74/74
f 80/80/80 81/81/81 77/77/77
f 82/82/82 83/83/83 79/79/79
f 84/84/84 80/80/80 85/85/85
f 86/86/86 87/87/87 83/83/83
f 88/88/88 85/85/85 89/89/89
f 87/87/87 91/91/91 90/90/90
f 92/92/92 93/93/93 89/89/89
f 94/94/94 95/95/95 90/90/90
f 96/96/96 92/92/92 97/97/97
f 98/98/98 99/99/99 95/95/95
f 100/100/100 97/97/97 101/101/101
f 99/99/99 103/103/103 102/102/102
f 104/104/104 105/105/105 101/101/101
f 106/106/106 107/107/107 102/102/102
f 108/108/108 104/104/104 109/109/109
f 110/110/110 111/111/111 107/107/107
f 112/112/112 109/109/109 113/113/113
f 111/111/111 115/115/115 114/114/114
f 116/116/116 113/113/113 114/114/114
