v -0.15245 0.00913177 -0.0602442
v -0.145073 0.00850386 -0.0602442
v -0.145046 0.00913177 -0.0602442
v -0.145073 0.00975968 -0.0602442
v -0.145285 0.00726609 -0.0602442
v -0.145285 0.0109974 -0.0602442
v -0.145703 0.006082 -0.0602442
v -0.145703 0.0121815 -0.0602442
v -0.146316 0.00498565 -0.0602442
v -0.146316 0.0132779 -0.0602442
v -0.147105 0.00400857 -0.0602442
v -0.147105 0.014255 -0.0602442
v -0.148047 0.00317887 -0.0602442
v -0.148047 0.0150847 -0.0602442
v -0.149117 0.00252043 -0.0602442
v -0.149117 0.0157431 -0.0602442
v -0.150282 0.00205219 -0.0602442
v -0.150282 0.0162113 -0.0602442
v -0.15151 0.00178761 -0.0602442
v -0.15151 0.0164759 -0.0602442
v -0.152764 0.00173431 -0.0602442
v -0.152764 0.0165292 -0.0602442
v -0.15401 0.00189383 -0.0602442
v -0.15401 0.0163697 -0.0602442
v -0.155211 0.00226156 -0.0602442
v -0.155211 0.016002 -0.0602442
v -0.156332 0.00282694 -0.0602442
v -0.156332 0.0154366 -0.0602442
v -0.157342 0.0035737 -0.0602442
v -0.157342 0.0146898 -0.0602442
v -0.158211 0.00448035 -0.0602442
v -0.158211 0.0137832 -0.0602442
v -0.158914 0.00552082 -0.0602442
v -0.158914 0.0127427 -0.0602442
v -0.159431 0.00666516 -0.0602442
v -0.159431 0.0115984 -0.0602442
v -0.159748 0.00788047 -0.0602442
v -0.159748 0.0103831 -0.0602442
v -0.159854 0.00913177 -0.0602442
vn 0 0 -1
vn 0 0 -1
vn 0 0 -1
vn 0 0 -1
vn 0 0 -1
vn 0 0 -1
vn 0 0 -1
vn 0 0 -1
vn 0 0 -1
vn 0 0 -1
vn 0 0 -1
vn 0 0 -1
vn 0 0 -1
vn 0 0 -1
vn 0 0 -1
vn 0 0 -1
vn 0 0 -1
vn 0 0 -1
vn 0 0 -1
vn 0 0 -1
vn 0 0 -1
vn 0 0 -1
vn 0 0 -1
vn 0 0 -1
vn 0 0 -1
vn 0 0 -1
vn 0 0 -1
vn 0 0 -1
vn 0 0 -1
vn 0 0 -1
vn 0 0 -1
vn 0 0 -1
vn 0 0 -1
vn 0 0 -1
vn 0 0 -1
vn 0 0 -1
vn 0 0 -1
vn 0 0 -1
vn 0 0 -1


f 1/1/1 3/3/3 2/2/2
f 4/4/4 3/3/3 1/1/1
f 1/1/1 2/2/2 5/5/5
f 4/4/4 1/1/1 6/6/6
f 1/1/1 5/5/5 7/7/7
f 1/1/1 8/8/8 6/6/6
f 9/9/9 1/1/1 7/7/7
f 1/1/1 10/10/10 8/8/8
f 1/1/1 9/9/9 11/11/11
f 10/10/10 1/1/1 12/12/12
f 1/1/1 11/11/11 13/13/13
f 1/1/1 14/14/14 12/12/12
f 15/15/15 1/1/1 13/13/13
f 1/1/1 16/16/16 14/14/14
f 1/1/1 15/15/15 17/17/17
f 16/16/16 1/1/1 18/18/18
f 1/1/1 17/17/17 19/19/19
f 1/1/1 20/20/20 18/18/18
f 21/21/21 1/1/1 19/19/19
f 1/1/1 22/22/22 20/20/20
f 1/1/1 21/21/21 23/23/23
f 22/22/22 1/1/1 24/24/24
f 1/1/1 23/23/23 25/25/25
f 1/1/1 26/26/26 24/24/24
f 27/27/27 1/1/1 25/25/25
f 1/1/1 28/28/28 26/26/26
f 1/1/1 27/27/27 29/29/29
f 28/28/28 1/1/1 30/30/30
f 1/1/1 29/29/29 31/31/31
f 1/1/1 32/32/32 30/30/30
f 33/33/33 1/1/1 31/31/31
f 1/1/1 34/34/34 32/32/32
f 1/1/1 33/33/33 35/35/35
f 34/34/34 1/1/1 36/36/36
f 1/1/1 35/35/35 37/37/37
f 1/1/1 38/38/38 36/36/36
f 39/39/39 1/1/1 37/37/37
f 1/1/1 39/39/39 38/38/38
