v 0.00357371 0.0396 -0.0782032
v 0.00357371 -0.0393095 -0.0782032
v 0.00298688 0.0396 -0.0773394
v 0.00391699 -0.0393095 -0.0791893
v 0.00298688 -0.0393095 -0.0773394
v 0.00391699 0.0396 -0.0791893
v 0.0021965 0.0396 -0.076657
v 0.00399334 -0.0393095 -0.0802308
v 0.0021965 -0.0393095 -0.076657
v 0.00399334 0.0396 -0.0802308
v 0.00125644 0.0396 -0.0762025
v 0.00399334 0.0396 -0.0802308
v 0.00379755 -0.0393095 -0.0812564
v 0.00399334 -0.0393095 -0.0802308
v 0.00125644 -0.0393095 -0.0762025
v 0.00379755 0.0396 -0.0812564
v 0.00023075 0.0396 -0.0760067
v 0.00334296 -0.0393095 -0.0821965
v 0.00023075 -0.0393095 -0.0760067
v 0.00334296 0.0396 -0.0821965
v 0.00023075 0.0396 -0.0760067
v 0.00023075 -0.0393095 -0.0760067
v -0.000810665 0.0396 -0.076083
v 0.00266055 -0.0393095 -0.0829869
v -0.000810665 -0.0393095 -0.076083
v 0.00266055 0.0396 -0.0829869
v -0.00179683 0.0396 -0.0764263
v 0.00179683 -0.0393095 -0.0835737
v -0.00179683 -0.0393095 -0.0764263
v 0.00179683 0.0396 -0.0835737
v -0.00266055 0.0396 -0.0770131
v 0.000810665 -0.0393095 -0.083917
v -0.00266055 -0.0393095 -0.0770131
v 0.000810665 0.0396 -0.083917
v -0.00334296 0.0396 -0.0778035
v -0.00023075 -0.0393095 -0.0839933
v -0.00334296 -0.0393095 -0.0778035
v -0.00023075 0.0396 -0.0839933
v -0.00379755 0.0396 -0.0787436
v -0.00023075 0.0396 -0.0839933
v -0.00125644 -0.0393095 -0.0837975
v -0.00023075 -0.0393095 -0.0839933
v -0.00379755 -0.0393095 -0.0787436
v -0.00125644 0.0396 -0.0837975
v -0.00399334 0.0396 -0.0797693
v -0.0021965 -0.0393095 -0.083343
v -0.00399334 -0.0393095 -0.0797693
v -0.0021965 0.0396 -0.083343
v -0.00399334 0.0396 -0.0797693
v -0.00399334 -0.0393095 -0.0797693
v -0.00391699 0.0396 -0.0808107
v -0.00298688 -0.0393095 -0.0826606
v -0.00391699 -0.0393095 -0.0808107
v -0.00298688 0.0396 -0.0826606
v -0.00357371 0.0396 -0.0817968
v -0.00357371 -0.0393095 -0.0817968
vn 0.893427 0 0.449209
vn 0.893427 0 0.449209
vn 0.74672 0 0.665138
vn 0.979248 0 0.202666
vn 0.74672 0 0.665138
vn 0.979248 0 0.202666
vn 0.549126 0 0.835739
vn 0.998335 0 -0.0576874
vn 0.549126 0 0.835739
vn 0.998335 0 -0.0576874
vn 0.31411 0 0.949387
vn 0.998335 0 -0.0576874
vn 0.949387 0 -0.31411
vn 0.998335 0 -0.0576874
vn 0.31411 0 0.949387
vn 0.949387 0 -0.31411
vn 0.0576874 0 0.998335
vn 0.835739 0 -0.549126
vn 0.0576874 0 0.998335
vn 0.835739 0 -0.549126
vn 0.0576874 0 0.998335
vn 0.0576874 0 0.998335
vn -0.202666 0 0.979248
vn 0.665138 0 -0.74672
vn -0.202666 0 0.979248
vn 0.665138 0 -0.74672
vn -0.449209 0 0.893427
vn 0.449209 0 -0.893427
vn -0.449209 0 0.893427
vn 0.449209 0 -0.893427
vn -0.665138 0 0.74672
vn 0.202666 0 -0.979248
vn -0.665138 0 0.74672
vn 0.202666 0 -0.979248
vn -0.835739 0 0.549126
vn -0.0576874 0 -0.998335
vn -0.835739 0 0.549126
vn -0.0576874 0 -0.998335
vn -0.949387 0 0.31411
vn -0.0576874 0 -0.998335
vn -0.31411 0 -0.949387
vn -0.0576874 0 -0.998335
vn -0.949387 0 0.31411
vn -0.31411 0 -0.949387
vn -0.998335 0 0.0576874
vn -0.549126 0 -0.835739
vn -0.998335 0 0.0576874
vn -0.549126 0 -0.835739
vn -0.998335 0 0.0576874
vn -0.998335 0 0.0576874
vn -0.979248 0 -0.202666
vn -0.74672 0 -0.665138
vn -0.979248 0 -0.202666
vn -0.74672 0 -0.665138
vn -0.893427 0 -0.449209
vn -0.893427 0 -0.449209


f 1/1/1 3/3/3 2/2/2
f 1/1/1 2/2/2 4/4/4
f 3/3/3 5/5/5 2/2/2
f 6/6/6 1/1/1 4/4/4
f 3/3/3 7/7/7 5/5/5
f 6/6/6 4/4/4 8/8/8
f 7/7/7 9/9/9 5/5/5
f 10/10/10 6/6/6 8/8/8
f 7/7/7 11/11/11 9/9/9
f 12/12/12 14/14/14 13/13/13
f 11/11/11 15/15/15 9/9/9
f 16/16/16 12/12/12 13/13/13
f 11/11/11 17/17/17 15/15/15
f 16/16/16 13/13/13 18/18/18
f 17/17/17 19/19/19 15/15/15
f 20/20/20 16/16/16 18/18/18
f 21/21/21 23/23/23 22/22/22
f 20/20/20 18/18/18 24/24/24
f 23/23/23 25/25/25 22/22/22
f 26/26/26 20/20/20 24/24/24
f 23/23/23 27/27/27 25/25/25
f 26/26/26 24/24/24 28/28/28
f 27/27/27 29/29/29 25/25/25
f 30/30/30 26/26/26 28/28/28
f 27/27/27 31/31/31 29/29/29
f 30/30/30 28/28/28 32/32/32
f 31/31/31 33/33/33 29/29/29
f 34/34/34 30/30/30 32/32/32
f 31/31/31 35/35/35 33/33/33
f 34/34/34 32/32/32 36/36/36
f 35/35/35 37/37/37 33/33/33
f 38/38/38 34/34/34 36/36/36
f 35/35/35 39/39/39 37/37/37
f 40/40/40 42/42/42 41/41/41
f 39/39/39 43/43/43 37/37/37
f 44/44/44 40/40/40 41/41/41
f 39/39/39 45/45/45 43/43/43
f 44/44/44 41/41/41 46/46/46
f 45/45/45 47/47/47 43/43/43
f 48/48/48 44/44/44 46/46/46
f 49/49/49 51/51/51 50/50/50
f 48/48/48 46/46/46 52/52/52
f 51/51/51 53/53/53 50/50/50
f 54/54/54 48/48/48 52/52/52
f 51/51/51 55/55/55 53/53/53
f 54/54/54 52/52/52 56/56/56
f 55/55/55 56/56/56 53/53/53
f 55/55/55 54/54/54 56/56/56
