v 0.0899 -0.0192244 -0.0289745
v 0.0802805 -0.0192244 -0.0289745
v 0.0899 -0.0195 -0.029
v 0.0802805 -0.0189581 -0.0288987
v 0.0802805 -0.0195 -0.029
v 0.0899 -0.0189581 -0.0288987
v 0.0899 -0.0197756 -0.0289745
v 0.0802805 -0.0187104 -0.0287753
v 0.0802805 -0.0197756 -0.0289745
v 0.0899 -0.0187104 -0.0287753
v 0.0899 -0.0197756 -0.0289745
v 0.0802805 -0.0197756 -0.0289745
v 0.0899 -0.0200419 -0.0288987
v 0.0802805 -0.0184895 -0.0286085
v 0.0802805 -0.0200419 -0.0288987
v 0.0899 -0.0184895 -0.0286085
v 0.0899 -0.0202896 -0.0287753
v 0.0802805 -0.018303 -0.028404
v 0.0802805 -0.0202896 -0.0287753
v 0.0899 -0.018303 -0.028404
v 0.0899 -0.0205105 -0.0286085
v 0.0802805 -0.0181573 -0.0281686
v 0.0802805 -0.0205105 -0.0286085
v 0.0899 -0.0181573 -0.0281686
v 0.0899 -0.020697 -0.028404
v 0.0899 -0.0181573 -0.0281686
v 0.0802805 -0.0180573 -0.0279105
v 0.0802805 -0.0181573 -0.0281686
v 0.0802805 -0.020697 -0.028404
v 0.0899 -0.0180573 -0.0279105
v 0.0899 -0.0208427 -0.0281686
v 0.0802805 -0.0180064 -0.0276384
v 0.0802805 -0.0208427 -0.0281686
v 0.0899 -0.0180064 -0.0276384
v 0.0899 -0.0209427 -0.0279105
v 0.0802805 -0.0180064 -0.0273616
v 0.0802805 -0.0209427 -0.0279105
v 0.0899 -0.0180064 -0.0273616
v 0.0899 -0.0209936 -0.0276384
v 0.0802805 -0.0180573 -0.0270895
v 0.0802805 -0.0209936 -0.0276384
v 0.0899 -0.0180573 -0.0270895
v 0.0899 -0.0209936 -0.0273616
v 0.0802805 -0.0181573 -0.0268314
v 0.0802805 -0.0209936 -0.0273616
v 0.0899 -0.0181573 -0.0268314
v 0.0899 -0.0209936 -0.0273616
v 0.0802805 -0.0209936 -0.0273616
v 0.0899 -0.0209427 -0.0270895
v 0.0802805 -0.018303 -0.026596
v 0.0802805 -0.0209427 -0.0270895
v 0.0899 -0.018303 -0.026596
v 0.0899 -0.0208427 -0.0268314
v 0.0899 -0.018303 -0.026596
v 0.0802805 -0.0184895 -0.0263915
v 0.0802805 -0.018303 -0.026596
v 0.0802805 -0.0208427 -0.0268314
v 0.0899 -0.0184895 -0.0263915
v 0.0899 -0.020697 -0.026596
v 0.0802805 -0.0187104 -0.0262247
v 0.0802805 -0.020697 -0.026596
v 0.0899 -0.0187104 -0.0262247
v 0.0899 -0.0205105 -0.0263915
v 0.0802805 -0.0189581 -0.0261013
v 0.0802805 -0.0205105 -0.0263915
v 0.0899 -0.0189581 -0.0261013
v 0.0899 -0.0202896 -0.0262247
v 0.0802805 -0.0192244 -0.0260255
v 0.0802805 -0.0202896 -0.0262247
v 0.0899 -0.0192244 -0.0260255
v 0.0899 -0.0200419 -0.0261013
v 0.0802805 -0.0195 -0.026
v 0.0802805 -0.0200419 -0.0261013
v 0.0899 -0.0195 -0.026
v 0.0899 -0.0197756 -0.0260255
v 0.0802805 -0.0197756 -0.0260255
v 0.0899 -0.0197756 -0.0260255
v 0.0802805 -0.0200419 -0.0261013
vn 0 0.18375 -0.982973
vn 0 0.18375 -0.982973
vn 0 0 -1
vn 0 0.361242 -0.932472
vn 0 0 -1
vn 0 0.361242 -0.932472
vn 0 -0.18375 -0.982973
vn 0 0.526432 -0.850217
vn 0 -0.18375 -0.982973
vn 0 0.526432 -0.850217
vn 0 -0.18375 -0.982973
vn 0 -0.18375 -0.982973
vn 0 -0.361242 -0.932472
vn 0 0.673696 -0.739009
vn 0 -0.361242 -0.932472
vn 0 0.673696 -0.739009
vn 0 -0.526432 -0.850217
vn 0 0.798017 -0.602635
vn 0 -0.526432 -0.850217
vn 0 0.798017 -0.602635
vn 0 -0.673696 -0.739009
vn 0 0.895163 -0.445738
vn 0 -0.673696 -0.739009
vn 0 0.895163 -0.445738
vn 0 -0.798017 -0.602635
vn 0 0.895163 -0.445738
vn 0 0.961826 -0.273663
vn 0 0.895163 -0.445738
vn 0 -0.798017 -0.602635
vn 0 0.961826 -0.273663
vn 0 -0.895163 -0.445738
vn 0 0.995734 -0.0922684
vn 0 -0.895163 -0.445738
vn 0 0.995734 -0.0922684
vn 0 -0.961826 -0.273663
vn 0 0.995734 0.0922684
vn 0 -0.961826 -0.273663
vn 0 0.995734 0.0922684
vn 0 -0.995734 -0.0922684
vn 0 0.961826 0.273663
vn 0 -0.995734 -0.0922684
vn 0 0.961826 0.273663
vn 0 -0.995734 0.0922684
vn 0 0.895163 0.445738
vn 0 -0.995734 0.0922684
vn 0 0.895163 0.445738
vn 0 -0.995734 0.0922684
vn 0 -0.995734 0.0922684
vn 0 -0.961826 0.273663
vn 0 0.798017 0.602635
vn 0 -0.961826 0.273663
vn 0 0.798017 0.602635
vn 0 -0.895163 0.445738
vn 0 0.798017 0.602635
vn 0 0.673696 0.739009
vn 0 0.798017 0.602635
vn 0 -0.895163 0.445738
vn 0 0.673696 0.739009
vn 0 -0.798017 0.602635
vn 0 0.526432 0.850217
vn 0 -0.798017 0.602635
vn 0 0.526432 0.850217
vn 0 -0.673696 0.739009
vn 0 0.361242 0.932472
vn 0 -0.673696 0.739009
vn 0 0.361242 0.932472
vn 0 -0.526432 0.850217
vn 0 0.18375 0.982973
vn 0 -0.526432 0.850217
vn 0 0.18375 0.982973
vn 0 -0.361242 0.932472
vn 0 0 1
vn 0 -0.361242 0.932472
vn 0 0 1
vn 0 -0.18375 0.982973
vn 0 -0.18375 0.982973
vn 0 -0.18375 0.982973
vn 0 -0.361242 0.932472


f 1/1/1 3/3/3 2/2/2
f 1/1/1 2/2/2 4/4/4
f 3/3/3 5/5/5 2/2/2
f 6/6/6 1/1/1 4/4/4
f 3/3/3 7/7/7 5/5/5
f 6/6/6 4/4/4 8/8/8
f 7/7/7 9/9/9 5/5/5
f 10/10/10 6/6/6 8/8/8
f 11/11/11 13/13/13 12/12/12
f 10/10/10 8/8/8 14/14/14
f 13/13/13 15/15/15 12/12/12
f 16/16/16 10/10/10 14/14/14
f 13/13/13 17/17/17 15/15/15
f 16/16/16 14/14/14 18/18/18
f 17/17/17 19/19/19 15/15/15
f 20/20/20 16/16/16 18/18/18
f 17/17/17 21/21/21 19/19/19
f 20/20/20 18/18/18 22/22/22
f 21/21/21 23/23/23 19/19/19
f 24/24/24 20/20/20 22/22/22
f 21/21/21 25/25/25 23/23/23
f 26/26/26 28/28/28 27/27/27
f 25/25/25 29/29/29 23/23/23
f 30/30/30 26/26/26 27/27/27
f 25/25/25 31/31/31 29/29/29
f 30/30/30 27/27/27 32/32/32
f 31/31/31 33/33/33 29/29/29
f 34/34/34 30/30/30 32/32/32
f 31/31/31 35/35/35 33/33/33
f 34/34/34 32/32/32 36/36/36
f 35/35/35 37/37/37 33/33/33
f 38/38/38 34/34/34 36/36/36
f 35/35/35 39/39/39 37/37/37
f 38/38/38 36/36/36 40/40/40
f 39/39/39 41/41/41 37/37/37
f 42/42/42 38/38/38 40/40/40
f 39/39/39 43/43/43 41/41/41
f 42/42/42 40/40/40 44/44/44
f 43/43/43 45/45/45 41/41/41
f 46/46/46 42/42/42 44/44/44
f 47/47/47 49/49/49 48/48/48
f 46/46/46 44/44/44 50/50/50
f 49/49/49 51/51/51 48/48/48
f 52/52/52 46/46/46 50/50/50
f 49/49/49 53/53/53 51/51/51
f 54/54/54 56/56/56 55/55/55
f 53/53/53 57/57/57 51/51/51
f 58/58/58 54/54/54 55/55/55
f 53/53/53 59/59/59 57/57/57
f 58/58/58 55/55/55 60/60/60
f 59/59/59 61/61/61 57/57/57
f 62/62/62 58/58/58 60/60/60
f 59/59/59 63/63/63 61/61/61
f 62/62/62 60/60/60 64/64/64
f 63/63/63 65/65/65 61/61/61
f 66/66/66 62/62/62 64/64/64
f 63/63/63 67/67/67 65/65/65
f 66/66/66 64/64/64 68/68/68
f 67/67/67 69/69/69 65/65/65
f 70/70/70 66/66/66 68/68/68
f 67/67/67 71/71/71 69/69/69
f 70/70/70 68/68/68 72/72/72
f 71/71/71 73/73/73 69/69/69
f 74/74/74 70/70/70 72/72/72
f 71/71/71 75/75/75 73/73/73
f 74/74/74 72/72/72 76/76/76
f 77/77/77 76/76/76 78/78/78
f 77/77/77 74/74/74 76/76/76
