v 0.0762441 -0.0182 -0.0129239
v 0.0761123 -0.0182 -0.0128489
v 0.0768097 -0.017461 -0.0117756
v 0.0768097 -0.017461 -0.0117756
v 0.0763839 -0.0182 -0.0129827
v 0.0768097 -0.017461 -0.0117756
v 0.0759902 -0.0182 -0.0127589
v 0.0768097 -0.017461 -0.0117756
v 0.0765297 -0.0182 -0.0130246
v 0.0768097 -0.017461 -0.0117756
v 0.0758797 -0.0182 -0.0126551
v 0.0766793 -0.0182 -0.0130489
v 0.0768097 -0.017461 -0.0117756
v 0.0757822 -0.0182 -0.0125389
v 0.0768097 -0.017461 -0.0117756
v 0.0768097 -0.017461 -0.0117756
v 0.0768309 -0.0182 -0.0130554
v 0.0768097 -0.017461 -0.0117756
v 0.0756991 -0.0182 -0.012412
v 0.0768097 -0.017461 -0.0117756
v 0.0769821 -0.0182 -0.0130439
v 0.0768097 -0.017461 -0.0117756
v 0.0756316 -0.0182 -0.0122762
v 0.0771309 -0.0182 -0.0130146
v 0.0768097 -0.017461 -0.0117756
v 0.0755807 -0.0182 -0.0121334
v 0.0768097 -0.017461 -0.0117756
v 0.0768097 -0.017461 -0.0117756
v 0.0772515 -0.0182 -0.0129769
v 0.0768097 -0.017461 -0.0117756
v 0.075547 -0.0182 -0.0119855
v 0.0768097 -0.017461 -0.0117756
v 0.0772752 -0.0182 -0.012968
v 0.0768097 -0.017461 -0.0117756
v 0.0755311 -0.0182 -0.0118347
v 0.0768097 -0.017461 -0.0117756
v 0.0774129 -0.0182 -0.0129045
v 0.075533 -0.0182 -0.011683
v 0.0768097 -0.017461 -0.0117756
v 0.0775422 -0.0182 -0.0128253
v 0.0768097 -0.017461 -0.0117756
v 0.0768097 -0.017461 -0.0117756
v 0.0755484 -0.0182 -0.0115576
v 0.0768097 -0.017461 -0.0117756
v 0.0776612 -0.0182 -0.0127313
v 0.0768097 -0.017461 -0.0117756
v 0.0755529 -0.0182 -0.0115327
v 0.0768097 -0.017461 -0.0117756
v 0.0777683 -0.0182 -0.0126238
v 0.0755905 -0.0182 -0.0113858
v 0.0768097 -0.017461 -0.0117756
v 0.0778619 -0.0182 -0.0125045
v 0.0768097 -0.017461 -0.0117756
v 0.0768097 -0.017461 -0.0117756
v 0.0756452 -0.0182 -0.0112443
v 0.0768097 -0.017461 -0.0117756
v 0.0779407 -0.0182 -0.0123749
v 0.0768097 -0.017461 -0.0117756
v 0.0757162 -0.0182 -0.0111103
v 0.0768097 -0.017461 -0.0117756
v 0.0780036 -0.0182 -0.012237
v 0.0758025 -0.0182 -0.0109856
v 0.0768097 -0.017461 -0.0117756
v 0.0780498 -0.0182 -0.0120925
v 0.0768097 -0.017461 -0.0117756
v 0.0768097 -0.017461 -0.0117756
v 0.075903 -0.0182 -0.0108721
v 0.0768097 -0.017461 -0.0117756
v 0.078071 -0.0182 -0.0119936
v 0.0768097 -0.017461 -0.0117756
v 0.0760163 -0.0182 -0.0107712
v 0.0768097 -0.017461 -0.0117756
v 0.0780786 -0.0182 -0.0119436
v 0.0761406 -0.0182 -0.0106844
v 0.0768097 -0.017461 -0.0117756
v 0.0768097 -0.017461 -0.0117756
v 0.0780896 -0.0182 -0.0117924
v 0.0768097 -0.017461 -0.0117756
v 0.0762744 -0.0182 -0.0106129
v 0.0780826 -0.0182 -0.0116409
v 0.0768097 -0.017461 -0.0117756
v 0.0768097 -0.017461 -0.0117756
v 0.0763679 -0.0182 -0.0105743
v 0.0768097 -0.017461 -0.0117756
v 0.0780577 -0.0182 -0.0114913
v 0.0768097 -0.017461 -0.0117756
v 0.0764157 -0.0182 -0.0105578
v 0.0768097 -0.017461 -0.0117756
v 0.0780153 -0.0182 -0.0113457
v 0.0765625 -0.0182 -0.0105197
v 0.0768097 -0.017461 -0.0117756
v 0.077956 -0.0182 -0.0112061
v 0.0768097 -0.017461 -0.0117756
v 0.0768097 -0.017461 -0.0117756
v 0.0767127 -0.0182 -0.0104993
v 0.0768097 -0.017461 -0.0117756
v 0.0778806 -0.0182 -0.0110745
v 0.0768097 -0.017461 -0.0117756
v 0.0768644 -0.0182 -0.0104968
v 0.0768097 -0.017461 -0.0117756
v 0.0777902 -0.0182 -0.0109528
v 0.0770152 -0.0182 -0.0105122
v 0.0768097 -0.017461 -0.0117756
v 0.077686 -0.0182 -0.0108426
v 0.0768097 -0.017461 -0.0117756
v 0.0768097 -0.017461 -0.0117756
v 0.0771632 -0.0182 -0.0105454
v 0.0768097 -0.017461 -0.0117756
v 0.0776291 -0.0182 -0.0107923
v 0.0768097 -0.017461 -0.0117756
v 0.0773062 -0.0182 -0.0105958
v 0.0768097 -0.017461 -0.0117756
v 0.0775695 -0.0182 -0.0107455
v 0.0774423 -0.0182 -0.0106628
v 0.0768097 -0.017461 -0.0117756
v 0.0768097 -0.017461 -0.0117756
vn 0.220926 -0.866025 0.448544
vn 0.272426 -0.866025 0.419266
vn 0.220926 -0.866025 0.448544
vn 0.166325 -0.866025 0.471525
vn 0.166325 -0.866025 0.471525
vn 0.272426 -0.866025 0.419266
vn 0.320102 -0.866025 0.384102
vn 0.109389 -0.866025 0.487887
vn 0.109389 -0.866025 0.487887
vn 0.320102 -0.866025 0.384102
vn 0.363284 -0.866025 0.343547
vn 0.050917 -0.866025 0.497401
vn 0.050917 -0.866025 0.497401
vn 0.401367 -0.866025 0.298169
vn 0.363284 -0.866025 0.343547
vn -0.00826956 -0.866025 0.499932
vn -0.00826956 -0.866025 0.499932
vn 0.401367 -0.866025 0.298169
vn 0.433815 -0.866025 0.248605
vn -0.06734 -0.866025 0.495445
vn -0.06734 -0.866025 0.495445
vn 0.433815 -0.866025 0.248605
vn 0.460173 -0.866025 0.195551
vn -0.125465 -0.866025 0.484003
vn -0.125465 -0.866025 0.484003
vn 0.480072 -0.866025 0.139753
vn 0.460173 -0.866025 0.195551
vn -0.172591 -0.866025 0.469268
vn -0.172591 -0.866025 0.469268
vn 0.480072 -0.866025 0.139753
vn 0.493231 -0.866025 0.0819921
vn -0.181829 -0.866025 0.465766
vn -0.181829 -0.866025 0.465766
vn 0.493231 -0.866025 0.0819921
vn 0.499467 -0.866025 0.0230806
vn -0.23564 -0.866025 0.440992
vn -0.23564 -0.866025 0.440992
vn 0.498691 -0.866025 -0.036155
vn 0.499467 -0.866025 0.0230806
vn -0.286144 -0.866025 0.410026
vn -0.286144 -0.866025 0.410026
vn 0.498691 -0.866025 -0.036155
vn 0.492693 -0.866025 -0.0851654
vn -0.332631 -0.866025 0.373305
vn -0.332631 -0.866025 0.373305
vn 0.492693 -0.866025 -0.0851654
vn 0.490915 -0.866025 -0.094883
vn -0.374448 -0.866025 0.331344
vn -0.374448 -0.866025 0.331344
vn 0.476247 -0.866025 -0.152279
vn 0.490915 -0.866025 -0.094883
vn -0.411009 -0.866025 0.284731
vn -0.411009 -0.866025 0.284731
vn 0.476247 -0.866025 -0.152279
vn 0.454894 -0.866025 -0.207537
vn -0.4418 -0.866025 0.234121
vn -0.4418 -0.866025 0.234121
vn 0.454894 -0.866025 -0.207537
vn 0.427155 -0.866025 -0.259882
vn -0.466389 -0.866025 0.180225
vn -0.466389 -0.866025 0.180225
vn 0.393419 -0.866025 -0.308579
vn 0.427155 -0.866025 -0.259882
vn -0.484432 -0.866025 0.123798
vn -0.484432 -0.866025 0.123798
vn 0.393419 -0.866025 -0.308579
vn 0.354161 -0.866025 -0.352944
vn -0.492693 -0.866025 0.0851654
vn -0.492693 -0.866025 0.0851654
vn 0.354161 -0.866025 -0.352944
vn 0.309932 -0.866025 -0.392355
vn -0.495673 -0.866025 0.0656343
vn -0.495673 -0.866025 0.0656343
vn 0.261351 -0.866025 -0.426258
vn 0.309932 -0.866025 -0.392355
vn -0.499957 -0.866025 0.00654871
vn -0.499957 -0.866025 0.00654871
vn 0.261351 -0.866025 -0.426258
vn 0.209102 -0.866025 -0.454177
vn -0.497223 -0.866025 -0.0526288
vn -0.497223 -0.866025 -0.0526288
vn 0.209102 -0.866025 -0.454177
vn 0.172591 -0.866025 -0.469268
vn -0.487508 -0.866025 -0.111067
vn -0.487508 -0.866025 -0.111067
vn 0.172591 -0.866025 -0.469268
vn 0.153917 -0.866025 -0.47572
vn -0.47095 -0.866025 -0.167947
vn -0.47095 -0.866025 -0.167947
vn 0.0965722 -0.866025 -0.490585
vn 0.153917 -0.866025 -0.47572
vn -0.447781 -0.866025 -0.222469
vn -0.447781 -0.866025 -0.222469
vn 0.0965722 -0.866025 -0.490585
vn 0.0378713 -0.866025 -0.498564
vn -0.418326 -0.866025 -0.273868
vn -0.418326 -0.866025 -0.273868
vn 0.0378713 -0.866025 -0.498564
vn -0.0213612 -0.866025 -0.499543
vn -0.382998 -0.866025 -0.321422
vn -0.382998 -0.866025 -0.321422
vn -0.0802939 -0.866025 -0.493511
vn -0.0213612 -0.866025 -0.499543
vn -0.342294 -0.866025 -0.364465
vn -0.342294 -0.866025 -0.364465
vn -0.0802939 -0.866025 -0.493511
vn -0.138099 -0.866025 -0.48055
vn -0.320102 -0.866025 -0.384102
vn -0.320102 -0.866025 -0.384102
vn -0.138099 -0.866025 -0.48055
vn -0.193966 -0.866025 -0.460844
vn -0.296785 -0.866025 -0.402391
vn -0.296785 -0.866025 -0.402391
vn -0.24711 -0.866025 -0.434668
vn -0.193966 -0.866025 -0.460844
vn -0.24711 -0.866025 -0.434668


f 1/1/1 3/3/3 2/2/2
f 4/4/4 1/1/1 5/5/5
f 6/6/6 7/7/7 2/2/2
f 8/8/8 5/5/5 9/9/9
f 10/10/10 11/11/11 7/7/7
f 12/12/12 13/13/13 9/9/9
f 11/11/11 15/15/15 14/14/14
f 16/16/16 12/12/12 17/17/17
f 18/18/18 19/19/19 14/14/14
f 20/20/20 17/17/17 21/21/21
f 22/22/22 23/23/23 19/19/19
f 24/24/24 25/25/25 21/21/21
f 23/23/23 27/27/27 26/26/26
f 28/28/28 24/24/24 29/29/29
f 30/30/30 31/31/31 26/26/26
f 32/32/32 29/29/29 33/33/33
f 34/34/34 35/35/35 31/31/31
f 36/36/36 33/33/33 37/37/37
f 35/35/35 39/39/39 38/38/38
f 40/40/40 41/41/41 37/37/37
f 42/42/42 43/43/43 38/38/38
f 44/44/44 40/40/40 45/45/45
f 46/46/46 47/47/47 43/43/43
f 48/48/48 45/45/45 49/49/49
f 47/47/47 51/51/51 50/50/50
f 52/52/52 53/53/53 49/49/49
f 54/54/54 55/55/55 50/50/50
f 56/56/56 52/52/52 57/57/57
f 58/58/58 59/59/59 55/55/55
f 60/60/60 57/57/57 61/61/61
f 59/59/59 63/63/63 62/62/62
f 64/64/64 65/65/65 61/61/61
f 66/66/66 67/67/67 62/62/62
f 68/68/68 64/64/64 69/69/69
f 70/70/70 71/71/71 67/67/67
f 72/72/72 69/69/69 73/73/73
f 71/71/71 75/75/75 74/74/74
f 76/76/76 73/73/73 77/77/77
f 78/78/78 79/79/79 74/74/74
f 80/80/80 81/81/81 77/77/77
f 82/82/82 83/83/83 79/79/79
f 84/84/84 80/80/80 85/85/85
f 86/86/86 87/87/87 83/83/83
f 88/88/88 85/85/85 89/89/89
f 87/87/87 91/91/91 90/90/90
f 92/92/92 93/93/93 89/89/89
f 94/94/94 95/95/95 90/90/90
f 96/96/96 92/92/92 97/97/97
f 98/98/98 99/99/99 95/95/95
f 100/100/100 97/97/97 101/101/101
f 99/99/99 103/103/103 102/102/102
f 104/104/104 105/105/105 101/101/101
f 106/106/106 107/107/107 102/102/102
f 108/108/108 104/104/104 109/109/109
f 110/110/110 111/111/111 107/107/107
f 112/112/112 109/109/109 113/113/113
f 111/111/111 115/115/115 114/114/114
f 116/116/116 113/113/113 114/114/114
