v 0.0129904 0.039 -0.0725
v 0.0118459 0.039 -0.0720789
v 0.0119037 0.039 -0.0719465
v 0.0119768 0.039 -0.0718218
v 0.0118041 0.039 -0.0722172
v 0.0120642 0.039 -0.0717067
v 0.011779 0.039 -0.0723595
v 0.0121645 0.039 -0.0716027
v 0.0117709 0.039 -0.0725037
v 0.0122764 0.039 -0.0715114
v 0.0117799 0.039 -0.0726479
v 0.0123984 0.039 -0.0714338
v 0.0118059 0.039 -0.0727901
v 0.0125286 0.039 -0.0713713
v 0.0118485 0.039 -0.0729281
v 0.0126653 0.039 -0.0713246
v 0.0119071 0.039 -0.0730602
v 0.0128066 0.039 -0.0712944
v 0.011981 0.039 -0.0731844
v 0.0129505 0.039 -0.0712811
v 0.012069 0.039 -0.0732989
v 0.013095 0.039 -0.071285
v 0.01217 0.039 -0.0734023
v 0.0132379 0.039 -0.0713059
v 0.0122825 0.039 -0.073493
v 0.0133774 0.039 -0.0713435
v 0.0124049 0.039 -0.0735698
v 0.0135115 0.039 -0.0713974
v 0.0125355 0.039 -0.0736315
v 0.0136382 0.039 -0.0714668
v 0.0126725 0.039 -0.0736773
v 0.0137559 0.039 -0.0715507
v 0.012814 0.039 -0.0737067
v 0.0138628 0.039 -0.0716479
v 0.012958 0.039 -0.0737191
v 0.0139574 0.039 -0.071757
v 0.0131024 0.039 -0.0737143
v 0.0140385 0.039 -0.0718766
v 0.0132452 0.039 -0.0736926
v 0.0141049 0.039 -0.072005
v 0.0133845 0.039 -0.0736541
v 0.0141556 0.039 -0.0721403
v 0.0135182 0.039 -0.0735994
v 0.01419 0.039 -0.0722806
v 0.0136445 0.039 -0.0735292
v 0.0142075 0.039 -0.072424
v 0.0137617 0.039 -0.0734446
v 0.014208 0.039 -0.0725685
v 0.013868 0.039 -0.0733468
v 0.0141913 0.039 -0.072712
v 0.013962 0.039 -0.073237
v 0.0141578 0.039 -0.0728526
v 0.0140423 0.039 -0.0731169
v 0.0141079 0.039 -0.0729882
vn 0 -1 0
vn 0 -1 0
vn 0 -1 0
vn 0 -1 0
vn 0 -1 0
vn 0 -1 0
vn 0 -1 0
vn 0 -1 0
vn 0 -1 0
vn 0 -1 0
vn 0 -1 0
vn 0 -1 0
vn 0 -1 0
vn 0 -1 0
vn 0 -1 0
vn 0 -1 0
vn 0 -1 0
vn 0 -1 0
vn 0 -1 0
vn 0 -1 0
vn 0 -1 0
vn 0 -1 0
vn 0 -1 0
vn 0 -1 0
vn 0 -1 0
vn 0 -1 0
vn 0 -1 0
vn 0 -1 0
vn 0 -1 0
vn 0 -1 0
vn 0 -1 0
vn 0 -1 0
vn 0 -1 0
vn 0 -1 0
vn 0 -1 0
vn 0 -1 0
vn 0 -1 0
vn 0 -1 0
vn 0 -1 0
vn 0 -1 0
vn 0 -1 0
vn 0 -1 0
vn 0 -1 0
vn 0 -1 0
vn 0 -1 0
vn 0 -1 0
vn 0 -1 0
vn 0 -1 0
vn 0 -1 0
vn 0 -1 0
vn 0 -1 0
vn 0 -1 0
vn 0 -1 0
vn 0 -1 0


f 1/1/1 3/3/3 2/2/2
f 4/4/4 3/3/3 1/1/1
f 1/1/1 2/2/2 5/5/5
f 4/4/4 1/1/1 6/6/6
f 1/1/1 5/5/5 7/7/7
f 1/1/1 8/8/8 6/6/6
f 9/9/9 1/1/1 7/7/7
f 1/1/1 10/10/10 8/8/8
f 1/1/1 9/9/9 11/11/11
f 10/10/10 1/1/1 12/12/12
f 1/1/1 11/11/11 13/13/13
f 1/1/1 14/14/14 12/12/12
f 15/15/15 1/1/1 13/13/13
f 1/1/1 16/16/16 14/14/14
f 1/1/1 15/15/15 17/17/17
f 16/16/16 1/1/1 18/18/18
f 1/1/1 17/17/17 19/19/19
f 1/1/1 20/20/20 18/18/18
f 21/21/21 1/1/1 19/19/19
f 1/1/1 22/22/22 20/20/20
f 1/1/1 21/21/21 23/23/23
f 22/22/22 1/1/1 24/24/24
f 1/1/1 23/23/23 25/25/25
f 1/1/1 26/26/26 24/24/24
f 27/27/27 1/1/1 25/25/25
f 1/1/1 28/28/28 26/26/26
f 1/1/1 27/27/27 29/29/29
f 28/28/28 1/1/1 30/30/30
f 1/1/1 29/29/29 31/31/31
f 1/1/1 32/32/32 30/30/30
f 33/33/33 1/1/1 31/31/31
f 1/1/1 34/34/34 32/32/32
f 1/1/1 33/33/33 35/35/35
f 34/34/34 1/1/1 36/36/36
f 1/1/1 35/35/35 37/37/37
f 1/1/1 38/38/38 36/36/36
f 39/39/39 1/1/1 37/37/37
f 1/1/1 40/40/40 38/38/38
f 1/1/1 39/39/39 41/41/41
f 40/40/40 1/1/1 42/42/42
f 1/1/1 41/41/41 43/43/43
f 1/1/1 44/44/44 42/42/42
f 45/45/45 1/1/1 43/43/43
f 1/1/1 46/46/46 44/44/44
f 1/1/1 45/45/45 47/47/47
f 46/46/46 1/1/1 48/48/48
f 1/1/1 47/47/47 49/49/49
f 1/1/1 50/50/50 48/48/48
f 51/51/51 1/1/1 49/49/49
f 1/1/1 52/52/52 50/50/50
f 1/1/1 51/51/51 53/53/53
f 52/52/52 1/1/1 54/54/54
f 1/1/1 53/53/53 54/54/54
