v 0.0488009 0.0774 -0.0403799
v 0.0489492 0.0774 -0.0404113
v 0.0491397 0.076661 -0.0391456
v 0.0491397 0.076661 -0.0391456
v 0.0486572 0.0774 -0.0403312
v 0.0491397 0.076661 -0.0391456
v 0.0491003 0.0774 -0.040425
v 0.0491397 0.076661 -0.0391456
v 0.0485204 0.0774 -0.0402658
v 0.0491397 0.076661 -0.0391456
v 0.0492519 0.0774 -0.0404207
v 0.0483923 0.0774 -0.0401847
v 0.0491397 0.076661 -0.0391456
v 0.0494019 0.0774 -0.0403985
v 0.0491397 0.076661 -0.0391456
v 0.0491397 0.076661 -0.0391456
v 0.0482746 0.0774 -0.040089
v 0.0491397 0.076661 -0.0391456
v 0.0495482 0.0774 -0.0403587
v 0.0491397 0.076661 -0.0391456
v 0.0481691 0.0774 -0.0399801
v 0.0491397 0.076661 -0.0391456
v 0.0496888 0.0774 -0.0403018
v 0.0480772 0.0774 -0.0398594
v 0.0491397 0.076661 -0.0391456
v 0.0498217 0.0774 -0.0402288
v 0.0491397 0.076661 -0.0391456
v 0.0491397 0.076661 -0.0391456
v 0.048012 0.0774 -0.0397512
v 0.0491397 0.076661 -0.0391456
v 0.049945 0.0774 -0.0401405
v 0.0491397 0.076661 -0.0391456
v 0.0480003 0.0774 -0.0397288
v 0.0491397 0.076661 -0.0391456
v 0.0500571 0.0774 -0.0400383
v 0.0491397 0.076661 -0.0391456
v 0.0479393 0.0774 -0.0395899
v 0.0501562 0.0774 -0.0399235
v 0.0491397 0.076661 -0.0391456
v 0.0478952 0.0774 -0.0394448
v 0.0491397 0.076661 -0.0391456
v 0.0491397 0.076661 -0.0391456
v 0.050228 0.0774 -0.0398194
v 0.0491397 0.076661 -0.0391456
v 0.0478685 0.0774 -0.0392955
v 0.0491397 0.076661 -0.0391456
v 0.0502411 0.0774 -0.0397978
v 0.0491397 0.076661 -0.0391456
v 0.0478597 0.0774 -0.0391441
v 0.0503105 0.0774 -0.039663
v 0.0491397 0.076661 -0.0391456
v 0.0478689 0.0774 -0.0389927
v 0.0491397 0.076661 -0.0391456
v 0.0491397 0.076661 -0.0391456
v 0.0503634 0.0774 -0.0395209
v 0.0491397 0.076661 -0.0391456
v 0.0478959 0.0774 -0.0388435
v 0.0491397 0.076661 -0.0391456
v 0.0503992 0.0774 -0.0393735
v 0.0491397 0.076661 -0.0391456
v 0.0479403 0.0774 -0.0386985
v 0.0504174 0.0774 -0.0392229
v 0.0491397 0.076661 -0.0391456
v 0.0480016 0.0774 -0.0385598
v 0.0491397 0.076661 -0.0391456
v 0.0491397 0.076661 -0.0391456
v 0.0504175 0.0774 -0.0390713
v 0.0491397 0.076661 -0.0391456
v 0.0480514 0.0774 -0.0384718
v 0.0491397 0.076661 -0.0391456
v 0.0503998 0.0774 -0.0389206
v 0.0491397 0.076661 -0.0391456
v 0.0480789 0.0774 -0.0384293
v 0.0503643 0.0774 -0.0387732
v 0.0491397 0.076661 -0.0391456
v 0.0491397 0.076661 -0.0391456
v 0.0481711 0.0774 -0.0383089
v 0.0491397 0.076661 -0.0391456
v 0.0503117 0.0774 -0.038631
v 0.0482768 0.0774 -0.0382002
v 0.0491397 0.076661 -0.0391456
v 0.0491397 0.076661 -0.0391456
v 0.0502674 0.0774 -0.03854
v 0.0491397 0.076661 -0.0391456
v 0.0483947 0.0774 -0.0381047
v 0.0491397 0.076661 -0.0391456
v 0.0502426 0.0774 -0.038496
v 0.0491397 0.076661 -0.0391456
v 0.048523 0.0774 -0.0380239
v 0.050158 0.0774 -0.0383701
v 0.0491397 0.076661 -0.0391456
v 0.04866 0.0774 -0.0379589
v 0.0491397 0.076661 -0.0391456
v 0.0491397 0.076661 -0.0391456
v 0.0500591 0.0774 -0.0382551
v 0.0491397 0.076661 -0.0391456
v 0.0488037 0.0774 -0.0379105
v 0.0491397 0.076661 -0.0391456
v 0.0499474 0.0774 -0.0381526
v 0.0491397 0.076661 -0.0391456
v 0.0489522 0.0774 -0.0378794
v 0.0498242 0.0774 -0.038064
v 0.0491397 0.076661 -0.0391456
v 0.0491033 0.0774 -0.0378661
v 0.0491397 0.076661 -0.0391456
v 0.0491397 0.076661 -0.0391456
v 0.0496915 0.0774 -0.0379907
v 0.0491397 0.076661 -0.0391456
v 0.0491791 0.0774 -0.0378662
v 0.0491397 0.076661 -0.0391456
v 0.0495511 0.0774 -0.0379335
v 0.0491397 0.076661 -0.0391456
v 0.0492548 0.0774 -0.0378708
v 0.0494048 0.0774 -0.0378934
v 0.0491397 0.076661 -0.0391456
v 0.0491397 0.076661 -0.0391456
vn 0.132356 0.866025 0.482164
vn 0.0743999 0.866025 0.494434
vn 0.132356 0.866025 0.482164
vn 0.188454 0.866025 0.463125
vn 0.188454 0.866025 0.463125
vn 0.0743999 0.866025 0.494434
vn 0.0153994 0.866025 0.499763
vn 0.241907 0.866025 0.437586
vn 0.241907 0.866025 0.437586
vn 0.0153994 0.866025 0.499763
vn -0.0438172 0.866025 0.498076
vn 0.291963 0.866025 0.405903
vn 0.291963 0.866025 0.405903
vn -0.102419 0.866025 0.489398
vn -0.0438172 0.866025 0.498076
vn 0.337921 0.866025 0.368523
vn 0.337921 0.866025 0.368523
vn -0.102419 0.866025 0.489398
vn -0.159582 0.866025 0.47385
vn 0.379136 0.866025 0.325969
vn 0.379136 0.866025 0.325969
vn -0.159582 0.866025 0.47385
vn -0.214506 0.866025 0.451649
vn 0.415028 0.866025 0.27884
vn 0.415028 0.866025 0.27884
vn -0.266418 0.866025 0.423109
vn -0.214506 0.866025 0.451649
vn 0.440507 0.866025 0.236545
vn 0.440507 0.866025 0.236545
vn -0.266418 0.866025 0.423109
vn -0.314591 0.866025 0.388629
vn 0.445094 0.866025 0.227796
vn 0.445094 0.866025 0.227796
vn -0.314591 0.866025 0.388629
vn -0.358347 0.866025 0.348694
vn 0.468913 0.866025 0.173554
vn 0.468913 0.866025 0.173554
vn -0.397073 0.866025 0.303863
vn -0.358347 0.866025 0.348694
vn 0.486148 0.866025 0.116876
vn 0.486148 0.866025 0.116876
vn -0.397073 0.866025 0.303863
vn -0.425108 0.866025 0.263218
vn 0.496559 0.866025 0.0585576
vn 0.496559 0.866025 0.0585576
vn -0.425108 0.866025 0.263218
vn -0.430225 0.866025 0.254767
vn 0.5 0.866025 -0.000583047
vn 0.5 0.866025 -0.000583047
vn -0.457337 0.866025 0.202095
vn -0.430225 0.866025 0.254767
vn 0.496421 0.866025 -0.0597155
vn 0.496421 0.866025 -0.0597155
vn -0.457337 0.866025 0.202095
vn -0.47803 0.866025 0.146586
vn 0.485874 0.866025 -0.11801
vn 0.485874 0.866025 -0.11801
vn -0.47803 0.866025 0.146586
vn -0.492012 0.866025 0.0890189
vn 0.468506 0.866025 -0.174647
vn 0.468506 0.866025 -0.174647
vn -0.499087 0.866025 0.0302023
vn -0.492012 0.866025 0.0890189
vn 0.444562 0.866025 -0.228833
vn 0.444562 0.866025 -0.228833
vn -0.499087 0.866025 0.0302023
vn -0.499156 0.866025 -0.0290383
vn 0.425108 0.866025 -0.263218
vn 0.425108 0.866025 -0.263218
vn -0.499156 0.866025 -0.0290383
vn -0.492218 0.866025 -0.0878712
vn 0.414377 0.866025 -0.279807
vn 0.414377 0.866025 -0.279807
vn -0.47837 0.866025 -0.145471
vn -0.492218 0.866025 -0.0878712
vn 0.378375 0.866025 -0.326853
vn 0.378375 0.866025 -0.326853
vn -0.47837 0.866025 -0.145471
vn -0.457808 0.866025 -0.201028
vn 0.337061 0.866025 -0.36931
vn 0.337061 0.866025 -0.36931
vn -0.457808 0.866025 -0.201028
vn -0.440507 0.866025 -0.236545
vn 0.291016 0.866025 -0.406583
vn 0.291016 0.866025 -0.406583
vn -0.440507 0.866025 -0.236545
vn -0.430818 0.866025 -0.253763
vn 0.240885 0.866025 -0.438149
vn 0.240885 0.866025 -0.438149
vn -0.397781 0.866025 -0.302936
vn -0.430818 0.866025 -0.253763
vn 0.187373 0.866025 -0.463564
vn 0.187373 0.866025 -0.463564
vn -0.397781 0.866025 -0.302936
vn -0.359159 0.866025 -0.347857
vn 0.131231 0.866025 -0.482471
vn 0.131231 0.866025 -0.482471
vn -0.359159 0.866025 -0.347857
vn -0.315496 0.866025 -0.387894
vn 0.0732466 0.866025 -0.494606
vn 0.0732466 0.866025 -0.494606
vn -0.267405 0.866025 -0.422486
vn -0.315496 0.866025 -0.387894
vn 0.0142339 0.866025 -0.499797
vn 0.0142339 0.866025 -0.499797
vn -0.267405 0.866025 -0.422486
vn -0.215559 0.866025 -0.451148
vn -0.0153994 0.866025 -0.499763
vn -0.0153994 0.866025 -0.499763
vn -0.215559 0.866025 -0.451148
vn -0.160687 0.866025 -0.473476
vn -0.0449787 0.866025 -0.497973
vn -0.0449787 0.866025 -0.497973
vn -0.10356 0.866025 -0.489158
vn -0.160687 0.866025 -0.473476
vn -0.10356 0.866025 -0.489158


f 1/1/1 3/3/3 2/2/2
f 4/4/4 1/1/1 5/5/5
f 6/6/6 7/7/7 2/2/2
f 8/8/8 5/5/5 9/9/9
f 10/10/10 11/11/11 7/7/7
f 12/12/12 13/13/13 9/9/9
f 11/11/11 15/15/15 14/14/14
f 16/16/16 12/12/12 17/17/17
f 18/18/18 19/19/19 14/14/14
f 20/20/20 17/17/17 21/21/21
f 22/22/22 23/23/23 19/19/19
f 24/24/24 25/25/25 21/21/21
f 23/23/23 27/27/27 26/26/26
f 28/28/28 24/24/24 29/29/29
f 30/30/30 31/31/31 26/26/26
f 32/32/32 29/29/29 33/33/33
f 34/34/34 35/35/35 31/31/31
f 36/36/36 33/33/33 37/37/37
f 35/35/35 39/39/39 38/38/38
f 40/40/40 41/41/41 37/37/37
f 42/42/42 43/43/43 38/38/38
f 44/44/44 40/40/40 45/45/45
f 46/46/46 47/47/47 43/43/43
f 48/48/48 45/45/45 49/49/49
f 47/47/47 51/51/51 50/50/50
f 52/52/52 53/53/53 49/49/49
f 54/54/54 55/55/55 50/50/50
f 56/56/56 52/52/52 57/57/57
f 58/58/58 59/59/59 55/55/55
f 60/60/60 57/57/57 61/61/61
f 59/59/59 63/63/63 62/62/62
f 64/64/64 65/65/65 61/61/61
f 66/66/66 67/67/67 62/62/62
f 68/68/68 64/64/64 69/69/69
f 70/70/70 71/71/71 67/67/67
f 72/72/72 69/69/69 73/73/73
f 71/71/71 75/75/75 74/74/74
f 76/76/76 73/73/73 77/77/77
f 78/78/78 79/79/79 74/74/74
f 80/80/80 81/81/81 77/77/77
f 82/82/82 83/83/83 79/79/79
f 84/84/84 80/80/80 85/85/85
f 86/86/86 87/87/87 83/83/83
f 88/88/88 85/85/85 89/89/89
f 87/87/87 91/91/91 90/90/90
f 92/92/92 93/93/93 89/89/89
f 94/94/94 95/95/95 90/90/90
f 96/96/96 92/92/92 97/97/97
f 98/98/98 99/99/99 95/95/95
f 100/100/100 97/97/97 101/101/101
f 99/99/99 103/103/103 102/102/102
f 104/104/104 105/105/105 101/101/101
f 106/106/106 107/107/107 102/102/102
f 108/108/108 104/104/104 109/109/109
f 110/110/110 111/111/111 107/107/107
f 112/112/112 109/109/109 113/113/113
f 111/111/111 115/115/115 114/114/114
f 116/116/116 113/113/113 114/114/114
