v 0.00231822 -0.049 -0.101181
v -0.000596917 -0.046 -0.101299
v 0.00231822 -0.046 -0.101181
v -0.000596917 -0.049 -0.101299
v -0.000580285 -0.049 -0.103511
v -0.000507744 -0.049 -0.103511
v -0.000507744 -0.046 -0.103511
v -0.000580285 -0.046 -0.103511
v -0.00069099 -0.049 -0.1035
v -0.00069099 -0.046 -0.1035
v -0.00079829 -0.049 -0.103471
v -0.00079829 -0.046 -0.103471
v -0.000893563 -0.049 -0.103426
v -0.000893563 -0.046 -0.103426
v -0.000984013 -0.049 -0.103364
v -0.000984013 -0.046 -0.103364
v -0.00107689 -0.049 -0.103278
v -0.00107689 -0.046 -0.103278
v -0.00115105 -0.049 -0.103186
v -0.00115105 -0.046 -0.103186
v -0.00116329 -0.049 -0.103167
v -0.00116329 -0.046 -0.103167
v -0.00123317 -0.049 -0.103041
v -0.00123317 -0.046 -0.103041
v -0.00128178 -0.049 -0.102913
v -0.00128178 -0.046 -0.102913
v -0.00128178 -0.046 -0.102913
v -0.00132191 -0.049 -0.102758
v -0.00128178 -0.049 -0.102913
v -0.00132191 -0.046 -0.102758
v -0.00134968 -0.049 -0.102584
v -0.00134968 -0.046 -0.102584
v -0.00136144 -0.049 -0.102436
v -0.00136144 -0.046 -0.102436
v -0.000507744 -0.049 -0.103511
v 0.0024074 -0.046 -0.103393
v -0.000507744 -0.046 -0.103511
v 0.0024074 -0.049 -0.103393
v 0.0031715 -0.049 -0.102399
v 0.00317192 -0.049 -0.102255
v 0.00317192 -0.046 -0.102255
v 0.0031715 -0.046 -0.102399
v 0.0031589 -0.049 -0.102573
v 0.0031589 -0.046 -0.102573
v 0.00313505 -0.049 -0.10272
v 0.00313505 -0.046 -0.10272
v 0.00309809 -0.049 -0.102854
v 0.00309809 -0.046 -0.102854
v 0.00304881 -0.049 -0.102972
v 0.00304881 -0.046 -0.102972
v 0.00298432 -0.049 -0.103081
v 0.00298432 -0.046 -0.103081
v 0.00290278 -0.049 -0.103179
v 0.00290278 -0.046 -0.103179
v 0.00281001 -0.049 -0.103264
v 0.00281001 -0.046 -0.103264
v 0.00272346 -0.049 -0.10332
v 0.00272346 -0.046 -0.10332
v 0.00272346 -0.046 -0.10332
v 0.00263502 -0.049 -0.103356
v 0.00272346 -0.049 -0.10332
v 0.00263502 -0.046 -0.103356
v 0.0025259 -0.049 -0.103382
v 0.0025259 -0.046 -0.103382
v 0.0024074 -0.049 -0.103393
v 0.0024074 -0.046 -0.103393
v 0.00246083 -0.049 -0.101186
v 0.00231822 -0.049 -0.101181
v 0.00231822 -0.046 -0.101181
v 0.00246083 -0.046 -0.101186
v 0.00256295 -0.049 -0.101204
v 0.00256295 -0.046 -0.101204
v 0.00256295 -0.046 -0.101204
v 0.0026608 -0.049 -0.101238
v 0.00256295 -0.049 -0.101204
v 0.0026608 -0.046 -0.101238
v 0.00274493 -0.049 -0.101287
v 0.00274493 -0.046 -0.101287
v 0.00284071 -0.049 -0.101365
v 0.00284071 -0.046 -0.101365
v 0.00292126 -0.049 -0.101451
v 0.00292126 -0.046 -0.101451
v 0.00298584 -0.049 -0.101541
v 0.00298584 -0.046 -0.101541
v 0.00304456 -0.049 -0.101652
v 0.00304456 -0.046 -0.101652
v 0.00309435 -0.049 -0.101785
v 0.00309435 -0.046 -0.101785
v 0.00313315 -0.049 -0.101938
v 0.00313315 -0.046 -0.101938
v 0.00315882 -0.049 -0.102108
v 0.00315882 -0.046 -0.102108
v 0.00317192 -0.049 -0.102255
v 0.00317192 -0.046 -0.102255
v -0.00069099 -0.049 -0.1035
v -0.00079829 -0.049 -0.103471
v -0.000893563 -0.049 -0.103426
v -0.000580285 -0.049 -0.103511
v -0.000984013 -0.049 -0.103364
v -0.00107689 -0.049 -0.103278
v -0.00115105 -0.049 -0.103186
v -0.000507744 -0.049 -0.103511
v -0.00116329 -0.049 -0.103167
v -0.00123317 -0.049 -0.103041
v -0.00128178 -0.049 -0.102913
v -0.00132191 -0.049 -0.102758
v -0.00134968 -0.049 -0.102584
v -0.00136144 -0.049 -0.102436
v -0.00136157 -0.049 -0.102324
v -0.0013519 -0.049 -0.102149
v -0.00132576 -0.049 -0.101977
v -0.00128753 -0.049 -0.101839
v -0.00123764 -0.049 -0.101721
v -0.00117384 -0.049 -0.101613
v -0.00109494 -0.049 -0.101517
v -0.00101282 -0.049 -0.101441
v -0.000922673 -0.049 -0.10138
v -0.000818221 -0.049 -0.101335
v -0.000715314 -0.049 -0.101311
v -0.000596917 -0.049 -0.101299
v 0.00231822 -0.049 -0.101181
v 0.0024074 -0.049 -0.103393
v 0.00246083 -0.049 -0.101186
v 0.00256295 -0.049 -0.101204
v 0.0026608 -0.049 -0.101238
v 0.00274493 -0.049 -0.101287
v 0.00284071 -0.049 -0.101365
v 0.00292126 -0.049 -0.101451
v 0.00298584 -0.049 -0.101541
v 0.00304456 -0.049 -0.101652
v 0.00309435 -0.049 -0.101785
v 0.00313315 -0.049 -0.101938
v 0.00315882 -0.049 -0.102108
v 0.00317192 -0.049 -0.102255
v 0.0031715 -0.049 -0.102399
v 0.0031589 -0.049 -0.102573
v 0.00313505 -0.049 -0.10272
v 0.00309809 -0.049 -0.102854
v 0.0025259 -0.049 -0.103382
v 0.00304881 -0.049 -0.102972
v 0.00298432 -0.049 -0.103081
v 0.00290278 -0.049 -0.103179
v 0.00263502 -0.049 -0.103356
v 0.00281001 -0.049 -0.103264
v 0.00272346 -0.049 -0.10332
v -0.00136157 -0.049 -0.102324
v -0.00136144 -0.049 -0.102436
v -0.00136144 -0.046 -0.102436
v -0.00136157 -0.046 -0.102324
v -0.0013519 -0.049 -0.102149
v -0.0013519 -0.046 -0.102149
v -0.00132576 -0.049 -0.101977
v -0.00132576 -0.046 -0.101977
v -0.00128753 -0.049 -0.101839
v -0.00128753 -0.046 -0.101839
v -0.00123764 -0.049 -0.101721
v -0.00123764 -0.046 -0.101721
v -0.00117384 -0.049 -0.101613
v -0.00117384 -0.046 -0.101613
v -0.00117384 -0.046 -0.101613
v -0.00109494 -0.049 -0.101517
v -0.00117384 -0.049 -0.101613
v -0.00109494 -0.046 -0.101517
v -0.00101282 -0.049 -0.101441
v -0.00101282 -0.046 -0.101441
v -0.000922673 -0.049 -0.10138
v -0.000922673 -0.046 -0.10138
v -0.000818221 -0.049 -0.101335
v -0.000818221 -0.046 -0.101335
v -0.000715314 -0.049 -0.101311
v -0.000715314 -0.046 -0.101311
v -0.000596917 -0.049 -0.101299
v -0.000596917 -0.046 -0.101299
vn -0.0404527 0 0.999181
vn -0.0404527 0 0.999181
vn -0.0404527 0 0.999181
vn -0.0404527 0 0.999181
vn -0.0259311 0 -0.999664
vn 0.00603363 0 -0.999982
vn 0.00603363 0 -0.999982
vn -0.0259311 0 -0.999664
vn -0.175648 0 -0.984453
vn -0.175648 0 -0.984453
vn -0.347745 0 -0.937589
vn -0.347745 0 -0.937589
vn -0.500931 0 -0.865487
vn -0.500931 0 -0.865487
vn -0.623841 0 -0.781551
vn -0.623841 0 -0.781551
vn -0.732004 0 -0.6813
vn -0.732004 0 -0.6813
vn -0.823259 0 -0.567666
vn -0.823259 0 -0.567666
vn -0.836899 0 -0.547358
vn -0.836899 0 -0.547358
vn -0.90885 0 -0.417123
vn -0.90885 0 -0.417123
vn -0.953884 0 -0.300174
vn -0.953884 0 -0.300174
vn -0.953884 0 -0.300174
vn -0.978482 0 -0.206334
vn -0.953884 0 -0.300174
vn -0.978482 0 -0.206334
vn -0.994343 0 -0.10622
vn -0.994343 0 -0.10622
vn -0.997859 0 -0.0653983
vn -0.997859 0 -0.0653983
vn 0.0404527 0 -0.999181
vn 0.0404527 0 -0.999181
vn 0.0404527 0 -0.999181
vn 0.0404527 0 -0.999181
vn 0.999686 0 -0.0250386
vn 0.999967 0 0.00817014
vn 0.999967 0 0.00817014
vn 0.999686 0 -0.0250386
vn 0.992872 0 -0.119183
vn 0.992872 0 -0.119183
vn 0.97803 0 -0.208464
vn 0.97803 0 -0.208464
vn 0.945355 0 -0.326043
vn 0.945355 0 -0.326043
vn 0.895312 0 -0.445439
vn 0.895312 0 -0.445439
vn 0.818345 0 -0.574728
vn 0.818345 0 -0.574728
vn 0.72179 0 -0.692112
vn 0.72179 0 -0.692112
vn 0.616504 0 -0.787352
vn 0.616504 0 -0.787352
vn 0.455825 0 -0.890069
vn 0.455825 0 -0.890069
vn 0.455825 0 -0.890069
vn 0.301604 0 -0.953433
vn 0.455825 0 -0.890069
vn 0.301604 0 -0.953433
vn 0.150896 0 -0.98855
vn 0.150896 0 -0.98855
vn 0.0690366 0 -0.997614
vn 0.0690366 0 -0.997614
vn 0.10989 0 0.993944
vn -0.00681825 0 0.999977
vn -0.00681825 0 0.999977
vn 0.10989 0 0.993944
vn 0.248699 0 0.968581
vn 0.248699 0 0.968581
vn 0.248699 0 0.968581
vn 0.419944 0 0.90755
vn 0.248699 0 0.968581
vn 0.419944 0 0.90755
vn 0.572275 0 0.820062
vn 0.572275 0 0.820062
vn 0.674302 0 0.738456
vn 0.674302 0 0.738456
vn 0.779614 0 0.62626
vn 0.779614 0 0.62626
vn 0.848727 0 0.528831
vn 0.848727 0 0.528831
vn 0.912695 0 0.408642
vn 0.912695 0 0.408642
vn 0.954316 0 0.298798
vn 0.954316 0 0.298798
vn 0.980668 0 0.195677
vn 0.980668 0 0.195677
vn 0.994138 0 0.108115
vn 0.994138 0 0.108115
vn 0.99689 0 0.0788025
vn 0.99689 0 0.0788025
vn 0 -1 0
vn 0 -1 0
vn 0 -1 0
vn 0 -1 0
vn 0 -1 0
vn 0 -1 0
vn 0 -1 0
vn 0 -1 0
vn 0 -1 0
vn 0 -1 0
vn 0 -1 0
vn 0 -1 0
vn 0 -1 0
vn 0 -1 0
vn 0 -1 0
vn 0 -1 0
vn 0 -1 0
vn 0 -1 0
vn 0 -1 0
vn 0 -1 0
vn 0 -1 0
vn 0 -1 0
vn 0 -1 0
vn 0 -1 0
vn 0 -1 0
vn 0 -1 0
vn 0 -1 0
vn 0 -1 0
vn 0 -1 0
vn 0 -1 0
vn 0 -1 0
vn 0 -1 0
vn 0 -1 0
vn 0 -1 0
vn 0 -1 0
vn 0 -1 0
vn 0 -1 0
vn 0 -1 0
vn 0 -1 0
vn 0 -1 0
vn 0 -1 0
vn 0 -1 0
vn 0 -1 0
vn 0 -1 0
vn 0 -1 0
vn 0 -1 0
vn 0 -1 0
vn 0 -1 0
vn 0 -1 0
vn 0 -1 0
vn 0 -1 0
vn -0.999927 0 0.0120633
vn -0.99997 0 -0.00778408
vn -0.99997 0 -0.00778408
vn -0.999927 0 0.0120633
vn -0.994802 0 0.101826
vn -0.994802 0 0.101826
vn -0.978615 0 0.205699
vn -0.978615 0 0.205699
vn -0.943112 0 0.332474
vn -0.943112 0 0.332474
vn -0.894533 0 0.447001
vn -0.894533 0 0.447001
vn -0.819696 0 0.572799
vn -0.819696 0 0.572799
vn -0.819696 0 0.572799
vn -0.725982 0 0.687714
vn -0.819696 0 0.572799
vn -0.725982 0 0.687714
vn -0.62387 0 0.781528
vn -0.62387 0 0.781528
vn -0.483253 0 0.875481
vn -0.483253 0 0.875481
vn -0.306947 0 0.951726
vn -0.306947 0 0.951726
vn -0.154001 0 0.988071
vn -0.154001 0 0.988071
vn -0.0749433 0 0.997188
vn -0.0749433 0 0.997188


f 1/1/1 3/3/3 2/2/2
f 1/1/1 2/2/2 4/4/4
f 5/5/5 7/7/7 6/6/6
f 8/8/8 7/7/7 5/5/5
f 8/8/8 5/5/5 9/9/9
f 10/10/10 8/8/8 9/9/9
f 10/10/10 9/9/9 11/11/11
f 12/12/12 10/10/10 11/11/11
f 12/12/12 11/11/11 13/13/13
f 14/14/14 12/12/12 13/13/13
f 14/14/14 13/13/13 15/15/15
f 16/16/16 14/14/14 15/15/15
f 16/16/16 15/15/15 17/17/17
f 18/18/18 16/16/16 17/17/17
f 18/18/18 17/17/17 19/19/19
f 20/20/20 18/18/18 19/19/19
f 20/20/20 19/19/19 21/21/21
f 22/22/22 20/20/20 21/21/21
f 22/22/22 21/21/21 23/23/23
f 24/24/24 22/22/22 23/23/23
f 24/24/24 23/23/23 25/25/25
f 26/26/26 24/24/24 25/25/25
f 27/27/27 29/29/29 28/28/28
f 30/30/30 27/27/27 28/28/28
f 30/30/30 28/28/28 31/31/31
f 32/32/32 30/30/30 31/31/31
f 32/32/32 31/31/31 33/33/33
f 34/34/34 32/32/32 33/33/33
f 35/35/35 37/37/37 36/36/36
f 35/35/35 36/36/36 38/38/38
f 39/39/39 41/41/41 40/40/40
f 42/42/42 41/41/41 39/39/39
f 42/42/42 39/39/39 43/43/43
f 44/44/44 42/42/42 43/43/43
f 44/44/44 43/43/43 45/45/45
f 46/46/46 44/44/44 45/45/45
f 46/46/46 45/45/45 47/47/47
f 48/48/48 46/46/46 47/47/47
f 48/48/48 47/47/47 49/49/49
f 50/50/50 48/48/48 49/49/49
f 50/50/50 49/49/49 51/51/51
f 52/52/52 50/50/50 51/51/51
f 52/52/52 51/51/51 53/53/53
f 54/54/54 52/52/52 53/53/53
f 54/54/54 53/53/53 55/55/55
f 56/56/56 54/54/54 55/55/55
f 56/56/56 55/55/55 57/57/57
f 58/58/58 56/56/56 57/57/57
f 59/59/59 61/61/61 60/60/60
f 62/62/62 59/59/59 60/60/60
f 62/62/62 60/60/60 63/63/63
f 64/64/64 62/62/62 63/63/63
f 64/64/64 63/63/63 65/65/65
f 66/66/66 64/64/64 65/65/65
f 67/67/67 69/69/69 68/68/68
f 70/70/70 69/69/69 67/67/67
f 70/70/70 67/67/67 71/71/71
f 72/72/72 70/70/70 71/71/71
f 73/73/73 75/75/75 74/74/74
f 76/76/76 73/73/73 74/74/74
f 76/76/76 74/74/74 77/77/77
f 78/78/78 76/76/76 77/77/77
f 78/78/78 77/77/77 79/79/79
f 80/80/80 78/78/78 79/79/79
f 80/80/80 79/79/79 81/81/81
f 82/82/82 80/80/80 81/81/81
f 82/82/82 81/81/81 83/83/83
f 84/84/84 82/82/82 83/83/83
f 84/84/84 83/83/83 85/85/85
f 86/86/86 84/84/84 85/85/85
f 86/86/86 85/85/85 87/87/87
f 88/88/88 86/86/86 87/87/87
f 88/88/88 87/87/87 89/89/89
f 90/90/90 88/88/88 89/89/89
f 90/90/90 89/89/89 91/91/91
f 92/92/92 90/90/90 91/91/91
f 92/92/92 91/91/91 93/93/93
f 94/94/94 92/92/92 93/93/93
f 95/95/95 97/97/97 96/96/96
f 95/95/95 98/98/98 97/97/97
f 98/98/98 99/99/99 97/97/97
f 98/98/98 100/100/100 99/99/99
f 98/98/98 101/101/101 100/100/100
f 98/98/98 102/102/102 101/101/101
f 101/101/101 102/102/102 103/103/103
f 102/102/102 104/104/104 103/103/103
f 102/102/102 105/105/105 104/104/104
f 105/105/105 102/102/102 106/106/106
f 102/102/102 107/107/107 106/106/106
f 102/102/102 108/108/108 107/107/107
f 108/108/108 102/102/102 109/109/109
f 109/109/109 102/102/102 110/110/110
f 102/102/102 111/111/111 110/110/110
f 102/102/102 112/112/112 111/111/111
f 112/112/112 102/102/102 113/113/113
f 102/102/102 114/114/114 113/113/113
f 102/102/102 115/115/115 114/114/114
f 115/115/115 102/102/102 116/116/116
f 102/102/102 117/117/117 116/116/116
f 102/102/102 118/118/118 117/117/117
f 118/118/118 102/102/102 119/119/119
f 102/102/102 120/120/120 119/119/119
f 102/102/102 121/121/121 120/120/120
f 102/102/102 122/122/122 121/121/121
f 122/122/122 123/123/123 121/121/121
f 123/123/123 122/122/122 124/124/124
f 122/122/122 125/125/125 124/124/124
f 122/122/122 126/126/126 125/125/125
f 126/126/126 122/122/122 127/127/127
f 122/122/122 128/128/128 127/127/127
f 122/122/122 129/129/129 128/128/128
f 129/129/129 122/122/122 130/130/130
f 122/122/122 131/131/131 130/130/130
f 122/122/122 132/132/132 131/131/131
f 132/132/132 122/122/122 133/133/133
f 122/122/122 134/134/134 133/133/133
f 122/122/122 135/135/135 134/134/134
f 122/122/122 136/136/136 135/135/135
f 137/137/137 136/136/136 122/122/122
f 138/138/138 137/137/137 122/122/122
f 138/138/138 122/122/122 139/139/139
f 140/140/140 138/138/138 139/139/139
f 140/140/140 139/139/139 141/141/141
f 139/139/139 142/142/142 141/141/141
f 139/139/139 143/143/143 142/142/142
f 143/143/143 144/144/144 142/142/142
f 143/143/143 145/145/145 144/144/144
f 146/146/146 148/148/148 147/147/147
f 149/149/149 148/148/148 146/146/146
f 149/149/149 146/146/146 150/150/150
f 151/151/151 149/149/149 150/150/150
f 151/151/151 150/150/150 152/152/152
f 153/153/153 151/151/151 152/152/152
f 153/153/153 152/152/152 154/154/154
f 155/155/155 153/153/153 154/154/154
f 155/155/155 154/154/154 156/156/156
f 157/157/157 155/155/155 156/156/156
f 157/157/157 156/156/156 158/158/158
f 159/159/159 157/157/157 158/158/158
f 160/160/160 162/162/162 161/161/161
f 163/163/163 160/160/160 161/161/161
f 163/163/163 161/161/161 164/164/164
f 165/165/165 163/163/163 164/164/164
f 165/165/165 164/164/164 166/166/166
f 167/167/167 165/165/165 166/166/166
f 167/167/167 166/166/166 168/168/168
f 169/169/169 167/167/167 168/168/168
f 169/169/169 168/168/168 170/170/170
f 171/171/171 169/169/169 170/170/170
f 171/171/171 170/170/170 172/172/172
f 173/173/173 171/171/171 172/172/172
