v 0.0611507 -0.0302234 -0.0192956
v 0.0619605 -0.0305304 -0.0204956
v 0.0611507 -0.0302234 -0.0204956
v 0.0619605 -0.0305304 -0.0192956
v 0.0606189 -0.031626 -0.0192956
v 0.0604799 -0.0307712 -0.0204956
v 0.0606189 -0.031626 -0.0204956
v 0.0604799 -0.0307712 -0.0192956
v 0.0604799 -0.0307712 -0.0192956
v 0.0611507 -0.0302234 -0.0204956
v 0.0604799 -0.0307712 -0.0204956
v 0.0611507 -0.0302234 -0.0192956
v 0.0619605 -0.0305304 -0.0192956
v 0.0620995 -0.0313852 -0.0204956
v 0.0619605 -0.0305304 -0.0204956
v 0.0620995 -0.0313852 -0.0192956
v 0.0606189 -0.031626 -0.0192956
v 0.060259 -0.0317301 -0.0192956
v 0.060188 -0.0316011 -0.0192956
v 0.060133 -0.0314645 -0.0192956
v 0.0603451 -0.0318496 -0.0192956
v 0.0600949 -0.0313222 -0.0192956
v 0.060445 -0.0319578 -0.0192956
v 0.0605572 -0.0320532 -0.0192956
v 0.06068 -0.0321344 -0.0192956
v 0.0600742 -0.0311764 -0.0192956
v 0.0608118 -0.0322002 -0.0192956
v 0.0604799 -0.0307712 -0.0192956
v 0.0600712 -0.0310292 -0.0192956
v 0.060086 -0.0308827 -0.0192956
v 0.0614287 -0.031933 -0.0192956
v 0.0609505 -0.0322496 -0.0192956
v 0.0610942 -0.0322819 -0.0192956
v 0.0601183 -0.030739 -0.0192956
v 0.0612407 -0.0322967 -0.0192956
v 0.0601677 -0.0306003 -0.0192956
v 0.0613879 -0.0322937 -0.0192956
v 0.0602335 -0.0304686 -0.0192956
v 0.0615337 -0.032273 -0.0192956
v 0.0603147 -0.0303457 -0.0192956
v 0.0604101 -0.0302335 -0.0192956
v 0.0605183 -0.0301336 -0.0192956
v 0.0611507 -0.0302234 -0.0192956
v 0.0606378 -0.0300476 -0.0192956
v 0.0607668 -0.0299765 -0.0192956
v 0.0609034 -0.0299215 -0.0192956
v 0.061676 -0.0322349 -0.0192956
v 0.0618126 -0.0321799 -0.0192956
v 0.0619416 -0.0321089 -0.0192956
v 0.0620995 -0.0313852 -0.0192956
v 0.062061 -0.0320228 -0.0192956
v 0.0621693 -0.0319229 -0.0192956
v 0.0622647 -0.0318107 -0.0192956
v 0.0610457 -0.0298834 -0.0192956
v 0.0623459 -0.0316879 -0.0192956
v 0.0611915 -0.0298627 -0.0192956
v 0.0624116 -0.0315561 -0.0192956
v 0.0613387 -0.0298597 -0.0192956
v 0.0624611 -0.0314174 -0.0192956
v 0.0614852 -0.0298745 -0.0192956
v 0.0616289 -0.0299068 -0.0192956
v 0.0617676 -0.0299563 -0.0192956
v 0.0619605 -0.0305304 -0.0192956
v 0.0618993 -0.030022 -0.0192956
v 0.0620222 -0.0301032 -0.0192956
v 0.0621344 -0.0301986 -0.0192956
v 0.0624934 -0.0312737 -0.0192956
v 0.0625082 -0.0311272 -0.0192956
v 0.0625052 -0.03098 -0.0192956
v 0.0622343 -0.0303069 -0.0192956
v 0.0624845 -0.0308342 -0.0192956
v 0.0623203 -0.0304263 -0.0192956
v 0.0624464 -0.0306919 -0.0192956
v 0.0623914 -0.0305553 -0.0192956
v 0.0601519 -0.0317978 -0.0193688
v 0.060259 -0.0317301 -0.0192956
v 0.0602469 -0.0319297 -0.0193688
v 0.060188 -0.0316011 -0.0192956
v 0.0603451 -0.0318496 -0.0192956
v 0.0600735 -0.0316555 -0.0193688
v 0.0603572 -0.0320492 -0.0193688
v 0.060133 -0.0314645 -0.0192956
v 0.060445 -0.0319578 -0.0192956
v 0.0600128 -0.0315046 -0.0193688
v 0.060481 -0.0321545 -0.0193688
v 0.0600949 -0.0313222 -0.0192956
v 0.0605572 -0.0320532 -0.0192956
v 0.0599707 -0.0313476 -0.0193688
v 0.0606167 -0.0322442 -0.0193688
v 0.0600742 -0.0311764 -0.0192956
v 0.06068 -0.0321344 -0.0192956
v 0.0599478 -0.0311867 -0.0193688
v 0.0607621 -0.0323168 -0.0193688
v 0.0600712 -0.0310292 -0.0192956
v 0.0608118 -0.0322002 -0.0192956
v 0.0599445 -0.0310241 -0.0193688
v 0.0609153 -0.0323714 -0.0193688
v 0.060086 -0.0308827 -0.0192956
v 0.0609505 -0.0322496 -0.0192956
v 0.0599608 -0.0308624 -0.0193688
v 0.0610739 -0.0324071 -0.0193688
v 0.0601183 -0.030739 -0.0192956
v 0.0610942 -0.0322819 -0.0192956
v 0.0599965 -0.0307038 -0.0193688
v 0.0612356 -0.0324234 -0.0193688
v 0.0601677 -0.0306003 -0.0192956
v 0.0612407 -0.0322967 -0.0192956
v 0.0600511 -0.0305506 -0.0193688
v 0.0613981 -0.0324201 -0.0193688
v 0.0602335 -0.0304686 -0.0192956
v 0.0613879 -0.0322937 -0.0192956
v 0.0601237 -0.0304052 -0.0193688
v 0.0615591 -0.0323972 -0.0193688
v 0.0603147 -0.0303457 -0.0192956
v 0.0615337 -0.032273 -0.0192956
v 0.0602134 -0.0302696 -0.0193688
v 0.0617161 -0.0323552 -0.0193688
v 0.0604101 -0.0302335 -0.0192956
v 0.061676 -0.0322349 -0.0192956
v 0.0603187 -0.0301457 -0.0193688
v 0.0618669 -0.0322944 -0.0193688
v 0.0605183 -0.0301336 -0.0192956
v 0.0618126 -0.0321799 -0.0192956
v 0.0604382 -0.0300355 -0.0193688
v 0.0620093 -0.032216 -0.0193688
v 0.0606378 -0.0300476 -0.0192956
v 0.0619416 -0.0321089 -0.0192956
v 0.0605701 -0.0299404 -0.0193688
v 0.0621412 -0.032121 -0.0193688
v 0.0607668 -0.0299765 -0.0192956
v 0.062061 -0.0320228 -0.0192956
v 0.0607124 -0.029862 -0.0193688
v 0.0622607 -0.0320107 -0.0193688
v 0.0609034 -0.0299215 -0.0192956
v 0.0621693 -0.0319229 -0.0192956
v 0.0608633 -0.0298013 -0.0193688
v 0.062366 -0.0318869 -0.0193688
v 0.0610457 -0.0298834 -0.0192956
v 0.0622647 -0.0318107 -0.0192956
v 0.0610203 -0.0297592 -0.0193688
v 0.0624556 -0.0317512 -0.0193688
v 0.0611915 -0.0298627 -0.0192956
v 0.0623459 -0.0316879 -0.0192956
v 0.0611812 -0.0297363 -0.0193688
v 0.0625283 -0.0316058 -0.0193688
v 0.0613387 -0.0298597 -0.0192956
v 0.0624116 -0.0315561 -0.0192956
v 0.0613438 -0.029733 -0.0193688
v 0.0625828 -0.0314527 -0.0193688
v 0.0614852 -0.0298745 -0.0192956
v 0.0624611 -0.0314174 -0.0192956
v 0.0615055 -0.0297494 -0.0193688
v 0.0626185 -0.0312941 -0.0193688
v 0.0616289 -0.0299068 -0.0192956
v 0.0624934 -0.0312737 -0.0192956
v 0.0616641 -0.0297851 -0.0193688
v 0.0626349 -0.0311323 -0.0193688
v 0.0617676 -0.0299563 -0.0192956
v 0.0625082 -0.0311272 -0.0192956
v 0.0618173 -0.0298396 -0.0193688
v 0.0626316 -0.0309698 -0.0193688
v 0.0618993 -0.030022 -0.0192956
v 0.0625052 -0.03098 -0.0192956
v 0.0619627 -0.0299123 -0.0193688
v 0.0626087 -0.0308088 -0.0193688
v 0.0620222 -0.0301032 -0.0192956
v 0.0624845 -0.0308342 -0.0192956
v 0.0620984 -0.0300019 -0.0193688
v 0.0625666 -0.0306518 -0.0193688
v 0.0621344 -0.0301986 -0.0192956
v 0.0624464 -0.0306919 -0.0192956
v 0.0622222 -0.0301072 -0.0193688
v 0.0625059 -0.030501 -0.0193688
v 0.0622343 -0.0303069 -0.0192956
v 0.0623914 -0.0305553 -0.0192956
v 0.0623324 -0.0302267 -0.0193688
v 0.0624275 -0.0303586 -0.0193688
v 0.0623203 -0.0304263 -0.0192956
vn -0.354523 -0.935047 0
vn -0.354523 -0.935047 0
vn -0.354523 -0.935047 0
vn -0.354523 -0.935047 0
vn 0.987036 0.160498 0
vn 0.987036 0.160498 0
vn 0.987036 0.160498 0
vn 0.987036 0.160498 0
vn 0.632514 -0.774549 0
vn 0.632514 -0.774549 0
vn 0.632514 -0.774549 0
vn 0.632514 -0.774549 0
vn -0.987036 -0.160498 0
vn -0.987036 -0.160498 0
vn -0.987036 -0.160498 0
vn -0.987036 -0.160498 0
vn 0 0 1
vn 0 0 1
vn 0 0 1
vn 0 0 1
vn 0 0 1
vn 0 0 1
vn 0 0 1
vn 0 0 1
vn 0 0 1
vn 0 0 1
vn 0 0 1
vn 0 0 1
vn 0 0 1
vn 0 0 1
vn 0 0 1
vn 0 0 1
vn 0 0 1
vn 0 0 1
vn 0 0 1
vn 0 0 1
vn 0 0 1
vn 0 0 1
vn 0 0 1
vn 0 0 1
vn 0 0 1
vn 0 0 1
vn 0 0 1
vn 0 0 1
vn 0 0 1
vn 0 0 1
vn 0 0 1
vn 0 0 1
vn 0 0 1
vn 0 0 1
vn 0 0 1
vn 0 0 1
vn 0 0 1
vn 0 0 1
vn 0 0 1
vn 0 0 1
vn 0 0 1
vn 0 0 1
vn 0 0 1
vn 0 0 1
vn 0 0 1
vn 0 0 1
vn 0 0 1
vn 0 0 1
vn 0 0 1
vn 0 0 1
vn 0 0 1
vn 0 0 1
vn 0 0 1
vn 0 0 1
vn 0 0 1
vn 0 0 1
vn 0 0 1
vn 0 0 1
vn -0.422572 -0.26727 0.866025
vn -0.422572 -0.26727 0.866025
vn -0.387275 -0.316257 0.866025
vn -0.451706 -0.214386 0.866025
vn -0.387275 -0.316257 0.866025
vn -0.451706 -0.214386 0.866025
vn -0.34633 -0.360632 0.866025
vn -0.474254 -0.158376 0.866025
vn -0.34633 -0.360632 0.866025
vn -0.474254 -0.158376 0.866025
vn -0.300336 -0.399748 0.866025
vn -0.489887 -0.100056 0.866025
vn -0.300336 -0.399748 0.866025
vn -0.489887 -0.100056 0.866025
vn -0.249962 -0.433035 0.866025
vn -0.498375 -0.0402772 0.866025
vn -0.249962 -0.433035 0.866025
vn -0.498375 -0.0402772 0.866025
vn -0.195943 -0.460007 0.866025
vn -0.499596 0.020089 0.866025
vn -0.195943 -0.460007 0.866025
vn -0.499596 0.020089 0.866025
vn -0.139066 -0.480271 0.866025
vn -0.493532 0.0801622 0.866025
vn -0.139066 -0.480271 0.866025
vn -0.493532 0.0801622 0.866025
vn -0.0801622 -0.493532 0.866025
vn -0.480271 0.139066 0.866025
vn -0.0801622 -0.493532 0.866025
vn -0.480271 0.139066 0.866025
vn -0.020089 -0.499596 0.866025
vn -0.460007 0.195943 0.866025
vn -0.020089 -0.499596 0.866025
vn -0.460007 0.195943 0.866025
vn 0.0402772 -0.498375 0.866025
vn -0.433035 0.249962 0.866025
vn 0.0402772 -0.498375 0.866025
vn -0.433035 0.249962 0.866025
vn 0.100056 -0.489887 0.866025
vn -0.399748 0.300336 0.866025
vn 0.100056 -0.489887 0.866025
vn -0.399748 0.300336 0.866025
vn 0.158376 -0.474254 0.866025
vn -0.360632 0.34633 0.866025
vn 0.158376 -0.474254 0.866025
vn -0.360632 0.34633 0.866025
vn 0.214386 -0.451706 0.866025
vn -0.316257 0.387275 0.866025
vn 0.214386 -0.451706 0.866025
vn -0.316257 0.387275 0.866025
vn 0.26727 -0.422572 0.866025
vn -0.26727 0.422572 0.866025
vn 0.26727 -0.422572 0.866025
vn -0.26727 0.422572 0.866025
vn 0.316257 -0.387275 0.866025
vn -0.214386 0.451706 0.866025
vn 0.316257 -0.387275 0.866025
vn -0.214386 0.451706 0.866025
vn 0.360632 -0.34633 0.866025
vn -0.158376 0.474254 0.866025
vn 0.360632 -0.34633 0.866025
vn -0.158376 0.474254 0.866025
vn 0.399748 -0.300336 0.866025
vn -0.100056 0.489887 0.866025
vn 0.399748 -0.300336 0.866025
vn -0.100056 0.489887 0.866025
vn 0.433035 -0.249962 0.866025
vn -0.0402772 0.498375 0.866025
vn 0.433035 -0.249962 0.866025
vn -0.0402772 0.498375 0.866025
vn 0.460007 -0.195943 0.866025
vn 0.020089 0.499596 0.866025
vn 0.460007 -0.195943 0.866025
vn 0.020089 0.499596 0.866025
vn 0.480271 -0.139066 0.866025
vn 0.0801622 0.493532 0.866025
vn 0.480271 -0.139066 0.866025
vn 0.0801622 0.493532 0.866025
vn 0.493532 -0.0801622 0.866025
vn 0.139066 0.480271 0.866025
vn 0.493532 -0.0801622 0.866025
vn 0.139066 0.480271 0.866025
vn 0.499596 -0.020089 0.866025
vn 0.195943 0.460007 0.866025
vn 0.499596 -0.020089 0.866025
vn 0.195943 0.460007 0.866025
vn 0.498375 0.0402772 0.866025
vn 0.249962 0.433035 0.866025
vn 0.498375 0.0402772 0.866025
vn 0.249962 0.433035 0.866025
vn 0.489887 0.100056 0.866025
vn 0.300336 0.399748 0.866025
vn 0.489887 0.100056 0.866025
vn 0.300336 0.399748 0.866025
vn 0.474254 0.158376 0.866025
vn 0.34633 0.360632 0.866025
vn 0.474254 0.158376 0.866025
vn 0.34633 0.360632 0.866025
vn 0.451706 0.214386 0.866025
vn 0.387275 0.316257 0.866025
vn 0.451706 0.214386 0.866025
vn 0.387275 0.316257 0.866025
vn 0.422572 0.26727 0.866025
vn 0.422572 0.26727 0.866025


f 1/1/1 3/3/3 2/2/2
f 1/1/1 2/2/2 4/4/4
f 5/5/5 7/7/7 6/6/6
f 5/5/5 6/6/6 8/8/8
f 9/9/9 11/11/11 10/10/10
f 9/9/9 10/10/10 12/12/12
f 13/13/13 15/15/15 14/14/14
f 13/13/13 14/14/14 16/16/16
f 17/17/17 19/19/19 18/18/18
f 20/20/20 19/19/19 17/17/17
f 17/17/17 18/18/18 21/21/21
f 20/20/20 17/17/17 22/22/22
f 17/17/17 21/21/21 23/23/23
f 24/24/24 17/17/17 23/23/23
f 17/17/17 24/24/24 25/25/25
f 17/17/17 26/26/26 22/22/22
f 17/17/17 25/25/25 27/27/27
f 17/17/17 28/28/28 26/26/26
f 28/28/28 29/29/29 26/26/26
f 28/28/28 30/30/30 29/29/29
f 31/31/31 17/17/17 27/27/27
f 31/31/31 27/27/27 32/32/32
f 33/33/33 31/31/31 32/32/32
f 30/30/30 28/28/28 34/34/34
f 31/31/31 33/33/33 35/35/35
f 28/28/28 36/36/36 34/34/34
f 31/31/31 35/35/35 37/37/37
f 28/28/28 38/38/38 36/36/36
f 39/39/39 31/31/31 37/37/37
f 28/28/28 40/40/40 38/38/38
f 40/40/40 28/28/28 41/41/41
f 28/28/28 42/42/42 41/41/41
f 28/28/28 43/43/43 42/42/42
f 43/43/43 44/44/44 42/42/42
f 43/43/43 45/45/45 44/44/44
f 45/45/45 43/43/43 46/46/46
f 47/47/47 31/31/31 39/39/39
f 31/31/31 47/47/47 48/48/48
f 31/31/31 48/48/48 49/49/49
f 50/50/50 31/31/31 49/49/49
f 50/50/50 49/49/49 51/51/51
f 52/52/52 50/50/50 51/51/51
f 50/50/50 52/52/52 53/53/53
f 43/43/43 54/54/54 46/46/46
f 50/50/50 53/53/53 55/55/55
f 43/43/43 56/56/56 54/54/54
f 57/57/57 50/50/50 55/55/55
f 58/58/58 56/56/56 43/43/43
f 50/50/50 57/57/57 59/59/59
f 58/58/58 43/43/43 60/60/60
f 60/60/60 43/43/43 61/61/61
f 43/43/43 62/62/62 61/61/61
f 43/43/43 63/63/63 62/62/62
f 63/63/63 64/64/64 62/62/62
f 63/63/63 65/65/65 64/64/64
f 63/63/63 66/66/66 65/65/65
f 50/50/50 59/59/59 67/67/67
f 50/50/50 67/67/67 68/68/68
f 50/50/50 68/68/68 69/69/69
f 63/63/63 50/50/50 69/69/69
f 63/63/63 70/70/70 66/66/66
f 63/63/63 69/69/69 71/71/71
f 70/70/70 63/63/63 72/72/72
f 73/73/73 63/63/63 71/71/71
f 63/63/63 74/74/74 72/72/72
f 63/63/63 73/73/73 74/74/74
f 75/75/75 77/77/77 76/76/76
f 75/75/75 76/76/76 78/78/78
f 77/77/77 79/79/79 76/76/76
f 80/80/80 75/75/75 78/78/78
f 77/77/77 81/81/81 79/79/79
f 80/80/80 78/78/78 82/82/82
f 81/81/81 83/83/83 79/79/79
f 84/84/84 80/80/80 82/82/82
f 81/81/81 85/85/85 83/83/83
f 84/84/84 82/82/82 86/86/86
f 85/85/85 87/87/87 83/83/83
f 88/88/88 84/84/84 86/86/86
f 85/85/85 89/89/89 87/87/87
f 88/88/88 86/86/86 90/90/90
f 89/89/89 91/91/91 87/87/87
f 92/92/92 88/88/88 90/90/90
f 89/89/89 93/93/93 91/91/91
f 92/92/92 90/90/90 94/94/94
f 93/93/93 95/95/95 91/91/91
f 96/96/96 92/92/92 94/94/94
f 93/93/93 97/97/97 95/95/95
f 96/96/96 94/94/94 98/98/98
f 97/97/97 99/99/99 95/95/95
f 100/100/100 96/96/96 98/98/98
f 97/97/97 101/101/101 99/99/99
f 100/100/100 98/98/98 102/102/102
f 101/101/101 103/103/103 99/99/99
f 104/104/104 100/100/100 102/102/102
f 101/101/101 105/105/105 103/103/103
f 104/104/104 102/102/102 106/106/106
f 105/105/105 107/107/107 103/103/103
f 108/108/108 104/104/104 106/106/106
f 105/105/105 109/109/109 107/107/107
f 108/108/108 106/106/106 110/110/110
f 109/109/109 111/111/111 107/107/107
f 112/112/112 108/108/108 110/110/110
f 109/109/109 113/113/113 111/111/111
f 112/112/112 110/110/110 114/114/114
f 113/113/113 115/115/115 111/111/111
f 116/116/116 112/112/112 114/114/114
f 113/113/113 117/117/117 115/115/115
f 116/116/116 114/114/114 118/118/118
f 117/117/117 119/119/119 115/115/115
f 120/120/120 116/116/116 118/118/118
f 117/117/117 121/121/121 119/119/119
f 120/120/120 118/118/118 122/122/122
f 121/121/121 123/123/123 119/119/119
f 124/124/124 120/120/120 122/122/122
f 121/121/121 125/125/125 123/123/123
f 124/124/124 122/122/122 126/126/126
f 125/125/125 127/127/127 123/123/123
f 128/128/128 124/124/124 126/126/126
f 125/125/125 129/129/129 127/127/127
f 128/128/128 126/126/126 130/130/130
f 129/129/129 131/131/131 127/127/127
f 132/132/132 128/128/128 130/130/130
f 129/129/129 133/133/133 131/131/131
f 132/132/132 130/130/130 134/134/134
f 133/133/133 135/135/135 131/131/131
f 136/136/136 132/132/132 134/134/134
f 133/133/133 137/137/137 135/135/135
f 136/136/136 134/134/134 138/138/138
f 137/137/137 139/139/139 135/135/135
f 140/140/140 136/136/136 138/138/138
f 137/137/137 141/141/141 139/139/139
f 140/140/140 138/138/138 142/142/142
f 141/141/141 143/143/143 139/139/139
f 144/144/144 140/140/140 142/142/142
f 141/141/141 145/145/145 143/143/143
f 144/144/144 142/142/142 146/146/146
f 145/145/145 147/147/147 143/143/143
f 148/148/148 144/144/144 146/146/146
f 145/145/145 149/149/149 147/147/147
f 148/148/148 146/146/146 150/150/150
f 149/149/149 151/151/151 147/147/147
f 152/152/152 148/148/148 150/150/150
f 149/149/149 153/153/153 151/151/151
f 152/152/152 150/150/150 154/154/154
f 153/153/153 155/155/155 151/151/151
f 156/156/156 152/152/152 154/154/154
f 153/153/153 157/157/157 155/155/155
f 156/156/156 154/154/154 158/158/158
f 157/157/157 159/159/159 155/155/155
f 160/160/160 156/156/156 158/158/158
f 157/157/157 161/161/161 159/159/159
f 160/160/160 158/158/158 162/162/162
f 161/161/161 163/163/163 159/159/159
f 164/164/164 160/160/160 162/162/162
f 161/161/161 165/165/165 163/163/163
f 164/164/164 162/162/162 166/166/166
f 165/165/165 167/167/167 163/163/163
f 168/168/168 164/164/164 166/166/166
f 165/165/165 169/169/169 167/167/167
f 168/168/168 166/166/166 170/170/170
f 169/169/169 171/171/171 167/167/167
f 172/172/172 168/168/168 170/170/170
f 169/169/169 173/173/173 171/171/171
f 172/172/172 170/170/170 174/174/174
f 173/173/173 175/175/175 171/171/171
f 176/176/176 172/172/172 174/174/174
f 173/173/173 177/177/177 175/175/175
f 176/176/176 174/174/174 178/178/178
f 177/177/177 178/178/178 175/175/175
f 177/177/177 176/176/176 178/178/178
