v 0.0727339 0.0774 -0.0163596
v 0.0728803 0.0774 -0.016399
v 0.0731397 0.076661 -0.0151456
v 0.0731397 0.076661 -0.0151456
v 0.0725932 0.0774 -0.0163031
v 0.0731397 0.076661 -0.0151456
v 0.0730304 0.0774 -0.0164209
v 0.0731397 0.076661 -0.0151456
v 0.0724601 0.0774 -0.0162303
v 0.0731397 0.076661 -0.0151456
v 0.073182 0.0774 -0.0164249
v 0.0723366 0.0774 -0.0161423
v 0.0731397 0.076661 -0.0151456
v 0.073333 0.0774 -0.0164109
v 0.0731397 0.076661 -0.0151456
v 0.0731397 0.076661 -0.0151456
v 0.0722243 0.0774 -0.0160403
v 0.0731397 0.076661 -0.0151456
v 0.0734813 0.0774 -0.0163792
v 0.0731397 0.076661 -0.0151456
v 0.0721249 0.0774 -0.0159258
v 0.0731397 0.076661 -0.0151456
v 0.0736248 0.0774 -0.0163301
v 0.0720398 0.0774 -0.0158003
v 0.0731397 0.076661 -0.0151456
v 0.0737615 0.0774 -0.0162644
v 0.0731397 0.076661 -0.0151456
v 0.0731397 0.076661 -0.0151456
v 0.0719806 0.0774 -0.0156886
v 0.0731397 0.076661 -0.0151456
v 0.0738895 0.0774 -0.016183
v 0.0731397 0.076661 -0.0151456
v 0.0719701 0.0774 -0.0156656
v 0.0731397 0.076661 -0.0151456
v 0.0740069 0.0774 -0.0160871
v 0.0731397 0.076661 -0.0151456
v 0.0719168 0.0774 -0.0155236
v 0.0741122 0.0774 -0.0159779
v 0.0731397 0.076661 -0.0151456
v 0.0718807 0.0774 -0.0153763
v 0.0731397 0.076661 -0.0151456
v 0.0731397 0.076661 -0.0151456
v 0.0741895 0.0774 -0.0158779
v 0.0731397 0.076661 -0.0151456
v 0.0718622 0.0774 -0.0152258
v 0.0731397 0.076661 -0.0151456
v 0.0742038 0.0774 -0.015857
v 0.0731397 0.076661 -0.0151456
v 0.0718617 0.0774 -0.0150741
v 0.0742804 0.0774 -0.0157262
v 0.0731397 0.076661 -0.0151456
v 0.0718791 0.0774 -0.0149235
v 0.0731397 0.076661 -0.0151456
v 0.0731397 0.076661 -0.0151456
v 0.0743411 0.0774 -0.0155872
v 0.0731397 0.076661 -0.0151456
v 0.0719142 0.0774 -0.014776
v 0.0731397 0.076661 -0.0151456
v 0.0743849 0.0774 -0.015442
v 0.0731397 0.076661 -0.0151456
v 0.0719665 0.0774 -0.0146336
v 0.0744112 0.0774 -0.0152926
v 0.0731397 0.076661 -0.0151456
v 0.0720353 0.0774 -0.0144985
v 0.0731397 0.076661 -0.0151456
v 0.0731397 0.076661 -0.0151456
v 0.0744197 0.0774 -0.0151412
v 0.0731397 0.076661 -0.0151456
v 0.0720899 0.0774 -0.0144133
v 0.0731397 0.076661 -0.0151456
v 0.0744102 0.0774 -0.0149899
v 0.0731397 0.076661 -0.0151456
v 0.0721196 0.0774 -0.0143724
v 0.0743828 0.0774 -0.0148407
v 0.0731397 0.076661 -0.0151456
v 0.0731397 0.076661 -0.0151456
v 0.0722182 0.0774 -0.0142572
v 0.0731397 0.076661 -0.0151456
v 0.0743381 0.0774 -0.0146958
v 0.0723298 0.0774 -0.0141544
v 0.0731397 0.076661 -0.0151456
v 0.0731397 0.076661 -0.0151456
v 0.0742988 0.0774 -0.0146026
v 0.0731397 0.076661 -0.0151456
v 0.0724527 0.0774 -0.0140656
v 0.0731397 0.076661 -0.0151456
v 0.0742764 0.0774 -0.0145572
v 0.0731397 0.076661 -0.0151456
v 0.0725852 0.0774 -0.0139919
v 0.0741989 0.0774 -0.0144269
v 0.0731397 0.076661 -0.0151456
v 0.0727256 0.0774 -0.0139344
v 0.0731397 0.076661 -0.0151456
v 0.0731397 0.076661 -0.0151456
v 0.0741064 0.0774 -0.0143067
v 0.0731397 0.076661 -0.0151456
v 0.0728717 0.0774 -0.013894
v 0.0731397 0.076661 -0.0151456
v 0.0740004 0.0774 -0.0141982
v 0.0731397 0.076661 -0.0151456
v 0.0730217 0.0774 -0.0138711
v 0.0738823 0.0774 -0.0141031
v 0.0731397 0.076661 -0.0151456
v 0.0731732 0.0774 -0.013866
v 0.0731397 0.076661 -0.0151456
v 0.0731397 0.076661 -0.0151456
v 0.0737538 0.0774 -0.0140225
v 0.0731397 0.076661 -0.0151456
v 0.073249 0.0774 -0.0138703
v 0.0731397 0.076661 -0.0151456
v 0.0736167 0.0774 -0.0139578
v 0.0731397 0.076661 -0.0151456
v 0.0733243 0.0774 -0.013879
v 0.0734729 0.0774 -0.0139097
v 0.0731397 0.076661 -0.0151456
v 0.0731397 0.076661 -0.0151456
vn 0.158511 0.866025 0.474209
vn 0.101312 0.866025 0.489628
vn 0.158511 0.866025 0.474209
vn 0.213484 0.866025 0.452133
vn 0.213484 0.866025 0.452133
vn 0.101312 0.866025 0.489628
vn 0.0426908 0.866025 0.498174
vn 0.265461 0.866025 0.42371
vn 0.265461 0.866025 0.42371
vn 0.0426908 0.866025 0.498174
vn -0.0165295 0.866025 0.499727
vn 0.313711 0.866025 0.389339
vn 0.313711 0.866025 0.389339
vn -0.0755178 0.866025 0.494264
vn -0.0165295 0.866025 0.499727
vn 0.357558 0.866025 0.349503
vn 0.357558 0.866025 0.349503
vn -0.0755178 0.866025 0.494264
vn -0.133446 0.866025 0.481863
vn 0.396385 0.866025 0.30476
vn 0.396385 0.866025 0.30476
vn -0.133446 0.866025 0.481863
vn -0.189501 0.866025 0.462698
vn 0.429648 0.866025 0.25574
vn 0.429648 0.866025 0.25574
vn -0.242895 0.866025 0.437038
vn -0.189501 0.866025 0.462698
vn 0.452777 0.866025 0.212116
vn 0.452777 0.866025 0.212116
vn -0.242895 0.866025 0.437038
vn -0.29288 0.866025 0.405242
vn 0.456879 0.866025 0.203129
vn 0.456879 0.866025 0.203129
vn -0.29288 0.866025 0.405242
vn -0.338754 0.866025 0.367758
vn 0.477697 0.866025 0.147666
vn 0.477697 0.866025 0.147666
vn -0.379872 0.866025 0.325111
vn -0.338754 0.866025 0.367758
vn 0.491809 0.866025 0.0901313
vn 0.491809 0.866025 0.0901313
vn -0.379872 0.866025 0.325111
vn -0.410086 0.866025 0.286058
vn 0.499017 0.866025 0.0313308
vn 0.499017 0.866025 0.0313308
vn -0.410086 0.866025 0.286058
vn -0.415658 0.866025 0.2779
vn 0.49922 0.866025 -0.0279095
vn 0.49922 0.866025 -0.0279095
vn -0.445608 0.866025 0.226789
vn -0.415658 0.866025 0.2779
vn 0.492416 0.866025 -0.086758
vn 0.492416 0.866025 -0.086758
vn -0.445608 0.866025 0.226789
vn -0.469304 0.866025 0.172493
vn 0.478698 0.866025 -0.144389
vn 0.478698 0.866025 -0.144389
vn -0.469304 0.866025 0.172493
vn -0.486411 0.866025 0.115777
vn 0.458261 0.866025 -0.199992
vn 0.458261 0.866025 -0.199992
vn -0.49669 0.866025 0.0574346
vn -0.486411 0.866025 0.115777
vn 0.431391 0.866025 -0.252789
vn 0.431391 0.866025 -0.252789
vn -0.49669 0.866025 0.0574346
vn -0.499997 0.866025 -0.00171369
vn 0.410086 0.866025 -0.286058
vn 0.410086 0.866025 -0.286058
vn -0.499997 0.866025 -0.00171369
vn -0.496285 0.866025 -0.0608379
vn 0.398465 0.866025 -0.302036
vn 0.398465 0.866025 -0.302036
vn -0.485606 0.866025 -0.119108
vn -0.496285 0.866025 -0.0608379
vn 0.359945 0.866025 -0.347044
vn 0.359945 0.866025 -0.347044
vn -0.485606 0.866025 -0.119108
vn -0.46811 0.866025 -0.175706
vn 0.316373 0.866025 -0.38718
vn 0.316373 0.866025 -0.38718
vn -0.46811 0.866025 -0.175706
vn -0.452777 0.866025 -0.212116
vn 0.268359 0.866025 -0.421881
vn 0.268359 0.866025 -0.421881
vn -0.452777 0.866025 -0.212116
vn -0.444043 0.866025 -0.229838
vn 0.216578 0.866025 -0.450659
vn 0.216578 0.866025 -0.450659
vn -0.413743 0.866025 -0.280743
vn -0.444043 0.866025 -0.229838
vn 0.161757 0.866025 -0.473112
vn 0.161757 0.866025 -0.473112
vn -0.413743 0.866025 -0.280743
vn -0.377635 0.866025 -0.327707
vn 0.104666 0.866025 -0.488922
vn 0.104666 0.866025 -0.488922
vn -0.377635 0.866025 -0.327707
vn -0.336225 0.866025 -0.370071
vn 0.0461046 0.866025 -0.49787
vn 0.0461046 0.866025 -0.49787
vn -0.290096 0.866025 -0.40724
vn -0.336225 0.866025 -0.370071
vn -0.0131036 0.866025 -0.499828
vn -0.0131036 0.866025 -0.499828
vn -0.290096 0.866025 -0.40724
vn -0.239894 0.866025 -0.438692
vn -0.0426908 0.866025 -0.498174
vn -0.0426908 0.866025 -0.498174
vn -0.239894 0.866025 -0.438692
vn -0.186325 0.866025 -0.463986
vn -0.0721279 0.866025 -0.49477
vn -0.0721279 0.866025 -0.49477
vn -0.13014 0.866025 -0.482767
vn -0.186325 0.866025 -0.463986
vn -0.13014 0.866025 -0.482767


f 1/1/1 3/3/3 2/2/2
f 4/4/4 1/1/1 5/5/5
f 6/6/6 7/7/7 2/2/2
f 8/8/8 5/5/5 9/9/9
f 10/10/10 11/11/11 7/7/7
f 12/12/12 13/13/13 9/9/9
f 11/11/11 15/15/15 14/14/14
f 16/16/16 12/12/12 17/17/17
f 18/18/18 19/19/19 14/14/14
f 20/20/20 17/17/17 21/21/21
f 22/22/22 23/23/23 19/19/19
f 24/24/24 25/25/25 21/21/21
f 23/23/23 27/27/27 26/26/26
f 28/28/28 24/24/24 29/29/29
f 30/30/30 31/31/31 26/26/26
f 32/32/32 29/29/29 33/33/33
f 34/34/34 35/35/35 31/31/31
f 36/36/36 33/33/33 37/37/37
f 35/35/35 39/39/39 38/38/38
f 40/40/40 41/41/41 37/37/37
f 42/42/42 43/43/43 38/38/38
f 44/44/44 40/40/40 45/45/45
f 46/46/46 47/47/47 43/43/43
f 48/48/48 45/45/45 49/49/49
f 47/47/47 51/51/51 50/50/50
f 52/52/52 53/53/53 49/49/49
f 54/54/54 55/55/55 50/50/50
f 56/56/56 52/52/52 57/57/57
f 58/58/58 59/59/59 55/55/55
f 60/60/60 57/57/57 61/61/61
f 59/59/59 63/63/63 62/62/62
f 64/64/64 65/65/65 61/61/61
f 66/66/66 67/67/67 62/62/62
f 68/68/68 64/64/64 69/69/69
f 70/70/70 71/71/71 67/67/67
f 72/72/72 69/69/69 73/73/73
f 71/71/71 75/75/75 74/74/74
f 76/76/76 73/73/73 77/77/77
f 78/78/78 79/79/79 74/74/74
f 80/80/80 81/81/81 77/77/77
f 82/82/82 83/83/83 79/79/79
f 84/84/84 80/80/80 85/85/85
f 86/86/86 87/87/87 83/83/83
f 88/88/88 85/85/85 89/89/89
f 87/87/87 91/91/91 90/90/90
f 92/92/92 93/93/93 89/89/89
f 94/94/94 95/95/95 90/90/90
f 96/96/96 92/92/92 97/97/97
f 98/98/98 99/99/99 95/95/95
f 100/100/100 97/97/97 101/101/101
f 99/99/99 103/103/103 102/102/102
f 104/104/104 105/105/105 101/101/101
f 106/106/106 107/107/107 102/102/102
f 108/108/108 104/104/104 109/109/109
f 110/110/110 111/111/111 107/107/107
f 112/112/112 109/109/109 113/113/113
f 111/111/111 115/115/115 114/114/114
f 116/116/116 113/113/113 114/114/114
