v -0.00296277 0.049 -0.101081
v 2.92242E-05 0.047 -0.101279
v -0.00296277 0.047 -0.101081
v 2.92242E-05 0.049 -0.101279
v -0.00387301 0.049 -0.102286
v -0.00386625 0.049 -0.102127
v -0.00386625 0.047 -0.102127
v -0.00387301 0.047 -0.102286
v -0.00386385 0.049 -0.102428
v -0.00386385 0.047 -0.102428
v -0.00383913 0.049 -0.102573
v -0.00383913 0.047 -0.102573
v -0.00379493 0.049 -0.102741
v -0.00379493 0.047 -0.102741
v -0.00374593 0.049 -0.102873
v -0.00374593 0.047 -0.102873
v -0.00371653 0.049 -0.102933
v -0.00371653 0.047 -0.102933
v -0.00366063 0.049 -0.103017
v -0.00366063 0.047 -0.103017
v -0.00358873 0.049 -0.103093
v -0.00358873 0.047 -0.103093
v -0.00358873 0.047 -0.103093
v -0.0035047 0.049 -0.103156
v -0.00358873 0.049 -0.103093
v -0.0035047 0.047 -0.103156
v -0.00341092 0.049 -0.103206
v -0.00341092 0.047 -0.103206
v -0.00329697 0.049 -0.103249
v -0.00329697 0.047 -0.103249
v -0.0031707 0.049 -0.103277
v -0.0031707 0.047 -0.103277
v -0.00310985 0.049 -0.103286
v -0.00310985 0.047 -0.103286
v -0.000117276 0.049 -0.103485
v -0.00310985 0.047 -0.103286
v -0.000117276 0.047 -0.103485
v -0.00310985 0.049 -0.103286
v -6.30488E-06 0.049 -0.103481
v -0.000117276 0.049 -0.103485
v -0.000117276 0.047 -0.103485
v -6.30488E-06 0.047 -0.103481
v 0.000121027 0.049 -0.103462
v 0.000121027 0.047 -0.103462
v 0.000234252 0.049 -0.103431
v 0.000234252 0.047 -0.103431
v 0.000327026 0.049 -0.10339
v 0.000327026 0.047 -0.10339
v 0.000416196 0.049 -0.103331
v 0.000416196 0.047 -0.103331
v 0.000495326 0.049 -0.103257
v 0.000495326 0.047 -0.103257
v 0.000557773 0.049 -0.103173
v 0.000557773 0.047 -0.103173
v 0.000627128 0.049 -0.103048
v 0.000627128 0.047 -0.103048
v 0.000627128 0.047 -0.103048
v 0.000695786 0.049 -0.102884
v 0.000627128 0.049 -0.103048
v 0.000695786 0.047 -0.102884
v 0.000747949 0.049 -0.102713
v 0.000747949 0.047 -0.102713
v 0.000773431 0.049 -0.102572
v 0.000773431 0.047 -0.102572
v 0.00078489 0.049 -0.102436
v 0.00078489 0.047 -0.102436
v 0.000791631 0.049 -0.102277
v 0.00078489 0.049 -0.102436
v 0.00078489 0.047 -0.102436
v 0.000791631 0.047 -0.102277
v 0.000782449 0.049 -0.102135
v 0.000782449 0.047 -0.102135
v 0.000757659 0.049 -0.101989
v 0.000757659 0.047 -0.101989
v 0.000713502 0.049 -0.101822
v 0.000713502 0.047 -0.101822
v 0.00066451 0.049 -0.10169
v 0.00066451 0.047 -0.10169
v 0.000635978 0.049 -0.101632
v 0.000635978 0.047 -0.101632
v 0.000580986 0.049 -0.101549
v 0.000580986 0.047 -0.101549
v 0.000509224 0.049 -0.101473
v 0.000509224 0.047 -0.101473
v 0.000422836 0.049 -0.101407
v 0.000422836 0.047 -0.101407
v 0.000324138 0.049 -0.101355
v 0.000324138 0.047 -0.101355
v 0.000216345 0.049 -0.101316
v 0.000216345 0.047 -0.101316
v 8.72509E-05 0.049 -0.101287
v 8.72509E-05 0.047 -0.101287
v 2.84893E-05 0.049 -0.101279
v 2.84893E-05 0.047 -0.101279
v 0.000324138 0.049 -0.101355
v 0.000216345 0.049 -0.101316
v 8.72509E-05 0.049 -0.101287
v 2.92242E-05 0.049 -0.101279
v 8.72509E-05 0.049 -0.101287
v 2.84893E-05 0.049 -0.101279
v 2.92242E-05 0.049 -0.101279
v -0.00386625 0.049 -0.102127
v 0.000422836 0.049 -0.101407
v 0.000509224 0.049 -0.101473
v 0.000580986 0.049 -0.101549
v 0.000635978 0.049 -0.101632
v 0.00066451 0.049 -0.10169
v 0.000713502 0.049 -0.101822
v 0.000757659 0.049 -0.101989
v 0.000782449 0.049 -0.102135
v 0.000791631 0.049 -0.102277
v 0.00078489 0.049 -0.102436
v 0.000773431 0.049 -0.102572
v 0.000747949 0.049 -0.102713
v -0.00296277 0.049 -0.101081
v 0.000695786 0.049 -0.102884
v -0.0038505 0.049 -0.101959
v -0.00382139 0.049 -0.10182
v -0.00376749 0.049 -0.101653
v -0.00370892 0.049 -0.101517
v -0.00307374 0.049 -0.101083
v -0.00319235 0.049 -0.101099
v -0.00331329 0.049 -0.101133
v -0.00363837 0.049 -0.10139
v -0.00340588 0.049 -0.101173
v -0.00349522 0.049 -0.101231
v -0.00357419 0.049 -0.101305
v -0.000117276 0.049 -0.103485
v -0.00310985 0.049 -0.103286
v -6.30488E-06 0.049 -0.103481
v 0.000627128 0.049 -0.103048
v 0.000121027 0.049 -0.103462
v -0.0031707 0.049 -0.103277
v 0.000557773 0.049 -0.103173
v 0.000234252 0.049 -0.103431
v 0.000327026 0.049 -0.10339
v 0.000495326 0.049 -0.103257
v 0.000416196 0.049 -0.103331
v -0.00387301 0.049 -0.102286
v -0.00386385 0.049 -0.102428
v -0.00383913 0.049 -0.102573
v -0.00379493 0.049 -0.102741
v -0.00374593 0.049 -0.102873
v -0.00329697 0.049 -0.103249
v -0.00341092 0.049 -0.103206
v -0.00371653 0.049 -0.102933
v -0.0035047 0.049 -0.103156
v -0.00366063 0.049 -0.103017
v -0.00358873 0.049 -0.103093
v -0.00307374 0.049 -0.101083
v -0.00296277 0.049 -0.101081
v -0.00296277 0.047 -0.101081
v -0.00307374 0.047 -0.101083
v -0.00319235 0.049 -0.101099
v -0.00319235 0.047 -0.101099
v -0.00331329 0.049 -0.101133
v -0.00331329 0.047 -0.101133
v -0.00340588 0.049 -0.101173
v -0.00340588 0.047 -0.101173
v -0.00349522 0.049 -0.101231
v -0.00349522 0.047 -0.101231
v -0.00357419 0.049 -0.101305
v -0.00357419 0.047 -0.101305
v -0.00363837 0.049 -0.10139
v -0.00363837 0.047 -0.10139
v -0.00363837 0.047 -0.10139
v -0.00370892 0.049 -0.101517
v -0.00363837 0.049 -0.10139
v -0.00370892 0.047 -0.101517
v -0.00376749 0.049 -0.101653
v -0.00376749 0.047 -0.101653
v -0.00382139 0.049 -0.10182
v -0.00382139 0.047 -0.10182
v -0.0038505 0.049 -0.101959
v -0.0038505 0.047 -0.101959
v -0.00386625 0.049 -0.102127
v -0.00386625 0.047 -0.102127
vn 0.0662328 0 0.997804
vn 0.0662328 0 0.997804
vn 0.0662328 0 0.997804
vn 0.0662328 0 0.997804
vn -0.999996 0 -0.00272895
vn -0.997897 0 0.0648156
vn -0.997897 0 0.0648156
vn -0.999996 0 -0.00272895
vn -0.99264 0 -0.121104
vn -0.99264 0 -0.121104
vn -0.977704 0 -0.209988
vn -0.977704 0 -0.209988
vn -0.953463 0 -0.301509
vn -0.953463 0 -0.301509
vn -0.916809 0 -0.399327
vn -0.916809 0 -0.399327
vn -0.875155 0 -0.483843
vn -0.875155 0 -0.483843
vn -0.784166 0 -0.620551
vn -0.784166 0 -0.620551
vn -0.665247 0 -0.746624
vn -0.665247 0 -0.746624
vn -0.665247 0 -0.746624
vn -0.530778 0 -0.847511
vn -0.665247 0 -0.746624
vn -0.530778 0 -0.847511
vn -0.414977 0 -0.909832
vn -0.414977 0 -0.909832
vn -0.285587 0 -0.958353
vn -0.285587 0 -0.958353
vn -0.157506 0 -0.987518
vn -0.157506 0 -0.987518
vn -0.13977 0 -0.990184
vn -0.13977 0 -0.990184
vn -0.0662489 0 -0.997803
vn -0.0662489 0 -0.997803
vn -0.0662489 0 -0.997803
vn -0.0662489 0 -0.997803
vn 0.0742197 0 -0.997242
vn 0.0168952 0 -0.999857
vn 0.0168952 0 -0.999857
vn 0.0742197 0 -0.997242
vn 0.203527 0 -0.979069
vn 0.203527 0 -0.979069
vn 0.331168 0 -0.943572
vn 0.331168 0 -0.943572
vn 0.478549 0 -0.878061
vn 0.478549 0 -0.878061
vn 0.619291 0 -0.785162
vn 0.619291 0 -0.785162
vn 0.75 0 -0.661438
vn 0.75 0 -0.661438
vn 0.842459 0 -0.53876
vn 0.842459 0 -0.53876
vn 0.900407 0 -0.435049
vn 0.900407 0 -0.435049
vn 0.900407 0 -0.435049
vn 0.940022 0 -0.341113
vn 0.900407 0 -0.435049
vn 0.940022 0 -0.341113
vn 0.971663 0 -0.23637
vn 0.971663 0 -0.23637
vn 0.99312 0 -0.117101
vn 0.99312 0 -0.117101
vn 0.997703 0 -0.0677425
vn 0.997703 0 -0.0677425
vn 0.999996 0 0.00286665
vn 0.997903 0 -0.0647224
vn 0.997903 0 -0.0647224
vn 0.999996 0 0.00286665
vn 0.992655 0 0.120981
vn 0.992655 0 0.120981
vn 0.977631 0 0.210327
vn 0.977631 0 0.210327
vn 0.953473 0 0.301477
vn 0.953473 0 0.301477
vn 0.916478 0 0.400085
vn 0.916478 0 0.400085
vn 0.87726 0 0.480016
vn 0.87726 0 0.480016
vn 0.782855 0 0.622204
vn 0.782855 0 0.622204
vn 0.668492 0 0.743719
vn 0.668492 0 0.743719
vn 0.537456 0 0.843292
vn 0.537456 0 0.843292
vn 0.397485 0 0.917609
vn 0.397485 0 0.917609
vn 0.286224 0 0.958163
vn 0.286224 0 0.958163
vn 0.155993 0 0.987758
vn 0.155993 0 0.987758
vn 0.138664 0 0.99034
vn 0.138664 0 0.99034
vn 0 1 0
vn 0 1 0
vn 0 1 0
vn 0 1 0
vn 0 1 0
vn 0 1 0
vn 0 1 0
vn 0 1 0
vn 0 1 0
vn 0 1 0
vn 0 1 0
vn 0 1 0
vn 0 1 0
vn 0 1 0
vn 0 1 0
vn 0 1 0
vn 0 1 0
vn 0 1 0
vn 0 1 0
vn 0 1 0
vn 0 1 0
vn 0 1 0
vn 0 1 0
vn 0 1 0
vn 0 1 0
vn 0 1 0
vn 0 1 0
vn 0 1 0
vn 0 1 0
vn 0 1 0
vn 0 1 0
vn 0 1 0
vn 0 1 0
vn 0 1 0
vn 0 1 0
vn 0 1 0
vn 0 1 0
vn 0 1 0
vn 0 1 0
vn 0 1 0
vn 0 1 0
vn 0 1 0
vn 0 1 0
vn 0 1 0
vn 0 1 0
vn 0 1 0
vn 0 1 0
vn 0 1 0
vn 0 1 0
vn 0 1 0
vn 0 1 0
vn 0 1 0
vn 0 1 0
vn 0 1 0
vn 0 1 0
vn -0.0626722 0 0.998034
vn 0.00154407 0 0.999999
vn 0.00154407 0 0.999999
vn -0.0626722 0 0.998034
vn -0.203214 0 0.979134
vn -0.203214 0 0.979134
vn -0.330914 0 0.943661
vn -0.330914 0 0.943661
vn -0.473718 0 0.880677
vn -0.473718 0 0.880677
vn -0.615663 0 0.78801
vn -0.615663 0 0.78801
vn -0.745878 0 0.666082
vn -0.745878 0 0.666082
vn -0.841628 0 0.540057
vn -0.841628 0 0.540057
vn -0.841628 0 0.540057
vn -0.899119 0 0.437704
vn -0.841628 0 0.540057
vn -0.899119 0 0.437704
vn -0.934557 0 0.355814
vn -0.934557 0 0.355814
vn -0.966091 0 0.258201
vn -0.966091 0 0.258201
vn -0.989565 0 0.144086
vn -0.989565 0 0.144086
vn -0.997708 0 0.067669
vn -0.997708 0 0.067669


f 1/1/1 3/3/3 2/2/2
f 1/1/1 2/2/2 4/4/4
f 5/5/5 7/7/7 6/6/6
f 8/8/8 7/7/7 5/5/5
f 8/8/8 5/5/5 9/9/9
f 10/10/10 8/8/8 9/9/9
f 10/10/10 9/9/9 11/11/11
f 12/12/12 10/10/10 11/11/11
f 12/12/12 11/11/11 13/13/13
f 14/14/14 12/12/12 13/13/13
f 14/14/14 13/13/13 15/15/15
f 16/16/16 14/14/14 15/15/15
f 16/16/16 15/15/15 17/17/17
f 18/18/18 16/16/16 17/17/17
f 18/18/18 17/17/17 19/19/19
f 20/20/20 18/18/18 19/19/19
f 20/20/20 19/19/19 21/21/21
f 22/22/22 20/20/20 21/21/21
f 23/23/23 25/25/25 24/24/24
f 26/26/26 23/23/23 24/24/24
f 26/26/26 24/24/24 27/27/27
f 28/28/28 26/26/26 27/27/27
f 28/28/28 27/27/27 29/29/29
f 30/30/30 28/28/28 29/29/29
f 30/30/30 29/29/29 31/31/31
f 32/32/32 30/30/30 31/31/31
f 32/32/32 31/31/31 33/33/33
f 34/34/34 32/32/32 33/33/33
f 35/35/35 37/37/37 36/36/36
f 35/35/35 36/36/36 38/38/38
f 39/39/39 41/41/41 40/40/40
f 42/42/42 41/41/41 39/39/39
f 42/42/42 39/39/39 43/43/43
f 44/44/44 42/42/42 43/43/43
f 44/44/44 43/43/43 45/45/45
f 46/46/46 44/44/44 45/45/45
f 46/46/46 45/45/45 47/47/47
f 48/48/48 46/46/46 47/47/47
f 48/48/48 47/47/47 49/49/49
f 50/50/50 48/48/48 49/49/49
f 50/50/50 49/49/49 51/51/51
f 52/52/52 50/50/50 51/51/51
f 52/52/52 51/51/51 53/53/53
f 54/54/54 52/52/52 53/53/53
f 54/54/54 53/53/53 55/55/55
f 56/56/56 54/54/54 55/55/55
f 57/57/57 59/59/59 58/58/58
f 60/60/60 57/57/57 58/58/58
f 60/60/60 58/58/58 61/61/61
f 62/62/62 60/60/60 61/61/61
f 62/62/62 61/61/61 63/63/63
f 64/64/64 62/62/62 63/63/63
f 64/64/64 63/63/63 65/65/65
f 66/66/66 64/64/64 65/65/65
f 67/67/67 69/69/69 68/68/68
f 70/70/70 69/69/69 67/67/67
f 70/70/70 67/67/67 71/71/71
f 72/72/72 70/70/70 71/71/71
f 72/72/72 71/71/71 73/73/73
f 74/74/74 72/72/72 73/73/73
f 74/74/74 73/73/73 75/75/75
f 76/76/76 74/74/74 75/75/75
f 76/76/76 75/75/75 77/77/77
f 78/78/78 76/76/76 77/77/77
f 78/78/78 77/77/77 79/79/79
f 80/80/80 78/78/78 79/79/79
f 80/80/80 79/79/79 81/81/81
f 82/82/82 80/80/80 81/81/81
f 82/82/82 81/81/81 83/83/83
f 84/84/84 82/82/82 83/83/83
f 84/84/84 83/83/83 85/85/85
f 86/86/86 84/84/84 85/85/85
f 86/86/86 85/85/85 87/87/87
f 88/88/88 86/86/86 87/87/87
f 88/88/88 87/87/87 89/89/89
f 90/90/90 88/88/88 89/89/89
f 90/90/90 89/89/89 91/91/91
f 92/92/92 90/90/90 91/91/91
f 92/92/92 91/91/91 93/93/93
f 94/94/94 92/92/92 93/93/93
f 95/95/95 97/97/97 96/96/96
f 98/98/98 97/97/97 95/95/95
f 99/99/99 101/101/101 100/100/100
f 98/98/98 95/95/95 102/102/102
f 102/102/102 95/95/95 103/103/103
f 102/102/102 103/103/103 104/104/104
f 102/102/102 104/104/104 105/105/105
f 102/102/102 105/105/105 106/106/106
f 107/107/107 102/102/102 106/106/106
f 107/107/107 108/108/108 102/102/102
f 102/102/102 108/108/108 109/109/109
f 102/102/102 109/109/109 110/110/110
f 102/102/102 110/110/110 111/111/111
f 112/112/112 102/102/102 111/111/111
f 102/102/102 112/112/112 113/113/113
f 102/102/102 113/113/113 114/114/114
f 115/115/115 98/98/98 102/102/102
f 116/116/116 102/102/102 114/114/114
f 115/115/115 102/102/102 117/117/117
f 118/118/118 115/115/115 117/117/117
f 115/115/115 118/118/118 119/119/119
f 115/115/115 119/119/119 120/120/120
f 121/121/121 115/115/115 120/120/120
f 121/121/121 120/120/120 122/122/122
f 120/120/120 123/123/123 122/122/122
f 120/120/120 124/124/124 123/123/123
f 124/124/124 125/125/125 123/123/123
f 124/124/124 126/126/126 125/125/125
f 126/126/126 124/124/124 127/127/127
f 128/128/128 102/102/102 116/116/116
f 128/128/128 129/129/129 102/102/102
f 130/130/130 128/128/128 116/116/116
f 130/130/130 116/116/116 131/131/131
f 132/132/132 130/130/130 131/131/131
f 129/129/129 133/133/133 102/102/102
f 132/132/132 131/131/131 134/134/134
f 135/135/135 132/132/132 134/134/134
f 136/136/136 135/135/135 134/134/134
f 136/136/136 134/134/134 137/137/137
f 138/138/138 136/136/136 137/137/137
f 133/133/133 139/139/139 102/102/102
f 133/133/133 140/140/140 139/139/139
f 140/140/140 133/133/133 141/141/141
f 133/133/133 142/142/142 141/141/141
f 133/133/133 143/143/143 142/142/142
f 143/143/143 133/133/133 144/144/144
f 143/143/143 144/144/144 145/145/145
f 146/146/146 143/143/143 145/145/145
f 146/146/146 145/145/145 147/147/147
f 148/148/148 146/146/146 147/147/147
f 148/148/148 147/147/147 149/149/149
f 150/150/150 152/152/152 151/151/151
f 153/153/153 152/152/152 150/150/150
f 153/153/153 150/150/150 154/154/154
f 155/155/155 153/153/153 154/154/154
f 155/155/155 154/154/154 156/156/156
f 157/157/157 155/155/155 156/156/156
f 157/157/157 156/156/156 158/158/158
f 159/159/159 157/157/157 158/158/158
f 159/159/159 158/158/158 160/160/160
f 161/161/161 159/159/159 160/160/160
f 161/161/161 160/160/160 162/162/162
f 163/163/163 161/161/161 162/162/162
f 163/163/163 162/162/162 164/164/164
f 165/165/165 163/163/163 164/164/164
f 166/166/166 168/168/168 167/167/167
f 169/169/169 166/166/166 167/167/167
f 169/169/169 167/167/167 170/170/170
f 171/171/171 169/169/169 170/170/170
f 171/171/171 170/170/170 172/172/172
f 173/173/173 171/171/171 172/172/172
f 173/173/173 172/172/172 174/174/174
f 175/175/175 173/173/173 174/174/174
f 175/175/175 174/174/174 176/176/176
f 177/177/177 175/175/175 176/176/176
