v 0.000300654 -0.0507 -0.0962442
v 0.00015139 -0.0507 -0.096271
v 0 -0.049961 -0.095
v 0 -0.049961 -0.095
v 0.000445698 -0.0507 -0.0961999
v 0 -0.049961 -0.095
v 0 -0.0507 -0.09628
v 0 -0.049961 -0.095
v 0.000584485 -0.0507 -0.0961388
v 0 -0.049961 -0.095
v -0.00015139 -0.0507 -0.096271
v 0.000715068 -0.0507 -0.0960616
v 0 -0.049961 -0.095
v -0.000300654 -0.0507 -0.0962442
v 0 -0.049961 -0.095
v 0 -0.049961 -0.095
v 0.000835612 -0.0507 -0.0959696
v 0 -0.049961 -0.095
v -0.000445698 -0.0507 -0.0961999
v 0 -0.049961 -0.095
v 0.000944427 -0.0507 -0.095864
v 0 -0.049961 -0.095
v -0.000584485 -0.0507 -0.0961388
v 0.00103998 -0.0507 -0.0957462
v 0 -0.049961 -0.095
v -0.000715068 -0.0507 -0.0960616
v 0 -0.049961 -0.095
v 0 -0.049961 -0.095
v 0.00110851 -0.0507 -0.09564
v 0 -0.049961 -0.095
v -0.000835612 -0.0507 -0.0959696
v 0 -0.049961 -0.095
v 0.00112094 -0.0507 -0.095618
v 0 -0.049961 -0.095
v -0.000944427 -0.0507 -0.095864
v 0 -0.049961 -0.095
v 0.00118616 -0.0507 -0.0954811
v -0.00103998 -0.0507 -0.0957462
v 0 -0.049961 -0.095
v 0.00123473 -0.0507 -0.0953374
v 0 -0.049961 -0.095
v 0 -0.049961 -0.095
v -0.00110851 -0.0507 -0.09564
v 0 -0.049961 -0.095
v 0.00126597 -0.0507 -0.095189
v 0 -0.049961 -0.095
v -0.00112094 -0.0507 -0.095618
v 0 -0.049961 -0.095
v 0.00127944 -0.0507 -0.0950379
v -0.00118616 -0.0507 -0.0954811
v 0 -0.049961 -0.095
v 0.00127494 -0.0507 -0.0948863
v 0 -0.049961 -0.095
v 0 -0.049961 -0.095
v -0.00123473 -0.0507 -0.0953374
v 0 -0.049961 -0.095
v 0.00125255 -0.0507 -0.0947363
v 0 -0.049961 -0.095
v -0.00126597 -0.0507 -0.095189
v 0 -0.049961 -0.095
v 0.00121258 -0.0507 -0.0945901
v -0.00127944 -0.0507 -0.0950379
v 0 -0.049961 -0.095
v 0.00115558 -0.0507 -0.0944495
v 0 -0.049961 -0.095
v 0 -0.049961 -0.095
v -0.00127494 -0.0507 -0.0948863
v 0 -0.049961 -0.095
v 0.00110851 -0.0507 -0.09436
v 0 -0.049961 -0.095
v -0.00125255 -0.0507 -0.0947363
v 0 -0.049961 -0.095
v 0.00108236 -0.0507 -0.0943167
v -0.00121258 -0.0507 -0.0945901
v 0 -0.049961 -0.095
v 0 -0.049961 -0.095
v 0.000993951 -0.0507 -0.0941935
v 0 -0.049961 -0.095
v -0.00115558 -0.0507 -0.0944495
v 0.000891585 -0.0507 -0.0940816
v 0 -0.049961 -0.095
v 0 -0.049961 -0.095
v -0.00110851 -0.0507 -0.09436
v 0 -0.049961 -0.095
v 0.000776704 -0.0507 -0.0939826
v 0 -0.049961 -0.095
v -0.00108236 -0.0507 -0.0943167
v 0 -0.049961 -0.095
v 0.00065092 -0.0507 -0.0938979
v -0.000993951 -0.0507 -0.0941935
v 0 -0.049961 -0.095
v 0.000515998 -0.0507 -0.0938286
v 0 -0.049961 -0.095
v 0 -0.049961 -0.095
v -0.000891585 -0.0507 -0.0940816
v 0 -0.049961 -0.095
v 0.000373833 -0.0507 -0.0937758
v 0 -0.049961 -0.095
v -0.000776704 -0.0507 -0.0939826
v 0 -0.049961 -0.095
v 0.00022642 -0.0507 -0.0937402
v -0.00065092 -0.0507 -0.0938979
v 0 -0.049961 -0.095
v 7.5828E-05 -0.0507 -0.0937222
v 0 -0.049961 -0.095
v 0 -0.049961 -0.095
v -0.000515998 -0.0507 -0.0938286
v 0 -0.049961 -0.095
v 0 -0.0507 -0.09372
v 0 -0.049961 -0.095
v -0.000373833 -0.0507 -0.0937758
v 0 -0.049961 -0.095
v -7.5828E-05 -0.0507 -0.0937222
v -0.00022642 -0.0507 -0.0937402
v 0 -0.049961 -0.095
v 0 -0.049961 -0.095
vn -0.117443 -0.866025 0.486011
vn -0.0591366 -0.866025 0.496491
vn -0.117443 -0.866025 0.486011
vn -0.174101 -0.866025 0.46871
vn -0.174101 -0.866025 0.46871
vn -0.0591366 -0.866025 0.496491
vn 0 -0.866025 0.5
vn -0.228315 -0.866025 0.444829
vn -0.228315 -0.866025 0.444829
vn 0 -0.866025 0.5
vn 0.0591366 -0.866025 0.496491
vn -0.279323 -0.866025 0.414703
vn -0.279323 -0.866025 0.414703
vn 0.117443 -0.866025 0.486011
vn 0.0591366 -0.866025 0.496491
vn -0.326411 -0.866025 0.378756
vn -0.326411 -0.866025 0.378756
vn 0.117443 -0.866025 0.486011
vn 0.174101 -0.866025 0.46871
vn -0.368917 -0.866025 0.337492
vn -0.368917 -0.866025 0.337492
vn 0.174101 -0.866025 0.46871
vn 0.228315 -0.866025 0.444829
vn -0.406243 -0.866025 0.29149
vn -0.406243 -0.866025 0.29149
vn 0.279323 -0.866025 0.414703
vn 0.228315 -0.866025 0.444829
vn -0.433013 -0.866025 0.25
vn -0.433013 -0.866025 0.25
vn 0.279323 -0.866025 0.414703
vn 0.326411 -0.866025 0.378756
vn -0.437867 -0.866025 0.241396
vn -0.437867 -0.866025 0.241396
vn 0.326411 -0.866025 0.378756
vn 0.368917 -0.866025 0.337492
vn -0.463345 -0.866025 0.187914
vn -0.463345 -0.866025 0.187914
vn 0.406243 -0.866025 0.29149
vn 0.368917 -0.866025 0.337492
vn -0.482318 -0.866025 0.131794
vn -0.482318 -0.866025 0.131794
vn 0.406243 -0.866025 0.29149
vn 0.433013 -0.866025 0.25
vn -0.49452 -0.866025 0.0738233
vn -0.49452 -0.866025 0.0738233
vn 0.433013 -0.866025 0.25
vn 0.437867 -0.866025 0.241396
vn -0.49978 -0.866025 0.0148167
vn -0.49978 -0.866025 0.0148167
vn 0.463345 -0.866025 0.187914
vn 0.437867 -0.866025 0.241396
vn -0.498025 -0.866025 -0.0443979
vn -0.498025 -0.866025 -0.0443979
vn 0.463345 -0.866025 0.187914
vn 0.482318 -0.866025 0.131794
vn -0.489278 -0.866025 -0.102989
vn -0.489278 -0.866025 -0.102989
vn 0.482318 -0.866025 0.131794
vn 0.49452 -0.866025 0.0738233
vn -0.473663 -0.866025 -0.160135
vn -0.473663 -0.866025 -0.160135
vn 0.49978 -0.866025 0.0148167
vn 0.49452 -0.866025 0.0738233
vn -0.451399 -0.866025 -0.215033
vn -0.451399 -0.866025 -0.215033
vn 0.49978 -0.866025 0.0148167
vn 0.498025 -0.866025 -0.0443979
vn -0.433013 -0.866025 -0.25
vn -0.433013 -0.866025 -0.25
vn 0.498025 -0.866025 -0.0443979
vn 0.489278 -0.866025 -0.102989
vn -0.422798 -0.866025 -0.266912
vn -0.422798 -0.866025 -0.266912
vn 0.473663 -0.866025 -0.160135
vn 0.489278 -0.866025 -0.102989
vn -0.388262 -0.866025 -0.315044
vn -0.388262 -0.866025 -0.315044
vn 0.473663 -0.866025 -0.160135
vn 0.451399 -0.866025 -0.215033
vn -0.348276 -0.866025 -0.358754
vn -0.348276 -0.866025 -0.358754
vn 0.451399 -0.866025 -0.215033
vn 0.433013 -0.866025 -0.25
vn -0.3034 -0.866025 -0.397427
vn -0.3034 -0.866025 -0.397427
vn 0.433013 -0.866025 -0.25
vn 0.422798 -0.866025 -0.266912
vn -0.254266 -0.866025 -0.430522
vn -0.254266 -0.866025 -0.430522
vn 0.388262 -0.866025 -0.315044
vn 0.422798 -0.866025 -0.266912
vn -0.201562 -0.866025 -0.457573
vn -0.201562 -0.866025 -0.457573
vn 0.388262 -0.866025 -0.315044
vn 0.348276 -0.866025 -0.358754
vn -0.146028 -0.866025 -0.4782
vn -0.146028 -0.866025 -0.4782
vn 0.348276 -0.866025 -0.358754
vn 0.3034 -0.866025 -0.397427
vn -0.0884451 -0.866025 -0.492115
vn -0.0884451 -0.866025 -0.492115
vn 0.254266 -0.866025 -0.430522
vn 0.3034 -0.866025 -0.397427
vn -0.0296203 -0.866025 -0.499122
vn -0.0296203 -0.866025 -0.499122
vn 0.254266 -0.866025 -0.430522
vn 0.201562 -0.866025 -0.457573
vn 0 -0.866025 -0.5
vn 0 -0.866025 -0.5
vn 0.201562 -0.866025 -0.457573
vn 0.146028 -0.866025 -0.4782
vn 0.0296203 -0.866025 -0.499122
vn 0.0296203 -0.866025 -0.499122
vn 0.0884451 -0.866025 -0.492115
vn 0.146028 -0.866025 -0.4782
vn 0.0884451 -0.866025 -0.492115


f 1/1/1 3/3/3 2/2/2
f 4/4/4 1/1/1 5/5/5
f 6/6/6 7/7/7 2/2/2
f 8/8/8 5/5/5 9/9/9
f 10/10/10 11/11/11 7/7/7
f 12/12/12 13/13/13 9/9/9
f 11/11/11 15/15/15 14/14/14
f 16/16/16 12/12/12 17/17/17
f 18/18/18 19/19/19 14/14/14
f 20/20/20 17/17/17 21/21/21
f 22/22/22 23/23/23 19/19/19
f 24/24/24 25/25/25 21/21/21
f 23/23/23 27/27/27 26/26/26
f 28/28/28 24/24/24 29/29/29
f 30/30/30 31/31/31 26/26/26
f 32/32/32 29/29/29 33/33/33
f 34/34/34 35/35/35 31/31/31
f 36/36/36 33/33/33 37/37/37
f 35/35/35 39/39/39 38/38/38
f 40/40/40 41/41/41 37/37/37
f 42/42/42 43/43/43 38/38/38
f 44/44/44 40/40/40 45/45/45
f 46/46/46 47/47/47 43/43/43
f 48/48/48 45/45/45 49/49/49
f 47/47/47 51/51/51 50/50/50
f 52/52/52 53/53/53 49/49/49
f 54/54/54 55/55/55 50/50/50
f 56/56/56 52/52/52 57/57/57
f 58/58/58 59/59/59 55/55/55
f 60/60/60 57/57/57 61/61/61
f 59/59/59 63/63/63 62/62/62
f 64/64/64 65/65/65 61/61/61
f 66/66/66 67/67/67 62/62/62
f 68/68/68 64/64/64 69/69/69
f 70/70/70 71/71/71 67/67/67
f 72/72/72 69/69/69 73/73/73
f 71/71/71 75/75/75 74/74/74
f 76/76/76 73/73/73 77/77/77
f 78/78/78 79/79/79 74/74/74
f 80/80/80 81/81/81 77/77/77
f 82/82/82 83/83/83 79/79/79
f 84/84/84 80/80/80 85/85/85
f 86/86/86 87/87/87 83/83/83
f 88/88/88 85/85/85 89/89/89
f 87/87/87 91/91/91 90/90/90
f 92/92/92 93/93/93 89/89/89
f 94/94/94 95/95/95 90/90/90
f 96/96/96 92/92/92 97/97/97
f 98/98/98 99/99/99 95/95/95
f 100/100/100 97/97/97 101/101/101
f 99/99/99 103/103/103 102/102/102
f 104/104/104 105/105/105 101/101/101
f 106/106/106 107/107/107 102/102/102
f 108/108/108 104/104/104 109/109/109
f 110/110/110 111/111/111 107/107/107
f 112/112/112 109/109/109 113/113/113
f 111/111/111 115/115/115 114/114/114
f 116/116/116 113/113/113 114/114/114
